<svg width="32" height="32" viewBox="0 0 32 32" fill="none" xmlns="http://www.w3.org/2000/svg">
<rect width="32" height="32" fill="white"/>
<path d="M32 0H0V32H32V0Z" fill="#1EB37B"/>
<path d="M24.2522 25.6699H18.8948C18.07 25.6694 17.2791 25.3306 16.696 24.7282C16.1129 24.1257 15.7854 23.3088 15.7854 22.4571V17.5609L17.708 16.7792C18.5315 16.4862 19.2456 15.9344 19.7501 15.2012C20.2546 14.468 20.5243 13.5902 20.5212 12.6908V11.7091C20.521 11.5895 20.4929 11.4716 20.4393 11.3655C20.3857 11.2594 20.3081 11.1682 20.2132 11.0996C20.1182 11.031 20.0087 10.987 19.8938 10.9713C19.779 10.9556 19.6621 10.9686 19.5531 11.0094L16.7322 12.069C15.2936 12.6108 14.3642 14.0682 14.3642 15.7516L14.341 17.0411V22.4391C14.3415 23.2923 14.0142 24.1108 13.4308 24.715C12.8475 25.3192 12.0558 25.6598 11.2296 25.6619H7.71545C7.53063 25.6718 7.35654 25.7546 7.22911 25.8931C7.10168 26.0317 7.03064 26.2155 7.03064 26.4066C7.03064 26.5977 7.10168 26.7815 7.22911 26.9201C7.35654 27.0587 7.53063 27.1414 7.71545 27.1513H11.2547C12.013 27.1459 12.7579 26.9448 13.4217 26.5663C14.0855 26.1878 14.6471 25.6439 15.0554 24.9841C15.4665 25.6476 16.0325 26.1938 16.7013 26.5725C17.3702 26.9511 18.1204 27.1502 18.8832 27.1513H24.2464C24.3443 27.1566 24.4421 27.1412 24.534 27.1061C24.6259 27.0711 24.71 27.0171 24.7811 26.9474C24.8521 26.8777 24.9087 26.7939 24.9474 26.7009C24.986 26.6079 25.006 26.5078 25.006 26.4066C25.006 26.3054 24.986 26.2053 24.9474 26.1123C24.9087 26.0194 24.8521 25.9355 24.7811 25.8658C24.71 25.7962 24.6259 25.7422 24.534 25.7071C24.4421 25.672 24.3443 25.6567 24.2464 25.6619L24.2522 25.6699ZM15.8067 15.7656C15.8067 14.694 16.3643 13.7923 17.2259 13.4685L19.0768 12.7727C19.0635 13.349 18.8793 13.9073 18.5489 14.372C18.2186 14.8368 17.7582 15.1857 17.2297 15.3717L17.2026 15.3857L15.8105 15.9515L15.8067 15.7656Z" fill="white"/>
<path d="M15.9867 4C13.6041 4.00318 11.3201 4.98203 9.63554 6.72183C7.951 8.46164 7.00353 10.8203 7.00097 13.2805V22.691C6.9959 22.792 7.01079 22.8931 7.04475 22.988C7.0787 23.0829 7.131 23.1697 7.19847 23.2431C7.26594 23.3164 7.34717 23.3749 7.43721 23.4148C7.52724 23.4547 7.6242 23.4753 7.72219 23.4753C7.82018 23.4753 7.91714 23.4547 8.00717 23.4148C8.09721 23.3749 8.17843 23.3164 8.2459 23.2431C8.31337 23.1697 8.36568 23.0829 8.39963 22.988C8.43359 22.8931 8.44848 22.792 8.44341 22.691V13.2805C8.40027 12.2297 8.56345 11.1808 8.92313 10.1968C9.28282 9.21286 9.83157 8.3142 10.5364 7.55493C11.2412 6.79566 12.0874 6.19146 13.0243 5.77872C13.9611 5.36597 14.9691 5.15319 15.9877 5.15319C17.0062 5.15319 18.0142 5.36597 18.951 5.77872C19.8879 6.19146 20.7342 6.79566 21.439 7.55493C22.1438 8.3142 22.6925 9.21286 23.0522 10.1968C23.4119 11.1808 23.5751 12.2297 23.5319 13.2805V22.691C23.5268 22.792 23.5417 22.8931 23.5757 22.988C23.6097 23.0829 23.662 23.1697 23.7294 23.2431C23.7969 23.3164 23.8781 23.3749 23.9682 23.4148C24.0582 23.4547 24.1552 23.4753 24.2531 23.4753C24.3511 23.4753 24.4481 23.4547 24.5381 23.4148C24.6282 23.3749 24.7094 23.3164 24.7769 23.2431C24.8443 23.1697 24.8966 23.0829 24.9306 22.988C24.9645 22.8931 24.9794 22.792 24.9744 22.691V13.2805C24.9718 10.82 24.0241 8.46098 22.3391 6.72112C20.6541 4.98126 18.3696 4.00265 15.9867 4V4Z" fill="white"/>
</svg>
