<?xml version="1.0" encoding="utf-8"?>
<!-- Generator: Adobe Illustrator 22.0.1, SVG Export Plug-In . SVG Version: 6.00 Build 0)  -->
<svg version="1.1" id="Capa_1" xmlns="http://www.w3.org/2000/svg" xmlns:xlink="http://www.w3.org/1999/xlink" x="0px" y="0px"
	 viewBox="0 0 323.8 328" style="enable-background:new 0 0 323.8 328;" xml:space="preserve">
<style type="text/css">
	.st0{opacity:0.5;}
	.st1{fill:#E3E1CB;}
</style>
<g class="st0">
	<path class="st1" d="M221.5,89.6c0.4,1.1-0.4,2-0.5,3c1.5-0.3,1.6-1.7,1.8-2.7c0.4-1.7,1.1-3.1,2.6-4c0.5-0.3,0.7-0.8,1-1.3
		c0.9-1.5,1.4-3.4,2.9-4.5c0.3-0.2,0.2-0.5,0.2-0.8c-0.2-0.8-0.4-1.6-0.6-2.5c-0.6,0.9-0.1,2.1-1,2.8c0-1.3,0-2.6-0.3-3.9
		c-0.2-1.2,0.4-2.4,1.3-3.3c0.9-0.9,1.5-0.6,1.8,0.7c1-1.5,1.9-3.1,4-4.1c-0.8,1.5-1.3,2.8-2.1,4c1-0.7,1.9-1.4,2.9-2.1
		c0.3-0.2,0.7-0.4,1-0.6c0.4-0.1,0.8-0.5,1.1-0.1c0.4,0.4,0.2,0.8-0.1,1.2c-1,1.4-1.9,3-3.5,3.9c-0.6,0.4-1.2,0.8-1.9,1.2
		c-1.4,0.9-1.4,0.9-1,2.7c0.5-0.5,0.8-1.1,1.4-1.4c0.5-0.4,1.2-0.5,1.8,0c0.5,0.4,0.3,0.9,0.1,1.5c-0.5,1.3-1.4,2.3-2.7,3
		c-0.2,0-0.4,0.1-0.6,0.1c-1,0.4-2.2,0.6-2.4,2c0.5-1,1.8-0.8,2.4-1.7c0.2,0.1,0.4,0,0.6-0.1c2.1-0.2,3.3-2.3,5.3-2.8
		c-1.4,1.5-3.1,2.8-3.8,4.8c-2.3,1-3.7,2.6-3.7,4.7c1.3-0.4,2.6-1,3.9-1.1c1.2-0.1,1.8-0.7,2.4-1.6c0.6-0.7,1.3-1.1,2.3-1.2
		c-0.1,0.7-0.8,0.8-1.1,1.2c-0.3,0.4-0.9,1-0.5,1.2c0.6,0.4,1.1,1.2,2,1c0.2-0.1,0.6-0.2,0.4-0.5c-1.4-1.3,0.1-2.5,0-3.8
		c-3.5,0.9-3.6,0.9-5.8,2.9c-0.5,0.4-0.8,0.5-1.2,0.2c-0.4-0.3-0.6-0.8-0.1-1.3c0.5-0.5,1-1.2,1.4-1.9c1.4-1,2.7-2.2,4.5-2.7
		c0.3-0.1,0.7-0.3,0.8-0.2c1.7,1.4,2.9-0.4,4.3-0.7c0.2-0.1,0.4-0.2,0.7-0.2c0.5-0.1,1.1-0.4,1.4,0.3c0.3,0.7-0.3,1.1-0.8,1.2
		c-1.5,0.7-1.9,2.1-2.3,3.4c-0.2,0.6-0.3,1.1-1,1.2c-0.9,0.1-0.5,0.9-0.5,1.3c-0.1,0.9,0.5,0.2,0.8,0.2c1.3,0,2.1-0.9,2.4-2.1
		c0.2-1.3,0.7-2.5,2-3.3c1.8-1.1,3.5-2.2,5.6-2.4c0.6,0,1,0.1,1.3,0.7c0.4,0.8-0.2,1-0.6,1.3c-1.6,1.2-3.6,1.8-5.4,2.9
		c0.8,0.4,1.4,0,1.9-0.3c1.3-0.7,2.7-1.3,4.2-1.1c0.7,0.1,1.7-0.4,1.8,0.8c0.1,1.2-0.6,1.8-1.7,2c-1.4,0.3-2.8,0.6-4.2,0.4
		c-0.6-0.1-0.9,0-1,0.8c-0.2,2.1-0.9,2.7-3.1,2.9c-0.5,0-1,0-1.3,0.5c-3.2,0-6.4-1.1-9.6-0.7c0.2-0.8,0.9-0.6,1.4-0.7
		c0.7-0.1,1.2-0.4,1.6-0.8c-1.3,0.1-2.5,0.2-3.5,0.9c-1,0.4-1.6,1.3-2.8,2c3.5-0.8,5.2-0.5,6.5,1.4c-1-0.3-1.9-0.1-2.8,0.4
		c0.4,0.2,0.8,0.3,1.1,0.6c1.1,1.1,2,0.8,3.1-0.1c1.1-0.8,2.4-1.1,3.9-1.1c-0.1,0.5-0.4,0.6-0.7,0.7c-1.4,0.4-2.5,1.3-3.5,2.3
		c-0.3,0.3-0.5,0.7-0.2,1.1c0.3,0.4,0.6-0.1,0.8-0.2c2-0.9,4.1-1.7,6.3-2.1c0.6-0.1,0.9-0.4,1.3-0.9c-1.8-0.8-3.6-1.4-5.4-1.8
		c1,0,1.9-0.2,2.5-1c2.5,0.9,4.7,0.1,6.9-1.1c0.8-0.4,1.5-0.8,2.5-0.5c0.5,0.1,1-0.9,1.9-0.6c1.1,0.3,2.3,0.1,3.3-0.4
		c1-0.4,2-0.9,3-1.3c0.2-0.1,0.4-0.6,0.8-0.2c0.3,0.4,0.2,0.7,0,1.1c-0.3,0.6-0.7,1.2-1,2c1.9-0.8,3.6-1.7,5.2-2.8
		c0.5-0.4,1-0.9,1.5-0.3c0.3,0.4,0.1,1-0.4,1.6c-1.4,1.8-3.6,1.9-5.4,2.9c-0.4,0.2-0.9,0.3-1.3,0.7c2.4,0,4.7-0.5,6.8-1.9
		c0.2-0.1,0.4-0.3,0.6-0.4c0.4-0.3,0.9-1,1.3-0.6c0.5,0.5-0.1,1.2-0.5,1.6c-0.7,0.6-1.5,1.2-2.3,1.5c-2.1,0.7-4.3,1.7-6.7,1.4
		c1.5,2.9,3.7,1.6,5.8,0.9c0,0.1,0,0.3,0,0.4c-1,0.5-2,1.1-3.3,1.8c2.4,0.4,4.4,0.8,6.4,0.9c1.5,0.1,3-0.1,4.4,0.8
		c0.3,0.2,0.8,0.4,0.7,0.9c-0.1,0.5-0.5,0.7-0.9,0.8c-1,0.1-1.9,0.3-2.9,0.1c-0.6-0.1-1.3-0.3-2,0.1c2,0,3.3,1.8,5.2,1.9
		c1.3,0.1,2.5-0.2,3.7-0.8c0,0.1,0.1,0.2,0.1,0.3c-0.3,0.5-0.3,0.5-0.2,0.5c0.4-0.1,1-0.3,1.1,0.3c0.1,0.4-0.6,0.7-0.9,0.8
		c-2.2,0.5-4.5,0.8-6.6-0.5c-0.9-0.5-2-0.9-2.8-1.8c-0.3,1.2-0.6,2.4-0.9,3.5c-0.1,0.3,0.3,1-0.5,0.8c-0.5-0.1-0.6-0.6-0.5-1.1
		c0.2-1.2,0.3-2.3,0.6-3.5c0.2-0.9-0.6-2-1.4-1.9c-0.6,0.1-0.8,0.6-0.6,1.1c0.1,0.5,0.4,0.9,0.5,1.4c-0.7-0.7-2-0.6-2.3-1.9
		c-0.2-1.2-1.1-1.2-2-0.6c-0.4,0.3-0.8,0.5-1.2,0.2c-0.5-0.4-0.2-0.9,0-1.3c0.2-0.5,1-1.2,0.6-1.6c-0.6-0.7-1.5-1.1-2.4-1.5
		c-0.6-0.2-0.4,0.4-0.4,0.8c0.1,1,1.1,1.8,0.8,3.1c-1-0.7-0.9-3.1-3.1-2.1c1.6,1.2,0.3,2.7,0.6,4.1l0,0c-0.3,0.5-0.4,0.8,0.2,1.2
		c0.4,0.3,1.1,1,0.5,1.5c-0.7,0.6-1.4,0.2-1.9-0.5c-1.6-2.2-2.5-4.6-1.2-7.4c0.2-0.5,0.4-0.9,0.4-1.4c0.1,0,0.2-0.1,0.3-0.1
		c0.6,1.6,0.7-0.4,1.1-0.1c-0.9-0.4-1.5-1.3-2.3-1.8c0.8,0.3,1.7,0.5,2.7,0.6c-0.3-0.5-0.6-1-0.8-1.4c-0.2-0.3,0.4-0.9-0.4-0.8
		c-0.5,0.1-1.2-0.3-1.5,0.3c-0.4,1-1.2,1.6-2.1,2.4c1.3,0.1,2.1,0.7,1.6,1.9c-0.8,1.8-0.5,4-2.2,5.4c-0.6,0.5-0.1,0.8,0.2,1.2
		c0.5,0.6,0.8,1.3,0.3,2c-0.3,0.4-0.9,0.6-1.2,0.5c-0.6-0.5-1.4-0.9-1.5-1.7c-0.1-0.8-0.8-1-1-1.7c0.2,1.4,1.1,2.5,0.9,4
		c-0.2,1.2-0.9,1.7-1.8,1.9c-1,0.2-1.2-0.8-1.4-1.6c-0.3-1.3,0.2-2.8-0.7-4c-0.6,0.8-0.2,1.7-0.6,2.6c-0.3,0.6-0.5,1.2-1,1.7
		c-0.7,0.6-1.3,1.1-2.2,0.5c-1-0.6-0.5-1.4-0.3-2.1c0.3-1,0.8-2,1.2-3c0.3-0.6,0.4-1.1-0.4-1.5c-0.7-0.4-0.8,0-1.2,0.5
		c-1.2,1.5-3.1,1.7-4.8,2.2c-1.1,0.4-2.4-0.6-3.4,0.6c1.8,0.2,3.4,0.6,4.9,1.5c0.4,0.2,1,0.3,0.9,0.9c-0.1,0.6-0.4,1-0.9,1.3
		c-1.6,0.7-3.2,0.4-4.7-0.5c-0.8-0.4-1.6-0.9-2.4-1.3c-0.3-0.2-0.7-0.2-0.9,0.1c-0.3,0.4,0.2,0.4,0.4,0.6c0.5,0.8,1,1.6,1.6,2.4
		c0.6-1,1.3-1.6,1.9,0c0.2,0.5,0.7,0.3,1.1,0.3c1.7,0.2,3.4-0.2,5.2-0.4c0.6-0.1,1.4-0.3,1.6,0.3c0.3,0.7-0.5,1.1-1.1,1.4
		c-0.3,0.1-0.6,0.1-0.7,0.5c1.2,0.8,2.5,0.5,3.8,0.3c0.8-0.1,1.6-0.2,1.8,0.8c0.2,1.1-0.7,0.9-1.3,1.1c-1.8,0.7-3.8,0.8-5.7,1
		c-0.8,0.1-1.5-0.2-2.3-0.8c1.2-0.1,2.3-0.1,3.7-0.2c-1-0.9-3.1-1-1.2-2.7c-1.1,0.2-2.1,0.3-3.1,0.5c0.2,0.5,0.9,1.1,0.3,1.6
		c-0.8,0.8-2,0.8-3,0.5c-2.5-0.8-4.3-2.3-4.5-5.1c-0.1-0.9-0.3-1.7-0.6-2.6c0.5,0.1,0.9,0.3,1.1,0.8c1-1.3,0.9-1.7-0.7-2
		c0-0.1,0-0.2,0-0.3c0.4-0.2,0.9-0.5,1.4-0.3c1.5,0.4,2.2-0.3,2.6-1.7c-1.4,0.2-2.8,0.4-4.1,0.7c-0.4,0.1-1.1,0.8-0.3,1.4
		c0.1,0.1,0.1,0.2,0.2,0.2c-2.1,0.7-5.3-0.6-5.9-2.6c0.5,0.4,0.9,0.7,1.3,1.1c0,0.2,0.1,0.4,0.3,0.4c0-0.1,0.1-0.2,0.1-0.2
		c-0.1-0.2-0.2-0.3-0.4-0.1c0-2.1,1.2-3.5,2.9-4.7c-0.8-0.2-1.6,0-1.8-1c-0.2-0.9,0.3-1.2,0.8-1.6c0.5,0.3,1,0.5,1.6,0.9
		c-0.3-0.9-0.1-1.5,0.4-1.9c0.4-0.4,1.2-0.5,1.5-1.1c0.2,0,0.4-0.1,0.6-0.1c0.3-0.1,0.7,0,0.6-0.4c-0.1-0.3-0.4,0-0.7,0.1
		c-0.2,0-0.4,0.1-0.6,0.1c-1.7,0.1-2.6,1.4-3.5,2.5c-1.6-0.1-2.6,1-3.9,1.7c-0.4,0.2-0.2,0.5,0.1,0.7c1.3,1,0.3,1.4-0.5,1.7
		c-0.8,0.3-1.6,0.3-2.2,1.1c-0.3,0.4-0.6,0.8-1.2,0.4c-0.5-0.4-0.4-0.9-0.1-1.3c0.1-0.2,0.2-0.3,0.2-0.5c-4.6,0.6-5.1,0.5-8.4,3.3
		c1.2,0.7,2.5,0.8,3.8,1.1c0.5,0.1,1,0.2,1.1,0.9c0.1,0.7-0.5,0.8-1,0.9c-0.4,0.1-0.8,0.3-1.3,0.3c-2.5-0.2-5.1-0.1-7.4-1.5
		c-0.9-0.6-1.8-0.4-2.8,0c-2.1,0.9-3.5,2.7-5.1,4.2c-0.5,0.5-1.7,1.4-0.2,2.4c0.4,0.2-0.4,0.7,0.1,1.1c0.8-1.5,2-2.6,3.6-3.2
		c1.6-0.6,3-1.5,2.2-4.1c1,0.9,0.4,1.9,1.1,2.4c0.6-0.2,0.4-0.7,0.5-1.1c0.1-0.4,0.3-0.8,0.8-0.8c0.6,0,0.8,0.4,0.8,0.8
		c0,1.2,0.5,1.9,1.6,2.4c0.4,0.2,0.7,0.8,0.5,1.2c-0.1,0.3-0.6,0.6-1,0.8c-0.2,0.1-0.7,0.1-0.8,0c-2.6-2.2-4.4,0.8-6.7,0.8
		c2.2,1.2,4.5,1.3,6.9,1.2c1.1,0,2.1-0.6,3.2-0.7c0.6,0,1.2-0.2,1.5,0.4c0.3,0.6,0,1.2-0.5,1.6c-1.3,1.4-3,1.8-4.9,1.8
		c0.2,0.4,0.5,0.4,0.8,0.4c2.4,0.1,4.5,1.6,7,1.5c0.3,0,0.9,0.2,0.9,0.6c0.1,0.4-0.4,0.6-0.7,0.8c-0.8,0.5-1.7,0.4-2.6,0.5
		c-0.3,0-0.8-0.3-0.7,0.3c0,0.5,0.3,0.7,0.8,0.7c0.9-0.2,1.6,0.4,2.4,0.7c0.7,0.3,0.9,1,0.5,1.5c-0.3,0.4-0.8,1-1.6,0.7
		c-0.8-0.3-1.6-0.6-2.3-0.9c-0.9-0.4-1.5-0.8-0.1-1.6c-1.2-0.4-2.2,0-3.2,0.2c-0.4,0.1-0.8,0.7-1.1-0.1c-0.1-0.1-0.6,0-0.7,0.3
		c-0.1,0.5,0.3,1.3,0.5,1.3c2.3-0.2,3.2,1.4,4.1,3l0-0.1c-0.1,1.1-0.1,1.3,0.7,1.7c0.4,0.2,0.9,0.3,1.2,0.5c0.4,0.2,1,0.3,0.8,1
		c-0.2,0.5-0.6,0.6-1.2,0.6c-2.2,0-4.5-1.6-5-4.3c0.6,0,0.9,0.5,1.3,0.8c-0.3-0.7-0.4-1.5-1.4-1.5c-1.1,0-2.1,0.4-2.3,1.8
		c0.4,0.1,0.4-0.8,1-0.5c-0.3,0.7-0.4,1.6-0.9,2.2c-0.2,0.3-0.4,0.9-0.9,0.8c-0.5-0.1-0.8-0.5-1-1c-0.2-0.9,0.4-1.9-0.3-2.7
		c1.4-0.2,0.7-1.3,0.8-2c0.2-0.9,0.2-1.9,0.8-2.7c0.8-1.1,0.3-1.9-0.8-2.4c-1-0.4-1.7-1-2-2.1c0-0.2-0.2-0.7-0.4-0.5
		c-0.6,0.5-0.7,0.2-0.9-0.3c-0.3-0.8,0.3-1,0.7-1.4c0.7-0.8,0.6,0.3,0.6,0.3c1.8-0.4,1.4,1.4,2.1,2c0.8,0.8,2,1.1,2.2,2.4
		c0.1,0.5,0.4,0.6,0.8,0.5c0.8-0.2,1.6-0.3,2.7-0.6c-1-0.5-1.6-1.1-2.5-1c-0.7,0.1-1.2-0.3-0.9-0.9c0.5-0.9-0.1-1.1-0.7-1.4
		c-0.7-0.4-1.5-0.7-0.3-1.7c-1.7-0.1-3.1-0.7-4.3-1.4c-0.4-0.2-0.8-0.4-1.2,0c-0.4,0.4,0.3,0.8,0.2,0.9c-0.5,1.7,0.8,3.6-0.7,5.1
		c-0.8-0.2-0.5-0.9-0.6-1.4c-0.3-1.4-0.4-2.8-0.2-4.2c-1,1.3-1.8,2.6-2.8,3.7c-0.4,0.4-0.2,0.9,0.2,1c1.5,0.5,1.6,2.1,2.5,3.1
		c0.3,0.3,0.3,0.7,0.8,0.7c0.7-0.9-0.6-2,0.2-2.9c0.5,0.2,0.6,1.2,1.5,0.4c0.6-0.5,1.5-1.2,2.4-0.3c0.6,0.6,0.3,2.8-0.3,3.5
		c-0.2,0.2-0.4,0.2-0.6,0.4c-0.4-0.3-0.1-0.8-0.2-1.1c-0.1-0.3,0.2-0.7-0.2-0.9c-0.1,0-0.4,0.1-0.5,0.2c-0.2,0.3-0.5,0.5-0.2,0.9
		c1,1.5,0.7,2.9-0.2,4.3c-0.5,0.7,0,1.6-0.3,2.3c-0.1,0.4,0.2,1-0.4,1.1c-0.5,0.1-0.9-0.1-1.3-0.5c-1.3-1.2-1.3-2.5-0.8-4
		c0.1-0.3,0.2-0.5,0.3-0.8c-3.3-0.8-3.3-3.9-4.5-6.2c-0.2,0.3-0.4,0.6-0.7,1.1c-0.3-1.1-0.1-2-0.1-2.9c-0.1-1.2,0.3-2.4-0.5-3.6
		c-0.4-0.5,0-1.3,0.5-1.8c0.4-0.4,0.7-0.9,1.1-1.4c-1.5,0.3-2.3,1.1-2.3,2.9c-0.6-1-1-2-2.2-1.4c0.1,0.5,0.4,1,0.4,1.6
		c0,0.3,0.3,0.9-0.3,1c-0.4,0.1-0.3-0.6-0.6-0.8c-1.1,1-1.2,2.5-1.5,3.9c-0.1,0.6-0.3,1.1-0.9,1.1c-0.5,0-1-0.4-1.2-1
		c-0.1-0.4-0.1-0.8-0.1-1.2c-0.1-2-0.1-2-2.1-1.4c-2.6,0.8-4.9,2.1-7.6,3.4c3.4,0.3,6.3,1.8,9.3,2.8c0.5,0.2,1.5,0.3,1.4,1.1
		c-0.1,0.8-1,1-1.8,0.9c-1-0.1-2-0.2-3-0.7c-1.1-0.7-2.3-1.2-3.5-1.8c-1.9-1-3.9-0.5-5.1,1.2c-0.2,0.3-0.1,0.4,0.1,0.6
		c0.7,0.9,0.5,1.5-0.7,1.8c-4.4,1.5-6.9,5.2-9.5,8.5c-1.5,1.8-1.1,2.7,0.7,4.4c3,2.8,3.8,6.2,3,10.1c-1.1,5.6-2.6,11.1-5.7,16
		c-0.4,0.6-0.4,1.2-0.6,1.8c-1.1,3.1-3.2,5.7-4.8,8.6c-2.1,3.8-4.8,7.4-6.4,11.4c-1.9,4.9-4.1,9.6-7.8,13.5
		c-0.3,0.4-0.6,0.8-0.8,1.3c-2.3,5-5.3,9.5-8.2,14.1c-1.3,2.1-2.4,4.3-3.7,6.4c-2.4,3.8-4.6,7.7-7.5,11.3c-2.1,2.5-3.7,5.4-5.7,8
		c-2.6,3.4-4.8,7.1-7.6,10.4c-1.8,2.1-3.4,4.4-4.8,6.7c-1.3,2.2-2.4,4.5-4.6,6.2c-1.4,1-2.1,2.7-3.1,4.1c-1.8,2.6-4.2,4.7-6.1,7.2
		c-2.9,3.8-6.4,7.1-8.6,11.4c-0.3,0.6-0.8,1.1-1.2,1.5c-1,0.9-0.7,1.8-0.4,2.7c-0.1,0.1-0.2,0.2-0.2,0.1c-1.3-0.9-1.4-0.1-1.4,1
		c0,1.9,0.9,3.6,0.4,5.5c-0.2,0.8-0.5,1.4-1.1,2.1c0-2.3,0.9-4.6-0.6-6.8c-1.7,1.4-2.9,3.3-4.6,4.8c-3.1,2.7-5.5,5.9-7.5,9.5
		c-0.6,1.1-1.6,2.3-2.7,2.9c-2.6,1.5-3.7,4.1-5.3,6.4c-2.1,2.7-3.9,5.7-6,8.4c1-4.1,3.5-7.4,5.2-11.4c-1.3,1.3-2.3,2.3-3.5,3.6
		c0.2-2,1-3.4,2.4-4.5c1.7-1.4,2-3.6,2.6-5.6c1.2-4.3,2.7-8.4,4.1-12.6c0.7-2.1,1.2-4.3,1.9-6.4c0.5-1.5,1.3-2.9,1.9-4.4
		c1-2.6,1.7-5.2,2.6-7.9c0.7-2,1.6-3.9,2.3-5.9c1-2.7,1.5-5.6,2.5-8.3c1.3-3.7,2.4-7.4,3.6-11.1c0.4-1.3,0.7-2.7,1-4.1
		c-1.5,1.9-2.7,4-5,5c0-0.1,0-0.2-0.1-0.3c1.9-2.2,3.5-4.5,5.2-6.8c0.5-0.7,0.8-1.5,1.4-2.2c-0.7-0.3-1,0.7-1.7,0.3
		c0.8-1.4,2.3-2.2,2.8-3.8c0.8-2.4,1.6-4.9,2.5-7.3c0.8-2,1.7-4,2.5-6.1c2.1-5.3,4.8-10.3,6.1-15.9c0.5-2,1.4-3.8,2.2-5.7
		c1.7-3.4,3.1-6.9,3.6-10.8c0.3-2.5,1.5-4.8,2.5-7.1c2.3-5.1,4.5-10.2,6.1-15.5c1.4-4.8,2.8-9.5,4.2-14.3c0.8-2.4,1.6-4.8,2.6-7.1
		c1.4-2.8,2.5-5.8,4.1-8.5c2.6-4.5,6.1-8.1,10-11.4c1.6-1.3,3.3-2.3,5.2-3.2c3.5-1.5,6.9-1.4,10.3-0.2c0.7,0.2,1.4,0.4,2.1,0.8
		c0.9,0.4,1.2-0.4,1.4-0.8c1.5-2.8,3.5-5.4,4.4-8.6c0.4-1.6,1.5-3,2.4-4.6c-0.9-0.1-1.8-0.1-2.7-0.3c-1-0.3-1.6-1-1.4-2.1
		c0.2-1,1.2-0.7,1.8-0.6c0.9,0.1,1.8,0.4,2.8,0.5c0.9,0.1,0.8,0.9,1.3,1.3c0.5-0.6,0.5-0.6-1-2.2c0.3-0.4,0.5-0.1,0.8,0
		c0.2,0.1,0.4,0.2,0.7,0.4c-0.1-1.3-0.2-2.5-0.4-3.7c-0.3-2.4-0.3-2.4-2.6-2.4c-0.4,0-0.8,0.4-1.1,0c1.2-1.1,2.7-1,4.3,0.6
		c-0.5-1.7-1.7-3-2-4.6c-0.1-0.4-0.4-0.8,0.2-1.1c0.7-0.4,0.9,0.2,1.1,0.6c0.5,0.8,0.8,1.7,1.3,2.7c0.6-1.1,1-2,1.5-2.9
		c0.2-0.3,0.2-0.9,0.8-0.7c0.5,0.2,0.7,0.5,0.6,1c-0.1,0.4-0.5,1.1,0.6,0.7c0.4-0.2,0.4,0.5,0.6,0.7c0.1,0.1,0.2,0.3,0.3,0.5
		c0.5,0.8,0.9,1.9,1.6,2.2c0.9,0.4,1.2-1.1,2-1.4c0.4-0.2,0.7-0.5,1.1-0.7c0.3-0.2,0.6-0.3,0.3-0.7c-0.1-0.1-0.2-0.3-0.3-0.3
		c-0.5-0.1-0.4,0.3-0.6,0.5c-0.1,0.1-0.2,0.3-0.4,0.5c0.5-2.5,0.8-5,2.5-7.2c1-1.3,2.5-1.3,3.8-1.8c0.6-0.2,0.4,0.4,0.2,0.7
		c-1.5,2.2-0.9,4.5-0.4,6.8c0.5,2.3-0.5,4.2-1.6,6c-1.5,2.4-3.6,4.1-5.9,5.6l-0.6,0.1c-0.5-0.1-0.5-0.4-0.2-0.7
		c1.7-1.6,2.7-3.7,4.1-5.5c1.5-1.9,1.8-3.7,1.1-5.9c0-0.3,0-0.6-0.1-0.9c0.7-0.9,0.9-0.9,1-0.4c0.6,2,1.2,4,0.1,6.1
		c-0.9,1.6-2.2,2.9-3,4.5c2.7-1.9,4.3-4.5,4.2-7.8c-0.1-1.9-0.7-3.9-0.8-5.9c-0.3,1.2-1.6,2-1.4,3.4c-0.1,0.4-0.6,0.6-0.3,1
		c-0.1,0.5-0.8,0.9-0.5,1.3c1,1.5,0,1.9-1.1,2.5c-1.4,0.8-2.7,1.7-3.6,3.5c1.2-0.7,2.2-1.3,3.3-1.9c-0.1,0.6-0.4,0.8-0.7,1
		c-1.2,0.9-2.4,1.9-3.6,2.9c-1.9,1.6-2.3,3.9-3.2,6.3c1.6-1.2,3.2-2.2,4.8-3.1l0.6-0.2c1-0.2,2-0.5,2.9-1c0.4-0.2,0.9-0.4,0.8-1
		c-0.1-0.6,0.3-0.5,0.6-0.6c0.5-0.2,1.2-0.2,1.6-0.7c0.2,0,0.2-0.1,0.1-0.3l-0.2,0.1c-0.2-0.5-0.6-0.7,0-1.5
		c1.6-2.1,2.9-4.5,2.3-7.4c-0.3-1.5-0.4-3.1,0.4-4.6c0.2,4.1,2.3,8.2-0.8,12.1c1.1-1.8,2.5-3.4,2.7-5.5c0.3-3,1.6-6,1.2-9.1
		c0-0.3,0.2-0.7-0.1-1c-0.2-0.2-0.5-0.4-0.8-0.3c-0.5,0.1-0.2,0.4-0.2,0.7c0.1,0.7,0.2,1.3-0.3,2c0.2-1.8-1.1-2.9-2-4.2
		c-1-1.4-1.3-2.9-0.6-4.6c0.1-0.1,0.1-0.3,0.2-0.4c0.6-0.1,1-0.4,0.7-1.1c-0.1-0.2-0.2-0.6-0.4-0.5c-0.5,0.2-1.4-0.2-1.4,1
		c-0.5-1-1-1.8-2.2-2c-0.8-0.2-1.3-1.1-1.6-2c-0.5-1.4-0.5-3.1-1.9-4.1c-0.6-0.5-1.1-0.6-1.7-0.2c-1.5,1-3.2,1.2-4.9,0.7
		c-1.6-0.5-3,0.3-4.4,0.8c-0.4,0.1-0.5,0.6-0.6,1.1c1.8-0.6,3.4-0.1,5,0.4c1.4,0.5,2.7,0,4-0.4c0.4-0.1,1-0.6,1.3,0
		c0.4,0.7-0.1,1.2-0.6,1.5c-1.6,1.4-3.5,1.4-5.4,1.3c-1.8-0.2-3.5-0.5-5.2,0.8c0.4-0.8,0.4-0.8,0.9-1.3c1.1-0.5,2.2-0.6,3.4-0.9
		c-1.3-0.2-2.6-0.6-3.3,0.9c-0.2-0.2-0.4-0.1-0.7,0c-0.3,0.1-0.6,0.4-1-0.2c-0.3-0.5-0.2-0.9,0.1-1.1c0.6-0.6,0.4-0.9-0.3-1.1
		c0,0,0,0.1,0,0.1c0.4-1.3,1-2.6,1.2-4c0.2-0.8,0.5-1.4,0.9-2c1.4-1.9,1.1-3.3-1-4.4c-2.2-1.2-2.7-4.8-0.8-6.4
		c0.4-0.4,0.9-0.7,1.4,0.2c0.6,1,0.8,2.1,0.7,3.3c-0.1,0.9,0.3,1.5,0.9,2c0.9-0.8,0.4-2.1,1.4-2.8c-0.8-0.3-1,0.5-1.7,0.6
		c0.2-1.1,1.3-1.3,2.3-2c0,2.3-0.4,4.3-0.9,6.3c-0.3-0.1-0.7-0.3-1.2-0.5c0.3,0.6-0.1,1.2,0.5,1.4c0.1,0.1,0.5-0.4,0.8-0.6
		c0.7-0.2,1.3-1.5,2.3-0.2c0.2,0.3,1.3-0.1,2-0.2c0.5-0.1,0.9,0,1.1,0.5c0.1,0.5-0.4,0.6-0.7,0.7c-0.8,0.3-1.7,0.5-2.6,0.7
		c0,0.2,0.1,0.3,0.1,0.5c1.6-0.2,3.2-0.3,4.8-0.5c0.9-0.1,1.7-0.3,2.6-0.1c0.8,0.1,0.9,0.5,0.6,1.2c-0.8,1.5-2.2,1.7-3.7,1.8
		c-2.2,0.2-4.4-0.5-6.6,0c-0.3,0.1-0.9-0.3-0.7,0.5c0.1,0.4,0.1,0.9,0.8,0.8c1.4-0.3,2.7,0.1,4.1,0.7c1.2,0.5,2.6-0.2,3.8-0.9
		c0.6-0.4,0.9-0.6,1.7,0.1c0.8,0.7,2.1,0.7,3.1,1.4l0-0.1c0.3,2.2,1.3,4.1,2.9,5.6c0.2,0.2,0.2,0.7,0.6,0.5c0.4-0.1,0.3-0.5,0.3-0.9
		c0-1.5,0.2-3,0.2-4.5c0.1,0,0.2-0.1,0.3-0.1c-0.2,1.2,1.3,1.5,1.5,2.6c-0.3-1.6,0-3.1,0.6-4.5c-2-1-3.6,0.3-5.3,1l-0.1-0.3
		c1.3-1.3,3-1.9,4.7-2.5c-2.1-0.5-3.7,0.9-5.6,1.3c0-0.1,0-0.2-0.1-0.3c0.4-0.6,1-0.7,1.5-1.1c0.4-0.3,1.1-0.4,0.8-1.3
		c-0.3-0.9-0.9-0.6-1.4-0.7c-0.7-0.2-1.4,0.6-2.2,0.1c2-1.2,3.2-1.2,4.8,0.4c0.4,0.4,0.8,0.2,1,0c0.5-0.5,1-0.2,1.6,0
		c-0.7-1.3-0.8-2.5-0.4-3.8c0.5-1.5,1.1-3.1,0.5-4.8c1.1,0.9,1,2.1,0.9,3.2c-0.1,1.1-0.4,2.2-0.1,3.6c1.3-2.8,2.1-5.4,1.3-8.2
		c1.2,0.4,0.7,1.6,1.2,2.3c0.1,0.3-0.3,0.8,0.4,1.1c0-0.4,0-0.8,0-1.2c1-1.8-0.9-3.7,0.2-5.5c-0.4,1-2.3,0.8-1.7,2.4
		c-1.2-0.6-1.3,0.7-1.9,1.2c-0.6-0.6,0-1,0.2-1.3c0.4-0.9,0.9-1.7,1.3-2.5c0.3-0.5,0.4-1.3-0.1-1.5c-0.7-0.3-1.2-0.5-0.6-1.1
		c0.6-0.6,1.3-0.6,1.8,0.3c0,0,0.1,0,0.3,0.1c-0.3-2-0.2-4-1.7-5.7c-0.3-0.3-0.8-1.3,0.4-1.6c0.3-0.1,0.6-0.4,1.1-0.8
		c-0.2,0.5-0.3,0.8-0.5,1.3c1.1-0.3,1.6-1.2,2.2-1.8c0.3-0.3,0.1-0.5-0.1-0.9c-1-1.8-6-1.5-6.7,0.7c-0.4,1.4-0.4,3.2-0.2,4.9
		c0,0.2,0.2,0.4,0.3,0.5c2.5,2.3,2.9,4.3,1.5,7.4c-0.4,1-0.6,2.1-1,3.1c-0.1,0-0.2,0.1-0.3,0.1c-0.4-0.9-1-0.4-1.5-0.1
		c-1,0.7-1.1,0.2-1-0.6c0.1-1.2,0.1-2.4-0.4-3.6c1-0.1,0.7,0.9,1.4,1.2c0.5-1.4,0.3-2.9,0.3-4.3c-0.5-0.1-0.5,0.2-0.6,0.4
		c-0.2,0.5-0.7,0.7-1.1,0.6c-0.4-0.1-0.6-0.6-0.7-1c-0.1-1-0.2-2-0.3-3.1c-0.6,0.3-0.9,0.8-1.2,1.3c-0.4,0.6-0.9,1.1-1.7,0.5
		c-0.6-0.5-0.9-0.2-1.2,0.4c-0.5,0.9-0.8,2-1.7,2.8c-0.8,0.7-1.2,0.3-1.4-0.4c-0.4-1,0.9-3.9,1.8-3.8c2.5,0.2,1.5-2,2.3-2.9
		c0.5,0.7,0,1.5,0.1,2.3c0,0.2,0,0.7,0.4,0.6c0.3-0.1,0.8-0.4,0.6-0.7c-0.6-0.8-0.1-0.9,0.5-1.2c0.3-0.2,0.6-0.4,0.9-0.5
		c0.9-0.3,0-0.8,0.1-1.2c0-0.2-0.2-1-0.6-0.7c-1,0.7-1.6-0.1-2.3-0.4c-2.1-1-4.2-0.9-5.2,0.3c0.5,0.1,0.9-0.1,1.3-0.1
		c2.1-0.3,3.7,0.4,4.3,1.7c-2-1-4-0.7-6,0.1c-0.4,0.2-0.8,0.2-1.1-0.2c-0.4-0.5-0.5-1.1-0.3-1.8c0.9-2.1,2.5-2.7,5.6-2.1
		c1.2,0.2,2.2,0.7,3.5,1.5c0.1-2.8-2.3-3-3.6-4.3c1.9,0.6,3.8,1.2,5.1,3c-0.5,1.4-0.6,2.8,1.1,4.1c-0.5-1.6-0.7-2.9-0.8-4.2
		c-0.1-3.6,2.3-5.8,5.1-6.7c0.8-0.2,1.5-0.4,2.3-0.6c0.2-0.1,0.7,0.2,0.7-0.2c0-0.2-0.2-0.7-0.7-0.7c-0.8,0.1-1.1-0.2-0.7-1
		c0.4-0.8-0.2-0.8-0.7-0.7c-0.9,0-1.8,0.1-2.6,0.1c0-0.1-0.1-0.2-0.1-0.3c1.1-0.5,2.3-0.4,3.5-0.6c0.3-0.1,0.7,0.1,0.6-0.3
		c-0.1-0.9-1-1-1.6-1.2c-0.4-0.2-1.2-0.4-1.3,0.4c-0.1,0.6-0.4,1-1,1c-0.7,0-0.7-0.6-0.9-1.1c-0.4-0.9-1-1.6-1.7-2.2
		c-0.4-0.4-1-0.7-1.6-0.3c-0.7,0.3-1.4,0.5-2.4,0.9c1.9-2.6,4.6-2.7,7-0.5c1.1,1,2.5,0.7,3.7,1c0.2,0,0.4-0.4,0.7-0.7
		c0.3,1-0.4,2.4,0.6,2.7c1.1,0.3,1,1.1,1.3,1.8c0,0.1-0.1,0.3-0.2,0.4c-0.6,0-0.4-0.6-0.6-1c-0.2-0.3-0.3-0.6-0.6-0.3
		c-0.7,0.5-0.7,1.4-0.4,2c0.2,0.5,0.4,1.5,1.2,1.3c0.7-0.2,0.4-1.1,0.2-1.7c-0.1-0.2,0.1-0.2,0.2-0.3c1.2-0.9,1.2-0.9,0.4-1.8
		c-0.4-0.5-0.3-1-0.1-1.5c0.2-0.5,0.1-1.1,0.2-1.8c-0.4,0.3-0.6,0.9-1.2,0.5c-0.5-0.4-0.2-0.8,0-1.2c0.6-1.9,1-3.8,2.3-5.5
		c0.4,2.4,1.6,4.7,0.4,7.2c-0.1,0.3,0,0.5,0.5,0.9c0.2,0.2,0,0.3,0,0.5c-0.3,1.1-0.7,2.3-1,3.4c0.6,0.2,1.1-0.2,1.4-0.7
		c0.7-0.9,1.3-0.7,1.9,0.1c0.6,0.7,1.2,1.4,1.6,2.3c0-0.7,0.9-1.4-0.1-2c-0.2-0.1-0.6-1.1,0.2-1.5c0.3,0.2-0.2,0.8,0.6,1
		c0-1-0.1-1.9-0.1-3c-0.6,0.7-0.1,1.5-0.5,2.1c-0.7-0.7-0.8-3.1-0.1-3.6c0.6-0.5,1.7,0.1,1.9,1.1c0.2,1,0.3,2,0.1,3.3
		c1.2-1.4,1-3,1.2-4.4c0.1-0.7,0.1-1.4,0.3-2c0.5-1.6,0.9-1.7,2.1-0.7c0.4,0.3,0.7,0.2,1.1,0.2c1.4-0.3,2.8-0.2,4.2-0.8
		c0.8-0.3,1.4,0.3,1.9,0.7c0.4,0.3,0,0.8-0.4,0.8c-2.6-0.1-4.1,2.6-6.7,2.7c-0.7,0-0.9,1.2-1.2,1.9c-0.5,1.3-0.7,2.8-2.4,3.4
		c-0.4,0.1-0.5,1.1-0.3,1.7c2.6-0.8,1.9-3.6,3.3-5c1.5,1.3,0.7,3.4-2.4,6.6c1-0.1,1.5-1.1,2.5-1c-0.8,1.1-1.9,1.6-2.9,2.3
		c-0.6,0.4-1,0.7-0.3,1.4c0.5,0.5,0.5,1.2,0.3,1.7c-0.8,1.4-0.9,3.2-2.1,4.5c-0.1-1.9,0.8-3.6,1-5.7c-1.3,0.9-2.4,2-2.6,3.3
		c-0.3,1.6-2.6,0.8-2.7,2.5c3.1-0.7,3.1-0.7,3,0.7c-0.2-0.2-0.4-0.4-0.7-0.1c-0.8-0.3-1.6-0.1-2.3,0.2c-0.4,0.2-0.5,0.6-0.3,1
		c0.3,0.6,0.7,0.3,0.9,0c0.5-0.7,1.2-0.6,1.8-0.9c0.2-0.1,0.4-0.1,0.5-0.2c1.1,0.2,0.8,1.4,1.4,2.1c0.8-0.4,1.4-1.1,1-1.9
		c-0.4-0.8-0.1-1.1,0.4-1.5c1.4-1.4,2.1-2.9,1.9-4.9c0-0.5,0-1.1,0.2-1.6c0.2-0.5,0.4-1.1,1.1-1c0.6,0.1,0.9,0.6,1,1.2
		c0.1,2,0.1,3.9-1.6,5.4c-0.5,0.4-0.9,1-1.3,1.4c-0.3,0.2-0.5,0.4-0.5,0.8c0.2-0.1,0.4-0.2,0.6-0.3c2-1.5,4.5-2.7,4.5-5.8
		c0-0.5,0-0.8,0.6-0.9c0.5,0,0.6,0.5,0.7,0.8c0.4,1.4-0.4,2.6-0.8,3.8c-0.2,0.5-0.9,0.9-0.2,1.7c0.6,0.6,1,0.6,1.7,0.5
		c0.9-0.1,2.3-0.3,2.3,1.4c2.3-3.2,4.9-6,7.9-8.6c-0.7-1-1.3-0.8-2.1,0.1c-0.6,0.9-1.4,1.6-2.2,2.4c-0.4,0.4-0.6,0.9-1.3,0.6
		c-0.6-0.3-0.8-0.6-0.7-1.4c0.3-1.7,1.4-2.9,2.3-4.3c0.4,0.6-0.2,0.9-0.4,1.3c-0.4,1.1-0.8,2.1-0.5,3.5c1.7-2.9,1.8-3.6,1.1-5.3
		c0.2-0.3,0.1-0.6-0.3-0.7c-0.1-0.1-0.1-0.2-0.2-0.3c0.9-0.5,0.4-1.2,0.3-1.8c-0.1-0.7-0.7-0.3-1.1-0.3c-2.4-0.2-4.6,0.4-6.5,1.9
		c-0.5,0.4-1,0.7-1.4,0.2c-0.5-0.6-0.1-1.1,0.4-1.5c1.5-1.3,3.2-1.8,5.2-1.6c0.8,0.1,1.6,0.1,2.3,0.3c0.8,0.1,1.2-0.2,1.2-0.9
		c0-0.9-0.6-0.9-1.2-0.9c-2.4,0.2-4.8,0.6-7.1,1.5c-0.2,0.1-0.4,0.1-1,0.2c2.2-2.4,5.4-2,7.7-3.5c-1.2-1.1-2.9-0.7-4.6-1.1
		c1.4-0.4,2.5-0.4,3.6-0.2c1,0.2,1.2-0.2,0.8-1c-0.2-0.5-0.5-1.4,0-1.5c0.8-0.1,0.7,0.8,0.7,1.4c-0.1,1.2,0.6,1.8,1.4,2.6
		c0.3-0.8-0.2-1.7,0.6-2.3c0.1,0.9,0.1,1.8,0.2,2.8c1.3-1.4,1.5-2.5,1.1-4c-0.3-0.9-0.6-0.9-1.2-0.3c-0.4,0.4-0.8,1-1.3,0.4
		c-0.5-0.6,0.2-0.9,0.6-1.3c0.8-0.8,1.6-1.5,2.3-2.9c-0.2,1.6-0.3,2.6,1.6,2.3c1-0.2,1.8,2.3,1.4,3.6c-0.4,2-1.6,3.7-2.8,5
		c-1.5,1.6-0.7,3.2-1.1,5.2c1.1-1.5,1.8-2.8,2-4.2c0.2-1.3,0.7-2.3,1.9-3c0.8-0.5,1.5-0.7,2.2-0.1c0.6,0.5,0.1,1.2-0.2,1.7
		c-0.8,1.2-1.8,2.4-2.6,3.6c-1.2,2-0.6,3.1,1.7,3.1c0.5,0,1-0.1,1,0.7c0,0.5,0.4,0.3,0.6,0.3c2.9-0.1,5.3,1.4,6.4,4
		c0.2,0.5,0.1,0.8-0.5,0.7c-2.1-0.4-3.9,0.6-5.9,0.8c-0.6,0.1-1.4,0.6-1-0.7c0-0.1,0.1-0.3-0.1-0.3c-0.2,0-0.4,0.1-0.6,0.1
		c0-0.1,0-0.2-0.1-0.3c1.5-1.5,3.6-1.2,5.4-1.8c-1-1.3-2.6-1.9-3.8-1.3c-0.6,0.3-0.5,1.3-1.4,1.7c-1.7,0.8-3.4,1.7-5.1,2.6
		c-0.5,0.3-0.9,0.8-1.3,1.4c0.9-0.4,1.8-0.8,2.7-1.1c0.8-0.3,1.8-0.5,2.6,0.2c0.7,0.5,0.9,1.1-0.1,1.5c-1.4,0.7-2.8,1.4-4.3,2
		c-0.7,0.3-1.5,0.6-2,1.2c-0.9,0.8-1.4,0.7-1.8-0.5c-0.3,0.5-0.8,0.9-0.3,1.2c0.7,0.4,1.5,1.4,2.2,0.7c1.3-1.2,3-1.3,4.5-2.2
		c0.6-0.4,1.2-0.5,1.4-1.4c0.2-0.9,1.5-0.8,2.3-1c0.8-0.2,1.5-0.2,2.3-0.3c0.4,0,0.7,0.1,1.1-0.1c0.3,0,0.6-0.1,0.9-0.1
		c-0.4-0.4-0.7-0.4-1-0.1c-0.4-0.1-0.7-0.1-1.1,0.1c-0.3,0-0.6,0-0.9,0c1.5-1.3,4.1-1.5,5.5-0.7c0.8,0.5,0.7,0.7,0,1.2
		c-0.6,0.5-1.4,0.5-2.1,0.8c-0.5,0.2-1.2,0-1.5,0.7c-1.2-0.3-2.2,0.2-3.3,0.5c1.1,0,2.6,1.8,3.3-0.5c1.5,1,1.1,2.4,0.8,3.7
		c-0.2,0.9-0.6,1.7-1,2.7c1.1-0.4,1.7-1.2,2-2.1c0.4-0.3,0.4-0.3,0.6-1.2c-0.3,0.6-0.5,0.9-0.6,1.2c-0.1-0.1-0.4-0.3-0.4-0.4
		c0.7-1.5,1.4-3,2.2-4.5c0.4-0.8,0.9-0.4,1.1,0.2c0.1,0.2,0.1,0.5,0.1,0.7c0,0.6-2,5-2.4,5.4c1.2-0.3,1.2-0.3,1.5-1.3
		c0.1-0.4,0.2-0.3,0.5-0.2c0.9,0.4,0.6,0.9,0.2,1.5c-0.7,0.8-1.5,1.5-2.5,1.6c-2.3,0.2-3.5,2.3-5.5,3.1c-0.6,0.3-0.7,1-0.5,1.7
		c0.1,0.4,0.7,0.7,0.1,1.3c-0.3-0.3-0.7-0.6-0.7-1.1c-0.1-1.5-0.8-0.9-1.4-0.4c-1.7,1.2-1.7,1.2-3,0.8c0.6,0.8,1.1,1.6,1.6,2.4
		c0.4-0.6,0.8-1.7,1.5-1.5c1,0.4,2,1.1,2.4,2.2c0.3,0.8,0.4,1.6,1.4,2c0.3-0.9-0.3-1.8,0.1-2.6c0.1,0,0.2-0.1,0.3-0.1
		c0.1,0.5,0.2,1.1,0.3,1.6c0.3,0.9,0.1,2,1.6,2.1c0.5,0,0.9,0.7,0.9,1.2c0.1,0.6-0.4,0.9-0.9,1.2c-1.3,0.7-2.7,0.4-3.6-0.7
		c-1-1.3-1.8-2.6-2.2-4.2c-0.2-0.7-0.5-0.9-1.1-0.8c-0.8,0.2-0.2,0.7-0.1,1.1c0,0.4-0.2,0.6-0.3,0.8c-0.4,1-0.8,2.2,0.1,3
		c0.7,0.6,0.3,2.2,1.9,1.8c0.1,0,0.1,0.4,0.1,0.7c-0.2,1.5-0.5,3-1,4.4c-0.3,0.8-0.6,1.5,0.6,1.7c0.5,0.1,0.3,0.8,0.9,1.1
		c0.9-1,1.1-2.3,1.4-3.5c0.5-2.1,2.9-4.4,4.9-4.6c0.4,0,0.9-0.5,1.3,0.1c0.3,0.5,0.1,1-0.2,1.4c-0.6,1-1.3,1.9-1.9,2.9
		c-0.2,0.3-0.4,0.7-0.6,1.1c1.6-0.3,1.9-0.1,1.6,1.4c-0.5,2.3-1.4,4.4-3.1,6c-0.3,0.3-0.4,0.8-0.9,0.3c-0.4-0.3-0.4-0.7-0.1-1.1
		c0.6-0.9,1.2-1.8,1.8-2.7c0.4-0.6,0.6-1.2,0.8-1.9c-2.5,1.8-3.2,4.4-3.4,7.4c-0.5,0-0.3-1.1-1-0.6c-0.5,0.3-0.9-0.3-1.5-0.5
		c0.7,1.4-0.1,2.3-1,2.8c-1.7,1-3.4,2.4-5.7,1.9c-0.9-0.2-1.7,0.8-2.6,1.3c-0.5,0.2-0.9,0.6-1.6,1.1c0.7-1.4,1.7-1.9,2.5-2.4
		c2.3-1.4,4.6-2.8,6.9-4.2c1.3-0.9,1-1.1,0.4-2.1c-1-1.5-0.7-3.2-0.3-4.9c-1.6,0.2-2.3-0.4-1.9-2c0.5-2.1,0.4-4.1-0.9-5.8
		c-1.9,2.2-2.4,5.1-4.1,7.5c0.8,0.2,2.2-0.9,2,1c0.9-0.3,1.1-1.2,1.7-2c0.1,1.7-1,3.4-2.2,3.9c-0.2,0.1-0.3,0.2-0.4,0.4
		c-0.8,1.5-1.5,3-2.6,4.3c1.7-2,4.5-2.1,6.6-3.6c0.6-0.4,1.4,0.3,1.2,1.1c-0.2,0.7-0.6,1.4-1.4,2.1c-0.1-0.9,0.4-1.3,0.5-1.9
		c-1.3,0.6-1.5,2-2.4,2.9c-0.7,0.8-1.3,1.6-2.3,2c-2.6,1.2-3.8,3.4-4.6,5.9c0,0.1,0,0.4,0,0.4c-1.6,0.8-1.3,2.4-1.6,3.7
		c-0.2,0-0.5,0-0.7,0c-1-0.3-1,0.7-1,1c0,0.4-0.1,1.4,1,1c0.1,0,0.3-0.1,0.3,0.1c0.2,1.5,0.8,1.3,1.6,0.4c0.3-0.3,0.6-0.8,1.2-0.9
		c0.9-0.1,2.1-0.8,2.7,0.3c0.5,1-0.7,1.5-1.3,2c-1,0.8-1.2,1.3-1.1,2.5c2.5-1.1,4.9-2.4,7.3-3.8c0.9-0.6,1.9-2.6,1.4-3.5
		c-0.9-1.4-0.6-2.8-0.6-4.3c-1.5,0.8-3.1,0.3-4.6,0.5c-1.1,0.2-2.3,0.2-2.5,1.7c1.2,0,2.2,0,3.3-0.2c0.7-0.1,1.5,0,1.2,1.1
		c-0.5,1.4-1.3,2.8-2.9,2.6c-1.9-0.2-3.8,0.5-5.6-0.1c0.1-0.2,0.2-0.4,0.2-0.6c0.9-0.6,1.9-1,1.7-2.5c-0.2-1.2,1.1-2.9,2.4-3.3
		c1.3-0.4,2.6-0.8,3.9-1.2c1.2-0.4,2.3-0.2,3.2,0.8c0.3-0.6,0.7-1.2,1-1.9c0.2-0.5,0.6-0.9,1.2-0.6c0.7,0.3,0.4,0.9,0.2,1.4
		c-0.3,0.5-0.7,1-0.8,1.6c-0.1,0.5-0.5,1,0,1.5c0.1,0.1,1.1,0.7-0.2,0.8c-0.3,0,0,0.9,0.2,1.1c0.5,0.5,1.1,0.4,1.7,0.1
		c0.4-0.2,0.5-0.6,0-0.9c-0.3-0.2-0.3-0.4,0-0.5c0.1-0.1,0.3,0.5,0.5,0.1c0.4-1,0.7-1.9,1-2.9c0.1-0.6,0.1-1.2,0.1-2
		c-1,1.1-1.2,2.3-1.8,3.4c0.3-1.7-0.4-3.7,1.6-5c0.6-0.4,0.7-1.6,1.3-2.4c0.8-0.9,1.7-1.5,2.6-2.1c0.7-0.5,2-0.4,1.3-2.2
		c-0.3-0.7,0.8-2,1.5-3c0.4-0.7,1.1-1.2,1.9-1.6c-0.7,1.3-1.3,2.5-2,3.8c1-1.1,2-2,3.4-2.4c0,0.1,0,0.2,0,0.3
		c-1.3,1.1-2.5,2.3-3.2,4.1c1.4-1,2.7-2,4.4-2.1c0.5,0,0.5-0.3,0.5-0.7c0.1-0.5,0.2-1,0.5-1.5c0.1,0.7,0.2,1.3,0.3,2.3
		c0.3-0.6,0.6-1.1,0.8-1.5c0.2-0.3,0.1-0.6-0.1-0.8c-2.1-2.4-2.3-3.3-0.9-6.6c-2.4-0.5-2.4-0.5-1.3-2.4c0.3,0.1,0.3,0.4,0.2,0.6
		c-0.1,0.4-0.3,0.8,0.3,0.9c0.6,0.1,0.5-0.4,0.7-0.7c0.3-0.7,0.7-1.3,1.1-2.1c-0.8-0.5-1.6,0.6-2.3,0.1c-0.6-0.5-0.7-1.3-0.9-2.1
		c-0.9,0.4-1.7,1.6-2.6,0.5c-0.7-0.8,0.3-1.5,0.7-2.2c0,0.6-0.5,1.1-0.1,1.7c0.6,0.1,0.8-0.8,1.6-0.7c0.4,0.1,0.3-0.3,0.2-0.6
		c-0.3-1.2-0.8-1.9-2.3-2.9c2.9-1,4.1,0.8,4.9,3.3c0.7-0.4,0.6-1.4,1.5-1.4c-0.2,0.8-0.3,1.7-0.5,2.5c-0.1,0.4-0.4,0.8,0,1.1
		c0.5,0.4,0.3-0.7,1-0.5c-0.2,1.3-1.3,2.3-0.9,3.8c0.5-1.3,0.7-2.6,2.1-3.3c-0.2,0.4-0.4,0.7-0.5,1.1c-0.5,1.8-0.5,1.8,1.1,2.7
		c-0.1,0.5-1.2,0.7-0.5,1.4c0.5,0.5,0.9,0,1.4-0.2c0.6-0.3,1.2-0.7,1.8-0.9c2.3-0.8,2.7-1.3,2.7-3.7c0.9,1.1,0.9,2.6-0.2,4.1
		c-1.1,1.5-2.2,2.8-4.2,3c-0.9,0.1-1.5,0.8-1.7,1.7c0.1,0,0.2,0.1,0.3,0c0.6-0.2,1.1-1.2,1.9-0.4c0.7,0.7-0.1,1.3-0.4,1.9
		c-0.3,0.6-0.6,1.2-0.5,2c0.5-0.5,0.9-0.9,1.6-1.1c0.4-0.1,0.8-0.1,1,0.3c0.2,0.4,0.1,0.8-0.3,1c-1.2,0.7-1.9,1.8-2.5,3
		c-0.3,0.7-0.4,1.2,0,1.8c0.4,0.6,0.9,1.3,0.1,1.8c-0.6,0.4-1.1-0.3-1.6-0.7c-0.7,0.8-1,1.7-0.9,2.7c0.1,1.2-0.3,2.1-1.1,3
		c-0.7,0.8-1,1.9-1.6,2.9c1.1,0,1.9,0,2.5-1.2c0.4-1,2-1.1,2.8-2.1c0.5-0.6,1-1.2,1-2.1C221.3,89.6,221.4,89.6,221.5,89.6
		 M256.7,90.5c-0.2,0.1-0.5,0-0.5,0.3c0.1,0.3,0.3,0.2,0.5,0.1c0.3,0,0.7,0,0.6-0.4C257.2,90.2,256.9,90.5,256.7,90.5 M169.5,74.8
		c0,0.1,0.1,0.3,0.1,0.4c-0.3,0.6,0,1.1,0.5,1.5c-0.2-0.6,0.2-1.2-0.3-1.7l0-0.1c-0.1-0.4-0.1-0.8-0.4-1.1
		C169.2,74.2,169.3,74.5,169.5,74.8 M175.8,111.6c0.6,0.1,0.9-0.5,1.4-0.6c0.3,0.1,0.4-0.1,0.4-0.4c-0.2,0-0.3,0-0.5,0
		c-0.5,0.2-1,0.4-1.4,0.7c-0.3,0-0.6,0.1-0.7,0.4c0,0.1,0.1,0.3,0.2,0.3C175.5,112.1,175.6,111.8,175.8,111.6 M164.6,48.8
		c0.1,0.1,0.2,0.3,0.2,0.4c0.2-0.2,0.3-0.4,0.1-0.6c0.2-0.9,0.3-1.8-0.5-2.3c-0.1,0-0.3,0.1-0.4,0.1
		C164.2,47.3,164.4,48.1,164.6,48.8 M167.7,50.9c0-0.2,0-0.5-0.2-0.4c-0.3,0.1-0.3,0.3-0.1,0.6c0.1,0.9-0.2,1.9,0.2,2.8
		C167.8,52.9,168.1,51.9,167.7,50.9 M162.5,116.4c0.9-0.5,2.4-0.5,1.7-2.2c-0.6,0.6-1.4,1.1-1.8,1.9c-0.5,0-0.5,0.3-0.5,0.7
		C162.1,116.6,162.3,116.5,162.5,116.4 M151.1,98.8c0-0.4-0.1-0.7-0.6-0.9c0.1,0.4,0.2,0.6,0.3,0.9c0.7,1.7,0.1,3.5,0.5,5.3
		c-0.1,0.8,0.3,1.6,0.3,2.5c1.5-1.2,1.9-3,2.8-4.4c0.5-0.8,1.8-1.4,1.2-2.4c-0.5-0.9-0.7-1.9-1.2-2.7c-0.1-0.2-0.2-0.6-0.6-0.4
		c-0.4,0.2-0.1,0.4-0.2,0.6c-0.2,1.8-0.3,3.7-0.5,5.5c0,0.7-0.3,1.2-0.8,1.6c-0.6,0.5-0.7-0.4-1-0.4c0.6-0.8,0.4-1.8,0.4-2.6
		C151.6,100.6,152,99.5,151.1,98.8 M201.2,80.6l-0.2-0.4c-0.2,0.2-0.3,0.4-0.1,0.6c-0.3,1.5,0.9,2.2,1.7,3.1
		C202.3,82.7,202.1,81.5,201.2,80.6 M169.1,77.4c-0.1-0.3-0.1-0.7-0.4-0.6c-0.3,0.1,0,0.5,0.1,0.7c0.5,1.7,1.7,2.8,3,3.8
		C171.2,79.8,170.1,78.6,169.1,77.4 M148.1,67.8c0.6,1.1,1.6,0.7,2.4,0.7c1.1-0.1,0.5-1.3,1-1.8c-0.4,0.3-0.8,0.7-1.3,1.1
		c0.2-0.5,0.3-0.8,0.4-1.1C149.3,66.1,148.8,67.1,148.1,67.8c-0.8,0.7-0.7,1.6-0.9,2.7C148.2,69.6,148.2,68.7,148.1,67.8
		 M207.8,97.8c0.6-0.4,1.2-0.9,1.9-1.1c1.5-0.5,1.6-1.5,1-2.7c0.2-1,0-2.1,1-2.9c0,1.5-0.5,3.1,1,4.3c0.1-1,0.5-1.7,0.9-2.4
		c0.3-0.6,0.6-1.2-0.5-1.2c-0.8,0-0.5-0.6-0.3-1.1c0.7-2.1,2.6-3.4,3.5-5.3c1.1,0.3,1.6,0,1.7-1.2c0.2-1.9,0.2-3.8,1.1-5.6
		c-2,1-2.9,2.5-2.7,4.7c0.1,0.7,0.1,1.5-0.1,2.2c-0.5-0.6-1.6-0.4-1.7-1.5c-0.1-1.3-0.8-0.9-1.5-0.6c-2.1,1-3.9,2.5-5.2,4.3
		c-0.7,1-1.2,1.3-1.6-0.4c0,3-2.5,4.6-3.3,7.3c1.4-0.9,2.2-2,2.9-3.2c1.2-2.4,3.6-3.7,5.6-5.3c0.7-0.5,2.3-1.5,2.9-0.2
		c0.7,1.3-1,1.7-1.9,2.3c-1.5,1.1-3.4,1.6-4.6,3.3c-1.1,1.5-1.8,3.3-3.5,4.3c-0.4,0.2-0.8,0.6-1.1,1.2c-0.7,1.6-1.6,3-3.1,4
		c1.1,0.8,1.6,0.8,1.8,0c0.5-1.8,1.5-3.3,2.9-4.4c1.4-1.2,2-3.2,4-4.3c-0.3,0.5-0.4,0.8-0.5,1c-0.2,0.3-0.3,0.6-0.5,1
		c2.1-1,2.1-1,2.9-0.2C209.8,95.3,208.5,96.4,207.8,97.8c-0.4,1-1.8,0.4-2.3,1.5c1.5,0.5,2.5-0.8,3.8-1.1c1.3-0.3,2.8-0.4,4.1-1.4
		c-1.4-0.4-2.4,0.1-3.4,0.5C209.2,97.7,208.6,98.3,207.8,97.8 M163.3,121.8c-5.2,0.8-9.5,3-12.3,7.6c1.3-1.1,2.2-2.5,3.7-3.5
		c2.6-1.9,5.7-2.8,8.7-3.8c0.4,0,0.8,0,0.8-0.6C163.9,121.6,163.6,121.7,163.3,121.8 M197.1,53.9c-1.5-1.3-2,0.3-2.6,1
		c-1.1,1.3-1.2,1.4-2.2,0.2c-0.1-0.1-0.3-0.3-0.5,0c0.1,0.3,0.2,0.6,0.4,0.9c-0.6-0.3-1.1-0.5-1.6-0.7c-0.3,2.2-1.1,4.1-2,6.1
		c2.1-1.3,3.9-2.8,5.2-4.7C194.7,55.3,195.7,54.4,197.1,53.9c0.3-0.1,0.6-0.2,1-0.3c0.4-0.1,1.1-0.1,1.1-0.2
		c0.1-1.1,0.7-0.5,1.1-0.3c0.5,0.2,1,0.4,1.5,0.7c0.2,0.1,0.5,0.2,0.5,0.5c0,0.3-0.3,0.4-0.5,0.4c-1,0.2-1.6,1-2.5,1.6
		c0.8,0.3,1.9,0.1,2.1,1.2c0.1,0.3,0.4,0.1,0.5,0c1.1-1.1,2.7-1.1,4.1-1.8c-1.5-1,0.2-2.1-0.2-3.3c-0.3,0.6-0.6,1.2-1.3,1.3
		c-0.1-0.6,1.1-1.2,0.1-1.6c-1.4-0.5-3-0.3-4.5-0.2c-0.8,0.1-1,0.5-1.2,1.1c0,0.1-0.4,0.1-0.7,0.1C197.6,53.2,197.2,53.3,197.1,53.9
		 M185,64.5c0,0.1,0,0.2,0.1,0.4c-0.3,0.4-0.6,0.7-1,1.2c1.1,0,2.2,0.9,3.1-0.5c0.2-0.3,0.7-0.4,1.1-0.1c0.3,0.3,0.1,0.6,0,1
		c-0.3,0.8-0.9,1.2-1.7,1.3c-0.8,0.1-1.6-0.2-2.3-0.3c-0.7-0.2-1.3-0.3-1.7,0.6c-0.1,0.3-0.5,0.7-0.8,0.4c-1.1-1.1-1.3,0.1-1.8,0.6
		c-1.4,1.3-1.6,3.1-2.3,4.6c2.9-4.2,3.5-3.7,7.4-3.3c-0.9,0.5-1.8,0.6-2.7,0.7c-0.9,0.2-1.5,0.7-2.1,1.8c1.9-0.6,3.7-1.2,5.6-1.4
		c0.4,0,0.6-0.1,0.7-0.4c0.5-1.7,2-2.6,2.9-4c0.3-0.4,0.8-1.1,1.6-0.5c-0.2,0.7-0.2,1.4-0.9,1.9c0.8-0.4,1.6-0.8,2.3-1.3
		c0.6-0.4,1.1,0.1,1,0.6c-0.4,2.2-0.9,4.5-3,5.8c-1.7,1.1-2.4,2.6-1.9,5c0.2-0.4,0.3-0.6,0.4-0.9c1.1-2.1,1.9-4.3,4.5-5
		c0.4-0.1,0.2-0.5,0.2-0.7c0-1,0.1-2,0.6-3c0.7-1.5-0.4-2.2-1.4-3.1c-1.1-0.9-0.6,1-1.3,0.7c-0.1-0.1-0.3,0-0.4,0c0-1.1-0.5-2-0.8-3
		c-0.3-1-0.9-1.5-2-0.8c-0.4,0.3-1,0.6-1.4,0.3c-1.4-1.5-1.8-0.2-2.2,0.8c-0.2,0.5-0.8,0.8-1.1,1.4C184.1,65,184.5,64.8,185,64.5
		 M154.4,122.6c0.5-0.2,0.8-0.6,1.1-1.1c1-1.8,2.2-3.4,3.9-4.6c1.5-1.1,2.5-2.4,3.8-4.1c-2.5,1.5-4.5,3.2-6.2,5.2
		c-0.3,0.4-0.4,0.8-1.1,0.5c-0.6-0.3-0.6-0.8-0.5-1.3c0.2-1.1,1.1-1.8,1.9-2.6c1.8-1.9,4.2-2.9,6.5-4c2.3-1.1,4.1-2.6,4.9-5.2
		c-0.9,1.1-2,1.9-3.2,2.6c-1.2,0.7-2.5,1.4-3.9,1.9c-4.9,1.7-8.5,4.8-10.7,9.6c-0.4,0.9-0.6,1.6,0.1,2.5c1.7-3.3,3.1-6.7,6.6-8.6
		c-2.6,3.2-4.9,6.4-5.2,10.8C153.2,123.5,154.1,123.4,154.4,122.6L154.4,122.6z M183.6,95.1c-0.5-1-3.3-2.6-4.4-2.4
		c-0.4,0-0.5,0.3-0.5,0.6c0.1,1.4-0.5,2.7-1.1,3.9c0.6,0.1,1.2-0.8,1.6,0c0.2,0.5,0.3,1.2-0.2,1.6c-0.6,0.5-1,1.1-1.8,1.5
		c-1.8,0.9-3.7,1.8-5.1,3.5c0.2-1.7,1.7-2.3,2.8-3.5c-2,0.8-3.1,2.1-3.8,3.7c-0.1,0.3-0.4,0.6-0.1,0.8c0.3,0.3,0.6-0.1,0.9-0.3
		c2.6-2.2,5.8-3.4,8.5-5.1c0.4,1,0.2,1.9-0.5,2.7c-1.5,1.9-4.9,4-7.2,4.8c-1.1,0.4-2.4,0.8-3.1,1.9c-0.9,1.4-1.7,2.9-2.9,4.1
		c-0.4,0.5-1.3,0.8-1.1,1.8c2.6-1.4,5-3.3,7.7-4.4c2.8-1.1,5.6-1.9,8.5-2.9c-0.7-0.9-1.3-1.8-1.9-2.6c-0.7-0.8-0.2-1.2,0.5-1.5
		c0.4-0.1,0.8-0.1,1.5-0.1c-1.1-0.4-1.7-0.9-1.2-1.8c0.4-0.7,1.1-0.7,1.8-0.3c0.6,0.4,1.2,0.1,1.9-0.3c-1.8-0.6-3.4-1.2-4.1-3
		c-0.2-0.5-0.5-1.1,0.1-1.5c0.5-0.4,1-0.3,1.5,0c1.2,0.7,2.8,1,2.4,3.1c1.5-1.5,1.6-3.4,1.8-5.3c-0.6,0.5-0.7,1.5-1.3,1.3
		c-0.6-0.3-0.5-1.2-0.2-1.8c0.6-1.1-0.2-1.4-0.9-1.8c-0.7-0.3-1.5-0.2-2.4,0c1.1,1,2.6,1.4,2.5,3.1C183.8,95,183.7,95,183.6,95.1
		 M174.9,93.7c-0.3,0.9-1.2,1-1.8,1.7c-0.6,0.7-1.8,1.1-1.8,2c0,1.3-0.6,2.5-0.4,3.9c0.7-1.2,2.6-0.9,3-2.8c0.3-1.2,1.5-2.1,2.2-3.2
		c0.2-0.4,0.8-0.8,0.4-1.3C176.1,93.3,175.5,93.5,174.9,93.7c-0.1,0-0.1-0.1-0.1-0.1c1.3-0.3,2.5-0.7,3-2.2c2.6-0.6,5.1-2.1,7.8-0.3
		c0.3-1.8,1.1-3.4-0.4-4.8c-0.5,0.5-0.6,1.1-0.4,1.8c-0.1,0-0.3,0-0.4,0.1c-0.5-0.4-0.8-0.1-1.2,0.2c-1,0.7-2.1,1.1-3.4,1.3
		c-2.8,0.3-5.3,1.4-7.1,3.7c-0.4,0.5-0.7,0.1-1,0c-0.4-0.1-0.6-0.3-0.3-0.8c0.9-1.7,1.7-3.5,3.5-4.7c1.6-1.2,3.6-1.3,5.6-1.8
		c-0.7-0.4-1.1-0.8-0.7-1.5c0.4-0.7,1.2-0.6,1.6-0.4c1.5,0.7,3.1,0.4,4.6,0.9c0.5,0.2,0.8,0.1,0.9-0.7c0.2-1.4-0.5-2.2-1.6-3
		c0.1,0.5,0.2,0.9,0.3,1.3c-0.1,0-0.2,0-0.4,0.1c-0.7-0.9-1.3-2-2.5-2.4c-0.5-0.2-1.3-0.4-1-1.2c0.2-0.8,0.9-0.9,1.6-0.9
		c0.9,0,1.5,0.4,2.1,1c0.4,0.5,0.8,1,1.3,1.5c0.5-0.8,0.4-1.5,0.3-2.1c-0.2-0.6-0.5-1.8-1.3-1.5c-0.7,0.3-0.8-0.1-0.9-0.3
		c-0.3-0.6-0.7-1.6-0.5-1.9c0.6-0.7,1.2,0.3,1.8,0.5c0,0,0.1,0.1,0.1,0.1c0.3,0.1,0.8,0.6,0.9-0.1c0.2-0.8,0.5-2.3-0.1-2.3
		c-1.6,0-3.4-0.2-4.7,1.2c-2,2.2-3.7,4.3-4.5,7.6c0.8-0.7,1.7-1.5,2.5-2.2c0,1.2-1.3,1.5-1.5,2.7c1.1-0.1,2.1-0.5,3.1,0.1
		c0.4,0.3,1,0.4,0.9,1c-0.1,0.9-0.8,0.5-1.3,0.5c-3.3-0.6-6.7,1.1-8.2,4c-1.3,2.5-2.2,5.2-3.6,7.6c-1,1.7-1.6,3.5-2.2,5.4
		c-0.8,2.2-2,4.2-4.5,5.3c-4.7,2-9,4.6-12.2,8.7c-1,1.3-2.3,2.7-1,4.7c0.1-0.3,0.3-0.5,0.3-0.7c0.3-1.8,1-3.5,2.2-4.9
		c2.6-3.3,6.3-4.9,10.2-6.2c2.9-1,5.2-2.6,6.1-5.7c0.1-0.3,0.5-0.6,0-0.9c-0.7-0.4-0.3-0.9-0.1-1.4c1.1-2.6,3.1-4.3,5.5-5.6
		C174.2,93.8,174.4,93.1,174.9,93.7 M186.8,52.8c-0.1-0.6-0.2-1.2-0.4-1.8c-0.6,0.6-1,1.4-1.6,1.7c-0.9,0.4-0.9,0.2-1.1,1.3
		c0.8-0.5,1.5-0.1,2.1,0.3c0.4,0.3,1,0.8,0.4,1.3c-0.6,0.5-0.7,1-0.8,1.6c-0.1,0.3-0.2,0.9-0.7,0.9c-0.5,0-0.6-0.5-0.7-0.9
		c-0.1-0.2-0.1-0.4-0.3-0.6c-0.3,0.6-0.8,0.9-1.5,1.5c0.5-0.9,0.8-1.5,1.1-2.1c0.1-0.2,0.6-0.5-0.1-0.8c-1.1-0.4-0.7-1.4-0.3-2
		c0.5-0.8,1.1-1.6,1.8-2.3c1-0.8,1.4-1.9,1.3-3.3c0-0.5,0-0.8-0.5-0.5c-1.2,0.6-2.6,1-3.5,2.2c-1.4,1.7-1.8,1.7-3-0.1
		c-0.2-0.4-0.3-1-1-0.9c-1.2,0.2-2.3,1.7-2,3c0.8-0.3,1.3-1.2,2.3-0.7c0,0.1,0.1,0.2,0.1,0.3c-1.5,0.3-2.3,1.6-3,2.7
		c-1.1,1.7-1,2.7,0,3.9l0,0c-0.1,0-0.3,0-0.3,0.2c0.3,4-2.7,6.5-4.2,9.9c-0.4-0.9,0.2-1.4,0.2-2.3c-0.7,1-0.9,2.3-2.5,2.1
		c1.2,0.1,0.6,1.5,1.1,1.5c1.8-0.1,0.9,1,0.8,1.6c-0.2,1-0.1,2,0.2,2.9c0.6,2.1,1.3,4.1,2.9,5.6c0.6-1.1,0.5-1.2-0.1-2.5
		c-0.7-1.4-1.2-2.9-1.8-4.4c-1-2.3,0.8-5.8,2.3-6.9c1.1-0.8,2.2-1.6,3.2-2.5c1.1-0.9,1-2.4,0-3.4c-0.3-0.3-0.4-0.6-0.4-1
		c0.2-1.5,0.6-3,1-4.4c0.4-1.1,2.7-2.5,3.8-2.4c0.5,0.1,0.9,0.3,0.9,0.8c0,0.4-0.3,0.5-0.6,0.5c-1.2,0.1-2.4,0-2.3,1.8
		c0,0.7-0.8,1.4-1,2.1c-0.1,0.5-0.8,1.2,0.1,1.6c1.4,0.6,1.3,1.5,0.6,2.6c0.6,0.1,1.3-0.4,1.6,0.2c0.2,0.5,0.2,1.1-0.2,1.5
		c-1.6,1.8-2.3,3.9-3.2,6c-0.3,0.8-0.5,1.6-1.1,2.2c-0.4,0.4-0.6,0.7-1.1,0.3c-0.6-0.4-0.1-0.8,0.2-1.1c1.3-1.2,2.2-2.6,2.1-4.5
		c-2.9,2-4.6,3.2-2.2,7.4c1.3-0.6,1.4-2.2,2.4-3.1c1.6-1.6,3-3.3,3-5.9c0-1.4,0.6-3,2-3.8c1.2-0.8,1.9-2,2.8-3
		c1.1-1.2,2-2.7,3.2-3.8c1-0.9,2.2-1.8,2-3.4c-1,0.3-1.1,1.2-1.6,1.9c-0.3,0.5-0.5,0.9-1.2,0.6c-0.5-0.2-0.6-0.7-0.3-1.1
		c0.5-0.8,0.2-1.4-0.3-2.3c-0.2,1.3-0.3,2.2-0.5,3.2C187,52.6,186.9,52.7,186.8,52.8 M129.4,124.4c2.5,1.8,5.4,2.9,8.2,4.6
		c-0.8,0.1-1.2,0-1.7-0.2c-2.6-1.1-5.2-2.1-7.9-3.1c-1-0.4-2-0.5-2.7,0.7c2.1,0.3,4.2,0.3,6.3,1.5c-2.7-0.1-5-0.3-7.3-0.4
		c1.9,1.2,4.1,1.3,5.9,2.9c-0.5,0-0.8,0-1.2-0.1c-2.3-0.4-4.7-0.8-7-1.3c-0.7-0.1-1,0-1.2,0.6c1.5,0.3,3,0.6,4.5,1.3
		c-2,0.8-4.1-0.7-6.3,0.3c2.4,0.4,4.3,1.4,6.4,2.6c-2.2-0.1-4.1-0.5-6-1.1c-1.1-0.4-1.9-0.2-2.5,0.8c-0.3,0.4-0.6,0.8-0.3,1.4
		c0.1,0.3,0.1,0.7-0.4,0.5c-1.1-0.3-1,0.8-1.3,1.2c-0.3,0.5,0.2,0.8,0.6,1.2c0.4,0.4,0.8,0.7,1.2,1.1c-0.7,0.3-1.2-0.1-1.7-0.3
		c-0.6-0.3-1.1-0.2-1.4,0.5c-0.3,0.8-0.1,1.1,0.6,1.4c0.7,0.3,1.4,0.7,2.4,1.3c-0.7,0-1,0.1-1.3,0c-1.7-0.6-2.7-0.2-3.3,1.7
		c-0.4,1.1-0.1,1.5,0.8,1.6c1,0.2,1.8,0.7,2.5,1.3c-1.3,0.1-2.5-0.2-3.7-0.5c-0.6-0.1-1,0.1-1.2,0.6c-0.2,0.6,0.4,0.6,0.7,0.8
		c1,0.6,2,1.1,3.2,1.7c-1.5,0.3-2.5-0.9-3.9-0.7c-0.9,0.1-0.9,0.8-1.2,1.3c-0.4,0.7,0.4,0.7,0.7,0.9c0.6,0.4,1.2,0.7,1.9,1
		c-0.8,0.1-1.5-0.1-2.2-0.1c-0.4,0-1-0.3-1.4,0.2c-0.4,0.7,0.4,0.8,0.6,1.1c0.3,0.3,0.6,0.6,0.9,0.9c-0.3,0.3-0.7,0.2-1,0
		c-0.6-0.3-1.2-0.5-1.5,0.3c-0.3,0.7,0,1.1,0.7,1.3c0.3,0.1,1,0.1,0.9,0.8c-0.2,0.7-0.8,0.5-1.2,0.4c-1.3-0.5-1.3,0.7-1.6,1.3
		c-0.5,0.9,0.5,0.8,0.8,1.1c0.6,0.5,1.5,0.5,1.7,1.4c-0.8,0.2-1.6,0.1-2.3-0.3c-0.6-0.3-1.2-0.2-1.2,0.5c0,0.4-0.7,1.1,0.6,1.4
		c2.3,0.6,4.4,1.7,6.6,2.6c-1,0.3-1.9,0.4-2.8,0c-1.3-0.6-2.8-1-4.2-1.4c-0.2-0.1-1-0.7-0.9,0.3c0.1,0.6-1.2,1.4,0.3,2
		c1.8,0.6,3.4,1.5,5.3,1.8c0.5,0.1,1.2,0.3,1.2,1.1c-0.4,0.1-0.8,0.2-1.1-0.1c-1.6-1.1-3.4-1.1-5.2-1.4c-0.5-0.1-1.2-0.3-1.3,0.5
		c0,0.6-0.7,1.3,0.4,1.8c0.5,0.2,0.9,0.8,1.4,1.2c-0.5,0.4-1-0.1-1.5,0c-0.3,0.1-0.5-0.4-0.8,0c-0.2,0.3,0.2,0.6,0.3,0.9
		c0.2,0.5,1.1,0.6,0.8,1.3c-0.1,0-0.3-0.1-0.4-0.1c-0.6-0.1-1.2-0.3-1.5,0.6c-0.3,0.9,0.5,0.8,0.9,1.1c0.4,0.4,1.1,0.4,1.5,1.1
		c-1.1,0.3-2-0.1-2.8-0.4c-0.6-0.3-0.6,0.3-0.8,0.5c-0.2,0.3-0.3,0.6,0.2,0.8c0.5,0.2,0.9,0.4,1.4,0.5c1,0.3,2.1,0.6,2.7,1.7
		c-0.2,0.1-0.4,0.2-0.6,0.2c-1.4-0.1-2.7-0.6-4-1c-0.4-0.1-0.7-0.1-0.9,0.2c-0.2,0.3,0,0.6,0.4,0.9c0.3,0.2,1,0.2,0.8,0.9
		c-0.3,0-0.6,0-0.9,0c-0.4,0-0.9-0.5-1,0.2c-0.1,0.5,0.5,0.6,0.8,0.7c1.5,0.2,2.6,1.2,3.8,1.9c-0.4,0.1-0.8,0-1.1,0
		c-1.3-0.3-2.5-0.6-3.8-0.9c-1.1-0.3-1.3,0.7-1.6,1.4c-0.3,0.7,0.5,0.8,0.9,0.9c2.9,1.1,5.6,2.5,8.3,3.9c-1.4-0.1-2.7-0.6-3.9-1.2
		c-1.6-0.8-3.2-1.3-4.9-1.5c-0.4,0-0.9-0.3-1.2,0.4c-0.9,1.9-1.6,3.8-1.8,5.9c-0.4,4-1.6,7.6-3.8,10.9c-0.5,0.8-0.2,0.9,0.6,1.2
		c3,1.1,5.7,2.9,8.7,4.4c-4.3,0.7-7.4-1.2-10.1-3.7c-1.5,1.6,0.4,2.1,1,3.3c-1.9-0.9-1.8-0.8-2.4,0.8c-0.3,0.9,0,1.1,0.6,1.5
		c0.6,0.4,1.5,0.1,2,0.9c-0.8,0.2-1.4-0.1-2-0.2c-0.6-0.1-1.2-0.2-1.4,0.6c-0.2,0.8,0.5,1,0.9,1.1c2.3,0.6,4.2,2.1,6.3,3.1
		c-2.3-0.3-4.3-1.3-6.4-2.1c-0.8-0.3-1.1-0.2-1.5,0.5c-0.8,1.5-1.5,3.1-2.4,4.5c-0.6,0.9-0.8,1.7,0.6,2.3c-1.1-0.6-1.4-0.3-1.6,0.7
		c-0.6,2.1-1.4,4.2-2.1,6.3c-0.3,1-1,2,0.2,3.1c-0.7-0.2-1.4-0.5-1.5,0.3c-0.2,1-1.4,2.3,0.7,2.8c-0.7,0.6-1.5-0.6-2,0.1
		c-1.1,1.6-1.3,3.5-2,5.3c-0.4,0.8,1.2,1,1.5,1.8c0,0.1,0,0.2,0,0.3c-0.2-0.1-0.4-0.2-0.6-0.2c-0.6,0-1.4-0.8-1.8,0.4
		c-0.4,1.1,0.6,1,1.1,1.2c0.9,0.6,1.7,1.2,2.3,2c-1.2-0.3-2.4-0.5-3.3-1.1c-1.8,2.3,1.1,3,1.7,4.6c-0.6-0.2-1.1-0.3-1.5-0.6
		c-1.1-0.8-1.5-0.6-1.7,0.7c-0.2,1.1-0.8,2.2-1.3,3.3c-0.4,1-1,1.9-0.4,3c0.1,0.3-0.1,0.3-0.3,0.5c-1.1,0.6-1.1,1.8-0.1,2.3
		c0.8,0.5,1.7,0.9,2.6,1.4c-1,0.3-1.8-0.1-2.6-0.3c-0.7-0.2-1.1-0.2-1.3,0.7c-0.4,1.3,0.2,1.6,1.2,1.8c1.1,0.3,2.1,0.8,2.9,1.8
		c-1-0.3-1.9-0.7-2.8-1.2c-0.7-0.4-1.5-0.7-2.1,0.1c-0.6,0.8,0.2,1.2,1.1,1.9c-1.5-0.3-2,0.2-2.4,1.1c-1.4,3.8-2.8,7.5-4.2,11.2
		c-0.2,0.6-0.1,1,0.6,1.4c1.6,0.9,3.4,1.3,4.9,2.2c1.1,0.6,2.2,1.4,3.3,2.1c0.3,0.2,0.7,0.7,1.1,0c0.4-0.6,0-1-0.4-1.3
		c-0.8-0.6-1.7-1.1-2.4-1.7c-1.2-0.9-2.7-1.5-3.6-2.8c1.6,0.7,3.2,1.5,4.7,2.4c0.7,0.4,1.3,1,2,1.3c0.2,0.1,0.8,0.4,1.1-0.1
		c0.2-0.3,0.6-0.7,0.2-0.9c-1.1-0.6-1.4-2.3-3.2-2.1c-0.9,0.1-1.7-0.6-2.6-1.6c1,0.2,1.7,0.4,2.4,0.5c-0.3-1.1-1.8-1.1-2.1-2.2
		c2,1.2,4,2.4,5.7,3.9c0.3,0.3,0.8,0.6,1.2,0.2c0.4-0.3,0.6-0.7,0.6-1.2c0-0.6-0.5-0.5-0.9-0.6c-0.4-0.2-0.9-0.4-1.4-0.7
		c0.9-0.5,1.6,0.2,2.4,0.3c0.7,0.1,0.9-0.3,1.2-0.6c0.4-0.6-0.3-0.6-0.6-0.8c-0.6-0.3-1-0.9-1.5-1.4c0.6,0.2,1.1,0.5,1.6,0.8
		c0.4,0.2,0.9,0.7,1.2,0c0.3-0.6-0.5-0.6-0.8-0.7c-1.9-1.1-3.9-2.1-6-3.2c0.6-0.6,0.9-0.2,1.2,0c0.9,0.4,1.7,1,2.6,1.3
		c1.3,0.4,2.5,0.7,3.4,1.8c0.1,0.1,0,0.2,0.1,0.1c0.1,0,0.1-0.1,0.2-0.2c0.9-0.6,0.9-1.1-0.3-1.7c0.9,0,1.5,0.6,2.2,0
		c-1.7-1.2-3.5-1.9-5.3-2.4c-2.5-0.6-3.6-1.3-5.2-3.3c0.1,0,0.2,0,0.3,0c3.6,0.8,6.9,2,9.9,4.1c0.2,0.1,0.6,0.8,1,0.2
		c0.3-0.5,0.1-0.8-0.4-1.1c-0.4-0.2-0.7-0.4-1.1-0.6c-2-1-3.8-2.5-5.6-3.9c3,0.7,5.7,2.2,8.6,3.4c-2.5-2.4-5.2-4.4-8.4-5.9
		c2.1,0.5,3.9,1.3,5.6,2.5c1.1,0.8,2.2,1.6,3.6,1.7c0.2,0,0.5,0.5,0.7,0c0.2-0.4,0.1-0.6-0.3-0.8c-3-2.3-6.2-4.3-9.8-5.6
		c-0.5-0.2-1.2-0.4-1.2-1.2c1.8,0.5,3.5,1.3,5.1,2.2c1.9,1,3.9,1.9,5.7,3.1c1.3,0.8,2.1,0.5,2.9-0.5c-2.2-1.3-4.4-2.7-6.9-4.3
		c3.4,0.3,5.5,2.7,8.5,2.9c-4.7-3.1-8.8-6.8-13.3-10.2c0.5-0.3,1-0.1,1.4,0.2c1.2,0.8,2.5,1.5,3.5,2.4c2.2,1.9,4.4,3.7,7.1,4.9
		c0.8,0.4,1.6,0.8,2.4,1.3c0.1-0.2,0.2-0.3,0.3-0.5c-2.6-1.9-5.3-3.9-7.9-5.8c0.4-0.3,0.6-0.2,0.8,0c2.2,1.8,4.9,2.8,7.3,4.2
		c0.9,0.5,1.6,0.5,2.3-0.4c-4-2.4-8.4-4.1-12.3-7c0.8,0,1.4,0.2,2,0.5c1.6,0.9,3.2,1.8,4.8,2.5c1.8,0.9,3.7,1.6,5.6,2.4
		c0.6,0.2,1,0.2,1.3-0.5c0.3-0.8-0.3-0.8-0.7-1c-1.2-0.6-2.1-1.4-3.2-2.3c0.8-0.2,1.2,0.3,1.6,0.5c0.9,0.3,1.8,0.7,2.8,1
		c0.9,0.2,1.3-0.5,1.7-1c0.3-0.4,0.1-0.6-0.3-0.8c-3.7-2.2-7.3-4.5-11-6.8c-1.7-1-3.4-1.8-5.2-2.8c0.1-0.2,0.2-0.3,0.2-0.5
		c5.8,2.8,11.4,6,17.9,8.4c-1.9-2.4-4.6-3.2-6.6-5.2c1.9,0.4,3.3,1.2,4.7,2.2c1.6,1.2,2.5,1.2,3.7-0.1c-2.1-1.8-4.9-2.7-6.7-4.9
		c2.2,1.4,4.8,1.9,7,3.2c0.6,0.4,1.2,0.5,1.6-0.4c0.5-1-0.3-1-0.8-1.2c-2.2-0.9-4-2.5-6-3.6c-0.9-0.5-2-1-2.7-2.4
		c0.6,0.3,0.8,0.4,1,0.5c2.9,1.8,6.2,2.7,9,4.5c0.7,0.5,1.1,0,1.5-0.4c0.7-0.7-0.4-0.5-0.5-0.9c-0.1-0.5-0.7-0.5-1-0.8
		c-1.5-1.4-3.4-2-5.2-2.8c-2.9-1.3-5.2-3.7-8.2-5c-1.6-0.7-3.1-1.6-4.6-2.4c2.1,0,3.9,0.9,5.6,2c1.8,1.2,3.5,2.7,5.7,3.3
		c0.8,0.2,1.5,0.6,2.1,1.1c1.8,1.5,4.1,2.3,6.1,3.5c0.8,0.5,1.2,0.5,1.7-0.5c0.4-0.8,0.3-1.2-0.5-1.6c-2.8-1.4-5.5-3-7.8-5.1
		c3.1,1.3,6.1,2.7,9.2,4c0.3,0.2,0.8,0.7,1.1,0c0.3-0.6-0.3-0.6-0.6-0.8c-2.4-1.1-4.5-2.8-6.9-4c-1.1-0.5-1.9-1.5-3.1-2.4
		c3.9,1.3,7.1,3.2,10.4,4.9c0.4,0.2,0.9,0.9,1.2,0.3c0.3-0.6-0.5-0.9-0.9-1.1c-0.6-0.3-1.2-0.5-1.3-1.3c0.9,0.1,1.5,0.9,2.5,1
		c0.6,0.1,0.8-0.3,1-0.6c0.3-0.5-0.3-0.4-0.4-0.6c-0.6-0.9-1.9-1-2.6-2.1c1.4,0.2,2.3,1.1,3.5,1.4c0.9,0.2,1-0.4,1.3-0.8
		c0.4-0.7-0.2-0.7-0.5-0.9c-1.4-0.9-3-1.3-4.5-2.1c-3.9-2-7.4-4.7-11.2-7.1c0.2-0.1,0.4-0.2,0.6-0.1c2,0.5,3.8,1.5,5.5,2.6
		c3.3,2.1,6.8,4,10.2,6c0.4,0.2,0.8,0.5,1.1-0.1c0.4-0.6,0.1-1-0.4-1.2c-2.8-1.1-4.8-3.4-7.5-4.7c-2.1-1-4.1-2.2-6-3.7
		c0.6-0.3,1.1,0,1.6,0.3c1.6,0.8,3,1.8,4.5,2.7c2.2,1.3,4.6,2.5,6.9,3.7c0.5,0.3,1,0.5,1.5,0.8c0.3,0.2,0.6,0.1,0.8-0.1
		c0.4-0.4-0.1-0.5-0.3-0.6c-0.2-0.2-0.4-0.5-0.6-0.6c-3.1-1.6-5.8-3.7-8.8-5.4c-0.9-0.5-1.6-1-2.4-1.9c4.2,2,7.8,4.6,11.7,6.6
		c1.4,0.7,1.8-0.2,2.4-0.9c0.4-0.5,0-0.7-0.4-0.8c-2.1-0.4-3.8-1.7-5.3-2.9c-3.7-3.1-8-5-12.4-6.8c-0.4-0.2-1.1-0.2-1.1-1
		c2.2,0.6,4.2,1.3,6.1,2.3c3.9,2.1,7.8,4.2,11.7,6.2c0.9,0.5,1.8,0.8,3.2,0.8c-3.9-3-8-5.1-11.7-7.9c4.5,1.5,8.2,4.5,12.8,5.9
		c-1-1.6-2.9-1.8-4.2-2.9c1.6,0,2.8,0.9,4,1.5c0.9,0.5,0.9,0.5,1.7-0.4c-2.7-1.5-5.7-2.8-8.3-4.9c0.7,0.1,1.2,0.2,1.6,0.4
		c2.2,0.9,4.3,1.8,6.5,2.7c0.3,0.1,0.6,0.7,1,0c0.3-0.6-0.3-0.6-0.5-0.9c-0.8-0.9-2.1-1.2-3.1-1.9c-1.9-1.3-4.6-1-6.2-2.9
		c-1.1-1.3-2.5-2.2-4.2-2.6c-0.6-0.2-1.2-0.6-1.8-0.9c2.9,0.4,5.5,2,8.5,2.2c-0.4-0.5-1.2-0.5-1.5-1.1c0.4-0.3,0.7-0.2,1,0
		c2.9,1.3,6,2.3,8.7,3.9c0.7,0.4,1.6-0.2,1.4-0.9c-0.1-0.7-0.8-0.7-1.3-0.9c-2.5-1-4.9-2.3-7.2-3.8c-1.9-1.2-3.9-2.5-6.2-3
		c-1.3-0.3-5.2-2.3-6.2-3.2c0.2-0.2,0.5-0.2,0.7,0c4.7,2.2,9.5,4,14.1,6.4c1.8,1,3.6,1.9,5.5,2.9c0.6,0.3,1.1,0.9,1.7-0.2
		c0.6-1.2-0.4-1.1-0.9-1.4c-1.4-0.8-3.2-0.9-4.3-2c-1.2-1.3-2.7-2-4.2-2.8c-2.3-1.3-4.7-2.5-7.1-3.8c0.7-0.1,1.3,0,1.8,0.3
		c3.2,1.9,6.7,3,9.8,4.9c1.9,1.1,4,1.4,5.9,2.4c0.4,0.2,0.8,0.1,1-0.3c0.3-0.5-0.2-0.6-0.5-0.7c-0.7-0.4-1.6-0.7-2.2-1.2
		c-3.4-2.7-7.5-3.9-11.5-5.3c-1.5-0.5-2-1.6-2.9-2.8c2.2,0.7,4.3,0.8,5.8,2c2.4,2,5.3,3.1,8,4.5c1.1,0.6,2.3,1.2,3.5,1.6
		c0.9,0.3,1.2,0,1.3-0.8c-2.1,0-3.9-0.5-5.1-2.3c-0.9-1.3-2.2-2.2-3.6-3c-1.9-1.1-4-1.5-6.1-2.9c1.5,0.2,2.7,0.4,3.8,1
		c3.6,2,7.3,3.7,11.1,5.2c0.4,0.1,0.9,0.6,1.1-0.1c0.2-0.6-0.5-0.6-0.7-0.7c-2.2-1.2-4.4-2.5-6.2-4.3c-0.3-0.3-0.9-0.6-1.3-0.7
		c-1-0.1-1.8-0.7-2.6-1.1c-0.3-0.2-1-0.2-0.7-0.9c0.3-0.7,0.8-0.1,1.1,0.1c1.5,0.6,2.5,1.9,3.9,2.4c2.5,0.9,5,1.9,7.4,3.2
		c0.2,0.1,0.5,0.2,0.7-0.2c-4.8-2.7-8.9-6.4-14.4-8.6c0.5-0.1,0.6-0.1,0.7-0.1c4.5,2,9,4,13.3,6.3c0.3,0.2,0.6,0.4,0.9,0.5
		c1,0.3,0.7-0.9,1.3-1.1c0.4-0.2,0.1-0.5-0.2-0.6c-3.1-1.5-6.1-3.4-9.3-4.8c-2.8-1.2-6.2-0.9-8.5-3.8c-1.2-1.5-3-2.8-4.8-4.4
		c1.1,0.1,1.6,0.5,2.1,0.9c0.6,0.6,1.2,1.3,2,1.5c2.1,0.7,4,1.8,5.8,3c1.4,1,3,1.8,4.7,2.3c2.7,0.9,5.4,2,8,3.1
		c1,0.4,1.6,0.5,2.3-0.6c-6.3-2-11-6.5-16.4-9.9c5.5,2.6,10.7,5.5,16.4,7.7c-1.8-1.5-3.5-3-5.8-3.7c-1.1-0.4-2.3-0.6-2.7-2
		c0.7-0.1,1.1,0.3,1.5,0.5c2.4,1.7,5.1,2.8,7.8,4.1c0.4,0.2,0.9,0.6,1.1,0c0.2-0.5-0.4-0.6-0.7-0.8c-4.2-2.4-8.7-4.3-12.6-7.3
		c-2.3-1.8-5-3.1-7.5-4.7c-0.2-0.1-0.4-0.3-0.3-0.7c1.6,0.4,3,1.2,4.4,2.1c3.9,2.4,7.8,4.7,11.9,6.7c1.8,0.9,3.5,1.9,5.3,2.8
		c-3-1.8-6.1-3.5-8.7-5.8c-2.6-2.2-5.7-3.8-8.6-5.7c3.2,0.4,5.5,2.6,7.9,4.2c3.2,2.1,6.7,3.6,10,5.5c0.6,0.3,0.8-0.1,1-0.5
		c0.4-0.5,0-0.7-0.4-0.9c-3.1-1.5-6-3.3-8.6-5.6c-1.6-1.5-3.9-1.9-5.2-3.8c5.3,2.5,10,6.2,15.7,8c-0.7-0.8-1.4-1.4-2.3-1.9
		c-1.5-0.9-2.9-2-4.5-2.9c-2-1.2-3.7-2.9-5.9-3.9c-0.9-0.4-1.9-0.4-2.6-1c-0.3-0.3-0.8-0.6-0.6-1c0.2-0.3,0.7-0.2,1.1,0
		c1.1,0.5,2,1.3,3,1.9c3.7,2.1,7.3,4.5,11.1,6.3c0.4,0.2,0.8,0.6,1.6,0.4c-2.1-2.1-4.8-3.2-6.3-5.6c1.2,0.7,2.4,1.1,3.5,2
		c0.8,0.7,1.9,1.3,3.1,1.4c0.3,0,0.6,0.2,0.7-0.2c0.2-0.3,0-0.6-0.2-0.8c-0.4-0.3-0.8-0.5-1.3-0.8c-2.5-1.4-5-2.7-7.1-4.8
		c-2.1-2.1-4.8-3.5-7.5-4.7c-1.5-0.7-2.9-1.5-4.6-2.4c0.7-0.4,1.2-0.4,1.6-0.2c3.4,1.9,7.1,3.6,10.3,5.9c3,2.1,6.2,3.7,9.3,5.4
		c0.3,0.2,0.6,0.5,0.9-0.1c0.2-0.5-0.2-0.6-0.5-0.7c-3.2-1.4-5.5-4.4-9-5.5c-0.3-0.1-1.2-0.2-0.7-1c0.4-0.6,0.8,0,1.1,0.2
		c2.9,2,5.9,3.8,9.2,5.2c0.5,0.2,0.9,0.5,1.2-0.2c0.3-0.7-0.4-0.7-0.7-0.9c-2.1-1.3-4.6-1.8-6.6-3.2c-0.8-0.6-1.8-1-2.2-2.5
		c0.7,0.4,1.2,0.5,1.5,0.8c1.5,1.2,3.2,2,5,2.7c1,0.4,2.1,0.6,3.1,1.2c0.2,0.1,0.8,0.3,1.1-0.2c0.2-0.4,0-0.5-0.3-0.7
		c-3-1.6-5.7-3.9-9.1-4.9c-0.7-0.2-1.7-0.5-2-2c4.3,2.1,8.1,4.2,12.3,5.6c-3-3-7.7-3.2-10.7-6.8c3.9,1.5,7.5,2.9,11,4.4
		c0.9,0.4,1.3,0.2,1.8-0.6c0.6-1.1-0.3-1.1-0.8-1.3c-2.4-1.5-5.2-2.4-7.4-4.4c0.4-0.3,0.6-0.2,0.9-0.1c2.4,1.1,4.8,2.1,7.2,3.1
		c0.5,0.2,1.1,0.6,1.4-0.1c0.3-0.6-0.4-0.8-0.9-1c-2.5-1.1-4.7-2.7-7-4.1c-1.4-0.8-2.9-1.6-4.2-2.6c-1.7-1.2-3.4-2.2-5.4-2.9
		c-1.2-0.4-2.4-0.9-3.4-2.1c1.2,0.1,2,0.4,2.8,0.8c5.9,3.1,11.7,6.2,17.6,9.3c0.3,0.2,0.6,0.3,0.9,0.5c0.5,0.3,0.7-0.1,0.9-0.5
		c0.2-0.4,0.2-0.6-0.2-0.9c-0.6-0.3-1.2-0.9-1.7-1.1c-1.8-0.8-3.1-2.5-5.2-2.9c-1.1-0.2-2.4-0.7-2.9-2.6c2.8,1.8,5.6,2.7,8.2,4.1
		c0.8,0.4,1.5,0.7,2.4,1c0.6,0.2,0.9,0,1-0.5c0.1-0.4,0-0.6-0.6-0.9c-2.1-0.9-4.2-2.1-6.6-3.4c0.6-0.1,0.8-0.1,1-0.1
		c2,0.4,3.8,1.1,5.6,1.9c0.8,0.3,1.7,1,2.1-0.4c0.4-1.2,0.7-2.4,1.2-3.5c0.2-0.6,0.2-1.1-0.5-1.5c-1.6-0.7-2.7-2-4.4-2.6
		c0.5-0.3,0.8-0.2,1.2-0.1c1.4,0.2,2.5,1.3,3.9,1.4c0.3,0,0.5,0.2,0.7-0.2c0.2-0.4-0.1-0.6-0.4-0.6c-0.4,0-0.5-0.3-0.7-0.5
		c-2-0.9-3.6-2.4-5.6-3.2c-2.5-1.1-5.2-1.7-7.6-3c-1.2-0.7-2.3-1.7-3.8-1.2c-0.2,0.1-0.5-0.1-0.7-0.2c-1.4-1.3-3.2-1.9-4.8-2.8
		c-1-0.6-2.1-1.1-3.2-1.7c0.3-0.4,0.5-0.4,0.7-0.3c3,1,6,2.1,8.7,3.6c4.1,2.2,8.3,4.2,12.5,6.2c1.6,0.8,3.5,1.1,5.1,2
		c0.1-0.1,0.1-0.3,0.2-0.4c-1.4-0.7-2.8-1.5-4.1-2.2c1.4-0.2,2.5,0.2,3.7,0.6c-1.3-1.3-2.8-2.4-4.2-3.4c-1.5-1.1-3.5-0.8-5-1.9
		c-1.8-1.4-3.7-2.7-5.4-4.1c-0.6-0.5-1.7-0.6-1.8-1.8c5.4,3.9,11.5,6.2,17.2,9.3c-0.7-2.3-3.1-2.6-4.7-4.3c1.4,0.2,2.4,0.5,3.5,1.1
		c-0.8-1.3-2.3-1.6-3.2-2.5c0.1-0.1,0.1-0.2,0.2-0.3c0.7,0.4,1.4,0.7,2.2,1.2c-0.4-2.8-3.7-2.4-4.7-4.4c0.8-0.4,1.2,0.5,2.2,0.4
		c-2.7-1.7-4.7-4.2-8.2-3.8c-2.3,0.3-4.3-1.3-6.5-1.9c-2-0.6-3.8-1.6-5.6-2.6c-0.3-0.1-0.6-0.2-0.4-0.7c0.2-0.4,0.4-0.3,0.7-0.2
		c0.7,0.3,1.5,0.4,2.1,0.8c2.8,1.8,6.1,2.3,9.5,3.9c-0.7-1.2-1.6-1.4-2.4-1.7c-1.4-0.5-3.2-0.6-4.2-1.5c-1.1-0.9-2.2-1.4-3.4-1.6
		C134.8,124.9,132.3,123.2,129.4,124.4 M72.5,281.6c-2-1.9-4.4-2.8-6.6-4.1c-1-0.6-1.6-1-1.9,0.7c-0.4,2.5-2,4.7-2.7,7.2
		c-0.1,0.4-0.4,0.6,0.1,1c1.6,1.1,3.3,2.1,5,3c0.7,0.4,0.9,0,1.3-0.5c0.4-0.6,0.1-0.9-0.4-1.1c-1.3-0.7-2.4-1.8-4.1-2.4
		c2.5,0,4,2,6.2,1.7c-1.6-2-4.3-2.7-5.5-5.1c1.1,0.3,1.7,1,2.4,1.7c0.9,0.9,2.2,1.3,3.4,1.9c0.3,0.2,0.7,0.8,1.1,0.2
		c0.4-0.6-0.2-1-0.5-1.2c-1.3-0.6-2.1-1.8-3.6-2c-0.6-0.1-1.3-0.5-2-1.4c2.3,0.5,4,1.4,5.6,2.6c0.5,0.4,0.9,1.1,1.7,0.5
		c1.3-1,0.3-1.6-0.4-2c-1.9-1.1-3.8-2.1-5.5-3.6C68.3,279.1,70.1,280.8,72.5,281.6 M196.4,67.3c-0.5-1.1,0.9-2.9-1.5-3.1
		c-0.2,0-0.2-0.5-0.2-0.8c0-1.3,0.8-2.1,1.9-2.1c1.7-0.1,2.6-1,3.5-2.2c0.2-0.3,0.8-0.4,0.6-0.9c-0.2-0.4-0.7-0.4-1-0.6
		c-0.7-0.3-1.2,0.2-1.4,0.6c-0.6,1.1-1.7,1.5-2.6,2.1c-1,0.7-2.1,1-3.2,0.8c-0.5-0.1-1.1-0.4-1.4,0.3c-0.4,0.8,0.3,0.9,0.8,1.2
		c0.1,0.1,0.2,0.3,0.3,0.4c0.4-0.5,0.5-1.5,1.2-1.2c0.7,0.3,0.5,1.1,0.3,1.7c-0.4,0.8-0.1,1.5,0.5,1.9
		C194.9,66,195.7,66.6,196.4,67.3 M61.1,292.8c0.9,0,1.5,0.5,2.2,0.5c0.8,0.1,1-0.5,1.3-0.9c0.3-0.4-0.1-0.5-0.3-0.6
		c-1.5-0.8-3-1.4-4.5-2.8c0.4,1.2-1,1.8-0.3,2.6c0.4,0.5,0.4,0.4-0.2,0.7c-1,0.4-1,1.1,0,1.7c0.3,0.2,0.6,0.3,0.9,0.5
		c0.7,0.3,1.6,1.1,2.1,0.3C63,293.9,61.6,293.7,61.1,292.8 M170.8,87.8c0.5-0.8,0.9-1.4,0.7-2.3c0-0.1-0.3-0.2,0-0.4
		c1.5-1.1,1.7-3,2.8-4.4c0.3-0.4,0.1-0.7-0.3-0.8c-0.5-0.1-0.3,0.4-0.3,0.6c-0.1,0.7-0.2,1.8-0.7,1.7c-0.9-0.1-0.7,0.3-0.8,0.7
		c-0.2,0.7-0.6,0.8-1.3,0.5c-1.1-0.7-2.3-1.2-3.6-1.9c-0.2,2.2,0.3,3.8,2.4,4.3C170.8,86.1,170.6,87,170.8,87.8 M173.4,35.1
		c2.5,1.2,2.7,3.6,3.6,5.6c0.5,1.2,0.8,1.5,2,0.9c0.3-0.1,0.7-0.3,0.6-0.6c-0.1-0.3-0.5-0.5-0.9-0.4c-0.5,0.2-1,0.2-1.2-0.4
		c-0.2-0.5,0.2-0.9,0.5-1.2c1.6-1.5,1.6-1.7,0.2-3.7c-0.4,0.8-0.4,1.8-1.1,2.4c-0.4-0.6,0.2-1.2,0.2-1.9c-1.1,0.2-2.3,0.5-1.5-1.4
		C175,34.6,174.3,34.8,173.4,35.1 M173,52.7c0.5-0.9,1-1.9,1.5-2.9c0.3-0.6,0.5-1.2-0.6-1.5c-0.6-0.1-0.5-1.9,0.1-2.2
		c1-0.5,1.4-1.5,2.2-2.1c0.5-0.4,0.1-0.8-0.2-1.2c-0.4-0.5-0.5,0.1-0.7,0.3c-0.9,0.7-1.8,1.4-2.7,2c-0.7,0.4-0.8,0.8-0.4,1.5
		C173.2,48.5,174.1,50.4,173,52.7 M241.5,98c0.7,0.6,1.3,0.9,2,0.7c1.2-0.3,2.2-0.1,3.3,0.5c0.3,0.1,0.5,0.4,0.8,0
		c0.7-1,1.3-2.1,2-3.1c0.2-0.3,0.2-0.6-0.1-0.8c-0.2-0.1-0.4,0.1-0.6,0.2c-1,0.8-1.9,1.5-2.9,2.2c-0.4,0.3-0.9,0.6-1-0.2
		c-0.2-1.2-0.9-0.8-1.4-0.5C242.8,97.3,242.2,97.6,241.5,98 M229.4,93.1c-1.4,0.7-2.6,1.3-3.9,1.9c-0.4,0.2-0.5,0.4-0.3,0.6
		c0.6,0.5,1.3,1,2.1,1.1c0.8,0.2,0-1,0.8-1.1c0.5,1.5,1.2,3,3.3,3.5c-1.4-1.1-0.3-3.5-2.8-3.4C228.9,94.8,229.1,94,229.4,93.1
		 M187.3,90.7l0.3,0.1c0.3-0.4,0.6-0.9,0.9-1.3c0.6-0.9,2.3-1.7,0.5-3.1c-0.4-0.3,0.1-0.8,0.3-1c0.7-1.1,0.4-2.3,0.7-3.4
		c0.1-0.4-0.2-0.7-0.6-0.7c-0.3,0-0.3,0.2-0.4,0.5C188.4,84.7,187.9,87.7,187.3,90.7 M158.6,125.1c-2.4,1-4.1,2.8-5.5,4.9
		c-0.2,0.3-0.3,0.5,0.1,0.7c0.3,0.2,0.4,0,0.6-0.2c0.9-1.2,1.8-2.4,3.4-3.3c-0.5,1-1.1,1.8-1.3,2.6c-0.3,0.8-1.4,1.4-0.2,2.6
		C156.2,129.7,158,127.7,158.6,125.1 M146.3,115.9c0.3,2.2-0.8,3.8-1.7,5.5c-0.4,0.8-0.8,1.6-1.3,2.4c-0.2,0.4-0.2,0.8,0.2,1.1
		c0.6,0.4,0.6-0.2,0.8-0.4C146.7,122,146.9,119.1,146.3,115.9 M236.9,100.3c-0.8-1-1.5-2-2.3-2.8c-0.5-0.5-1-0.7-1.6-0.8
		c-0.6-0.1-0.7,0.1-0.7,0.6c-0.1,1.6,1,2.9,2.7,2.8C235.6,100,236.3,100.1,236.9,100.3 M165.5,117.2c-1.9,0.9-4,1.3-5.9,2.2
		c-1.4,0.6-1.4,0.7-1.6,2C160.9,120.7,163.1,118.8,165.5,117.2 M177,64.5c-3,0.7-3.7,3.2-4.2,5.6c-0.3,1.6,0,3.4,1.4,4.9
		c0.2-2.1-1.2-3.8-0.4-5.9C174.5,67.1,175.2,65.5,177,64.5 M224.8,90.8c1.6-1.7,1.6-4.1,3.1-5.7c0.2-0.2-0.1-0.4-0.4-0.5
		c-0.1-0.1-0.3-0.3-0.5,0C226,86.4,224,88,224.8,90.8 M149.9,108.5c-1.8,1.7-2.4,3.6-1.7,5.6C150.7,112.9,150,110.7,149.9,108.5
		 M62.9,290c0.7,0.4,1.3,0.7,2,1c0.3,0.1,0.6,0.5,0.9,0c0.4-0.6-0.2-0.7-0.5-0.8c-1.4-0.6-2.5-1.6-3.5-2.6c-0.3-0.3-0.6-1-1.1-0.3
		c-0.4,0.5-0.6,1.2,0.1,1.6C61.5,289.3,62.2,289.7,62.9,290 M174.9,90.2c1.8-1.5,4-1.9,6.2-2.4c0.3-0.1,0.6-0.3,0.9-0.5
		c0.3-0.2,0.8-0.4,0.5-0.8c-0.2-0.3-0.7-0.6-1.2-0.3c-0.7,0.4-1.4,0.7-2.1,1.1C177.8,88.1,175.9,88.4,174.9,90.2 M199.7,25.9
		c-0.2,1.1-0.3,2.1-1.2,2.9c-1.3,1.2-0.8,2.6-0.8,4C198.8,30.6,200.5,28.6,199.7,25.9 M189.3,79.5c2.1-1.2,3.1-3.3,4.1-5.6
		C190.9,75.1,190.5,77.7,189.3,79.5 M168.5,37.3c-1.5,0.1-2.2,1-3.2,1.7c-1.1,0.8,0.1,1.1,0.4,1.4c0.4,0.6,0.9,0.4,1.3-0.2
		C167.4,39.4,167.9,38.4,168.5,37.3 M147.5,127.1c0.8,0.3,0.8-1.3,1.7-0.4c0.1,0.1,0.3-0.2,0.2-0.4c-0.6-1.2-0.2-2.5-0.5-3.7
		c-0.1-0.3,0-0.9-0.6-0.9c-0.4,0-0.3,0.5-0.3,0.9C147.9,124.1,147.9,125.7,147.5,127.1 M197.3,56.4c-1.9,0.8-3.3,1.9-4.2,3.4
		C195.4,59.6,196.2,59,197.3,56.4 M222.4,102.1c1.4-1.3,2.6-3,4.8-3.1c-1.4-1.7-2,0.2-2.9,0.4c-0.2-0.8,0.8-0.9,0.9-1.7
		c-1.2,0.8-2.5,1.4-2.1,3C223.3,101.4,222.7,101.6,222.4,102.1 M118.3,210.1c1.4,2,3.6,2.6,5.7,3.2
		C122.4,211.8,120.5,210.7,118.3,210.1 M163.5,119.8c3.9-0.2,3.9-0.2,5.5-2.7C167.1,118,165.3,118.9,163.5,119.8 M61.1,296.4
		c-0.7-0.6-1.4-1.1-2-1.8c-0.7-0.8-1.1-0.3-1.1,0.3c0,0.4-0.6,1.3,0,1.2C59.1,296.2,60.1,298,61.1,296.4 M145.9,126.4
		c0.8-2.2,2-4.4,1.7-6.9C147.4,121.9,145.8,123.9,145.9,126.4 M185.4,105c0.2-0.3,0.3-0.5,0.4-0.7c0.3-0.4,0.5-1,0.2-1.4
		c-0.2-0.3-0.8-0.2-1.2-0.1c-0.7,0.2-1.4,0.2-2.2,0.3C183.6,103.8,184.6,104,185.4,105 M188.2,59.7c-1.9-0.2-2.1,0-2.7,2.2
		C187.4,62.6,187.3,60.7,188.2,59.7 M173.3,85.7c1.2-0.6,1.8-1.6,2.6-2.3c0.2-0.2,0.8-0.3,0.5-0.7c-0.1-0.3-0.5-0.4-0.9-0.5
		c-0.5-0.2-0.5,0.3-0.7,0.6C174.4,83.6,174,84.6,173.3,85.7 M187.6,93.7c1.6-0.8,2.1-2.3,1.3-3.7C188.3,91.1,187.4,92.2,187.6,93.7
		 M182.9,105c-0.2-0.1-0.5-0.4-0.8-0.1c-0.4,0.5,0.2,0.8,0.2,1.2c0.1,0.6,0.4,1,1.1,1c0.2,0,0.6,0.1,0.6-0.3c0-0.6-0.1-1.2-0.6-1.6
		C183.3,105.2,183.1,105.2,182.9,105 M57.8,299.3c-0.3,0.2-0.8-0.9-1,0.1c-0.1,0.5-0.7,1.2,0.3,1.6c0.7,0.3,1.1,0.2,1.5-0.5
		C59,299.7,58.3,299.6,57.8,299.3 M181.9,73.5c-2.3-0.1-3,1.4-3.8,3.5C179.3,75.4,180.7,74.7,181.9,73.5 M171.1,37.7
		c0.6-0.2,1.2,0.5,1.5,0.3c0.4-0.3,1,0.7,1.1-0.1c0.1-0.6-0.2-1.1-0.9-1.2c-0.4-0.1-0.8-0.3-1.2-0.4
		C171.5,36.7,171.3,37.1,171.1,37.7 M253.5,85.3c-1.8-0.7-3.2-0.1-4.7,0.5C250.4,86.1,251.9,86.1,253.5,85.3 M227.6,90
		c0.7-0.2,1.8-0.1,1.7-0.8c-0.3-1.4,0.4-2.4,0.8-3.8C229.1,87.1,228.3,88.6,227.6,90 M216.7,76.7c0.5-0.9,0.7-1.5,1.1-2
		c0.4-0.6-0.2-0.8-0.4-1.1c-0.4-0.5-0.6,0.2-0.7,0.3C215.7,74.6,216.5,75.4,216.7,76.7 M174.9,112.2c-2.1-0.1-3.3,1.3-4.6,2.6
		C171.8,113.9,173.3,113,174.9,112.2 M189.4,106.6c1.5-0.1,2.5-0.6,3.4-2C191.5,105.2,190,104.8,189.4,106.6 M198.8,102
		c-1.5,0.6-2.8,1.5-4.6,2C196.5,104.4,197.7,103.2,198.8,102 M167.5,78.2c0.1,1.9,1.4,3,2.8,4C169.3,80.9,168.3,79.7,167.5,78.2
		 M193.4,49.4c2.1-1.5,2.1-1.5,2.2-3.2C194.6,47,193.8,47.9,193.4,49.4 M59.6,298.4c-0.4-0.6-1.2-0.7-1.6-1.3
		c-0.3-0.5-0.6,0.1-0.7,0.3c-0.1,0.3-0.6,0.8,0.1,0.9C58.1,298.3,58.7,299.2,59.6,298.4 M192.4,106.8c-0.7,0.6-1.3,1.1-2,1.7
		c-0.2,0.2-0.5,0.5-0.2,0.8c0.3,0.3,0.5,0.2,0.9,0C191.9,108.6,192,107.7,192.4,106.8 M56.8,301.5c-0.3-0.1-0.8-0.6-0.9,0
		c-0.1,0.5-0.8,1.2,0.1,1.6c0.9,0.5,0.8-0.5,1.1-0.8C57.8,301.9,57.1,301.7,56.8,301.5 M189.1,72.1c1.6-0.8,1.7-1,2.1-2.6
		C190,69.9,189.7,71,189.1,72.1 M203.1,81.8c0.4-0.7,0.7-1.4,1.1-2c0.1-0.3,0.3-0.5,0.6-1.1c-0.8,0.7-1.2,1.3-1.7,1.6
		C201.7,80.7,203.2,81.2,203.1,81.8 M199.5,99.6c0.5-0.2,1.1,0.1,1.5-0.4c0.1-0.1,0.3-0.8-0.1-0.9c-0.5-0.1-1.1-0.2-1.5,0.3
		C199.2,98.9,199.3,99.2,199.5,99.6 M204,77.1c1.2-1.1,2.1-2.1,2.5-3.3C205.5,74.6,204.5,75.4,204,77.1 M245.5,105.3
		c0.3-1.3,0.2-2.5-1.2-3.6C244.8,103.1,245.2,104.2,245.5,105.3 M195,68.2c-0.1,1-0.6,2-0.1,3.4C195.4,70.3,195.6,69.3,195,68.2
		 M187.2,105.6c-0.5,0.6-1.4,0.7-1.3,1.6c0,0.3,0.3,0.3,0.6,0.2C187.5,107.2,187.5,106.5,187.2,105.6 M198.8,41.6
		c0.9-0.5,2.2,0,3-0.9C200.8,41,199.6,40.4,198.8,41.6 M190.2,54.1c0.9-0.3,1.6-0.2,2.3-0.7C191.4,52.8,190.7,52.6,190.2,54.1
		 M200.2,42.9c-1.9,0.5-2.5,0.9-3,1.9C198.1,44.3,199.1,43.9,200.2,42.9 M190.2,111.5c0.1,0.6,0.3,1.1,1,1.7c-0.4-1,0.3-1.4,0.4-2.2
		C191,111.2,190.6,111.3,190.2,111.5 M194.6,85.5c-1.5,0.8-2,1.2-2.3,2.3C193.1,87.3,193.8,86.5,194.6,85.5 M240.5,104.5
		c0.7-1,1.2-2,0.8-3.2C240.7,102.3,240.8,103.5,240.5,104.5 M241.7,83.8c-0.4,0.7-0.7,1.3-0.9,1.8c-0.2,0.3-0.1,0.5,0.3,0.7
		c0.4,0.2,0.6-0.2,0.6-0.4C241.7,85.2,241.6,84.7,241.7,83.8 M170.3,77.4c0.7,0.8,0.8,2.1,1.9,2.8C171.9,78.9,171.1,78.2,170.3,77.4
		 M193.2,97.4c-1.2-0.5-1.4-0.4-2.4,0.4C191.7,97.9,192.5,98,193.2,97.4 M175.5,39.3c0.1,0.6-0.2,1.2-0.3,1.7c0.5,0,1-0.1,1.4-0.4
		C176.2,40.2,175.9,39.8,175.5,39.3 M230.9,104.4c1.2,0.8,2.1,1,3.5,0.9C233.1,104.6,232.2,104.7,230.9,104.4 M258.3,90.4
		c0.3,0,0.4-0.1,0.5-0.1c0.3,0,0.5-0.3,0.3-0.5C259,89.7,258.5,89.8,258.3,90.4 M190.5,97.5c-0.1,0.1-0.2,0.2-0.3,0.3
		c0,0,0.1,0.1,0.1,0.2c0.1-0.1,0.2-0.2,0.4-0.2C190.7,97.6,190.6,97.6,190.5,97.5 M258.1,90.4c0-0.1-0.1-0.2-0.1-0.2
		c-0.1,0-0.3,0.1-0.4,0.2c-0.2,0.2,0,0.3,0.1,0.3C257.9,90.6,258,90.4,258.1,90.4"/>
	<path class="st1" d="M123.9,52.8c-1.6,1.3-3.1,0.2-4.6-0.1c-0.5-0.1-0.8-0.6-1-1.2c-0.2-0.5-0.3-1-0.5-1.4c-0.9-1.9-1.4-2-2.9-0.5
		c-0.4,0.4-1.1,0.7-1.4,1.4c0.6-0.2,4.3,0.6,4.5,1.2c0.6,1.3,1.5,2.7,0.4,4.4c1.1-0.9,1.5-2.3,3.1-2.4c0.5,0,1.1-0.5,1.4-0.1
		c0.5,0.7,1.1,1.6,0.9,2.3c-0.3,1.1-0.5-0.6-1.1-0.1c0.9,1.2,2.1,2.3,2.4,4c1-1.3,2.6-1.7,2.9-3.4c-0.5,0-0.7,0.5-1.1,0.6
		c-0.7,0.2-1.4,0.7-1.8-0.4c-0.3-0.8-0.3-1.3,0.5-1.9c1.5-0.9,1.9-2.6,2.6-4c1.1-2.2,2.3-4.4,4.8-5.5c0.2-0.1,0.5-0.2,0.7-0.3
		c0.5-0.1,1.2-0.5,1.5,0.3c0.3,0.8-0.3,1.2-1,1.3c-2.2,0.5-4,1.4-4.7,3.8c0.9-0.7,1.8-1.4,2.8-2.1c0.4-0.3,1-0.5,1.5-0.7
		c0.6-0.2,1.1,0,1.3,0.6c0.2,0.8-0.6,0.7-1,0.8c-2.2,0.2-3.6,1.6-5,3.1c-0.6,0.8-0.2,1.2,0.4,1.6c1.2-1.3,2.2-2.7,4.1-3.2
		c-3,2.6-3.4,6.6-5.4,9.7c0.8-0.9,1.5-1.8,2.4-2.7c-0.1,2.1-1.3,3.6-2.7,4.9c1.8-0.8,2.9-0.3,3.8,2.1c0.4,1.1,0.6,2.2,2.1,2.1
		c0.2,0,0.3,0.3,0.6,0.5c0.2-0.9,0.4-1.7,0.9-2.4c0.2-0.3,0.3-0.6-0.1-0.8c-0.2-0.1-0.3-0.3-0.2-0.5c1.6-2.1,1.6-2.1,2.1-4.2
		c-0.9,0.1-1.8,0-2-1.2l0,0.1c0.6-1.6,1.9-2.9,1.8-4.8c0-0.3,0.4-1.2,0.7-1.8c0.4-0.9,0.9,0.2,1.4,0c0.1-0.5,0.3-1,0.5-1.6
		c0.3,1.5,0.1,3,0.9,4.4c2.2-1.7,1.8-2.7,0.2-4.9c-0.5-0.7-1.3-1.1-1.7-1.8c-0.3-0.7-0.3-1.4-0.3-2.2c0-0.4,0.4-0.7,0.5-0.6
		c1.6,0.8,2.2-1.6,3.7-1c0.8,0.3,0.4,1,0.2,1.6c1.3-0.1,1.6-0.8,1.3-1.8c-0.3-1,0.2-1.9,0.9-2.1c0.7-0.2,1.3,0.6,1.5,1.8
		c1.2-1.8,1.8-3.6,2.1-5.5c0.1-0.4,0.1-1,0.6-1c0.6,0,0.7,0.5,0.8,1c0.1,0.6,0,1.2,0.1,1.7c0,0.2-0.3,0.6,0.1,0.6
		c0.6-0.1,1.1-0.2,1.1,0.7c0,0.8-0.2,1.4-0.7,2.1c-1.3,2.1-3.2,3.5-5.1,4.9c-0.9,1-3.1,0.7-2.7,3c1-0.9,1.9-1.8,2.8-2.7
		c0.3-0.2,0.6-0.4,0.9-0.5c0.3-0.1,0.6-0.6,1-0.2c0.5,0.5,0,0.8-0.5,1.4c1.1-0.5,1.9-1,2.9-1.1c0.3,0,0.7,0.1,0.8,0.3
		c0.2,0.3-0.1,0.6-0.3,0.8c-0.8,0.7-1.5,1.5-2.5,1.9c-1.1,0.5-1.4,1.7-2,2.7c-0.3,0.6-0.5,1.3-1.2,1.7c-0.4,0.3-0.8,0.6-1.2,0.3
		c-0.6-0.3,0.3-0.7,0.1-1.1c-0.6-0.1-1,0.5-1.6,0.5c-0.1,0-0.2,0.1-0.2,0.2c0.9,2.5-1.7,3.2-2.5,4.8c-0.9,1.8-2,3.4-2.7,5.3
		c-0.1,0.4-0.3,0.7-0.4,1.1c-0.3,0.6-0.8,1.1-0.1,1.9c0.3,0.4-0.2,1.6-0.5,2.4c-0.5,1.6,0,2.5,1.7,2.8c0.2,0,0.4,0.1,0.7,0.2
		c-0.2-1.5-0.6-2.9,0.2-4.3c0.1-0.1,0-0.3,0.1-0.4c0.4-0.8,0.8-2,1.6-1.9c1,0.2,0.7,1.4,0.6,2.3c-0.1,0.7,0,1.4,0.5,1.9
		c1.5,1.2,1.6,2.7,0.9,4.4c-0.2,0.5-0.2,1.1-0.3,1.7c-1-0.1-1.6-0.8-1.8-1.6c-0.7-1.9-2.3-1.6-3.7-1.8c1.7,0.8,2.1,2.2,2,3.8
		c-0.1,1.1,0.8,1.7,1.4,2.4c0.4,0.4,0.6-0.2,0.7-0.3c0.9-1.1,2-2,3.3-2.6c0.7-0.4,0.4-0.9,0.6-1.4c0.6-1.2,0.3-2.5,0.4-3.7
		c0-0.4-0.3-0.8-0.7-1.1c-2-1-2.3-2.6-1.9-4.7c0.4-1.9,0.9-3.9-0.1-5.8c-0.8,0.4-0.8,0.4-1.6,2.9c0.3,0.2,0.9-0.4,1.1,0.3
		c0.5,1.2-0.6,1.9-0.9,2.9c-0.6-0.2-0.1-0.7-0.6-1c0,2-2.4,0.9-2.8,2.4l-0.3-0.2c0.3-0.6,0.6-1.2,0.9-1.7c0.8-1.5,1.5-3,1.9-4.7
		c0.2-0.8,0.5-1.8,1.9-1.5c0.9,0.2,0.8-0.9,1.2-1.3c0.3-0.4,0.6-0.8,1.2-0.7c0.7,0.2,0.3,0.9,0.2,1.1c-0.6,1.4-0.7,2.6,0.3,4
		c0.9,1.2,1.6,2.3,3,2.9c0.2,0.1,0.3,0.2,0.6,0.3c-0.8,0.6-1.5-0.4-2.2,0c0.3,1.6,0.5,3.3-0.3,5c-0.3,0.7-0.3,1.7,0,2.5
		c0,0,0-0.1,0-0.1c-0.1,2.3-0.9,4.2-2.8,5.5c-0.3,0.2-0.5,0.6-0.4,0.9c0.1,0.3,0.5,0.3,0.9,0.3c1.2-0.1,2.4-0.1,3.5-0.4
		c0.7-0.2,1.1-0.5,0.7-1.2c-0.2-0.4-0.2-0.9,0.3-1.1c0.7-0.3,0.8,0.3,1,0.6c1.5,2.5,3,5.1,2.8,8.6c0.9-1.8,0.5-3.3,0.5-4.8
		c0.8,0.2,0.5,1,1,1.4c1.3-1,2.5-2.3,4.2-2.9c-4.9,5.3-4.1,4.3-4.5,9.3c0.5-0.1,0.5-0.7,0.9-0.9c-0.3,1.7-1,3.3-2,4.7
		c-0.3,0.4-0.7,0.8-1,0.4c-0.3-0.5-1.4-0.5-0.8-1.4c0.2-0.4,0.5-0.7-0.2-1.1c-0.8-0.4-0.3,0.8-0.8,0.5c-0.3-1.5-0.1-3.1-0.2-4.7
		c-0.1-1.5-0.1-3.1-0.3-4.6c-0.7,2.1-1.6,4.2-0.8,6.5c0.2,0.6,0.6,1.1-0.4,1.3c-0.3,0.1-0.3,0.2,0,0.6c0.3,0.6,0.6,1.1,0.8,1.7
		c-1.7-1.7-3.5-3.3-5.7-4.4c0.7,0.9,1.5,1.8,2.2,2.7c0.3,0.4,0.6,0.9,0.2,1.4c-0.4,0.7-0.8,0-1.1-0.2c-0.7-0.7-1,0.3-1.4,0.4
		c-0.4,0.1-0.7,0.5-1.1,0c-0.3-0.4,0-0.8,0.3-1c0.8-0.4,0.7-1.1,0.3-1.5c-0.6-0.6-0.2-2.2-1.8-2c-0.5,0.1-1.1-0.3-1-1.1
		c0.1-0.7-0.5-0.7-0.9-0.8c-0.5-0.2-0.1,0.4-0.4,0.5c-0.7,0.5,0,0.5,0.2,0.7c0.7,0.8,0.6,2-0.2,2.5c-1.6,1.1-2.7,2.8-4.5,3.7
		c-1.4,0.7-2.8,0.7-4.2,0.6c-0.4,0-1-0.2-1-0.7c0-0.4,0.3-0.8,0.8-1c1.6-0.3,2.7-1.4,3.9-2.3c0.9-0.6,1.9-1.2,3.1-0.5
		c0.5,0.2,1.1,0,1.4-0.4c0.3-0.5-0.2-0.9-0.4-1.1c-0.9-0.9-1.9-1-3-0.3c0.4-1.1,1.4-1.2,2.4-1.4c-0.8-0.9-2-0.9-3.3-1.5
		c2.5-0.3,4.4,0.7,6.5,0.7c-0.2-0.7-0.9-1.8,0.5-2.3c0.2-0.1,0-0.6-0.1-0.6c-2.1-0.3-2.5-2.2-3.2-3.7c0-0.1-0.2-0.1-0.2-0.1
		c0,0.1,0,0.3-0.1,0.4c-0.1,0-0.2,0-0.3,0c-1-1.1-2.1-2.2-3-3.4c-0.6-0.9-1.3-0.9-2.1-0.5c-0.7,0.4-1.4,0.8-2.2,1.3
		c0.9,0.3,0.9,0.3,1.6-0.2c0.2-0.1,0.3,0,0.4,0c2.4,1,4.3,2.6,5.7,4.6c0.4,0.6,0.8,1.5,1.1,2.3c0.2,0.4,0,0.8-0.4,1
		c-0.6,0.3-0.5-0.3-0.6-0.6c-0.5-1-1.5-1.4-2.5-1.7c0.3-0.5,0.8,0,1.1-0.4c-0.5-0.8-1-1.7-2.2-0.8c-0.3,0.2-0.5,0.3-0.8,0
		c-0.3-0.2,0-0.4,0.1-0.7c0.1-0.3,0.4-0.5,0.3-0.8c-3.6-0.9-6.3,0.4-8.5,3.3c-0.3,0.4-0.8,1.2-1.4,0.6c-0.5-0.5-0.1-1.1,0.4-1.5
		c0.7-0.6,1.7-0.9,2-1.6c0.3-0.7,0.6-1.5,1-2.4c-0.9-0.4-1.6,0.1-2.3,0.4c-0.6,0.2-0.1,0.9,0,0.9c1.1,0.5,0.5,0.7,0,1.3
		c-1,1.1-1.7,2.5-2.9,3.5c-0.4,0.4-0.8,0.5-1.3,0.7c-0.4,0.2-0.8,0-1-0.3c-0.2-0.3-0.4-0.6-0.1-1.1c0.8-1.4,1.3-3,2.8-3.9
		c-0.1-0.4-0.3-0.2-0.5-0.2c-0.3-0.1-0.2,0.2-0.3,0.3c-1.7,1.3-2.9,2.9-3.3,5c-0.1,0.3-0.1,0.9-0.8,0.9c-0.5,0-1,0-1.2-0.4
		c-0.3-0.5-0.2-1.1,0.2-1.5c0.7-0.9,1.4-1.7,2-2.6c-1.4,1-2.7,2-4.3,2.7c-0.5,0.2-1,0.5-1.5,0.5c-0.6,0-1.6,0.7-1.8-0.6
		c-0.2-0.9-0.9-1.8,0.5-2.5c0.7-0.3,1.3-1,1.9-1.6c-1.9-0.4-3,1.1-4.6,1.5c-0.7,0.2-1.3,0.6-2,0.7c-0.4,0.1-0.9,0.6-1.1-0.1
		c-0.3-0.8,0.3-0.9,0.8-1.1c1.2-0.4,2.4-0.7,3.7-1.5c-1.7-0.2-3,0.2-4.8,0.7c1.5-1.3,2.9-2,4.3-2.7c0.1-0.6-0.7,0-0.6-0.4
		c0-0.5,0.5-0.2,0.7-0.2c0.3-0.1,0.7-0.1,1-0.1c1.4-0.2,3,0.7,4.2-1.2c0.6-1,2-1.1,3.2-0.3c0.3,0.2,0.5,0.9,1.1,0.4
		c0.4-0.4-0.2-0.8-0.2-1.2c1.9,0.7,1.9,0.7,2.4-1.5c0.2-0.6,0.6-1.2,1-2c-0.4,0.1-0.7,0.1-0.8,0.2c-0.5,0.6-1.2,0.5-1.6,0.2
		c-0.5-0.4-0.3-1.2,0-1.8c0.1-0.2,0.2-0.5,0.4-0.7c0.5-0.7-0.2-1.2-0.4-1.6c-0.4-0.5-0.8,0.3-1,0.5c-1.3,1.5-2.6,3.1-3.9,4.7
		c-0.4,0.5-0.9,0.8-1.3,1.1c-0.9,0.6-1.1,0.5-1.6-0.7c-0.2,0.5-0.4,0.9-0.7,1.2c-0.5,0.7-0.9,1.2-2,0.6c-1.1-0.6-1-1.3-0.6-2
		c0.4-1,1-2,1.5-2.9c-2-1.2-2.2,0.7-2.5,1.6c-1.2,3.7-3.8,5.4-7.4,5.9c-0.4,0.1-0.8,0.2-1.1-0.2c-0.3-0.5-0.1-1,0.3-1.2
		c2.3-1.8,3.5-4.7,5.9-6.3c0.7-0.5,0.6-1.1,0.4-1.7c-0.2-0.7-0.7-0.8-1.4-0.8c-2.1,0-4,0.5-5.7,1.7c0.2-0.6,0.8-1.6,1.2-1.7
		c1.8-0.6,3.6-1.2,5.5-1c1.4,0.1,2,1.3,2,3.6c0.8-0.8,1.5-1.7,2.4-2.5c1.4-1.2,1-2.5-0.7-3.1c-0.8-0.3-1.6-0.3-2.4-0.2
		c-0.8,0.1-1.2-0.2-1.7-0.8c-0.5-0.7-0.2-1.2,0.1-1.8c0.5-0.8,1.2-1.4,2-1.7c1-0.4,1.7-1,2.5-2.1c-1.4,0.6-2.6,0.5-3.8,0.3
		c-1-0.2-1.2,0-0.6,0.8c0.7,0.9,0.5,1.6-0.5,2.1c-0.5,0.3-0.7,0.6-0.9,1.2c-0.4,1.4-1.8,2-3,1.5c-0.5-0.2-0.8,0.1-1,0.5
		c-0.6,1.7-0.6,1.7-2.2,2.8c0.3-0.5,0.4-0.8,0.6-1.1c0.2-0.3,0.7-0.3,0.6-0.8c-1.1,0.2-2.1-0.6-3.3,0.2c-1.1,0.8-2,1.8-3.2,2.7
		c0.6-1.6,1.5-2.8,2.8-3.6c0.7-0.5,1.6-1,1-2.1c-0.4,0.4-0.9,1-1.4,1.5c0.3-2.3,2.4-2.8,3.7-4.1c0.4-0.4,1-0.5,0.9-1.4
		c-0.1-0.8,0.7-1.3,1.6-1.4c0.4,0,0.9,0.2,1.3-0.1c-1.3-2.1-1-1.8-3-0.6c-0.6,0.4-1.3,0.7-2,1.1c0.3,0.2,0.6,0.3,0.8,0.5
		c0.1,0.2,0.3,0.5,0.2,0.7c-0.2,0.5-0.5,0.1-0.7,0c-1.1-0.3-2.1-0.5-3.2,0c0-0.2,0-0.3,0-0.3c1.7-0.5,2.1-2.6,3.8-3.1
		c0.4-0.1,0.4-0.4,0.3-0.7c-0.1-0.4-0.4-0.3-0.7-0.3c-1.4,0.4-2.6,1.2-3.7,2.1c-0.9,0.7-1.6,1.8-3.1,1.4c0.5-1.7,2.2-2.4,3.3-3.6
		c0.3,0.1,0.4-0.1,0.4-0.4c-0.2,0-0.3,0-0.5,0.1c-1.5,0.3-2.4,1.5-3.6,2.2c-0.5,0.3-0.9,0.8-1.4,1c-0.4,0.2-0.8,0.6-1.2,0.1
		c-0.5-0.6,0.1-0.9,0.5-1.2c1-0.8,2-1.5,3.2-2.5c-2,0.3-3.1,1.3-4.4,2.3c-0.4,0.3-0.8,0.6-1.1,0.9c-0.6,0.6-1-0.1-1.4-0.3
		c-0.6-0.2-0.4-0.8-0.3-1.2c0.2-0.9,1-1.6,1.6-2.4c-1.6,0.5-3.2,1-4.8,1.5c-0.2,0.1-0.4,0.2-0.6,0.2c-0.6,0.2-1.5,0.3-1.7-0.3
		c-0.2-0.5,0.3-1.1,0.9-1.5c2.2-1.5,4.7-1.2,7.1-1.4c-0.9-0.5-1.5-0.6-4.1-0.6c-0.7,0-1.8,0.4-1.8-0.6c0-1,0.9-1.5,1.9-1.4
		c2.4,0.1,4.7,0.8,6.8,1.9c0.1,0,0.2,0.1,0.3,0.1c1.1,2,2.9,1.5,4.6,1.3c0.5-0.1,1.2-0.3,1.5,0.5c0.2,0.4,0.7,0.4,1.1,0.1
		c-0.9-1.2-1.7-2.6-3-3.5c-0.5-0.4-1.3-1.1-0.6-1.9c0.7-0.8,1.7-0.8,2.4-0.1c0.7,0.7,1.7,1.2,2.2,2.2c-0.4,0.5-0.8,0.1-1.3,0.2
		c0.6,0.1,0.6,1.4,1.4,0.7c0.6-0.5,0.8,0.3,0.8,0.3c-0.1,1.5,1.3,1.4,2,2.1c0.1-1.9,1.9-3.8-0.1-5.7c-0.6,0.6,0.1,1.5-0.6,2
		c-0.5-0.5-0.2-1.2-0.4-1.8c-0.2-0.6-0.1-1.4,0.4-1.6c0.6-0.2,1.4,0,1.9,0.5c1,0.8,1.2,2,1.6,3.2c-0.3,0.5-0.1,0.9,0.3,1.2
		c-0.1-0.4,0.1-0.9-0.4-1.1c0.5-0.3,0.2-0.9,0.4-1.4c0.2-0.4,0.4-1,1-0.9c0.6,0.1,1,0.4,1,1.1c0,0.6,0,1.2,0,1.8
		c0,0.6-0.1,1.2,0.5,1.7c0.6,0.5,0.6,1.3-0.2,1.8c-0.8,0.5-1.1-0.3-1.3-0.9c-1.1,1.5-1.1,1.5-2.2-1c-0.7,0.7-0.6,1.2,0.1,2
		c0.9,1,2.6,1.8,2,4c0.7-1.2,1.7-2.2,0.1-3.1c0.9,0.2,1.8,0.4,1.7,1.6c0.7-0.5,0.8-1.3,0.7-1.9c0-1.8,0.8-2.6,2.7-2.5
		c-2-0.8-0.7-2.3-0.9-3.5c-0.1-0.6,0.1-0.6-0.6-0.7c-1-0.2-1.9-1.1-2.9-1.7c-0.2-0.1-0.2-0.3-0.1-0.5c0.2-0.4,0.5-0.5,0.9-0.4
		c0.9,0.3,1.9,0.1,2.8,0.7c0.2-1.1-0.3-1.9-0.8-2.7c-0.4-0.7-0.9,0.3-1.4-0.1c-0.6-0.5-1.1-1.2-2-1.4c0.9-0.9,2.4-0.6,4,0.9
		c-0.3-0.9-1.5-2-2.6-2.6c-0.5-0.3-1.1-0.4-1-1.1c0-0.4,0.3-0.6,0.7-0.7c0.8-0.3,0.9,0.4,1.2,0.8c1.1,1.1,2.2,2.3,2.3,4
		c0.3-1.4,1.3-2.8-0.1-4.2c-0.4-0.5-0.5-1,0.1-1.4c0.6-0.3,1.2-0.1,1.4,0.6c0.5,1.4,0.9,2.9,0.7,4.7c1-1.2,0.7-2.5,1-3.9
		c0.7,1.7,0.5,3.2,0.2,4.7c0.8-0.8,0.4-2,1.3-2.6c0.3,1.2-0.1,2.2-0.5,3.3c-0.1,0.4-0.3,0.5,0.2,0.9c1.7,1.2,1.7,2.4,0.3,4
		c-0.2,0.2-0.5,0.4-0.6,0.9c0.7-0.4,1.3-0.8,1.9-1.1c0.8-0.4,1.4-0.9,0.7-1.9c-0.2-0.2-0.3-0.8,0-0.8c1.2-0.2,0.8-1.1,1-1.8
		c0.3-1,1.2-1.1,2.2-0.5c0.9,0.7,1,1.7,1.4,2.5c0.7,1.6,1.9,2.9,2.3,4.6c0.3-0.5,0.5-0.8,0.8-1.4c0,0.8,0,1.4,0,2.4
		c1.2-2.3,2.3-4.3,3.3-6.3c0.4-0.7,0.9-1.5,1.7-1.1c0.8,0.4,0.6,1.3,0.2,2.1c-0.4,0.7-0.8,1.5-1.2,2.3c0.3,0.5,1.3,0,1.2,0.6
		c-0.1,0.9-0.5,1.8-1.2,2.3c-1,0.8-2.2,1.4-3.4,2.1C123.5,53.1,123.7,52.9,123.9,52.8c1.2-0.9,2.6-1.5,3.3-3
		C126.1,50.7,124.3,51,123.9,52.8 M118,55.8c-0.1-0.2-0.1-0.4-0.2-0.5c-0.3-0.2-0.2-0.8-0.7-0.6c-0.1,0-0.2,0.2-0.2,0.4
		c-0.1,0.5,0.3,0.5,0.6,0.7c0.1,0.1,0.2,0.1,0.3,0.2c0,0.6,0.2,1.2-0.2,1.7c-0.2,0.3-0.1,0.6,0.2,0.7c0.5,0.1,0.4-0.2,0.4-0.5
		C118.2,57.1,118.3,56.4,118,55.8 M115.9,54.9c0.7-0.3,0.5-1.1,0.4-1.4c-0.4-0.6-1.1-1.1-1.7-1.6c0,0-0.1,0.1-0.2,0.2
		c-0.8,0.9-0.2,3.1,0.9,3.5c1,0.4,0.3-0.4,0.4-0.6C115.6,54.9,115.7,54.9,115.9,54.9 M145,88.8c0,0.3,0.1,0.4,0.4,0.4
		c0-0.2,0-0.3-0.1-0.5c-0.3-1.3,0-2.5,0.4-3.7c0.1-0.5,0.1-0.8-0.4-0.8c-1.2,0-2.2-0.5-3.2-1c-0.4-0.2-0.7-0.2-0.9,0.2
		c-0.2,0.3-0.7,0.7-0.3,1.2c0.8,0.9,1.2,2.3,2.9,1.8c-0.1,0.4-0.8,0.7,0,1.1C144.3,87.8,144.6,88.4,145,88.8 M124.2,73.6
		c0-0.1,0-0.2-0.1-0.3c0.6-0.5,1.8-0.6,1.3-1.8c-0.4-0.8-1.2-0.4-1.9-0.6c-0.3-0.1-0.6-0.1-0.5,0.3c0.1,0.4-0.4,0.9-0.1,1
		c1.2,0.3,0.4,0.5,0,0.8c-1.8,1.4-1.7,2.4,0,3.9c1.1,0.9,1.8,0.7,2.2-0.5c0.5-1.5,1.7-2,3-2.4c0.6-0.2,1.2-0.5,1.7-1
		c-0.7-0.5-1.4-0.6-2.1-0.4C126.6,72.9,125.4,73.3,124.2,73.6 M115,66.8c0.3,0.6-0.4,0.7-0.6,1c-0.9,0.9-1.8,1.9-2.5,3.1
		c1.5-0.7,3-1.2,4.1-2.5c0.7-0.8,1.6-1.4,2.8-1.6c0.3-0.1,0.5-0.2,0.7-0.5c1-2.2,2.7-4,3.6-6.3c0.2-0.6-0.2-0.8-0.4-1.2
		c-0.2-0.3-0.4-0.5-0.7-0.4c-1.4,0.4-1.7,1.3-1,2.9c0.3-0.4,0.5-0.7,0.9-1.3c0,0.6,0,1-0.1,1.2c-0.2,0.3,0.1,0.8-0.3,1.1
		c-1.3-0.6-2.5,0.1-2.4,1.6c0,0.6-0.1,1-0.7,1.4c-1,0.7-2.4,0.7-3.1,1.8C115.1,67.1,115,66.9,115,66.8c-0.6-0.5-1.1-1.3-1.6-1.3
		c-1.4-0.1-0.9-1-0.9-1.6c0-0.4,0.3-0.7,0.5-1.1c-0.5,0.4-1,0.8-1.3,1.3c-0.3,0.5-0.7,0.4-1,0.3c-0.3-0.1-0.3-0.5-0.1-0.9
		c0.2-0.4,0.4-0.8,0.9-1.6c-1.1,0.7-1.6,0.7-2.6,0.3c-1.2-0.5-2.8,0.1-4.1,1.2c1.7,0.1,3.2-0.2,4.6,0.6c0.9,0.5,1.4,0.9,0.6,1.9
		c-0.5,0.7-0.9,1.6-1.3,2.4c-0.2,0.4-0.3,0.7,0.2,1c0.6,0.4,0.6-0.1,0.9-0.4c0.8-0.9,1.5-1.8,3.1-2.3c-2.1,2-3.1,4.2-4.1,6.4
		c0.8-1.1,1.4-2.3,2.3-3.3C112.1,68.5,113.2,67.1,115,66.8 M110,53.6c0.6,0.9-0.3,1.5-0.1,2.2c0,0.1-0.1,0.3-0.1,0.4
		c0,0.2,0,0.2,0.1,0.1c1.3-0.4,0.5,0.5,0.4,0.7c-0.7,0.9-0.1,0.9,0.6,0.9c0.6,0,1.2,0.1,1.7-0.8c-0.9,0.5-1.1,0.1-1.4-0.5
		c-0.9-1.6,0.5-2.2,1.2-3.1c0.3-0.4,0.4-0.8,0.1-1.1c-0.3-0.2-0.7,0.3-0.8,0.6c-0.1,0.2,0.1,0.6-0.5,0.8c0.5-1.7-0.4-1.1-1.2-0.7
		c-0.9,0.4-1.9,0.5-2.8,0c0.1,1.4,0.1,2.8-0.5,4.1C108.3,56.5,109.4,55.3,110,53.6 M131.8,69c-0.7,0.6-1.4,0.8-2,1.3
		c-0.5,0.4-0.4,0.5,0,0.8c1.1,1,2.3,1.8,3,3.2c0.1,0.3,0.4,0.5,0.7,0.2c0.2-0.1,0.5-0.2,0.4-0.5c-0.2-1-0.3-1.9-0.6-3.2
		c-0.4,0.9-0.7,1.5-1.5,1.7c0.2-0.6,0.5-1.1,0-1.7C131.5,70.4,131.7,69.7,131.8,69 M117,79.7c0.7-0.2,1.1-0.3,0.3-0.9
		c-0.7-0.5-1.4-1.1-1.9-1.7c-0.4-0.5-0.8-0.6-1.3-0.3c-0.4,0.4-0.5,0.9-0.1,1.4c0.5,0.9,1.5,1.5,1.4,2.7c0,0.4,0.2,0.1,0.3,0
		c0.8-0.6,1.9-0.5,2.8-1C118.1,79.5,117.6,80.2,117,79.7 M122.2,78.9c-0.4-0.7-1.2-1.5-1.5-1.3c-1,0.5-1.1-0.1-1.5-0.6
		c-0.2-0.4-0.5-0.5-1-0.2c-0.4,0.3-0.6,0.5-0.2,0.9c0.5,0.4,0.2,1,0.2,1.5C119.6,79.1,120.8,79,122.2,78.9 M101.1,75.3
		c2.3-0.8,3.2-2.1,4.4-5C103.7,71.8,102.2,73.4,101.1,75.3 M120.5,51.8c0.4-0.7-0.1-2.4-0.7-2.6c-0.3-0.1-0.8-0.2-1.1,0.1
		c-0.2,0.2,0.6,2.7,0.8,2.8C120.1,52.3,120.4,52.1,120.5,51.8 M116,59.8c0.4,0.2,1-0.1,1.2,0.4c0.3,0.5,0.7,0.8,1,0.2
		c0.3-0.6-0.4-0.7-0.7-0.9c-0.7-0.4-1.6-0.7-1.5-1.8c0-0.2,0.9-0.6,0-0.8c-0.7-0.2-0.8,0.3-0.9,0.7C114.9,58.5,115.2,59.3,116,59.8
		 M149.3,83.5c0.2,2.1-0.2,4.2,0,6.3C150.2,87.7,150,85.6,149.3,83.5 M140.3,56.3c-0.7,0.2-1.3-0.8-1.9-0.1
		c-0.7,0.7,0.1,1.3,0.3,1.9c0.1,0.3,0.1,0.6,0.2,1.1C139.3,58.2,139.8,57.3,140.3,56.3 M142.1,82.5c1.4,0.7,2.5,0.8,3.7,0.4
		c0.4-0.1,0.7-0.3,0.5-0.7c-0.1-0.5-0.5-0.2-0.7-0.2C144.5,82.1,143.5,82.3,142.1,82.5 M118.3,62.1c-1.6,0.4-2.4,1.2-3.1,2.3
		c-0.2,0.3-0.9,0.1-0.6,0.7c0.2,0.4,0.6-0.1,0.9-0.1c0.3-0.1,0.7-0.2,1-0.3c0.2-0.1,0.6-0.2,0.1-0.4c-0.9-0.4-0.1-0.5,0.1-0.7
		C117.1,63.1,117.6,62.7,118.3,62.1 M144,70.1c0.6-1.7,0-3.1-0.3-4.5C143.5,67.1,142.8,68.6,144,70.1 M141.1,79.9
		c-1.1,0.9-1.8,1.9-0.6,3.2c0.3-0.2,0.7-0.5,1.1-0.8C140.3,81.8,141.4,80.7,141.1,79.9 M129,63.6c0.2,1.6,0.7,2.7,1.9,3.8
		C130.9,65.7,130.2,64.6,129,63.6 M145.4,49.8c-0.9,0.4-1.8,1-1.9,1.8c-0.1,0.6,1.1,0.2,1.7,0.6C145,51.2,145,50.5,145.4,49.8
		 M128.3,66.3c-0.4,0.9-0.3,1.8-0.5,2.9C129.5,67.7,129.5,67.7,128.3,66.3 M123.2,68.2c0,0.1,0,0.2,0.1,0.2c0.7,0.1,1.3,0.3,2,0.3
		c0.3,0,0.8,0.4,1.1-0.1c0.1-0.1,0-0.4-0.1-0.6c-0.3-0.4-0.6-0.6-1.2-0.4C124.5,67.8,123.8,68,123.2,68.2 M121.9,77.4
		c-0.6-0.9-0.3-2-1.3-2.3c-0.2-0.1-0.7,0.5-1,0.7C120.1,76.5,120.7,77.1,121.9,77.4 M141,49.5c0.3-1.5,0.2-2.6-1.4-2.8
		C139.6,47.8,140.2,48.6,141,49.5 M102.2,59.7c-1.3,0.3-2.8-0.1-3.9,1.1C99.7,60.8,101,60.6,102.2,59.7 M125.4,63.4
		c-0.3,0.8-0.5,1.7-1,2.5c0.7-0.1,1.1,0.4,1.7,0.5C125.9,65.3,125.2,64.5,125.4,63.4 M121,70.5c0.8-0.3,1.6-0.1,2.4-0.4
		c0.3-0.1,0.6-0.2,0.5-0.7c-0.1-0.7-0.5-0.2-0.7-0.1C122.4,69.5,121.6,69.8,121,70.5 M122.5,81c-1.4,0.6-2.3,1.4-2.8,3.1
		C120.7,82.9,121.9,82.4,122.5,81 M113.3,79.5c-0.5-1-1.4-0.6-2-1c-0.2-0.2-0.6-0.4-0.7,0c-0.1,0.3,0.1,0.6,0.4,0.8
		C111.6,79.7,112.4,79.5,113.3,79.5 M128,75.9c0.1,0.2,0.1,0.4,0.2,0.6c0.9-0.4,1.7-0.7,2.6-1.1c0.2-0.1,0.7,0,0.5-0.5
		c-0.2-0.5-0.5-0.4-0.8-0.3C129.6,75.1,128.8,75.5,128,75.9 M113,56.4c0-1,0-2,0-2.9C112.8,54.4,110.7,55.4,113,56.4 M99.9,61.5
		c-1.1,0.3-2,0.8-3.2,1.6C98.5,63.4,99,62.1,99.9,61.5 M140.1,74.9c0.4-1.4-0.2-2.2-1.3-3C139.2,73,139.3,74,140.1,74.9 M127.8,63.9
		c-0.1,1-1.4,0.9-1.1,1.7c0.3,0.8,1,0.2,1.5,0.1C128.1,65.2,127.9,64.6,127.8,63.9 M109.8,61.4c-1.3-0.9-2.3-1.1-3.3-0.3
		C107.5,61.3,108.5,61.1,109.8,61.4 M123,64.9c-0.5,0.4-0.9,0.7-1.4,1.1c0.8-0.3,1.1,0.5,1.7,0.8C123.3,66.1,123.4,65.5,123,64.9
		 M111,82.3c0.7-0.6,1.9-0.6,2.1-1.8C112,80.7,111.5,81.5,111,82.3 M96.5,52.9c0.9-0.1,1.4,0.5,2.3,0.9
		C97.7,52.2,97.6,52.2,96.5,52.9 M102,56c-0.3,0.5-0.8,0.8-0.7,1.4c0,0.2,0.5,0.5,0.8,0.2C102.4,57.2,102.5,56.6,102,56 M97,61.6
		c0.4-0.2,1.2,0.1,1.2-0.8C97.6,60.8,97.3,61.2,97,61.6 M149.4,83c0-0.1-0.1-0.3-0.2-0.5c-0.1,0.1-0.3,0.2-0.3,0.3
		c0,0.1,0.1,0.3,0.2,0.4C149.2,83.3,149.4,83.3,149.4,83"/>
	<path class="st1" d="M225.2,33.3c-1.8,0.5-3.1,1.9-5.1,2.1c2.9,1,4.7,3.4,7.3,4.7c0.7,0.3,1.2,0.8,0.9,1.5
		c-0.3,0.7-1.1,0.5-1.7,0.2c-0.4-0.2-0.7-0.4-1-0.6c-0.5-0.3-0.8-0.7-1.3,0.2c-0.5,0.9-1.7,0.6-2.5,0.1c-0.5-0.3-0.9-0.8-1.1-1.4
		c-0.6-1.5-1.7-2.3-3.3-2.9c-0.1,0.8,1,1.3,0.5,2.2c-0.8-0.2-0.9-1.1-1.6-1.5c-1.2-0.6-2.3-1.2-3.6-1.1c-0.6,0.1-1.2-0.2-1.1-0.9
		c0-0.6,0.7-0.6,1.2-0.6c0.7,0,1.4,0,2.1,0.4c1.6,0.8,3.2,1.6,5.1,1.1c0.5-0.1,0.6,0.5,0.8,0.8c0.8,1.5,1.9,2.7,4.1,2.8
		c-2-0.8-2.3-3.1-4.2-3.7c-0.6-0.2-1.2-0.7-2-0.6c-0.5,0.1-0.5,0-0.6-0.8c0.7-0.1,1.2-0.3,1.1-1.2c0-0.5-0.3-0.6-0.7-0.6
		c-0.6-0.1-1.2-0.3-1.7,0.1c-1.6-0.5-2.9,0.5-4.5,0.7c1.6-1.8,3.9-1.7,5.8-2.7c-1.8-0.3-3.3,0.4-4.9,1c-0.3,0.1-0.6,0.3-0.9,0.4
		c-0.7,0.3-1.3,0-1.6-0.4c-0.3-0.5,0.3-0.7,0.6-1c0.1-0.1,0.2-0.4,0.2-0.5c1.3-0.2,2.1-1,3-1.7c-1.2,0.2-2.2,0.9-3.1,1.7
		c-0.7,0.4-1.1,1.1-1.5,2c-0.2-0.7-0.5-1-1.1-0.8c-1.5,0.3-2.9,0.7-4.1,1.6c-0.4,0.2-0.7,0.8-1.4,0.4c1.6-1.6,3.5-2.6,5.4-3.4
		c0.2-0.1,0.5-0.1,0.6,0c1.1,1.2,1.4-0.2,1.9-0.6c0.9-0.7,1.8-1.4,2.8-2.3c-1.1-0.3-2-1-2.6,0.7c-0.4,1.1-1.6,1.2-2.7,1.3
		c-1.5,0.2-2.9,0.6-4.4,1c0.6-1.1,0.6-1.1-0.3-2l0,0.1c0.8-0.7,0.4-1.5,0-2.2c-0.7-1.5-1.5-3-1.7-4.7c-0.1-0.7,0.1-1,0.6-1.3
		c0.6-0.4,1-0.1,1.5,0.3c1.7,1.6,2.7,3.5,1.7,6.1c0.9-0.7,1.5-1.3,2.3-1.9c-1.2-0.6-1.4-1.7-1.3-2.9c0.1-1.1,0-2.3-0.5-3.4
		c-0.3-0.8-0.3-1.6,0.4-2c0.8-0.4,1.4,0.2,1.9,0.8c1.1,1,1,2.4,1.1,4.2c0.5-1,0.9-1.5,1.1-2.1c0.4-0.8,0.7-0.4,1.1,0
		c0.3,0.4,0.3,0.9,0.4,1.4c0.2,0.9-1,1.7,0.1,2.6c0.2,0.1-2,1.6-2.3,1.4c-0.6-0.4-1.1-0.4-1.6,0.1c1.9,1.1,3.2,0.8,4.7-1.2
		c0.3-0.4,0.3-1.1,0.9-1.3c0.1,0,0.2-0.2,0.2-0.2c0-0.7,0-0.7,0.7-0.7c-0.5-1.5,0.1-4.3,1.3-5.4c0.1,0.7-0.5,1.3-0.1,1.8
		c0.4-0.5,0.9-1,1.4-1.5c0.2,0.2,0.6-1.3,0.7,0.1c0.2-0.1,0.4-0.1,0.5-0.2c1.9-1.4,2.9-3.2,3-5.5c0.1-1.4,0.5-2.6,1.2-3.8
		c0.4-0.6,0.9-0.7,1.4-0.3c0.5,0.4,0.5,1,0,1.3c-1.1,0.7-1.3,1.8-1.5,3c-0.1,1.2-0.6,2.3-1.7,3.1c1.2-0.1,2.2-0.9,3.7-0.9
		c-1.1,0.7-2,1.2-3.1,2c2.9,0.2,5-0.6,7-2.6c-1.1,3-3.3,3.8-5.8,4.2c-1.3,0.2-2,0.6-2.4,1.9c1.7,0.3,2.8-0.7,3.9-1.7
		c-0.3,1.9-1.5,2.8-3.1,3.4c1.1,1.1,1.6,1,2.3-0.6c1.2-2.7,6.1-3.8,8.3-1.9c0.3,0.3,0.5,0.5,0.4,0.9c-0.2,0.6-0.7,0.9-1.2,0.9
		c-1.3,0.1-2.7,0.2-4,0.3c-0.3,0-0.6,0.1-0.9,0.2c-0.2,0.1-0.3,0.1-0.5,0.2c0.2,0.2,0.3,0.3,0.6,0.1c1.7,0.4,3.5,0,5.1,1
		c0.3,0.2,0.6,0.4,0.8,0.6c0.5,0.4,0.3,0.8,0,1.3c-0.3,0.6-0.7,0.3-1,0.1c-1.3-0.8-2.6-1.3-4.1-0.4c0,0.3,0.5,0.7,0.8,1.1
		c0.6,0.8,1,1.7,0.4,2.8c-0.3,0.4-0.5,1-1.1,0.9c-0.6-0.1-1.2-0.4-1.2-1.1c0-2.1-1.2-3-3.1-3.2c-0.4-0.1-0.5-0.3-0.6-0.6
		c-0.1-1.8-1.6-1.5-2.7-1.9c-0.1,0.7,0.3,0.7,0.6,0.8c0.8,0.5,1.3,1.1,1,2.1c-0.2,0.5,0,1,0.1,1.5c0.1,0.4,0.3,0.9,0,1.2
		c-0.5,0.5-1,0.8-0.3,1.7c0.3,0.4-0.5,0.7-0.8,1c-0.8,0.6-1.6,1.2-1.2,2.6c0.5-1.3,1.4-1.9,2.5-2.4c1.3-0.5,1.5-2,1.8-3.2
		c0.2-0.6,0.3-1,1-0.9c0.6,0.2,1,0.5,0.9,1.4c-0.4,2-1.4,3.3-3.4,3.9c-0.7,0.2-1.3,0.4-1.8,0.9c-0.3,0.3-0.5,0.6-0.2,1.1
		c0.3,0.6,0.7,0.2,1,0.1c1.7-0.5,2.7-1.9,3.7-3.3c0.2-0.2,0.3-0.6,0.4-0.8c0.2-0.3,0.6-0.4,0.9-0.2c0.5,0.3,0.1,0.6,0,0.9
		c-0.4,1.1-1.4,1.9-1.4,3.2C225.1,33.1,225.2,33.2,225.2,33.3 M215.8,30.5c-0.3,0-0.5,0.1-0.4,0.4c0.1,0.2,0.4,0,0.6-0.1
		c0.1,0,0.1,0,0.2-0.1c1-0.1,1.9-0.7,3.1-0.6c-1.3-1.3-2.2-0.4-3.1,0.3C216.1,30.4,215.9,30.5,215.8,30.5 M218.8,19.4l0.6-0.2
		c0.8-0.2,1.2-0.9,1.9-1.5c-1.1,0.1-1.4,1-2,1.2c-0.2,0.1-0.4,0.1-0.6,0.2c-0.3-0.1-0.4,0.1-0.4,0.4
		C218.5,19.5,218.7,19.4,218.8,19.4 M212.6,26.2c1,0.3,2,0.3,2.5,0.9c0.6,0.7,1.3,0.8,1.8,0.3c0.5-0.5,0.3-1.2-0.2-1.8
		c-0.1-0.1,0-0.3,0-0.5c1.2,0.6,2.3,1.2,3.4,1.8c0-0.4,0.1-0.7,0-1c-0.2-0.6-3.2-2.7-3.8-2.7c-0.3,0-0.4,0.2-0.6,0.4
		c-0.2,0.3-0.2,0.5,0.2,0.7c0.2,0.1,0.6,0.2,0.5,0.6C213.9,24.9,213.9,24.9,212.6,26.2 M205.8,29.9c1.6-1.4,4.2-0.7,5.7-2.7
		C209.1,26.6,206.8,27.7,205.8,29.9 M219.8,23.4c-0.2-0.9-1.2-1-1.6-1.7c-0.2-0.3-0.5-0.4-0.8,0c-0.2,0.4-0.3,0.7,0.2,0.9
		C218.4,22.9,219.1,23.1,219.8,23.4 M219.7,28.4c-0.3-1.2-1.2-1.5-2.2-2.2C218.1,27.3,218.5,28.1,219.7,28.4"/>
	<path class="st1" d="M119.3,43.4c-0.6-1.9,1-3.1,1.7-4.6c0.2-0.4,1.1-0.3,1.7-0.1c0.4,0.2,0.6,0.2,0.5-0.3c0-0.4,0.1-0.7-0.5-0.5
		c-0.4,0.1-0.7-0.1-0.9-0.4c-0.8-1.1-1.6-2.2-2.5-3.2c-0.4-0.5-0.5-1-0.2-1.5c0.3-0.6,1.1-0.5,1.4-0.2c1,0.7,2.1,0.9,3.1,1.5
		c0.6,0.3,0.9,0.9,1.1,1.5c0,0.2,0,0.4,0.1,0.6c0,1.2,0.3,2.6-1.4,3.1c0.3,0.5,0.7,0.9,1.2,1.5c0.3-0.9,0.4-1.8,1-2.3
		c0.2-0.2,0.4-0.4,0.1-0.5c-0.9-0.4-0.2-1.3-0.7-1.8c0.1-0.2,0.3-0.4,0-0.7c0-0.9,0.1-1.9,0.1-2.8c0.1,0,0.2,0,0.3-0.1
		c0.8,1.3,0.5,2.8,1.1,4.6c0.5-1.6,1.5-2.7,0.4-4.1c-0.4-0.5,0-0.5,0.3-0.8c0.3-0.3,0.5-0.7,1.1-0.6c0.5,0.1,0.5,0.5,0.5,0.9
		c0,1.2-0.5,2.3-1.1,3.3c-0.3,0.6-0.6,1.2-1.1,2c1.4-1,1.9-2.2,2.3-3.5c0.1-0.5,0.4-0.7,0.8-0.6c0.5,0.1,0.5,0.4,0.4,0.9
		c-0.1,1.3-1.1,2.1-2,2.8c-0.8,0.7-1.6,1.4-1.5,2.7c1.5-0.1,1.8-1.4,2.5-2.4c0.2-0.3,0.1-1.1,0.8-0.8c0.7,0.4,0.1,0.8-0.1,1.3
		c0,0.1-0.1,0.3-0.2,0.4c-2,1.8-2.6,4.6-4.2,6.7c-0.4,0.6-0.9,1.2-0.8,2c0,0.6-0.6,0.8-1.1,0.8c-0.3,0-0.5-0.4-0.5-0.9
		c0-0.6-0.2-1.1-0.3-1.7c-0.5,0.2-0.3,1-1,1.1c-0.4-1.3,1.3-1.6,1.3-2.8c-1.2,0.7-1.8-0.2-2.5-0.8c-0.3-0.3-0.6-0.8-1,0
		C119.5,43.3,119.4,43.3,119.3,43.4 M123,42.1c-0.4-0.6-0.3-1.3-1-1.7c-0.4-0.2-0.6-0.1-0.8,0.3c-0.4,0.8,0.1,1.4,0.5,1.9
		C122.2,43,122.5,42.3,123,42.1 M123.6,46.3c0.4-1.5,1.3-2.1,1.8-3c0.1-0.3,0.3-0.5-0.1-0.8c-0.2-0.1-0.5-0.2-0.6,0.1
		C124.3,43.7,123.3,44.6,123.6,46.3"/>
	<path class="st1" d="M219.5,116.8c-2.4-0.2-3.8-2.1-5.7-3.7c0.3,1.2,0.4,2.2-0.1,3.5c-1.5-3.5-2.6-6.9-5.9-9.1
		c-0.2,2,2.7,2.2,2,4.6c-0.8-1.8-2.2-2.7-3.1-4c-0.7-1,0.7-1.1,0.9-1.8c-0.5-0.7-1.6-0.7-2.1-1.5c4.3,0.9,7.8,3.3,11.4,5.7
		c0.5,0.3,0.1,0.6,0,1c2-1,4-2,6.3-1.6c0.4,0.1,0.9,0.1,0.9,0.6c0,0.4-0.3,0.8-0.8,0.9c-0.4,0.1-0.8,0.2-1.3,0.2
		c-2.2,0-2.8,0.2-4.7,1.5c1.8,0.3,3.5,0.3,4.9,1.2c0.4,0.3,1.1,0.4,1,1.1c-0.1,0.7-0.7,0.9-1.3,1
		C221.1,116.6,220.3,116.7,219.5,116.8L219.5,116.8z"/>
	<path class="st1" d="M217.6,51.7c1,0.1,2.1-0.6,2.1-1.4c0-0.5,0.2-0.5,0.5-0.6c0.4-0.1,0.8-0.5,1.1-0.2c0.4,0.4-0.2,0.7-0.3,1
		c-0.1,0.2-0.2,0.5-0.4,0.7c-3,1.9-3.8,5.7-6.6,7.7c-0.6,0.4-0.6,0.8,0.1,1.1c0.4,0.2,0.5,0.5,0.4,0.9c-0.1,0.5-0.6,0.5-0.9,0.5
		c-1.5,0.1-3-0.4-4.5,0.2c-0.3,0.1-0.7,0.1-0.8,0.3c-0.3,0.4-1.1,0.4-1,1.1c0.1,0.7,0.8,0.7,1.3,0.7c1,0.1,1.4,0.7,1.3,1.6
		c-0.2,1.6-0.1,3,1.8,3.7c0.5,0.2,0.8,0.9,0.3,1.4c-0.5,0.5-1.1,0.5-1.7,0.1c-1.3-1-2.2-2.2-2.7-3.7c-0.2-0.6-0.3-1.3-1.3-1.4
		c-0.3,0-0.9-0.3-0.4-0.8c1.8-1.6-0.3-1.8-0.9-2.4c-0.4-0.4-1.5-0.2-1.3-1.2c0.2-0.9,0.9-1.5,1.8-1.6c2-0.1,3.5-1.2,5.1-2.2
		c0.4,0.8-0.9,0.7-0.7,1.4c2.2-0.2,3.4-0.9,4.4-2.7C215,54.2,216.5,53,217.6,51.7L217.6,51.7z"/>
	<path class="st1" d="M169.8,15.1c0.8-1.2,1.6-1.4,2.3-0.3c1.1,2,3,3.8,2.3,6.4c-0.4,1.4-0.9,2.8-1.6,4.1c-0.2,0.4-0.5,0.6-1,0.5
		c-0.2-0.1-0.5-0.3-0.6,0.1c-0.3,2.2-1.5,0.6-1.8,0.3c-1.3-1.1-2.8-1.8-4.3-2.3c-0.4-0.1-0.6-0.3-0.6-0.7c0-0.4,0.3-0.6,0.7-0.7
		c1.2-0.4,2.3-0.3,3.7-0.2c-1.2-2.2-2.8-3.2-5.3-2.4c1.7-1.3,2.7-1.4,4.5-0.5c0.4,0.2,1,1.1,1.5,0.3c0.4-0.6,0.1-1.5-0.5-2.1
		c-0.2-0.2-1.2-0.5-2.3-0.7c-0.4,0.5,0.6,0.7,0.2,1.3c-0.4-0.2-0.9-0.4-1.2-0.7c-0.6-0.6-0.7-1.2,0.2-1.7c1.1-0.5,3.2-0.6,4.4,0.7
		c1.1,1.2,1.5,2.8,0.7,4.2c-0.1,0.2-0.3,0.4-0.1,0.5c1.3,1,0.2,2.4,0.5,3.8c0.6-1.2,1.1-2.1,1.6-3.1c0.1-0.1,0.2-0.3,0.2-0.4
		c-1.2-1.8-0.5-4.2-1.9-6.1C170.6,14.4,170.2,15.6,169.8,15.1"/>
	<path class="st1" d="M226.4,64.1c-2.6,0.6-5,0.5-6.8-1.8c-0.5-0.6-1.5-0.5-1.7-1.6c0-0.3-0.7-0.4-1,0.1c-0.3,0.3-0.2,0.6,0.2,0.8
		c1.8,0.7,2.9,2.2,4.3,3.3c0.3,0.3,0.7,0.4,0.4,0.9c-0.3,0.5-0.6,0.6-1.1,0.4c-1.2-0.4-1.9-1.4-2.7-2.3c-0.7-0.9-1.3-1.7-2.3-0.2
		c-0.2-1,0.6-2-0.4-2.8c0,0,0-0.1-0.1-0.1c1.6-0.6-0.2-1.9,0.6-2.8c0.8-0.9,1.7-1.6,2.7-2.2c0.4-0.3,0.9-0.3,1.4-0.3
		c0.8,0,0.9,0.5,1.1,1c0.2,0.6-0.4,0.5-0.7,0.7c-0.8,0.6-2,0.6-2.7,1.5c-0.4,0.5-0.8,1.2-0.2,1.4c0.5,0.3,1.4,0.8,1.9-0.1
		c0.9-1.3,2.2-1.5,3.6-1.8c-0.5-2,0.7-3.8,2.7-4.2c0.3-0.1,0.7-0.3,1,0c0.3,0.3,0,0.7-0.1,1c-0.2,0.3-0.3,0.5-0.5,0.7
		c-0.9,0.9-1.6,2-1.3,3.3c0.2,1.3-0.6,1.3-1.3,0.9c-1.3-0.7-2.1-0.1-3.1,0.9c1.8,0.5,3.5,0.9,5.2,1.4
		C226.2,62.6,227.3,62.9,226.4,64.1L226.4,64.1z"/>
	<path class="st1" d="M186,21.1c1.8-0.9,3.3-0.2,4.9,0.7c0.6,0.4,1.3,1.2,2.2,0.5c0.9-0.7,0.4-1.5,0.2-2.3c-0.3-1.1-0.1-2.2,0.2-3.2
		c0.2,1,0.3,2.1,0.5,3.2c1.2-1.3,1.3-2.8,1.2-4.4c-0.1-1-0.1-2,0.9-2.7c0.5-0.3,1-0.2,1.4,0.1c1,0.7,0.7,1.8,0.5,2.7
		c-0.4,1.6-0.6,3.2-1.4,4.7c0.6-1.2,1.3-2.4,2.1-4c0.1,2.9-1.1,4.9-2.2,6.9c-0.3,0.5-0.6,0.3-1.5-0.7c-0.6,0.9-1.1,1.8-2.4,1.8
		c-1.3,0-2.1-0.9-2.9-1.6c-1-0.9-2.1-1.5-3.5-1.3C186.1,21.3,186.1,21.2,186,21.1"/>
	<path class="st1" d="M152.6,55.2c0.6-1.7,0.6-3.5,1.6-5c0.2-0.3,0.2-0.8,0.7-0.6c0.4,0.2,0.6,0.5,0.4,1c-0.5,1.2-0.6,2.6-1,3.8
		c-0.2,0.6-0.4,1.1-0.1,1.6c0.4-0.6,1.2,0,1.6-0.5c0.4-0.5,1-0.9,1.6-1.6c0.1,1,0.7,1.9-0.5,2.6c-0.8,0.5,0.2,0.9,0.2,1.4
		c0.2,0,0.4,0,0.6-0.1c1-0.4,2.1-0.6,3.2-0.5c0.4,0,0.9,0.1,0.9,0.6c0,0.4-0.4,0.6-0.7,0.6c-2.6,0.7-4.5,2.5-6.5,4.1
		c-0.5,0.4-0.9,0.7-1.6,0.6c-0.5-0.1-0.9-0.5-0.6-1c0.9-1.4,1.4-3,1.9-4.5c-1.5,0.4-2.1-0.2-2-1.7C152.5,55.8,153,55.5,152.6,55.2
		L152.6,55.2z"/>
	<path class="st1" d="M129.1,87c-0.6-0.5-0.6-0.5,0.3-1.6c-1.5,0.1-2.5,1.2-3.9,1.2c0-0.4,0.3-0.7,0.1-1.1c-1-1.7,0.1-2.5,1.5-3.1
		c1.4-0.6,2.7-1.2,4.2-1.5l0,0.4c-0.2,0.2-0.4,0.3-0.5,0.5c-0.2,0.1-0.3,0.1-0.5,0.2c0.2,0.2,0.3,0.3,0.6,0.1
		c0.9,0.3,1.9,0.7,2.9,1.1c-0.7,0.3-0.3,2.1-1.8,1c-0.1-0.1-0.6,0.4-0.2,0.7c1.2,0.9,0.2,1.7-0.2,2.3c-1.1,1.3-2.3,2.5-3.6,3.6
		c-1,0.9-2.3,1.1-3.6,1c-0.7-0.1-1.2-0.4-1.4-1c-0.2-0.6,0.3-0.9,0.9-1.2c1.8-0.7,3.5-1.5,5.2-2.2c1.3,1.1,1.5-0.6,2.3-0.8
		c-0.6-0.8-1.2-1.2-1.7-0.1C129.7,86.7,129.3,86.8,129.1,87 M127.7,85.1c1.2-0.9,2.9-0.3,3.9-1.6C129.1,82.4,127.6,83,127.7,85.1"/>
	<path class="st1" d="M180.8,21.4c-1.4,1.9-1.9,4.2-2.6,6.3c-0.1,0.4-0.2,0.8-0.5,1.1c-0.3,0.2-0.7,0.5-1.1,0.2
		c-0.3-0.2-0.3-0.6-0.1-1c0.9-1.5,0.8-3,0.1-4.6c-0.3-0.7-0.2-1.3-0.2-2c0-0.6,0.3-1,0.7-1.4c0.3-0.3,0.9-0.7,0.9-0.6
		c1,1.2,2.3-0.2,3.3,0.2c0.6,0.3,0.6,1.2,0.9,1.8c0.9,1.9,0.3,3.7-0.7,5.3c-0.2,0.3-0.6,1.4-1.4,0.7c-0.7-0.6-1.2-1.1-0.5-2.1
		C180.4,24.1,181,22.9,180.8,21.4"/>
	<path class="st1" d="M162.3,84.6c1.2,0.4,1,1.1,0.4,1.8c-0.5,0.6-1,1.1-1.6,1.5c-2.7,2-4,4.7-3.8,8.1c0,0.6-0.1,0.8-0.5,1.1
		c-0.6,0.3-0.7-0.2-1-0.5c-1.5-2-0.9-4.2-0.2-6.1c0.9-2.6,2.7-4.6,5.2-5.8C161.3,84.3,161.8,84.2,162.3,84.6"/>
	<path class="st1" d="M217.7,51.7c-0.5,0-0.9-0.1-0.6-0.7c0.3-0.7,0.2-1.5,0.6-2.2c-0.4,0.5-0.8,0.9-1.2,1.4c-0.4,0.5-0.6,1.1-1,1.9
		c-0.2-1.5,0.7-2.4,1.1-3.6c-0.7-0.2-1.5-0.2-2.1-0.5c-1.2-0.5-1.8-0.4-1.6,1.3c-1.1-0.8-0.7-1.7-0.4-2.4c0.2-0.4,0.8-0.5,1.3,0
		c0.7,0.7,0.7,0.5,1.3-0.2c0.5-0.6,1.1-0.7,1.6,0.2c0.2,0.3,0.4,1,1,0.6c0.3-0.3,0-0.7-0.1-1c-1-2.5-2.6-4.6-3.9-6.9
		c-0.6-1.1-2.1-1.1-3.1-2c1.9-0.1,3.5,0.5,4.6,1.9c0.8,1.1,1.6,2.3,2.3,3.4c0.5,0.8,0,2,1,2.7c0.6,0.4,0.9,1.1,1.9,0.6
		c0.5-0.3,1.2,0,0.8,0.7C220,48.3,219,50.2,217.7,51.7C217.6,51.7,217.7,51.7,217.7,51.7"/>
	<path class="st1" d="M87.5,62.6c0.1-0.5,0.7-0.2,0.9-0.7c-1.2-0.6-2.4-0.4-3.6-0.1c-0.6,0.1-1.5,0.7-1.8,0
		c-0.5-0.9,0.6-1.2,1.1-1.6c1.5-1,3.1-1.3,4.7-0.2c0.8,0.5,1.5,0.7,2.4,0.1c0.9-0.6,2.2-0.7,3.2-1.1c0.5-0.2,0.8-0.1,1,0.5
		c0.2,0.6-0.1,0.8-0.6,1c-1.5,0.7-2.8,1.8-3.7,3.2c-0.3,0.5-1,0.9-1.7,0.8c-0.7-0.1-0.8-0.8-0.8-1.3C88.8,62.1,87.8,63.5,87.5,62.6"
		/>
	<path class="st1" d="M188.2,13.3c0.1,0.7,0.9,0.9,1.1,1.6c-1.1-0.2-2.1-0.8-3.2-1.2c-0.5-0.2,0.1-1,0.6-1.3
		c1.2-0.8,2.4-0.6,3.8,0.6c-0.5-1.3-0.9-2.2-1.3-3.1c-0.7,0.3-0.2,1-0.8,1.4c0-0.7-0.1-1.2-0.1-1.8c0-0.4,0.3-0.7,0.8-0.7
		c2.8,0.1,4.6,3.3,3.3,5.8c-0.4,0.7-0.6,1.5-0.7,2.2c-0.1,0.7-0.3,1.3-1,1.2c-0.6-0.1-0.5-0.8-0.5-1.4
		C190.5,14.7,190.1,14.1,188.2,13.3"/>
	<path class="st1" d="M219.4,116.8c2,1.2,4.1,2,6.5,1.9c0.4,0,0.9-0.2,1,0.5c0.1,0.6,0,0.9-0.5,1.2c-1.9,1.2-3.9,1.1-5.8,0.5
		c-2.8-1-4.8-3-6.2-5.9c1.1,0.7,1.6,1.5,2.4,2.2c0.4,0.4,1.1,1.1,1.5,0.1C218.7,116.7,219.3,117.4,219.4,116.8L219.4,116.8z"/>
	<path class="st1" d="M226.4,64.2c0.1,0.3,0.5,0.4,0.4,0.9c-0.1,1,0.6,1.4,1.6,1.9c-1-1.6-1.5-3-0.8-5.2c0.2,2.5,1,4.3,3.4,5.2
		c-1.2-1.8-2.5-3.4-2.3-5.5c0.8,0.2,0.6,1,1,1.4c0.5,0.2,0.8-0.9,1.4-0.1l0-0.1c0.1,1.7,1.6,2.1,2.7,2.8c0.4,0.2,1.1,0.2,1.1,0.8
		c-0.1,0.8-0.8,1-1.4,1c-0.7,0.1-1.1,0.1-1.6,0.8c-0.7,1-1.6,0.2-2.4-0.2c-0.2-0.1-0.2-0.7-0.8-0.3c-0.4,0.3-0.8,1.5-1.6,0.2
		c-0.6-1.1-1.9-1.9-0.6-3.3C226.5,64.4,226.4,64.2,226.4,64.2C226.4,64.1,226.4,64.2,226.4,64.2"/>
	<path class="st1" d="M221.2,89.6c-0.3,0.2-0.6,0.3-0.8,0.5c-0.1-3.1,1.5-7.2,3.7-9.2c0.6-0.5,1.4-1.2,2.1-0.7
		c0.7,0.5,0.3,1.4-0.2,2c0,0,0,0.1-0.1,0.1c-1.3,2.5-2.5,5.1-4.5,7.2C221.4,89.6,221.3,89.6,221.2,89.6"/>
	<path class="st1" d="M210.9,99.9c1,0.1,2,0.2,2.9-0.3c0.3-0.1,1,0.3,1.3,0.8c0.7,1.2,1.9,1.6,3.2,1.9c0.6,0.1,1.4,0.4,1.6,1
		c0.2,0.5-0.3,1-0.8,1.3c0.5,0.8,1.4,0.6,2.1,0.8c0.3,0.1,0.8-0.1,0.7,0.4c0,0.4-0.6,0.6-0.8,0.5c-2-1.3-4.4-1.3-6.5-2
		c-0.4-0.1-0.8-0.7-1-1.2C213,101.8,212.5,100.5,210.9,99.9"/>
	<path class="st1" d="M102,70.5c-1.4,1.5-3,2.7-4.7,3.6c-1.6,0.9-2.4,2.5-3.5,3.9c-0.3,0.3-0.5,0.6-0.9,0.3
		c-0.4-0.3-0.6-0.6-0.4-1.1c1.2-2.5,2.4-4.9,5.2-6C99,70.7,100.5,70.6,102,70.5"/>
	<path class="st1" d="M225.7,109.3c-1.6-1.6-3.3-1.4-5-0.4c-0.5,0.3-1.2,0.4-1.9,0.5c-1.9,0.1-3.3-1.2-4.9-2c-0.5-0.2-0.2-0.6,0-0.9
		c0.3-0.5,0.7-0.5,1.2-0.2c1.2,0.6,2.3,1.4,3.7,1.6c0.1,0,0.2-0.1,0.5-0.2c-1.3-0.7-2.6-1.4-3.8-2c1.4-0.2,2.7,0.1,3.8,0.8
		c1,0.6,2,0.6,3,0.4C223.5,106.6,225.4,107.7,225.7,109.3"/>
	<path class="st1" d="M133.5,66.3c-0.6-1.6-1.2-3.3-0.6-5.1c0.2-0.6,0-1.3-0.4-1.8c-0.4-0.7-0.8-1.4-1.1-2.2
		c-0.5-1.7-0.1-2.4,1.6-2.8c0.7-0.1,0.8,0.4,1,0.9c0.3,1.1,0.1,2.2,0.7,3.3l0-0.1c0,2.6-1,5.1-0.9,7.7
		C133.7,66.2,133.6,66.2,133.5,66.3"/>
	<path class="st1" d="M207.4,37.4c0.3,0.8,1,1,1.7,1.1c2.7,0.6,3.9,2.8,5.4,4.8c0.4,0.6,0,1.1-0.4,1.5c-0.4,0.3-0.9-0.1-1.2-0.4
		c-1.1-1.1-2.1-2.3-3.2-3.4c-0.6-0.6-1.2-1.2-2.2-1c-0.6,0.2-0.7-0.3-0.9-0.6c-0.4-0.4,0.3-0.5,0.4-0.5
		C207.9,38.5,206.9,37.7,207.4,37.4L207.4,37.4z"/>
	<path class="st1" d="M163.6,29.6c0.7,0.3,1.3,0.7,2,1.1c0.3,0.1,0.8,0.1,0.6,0.7c-0.2,0.4-0.5,0.6-1,0.5c-0.1,0-0.2,0-0.3-0.1
		c-1.6-1.5-3.4-1-5.1-0.4c-0.4,0.1-0.7,0.2-1.2,0.1c-0.5-0.1-1.1,0-1.3-0.8c-0.2-0.7,0.1-1.3,0.6-1.7c1.2-0.8,2.4-1,3.8-0.4
		C162.4,28.9,163,29.3,163.6,29.6"/>
	<path class="st1" d="M207,124.3c1-2.1,2.4-2.5,4.2-1.2c1.1,0.8,2,1.8,3.4,2.1c0.3,0.1,0.8,0.2,0.7,0.6c-0.1,0.4-0.3,0.7-0.7,0.9
		c-1.4,0.6-3.4,0-4.4-1.6c-0.5-0.7-0.8-1-1.6-0.6C207.9,124.9,207.4,124.6,207,124.3C206.9,124.2,207,124.3,207,124.3"/>
	<path class="st1" d="M184.6,115.2c1.1-1.1,2.2-2.2,3.3-3.4c0.6-0.6,0.8-0.1,0.9,0.4c0.4,0.9,0.1,1.9-0.2,2.7
		c-0.5,1.2-1.4,2.1-2.2,2.9c-0.8,0.7-1.9,0.2-2.1-0.9C184.1,116.4,184.3,115.8,184.6,115.2"/>
	<path class="st1" d="M147.6,97.6c-0.2-0.1-0.5-0.1-0.6-0.2c-1-1.5-2.1-0.7-3.2-0.3c-0.5,0.2-1,0.7-1.6,0.8
		c-0.5,0.1-1.1,0.4-1.4-0.3c-0.3-0.6-0.2-1.2,0.2-1.6c0.9-1,1.8-2,3.5-1.7c1.7,0.3,3,1.2,3.3,2.9C147.7,97.3,147.6,97.4,147.6,97.6"
		/>
	<path class="st1" d="M92.2,50.1c-0.9,0-0.9-0.6-1.2-0.8c-0.3,0.2-0.1,0.4-0.1,0.6c0.1,0.7,0.3,1.6-0.5,1.8
		c-0.8,0.2-0.8-0.7-0.9-1.4c-0.1-0.7-0.7-0.9-1.3-0.9c-1.2-0.1-2.2-0.6-3.2-1.2c-0.3-0.2-0.6-0.5-0.6-0.8c0-0.4,0.4-0.6,0.7-0.7
		c0.6-0.3,1.2-0.1,1.9,0.1C88.9,47.4,90.8,48.1,92.2,50.1"/>
	<path class="st1" d="M226.2,60.3c0.5-2.6,2.7-2.5,4.6-2.9c1.4-0.3,2.8-0.3,4.1,0.6c0.4,0.3,0.9,0.6,0.6,1.1
		c-0.2,0.6-0.8,0.7-1.4,0.5c-2.3-1-4.5-1-6.7,0.5C227.1,60.5,226.7,60.5,226.2,60.3"/>
	<path class="st1" d="M207.5,37.4c-1.1,0.4-2.2,1-3.5,1c0-0.6,0.4-0.9,0.8-1.1c0.8-0.4,1.3-0.9,1.6-1.7c0.4-0.9,3.9-2,4.8-1.6
		c0.4,0.2,0.3,0.6,0.5,0.9c0.2,0.5-0.3,0.5-0.6,0.7C209.9,36.1,208.7,36.7,207.5,37.4C207.4,37.4,207.5,37.4,207.5,37.4"/>
	<path class="st1" d="M195.1,35.6c0.1,0,0.2,0,0.3,0c0.1,0.1,0.1,0.2,0.2,0.3c-1.5,2-3.5,3.6-4.8,5.8c-0.3,0.6-0.7,0.8-1.3,0.5
		c-0.7-0.4-0.4-1-0.2-1.5C190.6,38.3,192.4,36.4,195.1,35.6L195.1,35.6z"/>
	<path class="st1" d="M192.1,21.4c-1.7,0.1-2.7-0.6-3.6-1.2c-1.1-0.8-2.3-1.1-3.6-1.1c-0.6,0-0.9-0.1-0.9-0.7c0-0.4,0-0.7,0.6-1
		c1.2-0.5,4.2,0.2,5.4,1.2c0.1,0.1,0.3,0.4,0.3,0.5C190.1,20.3,190.8,20.9,192.1,21.4"/>
	<path class="st1" d="M212.2,15.9c1.9,1,1.9,1,2.9-0.6c0.1,0.9,0.1,1.5,0.1,2.2c-0.4-0.2-0.8-0.4-1.3-0.6c0.1,1.1,0.2,2,0.3,3.1
		c-0.6-0.2-0.6-0.8-0.8-1.2c-0.3-1-0.8-1.7-1.8-2.1c-1.3-0.5-1.1-1.6-1.2-2.6c0-0.4,0.5-0.8,0.9-0.6c0.8,0.4,1.7,0.4,2.5,0.9
		c0.4,0.3,0.8,0.5,0.6,1c-0.2,0.5-0.6,0.6-1.1,0.5C213.1,16,212.8,16,212.2,15.9"/>
	<path class="st1" d="M231.8,54.8c-1.1,0.7-2.1,1.5-3.1,1.8c-1.3,0.3-1.5,1.2-2,2.1c-0.2,0.3-0.2,0.7-0.8,0.4
		c-0.4-0.2-0.8-0.4-0.6-0.9c0.4-1.4,1.3-2.6,2.6-3.3C229,54.4,230.3,53.4,231.8,54.8"/>
	<path class="st1" d="M155.7,88.5c0-2.7,0.4-5.1,1.6-7.3c0.7-1.2,1.8-1.9,3.3-1.6c0.3,0,0.6-0.2,0.7,0.3c0.1,0.4-0.3,0.8-0.5,0.8
		c-4.1,0.8-3.9,4.5-4.8,7.3C156.1,88.1,156,88.1,155.7,88.5"/>
	<path class="st1" d="M152.6,55.2c-0.6,0.7-0.4,1.5-0.6,2.2c-0.1,0.3-0.1,1-0.5,0.9c-0.5,0-1.2,0.1-1.5-0.4
		c-0.5-0.9-0.8-1.8-0.5-2.8c0.4-1.1,1.5-1.3,2.3-0.4C152.1,54.9,152.1,55.4,152.6,55.2C152.6,55.2,152.6,55.2,152.6,55.2"/>
	<path class="st1" d="M155.9,64.2c0.7-0.1,1.4-0.4,2.1-0.4c1.6-0.1,3.2-0.3,4.6-0.9c0.4-0.2,0.8-0.3,1,0.2c0.1,0.4-0.2,0.8-0.6,0.9
		c-1.3,0.5-2.5,1.4-4.2,0.7c-0.8-0.4-1.9-0.1-2.9-0.2C156,64.5,155.9,64.3,155.9,64.2"/>
	<path class="st1" d="M202.5,77.5c-1.6-1.3-1.2-4.4,0.6-5.3c0.4-0.2,0.8-0.3,1.1,0.1c0.2,0.3,0.2,0.8-0.1,1.1
		C203,74.5,203,76,202.5,77.5"/>
	<path class="st1" d="M129.2,46.8c0.5-1.7,1.6-3,3-4c0.4-0.3,0.8-0.6,1-1.1c0.2-0.4,0.4-0.9,0.9-0.6c0.4,0.2,0.7,0.7,0.4,1.3
		c-0.3,0.7-0.8,1.2-1.5,1.6C131.4,44.6,130.2,45.5,129.2,46.8"/>
	<path class="st1" d="M157.5,77.4c-1.8,1.6-3.7,2.9-6.3,2.7c-0.4,0-0.9-0.1-0.8-0.7c0.1-0.5,0.3-0.8,0.9-0.8
		C153.5,78.9,155.5,78.3,157.5,77.4"/>
	<path class="st1" d="M166.2,32.4c0.5,0.2,0.9,0.4,1.4,0.6c0.5,0.2,0.9,0.6,0.5,1.1c-0.3,0.6-1,0.4-1.3,0.1c-1.2-1.4-2.8-1-4.3-1.1
		C163.6,32.3,164.9,32.4,166.2,32.4L166.2,32.4z"/>
	<path class="st1" d="M219.8,54.9c1-1.4,2.3-2.3,3.4-3.5c0.3-0.3,0.5-0.3,0.8-0.1c0.3,0.2,0.1,0.4,0,0.6c-0.3,0.6-0.6,1.3-1,1.9
		c-0.3,0.5-0.4,1.7-1.4,0.4C221,53.6,220.7,55,219.8,54.9"/>
	<path class="st1" d="M163.1,59.5c1.2,0.9,2.4,1.8,4.1,1.8c0.6,0,0.5,0.4,0.2,0.7c-0.4,0.6-1,0.9-1.6,0.5
		C164.7,61.7,163.6,60.9,163.1,59.5"/>
	<path class="st1" d="M214.2,52.3c-0.8,1.6-1.5,3-1.9,4.5c-0.1,0.2-0.2,0.6-0.5,0.6c-0.4-0.1-0.3-0.4-0.4-0.7
		C211.2,55.5,212.8,53,214.2,52.3"/>
	<path class="st1" d="M226.3,68.5c0.8,1.6,0.8,3.1-0.1,4.6c-0.2,0.3-0.2,0.7-0.7,0.4c-0.3-0.2-0.6-0.6-0.4-0.9
		C225.9,71.4,226.2,70,226.3,68.5"/>
	<path class="st1" d="M204.2,29.2c-0.1,0.6-0.5,0.8-1.1,0.7c-0.5-0.1-0.8-0.3-0.9-0.8c-0.2-1.1-0.9-2.1,0-3.2
		C203,27,202.8,28.6,204.2,29.2L204.2,29.2z"/>
	<path class="st1" d="M162.2,50.2c0,1.5-0.4,2.7,0,3.9c0.1,0.3-0.3,0.7-0.8,0.6c-0.4-0.1-0.7-0.4-0.5-0.8
		C161.2,52.7,161.2,51.4,162.2,50.2"/>
	<path class="st1" d="M195.1,35.6c-1.8-1.1-3,0.5-4.8,0.9c1.3-1.1,2.6-2,3.9-2.4C195.2,33.8,195.6,34.7,195.1,35.6
		C195.1,35.6,195.1,35.6,195.1,35.6"/>
	<path class="st1" d="M186.2,24.3c0.8-0.9,1.7-0.9,2.5-1.1c0.3-0.1,0.9,0.1,0.9,0.6c0,0.5-0.4,0.5-0.9,0.5
		C188,24.2,187.3,24.3,186.2,24.3"/>
	<path class="st1" d="M118.4,69c-0.3,1.1-0.6,1.9-0.8,2.6c-0.1,0.2-0.2,0.7-0.5,0.5c-0.4-0.1-0.5-0.5-0.3-0.9
		C117.1,70.7,117.3,69.8,118.4,69"/>
	<path class="st1" d="M223.8,66.8c-0.2,0.7-0.6,1.3-0.6,2c0,0.2-0.2,0.5-0.5,0.5c-0.3-0.1-0.5-0.5-0.4-0.7
		C222.7,68,222.8,67.1,223.8,66.8"/>
	<path class="st1" d="M148.4,56c-0.6-0.6-1.1-1.1-0.7-1.9c0.1-0.2,0.4-0.3,0.5-0.1C148.5,54.5,148.8,55.1,148.4,56"/>
	<path class="st1" d="M203.5,36.9c-0.8,0.3-1.5,0.7-2.4,0.5c0-0.1,0-0.2-0.1-0.3c0.7-0.5,1.4-1.1,2.3-0.6
		C203.4,36.6,203.5,36.8,203.5,36.9"/>
	<path class="st1" d="M216.8,33.8c0.6,0.3,1.3,0.1,1.8,0.6c0.4,0.4,0.1,0.6-0.3,0.6c-0.5-0.5-1.2-0.2-1.7-0.6c0-0.1-0.1-0.2-0.1-0.3
		C216.6,34,216.7,33.9,216.8,33.8"/>
	<path class="st1" d="M202.3,44.9c-0.2,0.1-0.5,0.3-0.7,0.4c0,0-0.2-0.2-0.2-0.3c0.2-0.3,0.5-0.5,0.8-0.4
		C202.3,44.6,202.3,44.8,202.3,44.9"/>
	<path class="st1" d="M162.3,71.7c0.1-0.5,0.5-0.6,0.9-0.6l0.1,0.3C163,71.5,162.7,71.8,162.3,71.7L162.3,71.7z"/>
	<path class="st1" d="M125.2,32.7c-0.1-0.2-0.3-0.5,0-0.7c0.1-0.1,0.3-0.1,0.4,0c0.3,0.2,0,0.4,0,0.6
		C125.4,32.7,125.3,32.7,125.2,32.7"/>
	<path class="st1" d="M162.4,69.9c-0.3,0.1-0.6,0.3-0.7-0.1c-0.1-0.3,0.4-0.3,0.6-0.3C162.4,69.7,162.4,69.8,162.4,69.9"/>
	<path class="st1" d="M167.4,58.2c0.3,0.3,0.1,0.5-0.2,0.7c0-0.2-0.1-0.3-0.1-0.5C167.2,58.3,167.3,58.3,167.4,58.2"/>
	<path class="st1" d="M186.2,21.4c-0.2,0.1-0.6,0.4-0.7,0.1c-0.1-0.4,0.3-0.4,0.6-0.4C186.1,21.2,186.1,21.3,186.2,21.4"/>
	<path class="st1" d="M218.5,40.3c-0.1,0.1-0.2,0.1-0.3,0.2c-0.1-0.2-0.2-0.3-0.2-0.5c0-0.1,0.2-0.2,0.3,0
		C218.4,40.1,218.4,40.2,218.5,40.3"/>
	<path class="st1" d="M166.2,32.4c-0.2-0.5,0.1-0.6,0.5-0.7c0,0.1,0.1,0.2,0.1,0.3C166.7,32.2,166.4,32.3,166.2,32.4
		C166.2,32.4,166.2,32.4,166.2,32.4"/>
	<path class="st1" d="M162.2,33.1c0.1,0.1,0.1,0.2,0.2,0.3c-0.2,0.1-0.3,0.2-0.5,0.2c-0.3,0.1-0.2-0.2-0.1-0.3
		C161.9,33.3,162,33.2,162.2,33.1"/>
	<path class="st1" d="M133.8,66.1c0.2,0.2,0.2,0.4-0.1,0.6c-0.1-0.1-0.2-0.3-0.2-0.4C133.6,66.2,133.7,66.2,133.8,66.1"/>
	<path class="st1" d="M164.4,53.5c-0.1,0-0.3,0.1-0.3,0c-0.1-0.1-0.1-0.2-0.2-0.3c0.1,0,0.2-0.1,0.3,0
		C164.3,53.3,164.4,53.4,164.4,53.5"/>
	<path class="st1" d="M170.9,56c0.2,0.3,0.6,0.6-0.1,0.9C170.9,56.6,170.4,56.2,170.9,56"/>
	<path class="st1" d="M212.8,78.5c0.2-0.1,0.4-0.2,0.5,0c0.1,0.2-0.1,0.4-0.4,0.4C212.8,78.8,212.8,78.7,212.8,78.5"/>
	<path class="st1" d="M201.1,37.4l-0.5,0.1c0-0.3,0.2-0.4,0.5-0.4C201.1,37.2,201.1,37.3,201.1,37.4"/>
	<path class="st1" d="M226.4,68.2c-0.1,0-0.3,0.1-0.3,0c-0.1-0.1-0.1-0.2-0.2-0.3c0.1,0,0.2-0.1,0.3,0
		C226.3,67.9,226.3,68,226.4,68.2"/>
	<path class="st1" d="M216.6,34.4c-0.2,0.2-0.4,0.1-0.6-0.1c0.1-0.1,0.3-0.2,0.4-0.2C216.5,34.2,216.5,34.3,216.6,34.4"/>
	<path class="st1" d="M203.4,36.5c0.2-0.1,0.4,0,0.6,0.1c-0.1,0.1-0.3,0.2-0.4,0.2C203.5,36.8,203.4,36.6,203.4,36.5"/>
	<path class="st1" d="M136,80c0,0.2,0,0.3,0,0.5c-0.3,0-0.4-0.2-0.4-0.5C135.7,80.1,135.8,80.1,136,80"/>
	<path class="st1" d="M204.5,64.2c-0.2-0.2-0.1-0.4,0.1-0.6c0.1,0.1,0.2,0.3,0.2,0.4C204.7,64.1,204.6,64.2,204.5,64.2"/>
	<path class="st1" d="M119.6,43.2c0.2,0.2,0.2,0.4-0.1,0.6c-0.1-0.1-0.2-0.3-0.2-0.4C119.4,43.3,119.5,43.3,119.6,43.2"/>
	<path class="st1" d="M131.3,80.9c0.2-0.1,0.4-0.2,0.5,0c0.1,0.2-0.1,0.4-0.4,0.4L131.3,80.9z"/>
	<path class="st1" d="M228.3,60.7c0.1-0.1,0.2-0.2,0.2-0.1c0.1,0.1,0.2,0.2,0.2,0.3c0,0-0.1,0.1-0.2,0.2
		C228.5,60.9,228.4,60.8,228.3,60.7"/>
	<path class="st1" d="M225.8,103.1c-0.1,0-0.1,0.1-0.2,0.1c-0.1-0.1-0.1-0.2-0.2-0.2c0.1,0,0.3-0.1,0.4-0.1
		C225.8,102.9,225.8,103,225.8,103.1"/>
	<path class="st1" d="M87.6,219.3c8.1,0.7,13.9,6,20,10.6c-2.2-1.2-4.4-2.3-6.6-3.5c-1.3-0.7-2.6-1.4-4.1-1.9
		c-3.3-0.9-5.8-3.3-8.8-4.6C87.8,219.8,87.6,219.5,87.6,219.3"/>
	<path class="st1" d="M117.6,137.1c6.2,1.8,12.5,3.4,17.8,8.1C128.4,144.1,123.7,139.1,117.6,137.1"/>
	<path class="st1" d="M131.7,171.8c-1.1,0.3-1.8-0.4-2.5-0.7c-2.1-0.9-4.4-0.9-6.5-1.8c-1.1-0.4-1.3-1.6-2-2.3
		c-0.3-0.3,0.4-0.5,0.8-0.4c1.4,0.2,2.7,0.8,3.9,1.4C127.5,169,129.7,170,131.7,171.8"/>
	<path class="st1" d="M158.3,152.5c-2,0.4-10.8-3.7-13-5.9C149.9,147.6,153.7,150.5,158.3,152.5"/>
	<path class="st1" d="M117.8,160.2c-1.7-0.1-3.1-0.7-4.6-0.9c-0.7-0.1-1.9-0.3-1.9-1.7c0-0.6-1.3-0.2-1.6-0.9
		C111.3,156,115.9,157.9,117.8,160.2"/>
	<path class="st1" d="M146.1,134.1c0.4-0.6,0.9-0.6,1.2-0.4c2,1.2,4.3,1.5,6.3,2.6c0.6,0.3,1.6,1,1.4,1.4c-0.4,0.8-1.4,0.3-2.1-0.1
		C150.7,136.3,148.4,135.2,146.1,134.1"/>
	<path class="st1" d="M97.7,200.3c-0.2,0.6-0.9,0-1.1,0.5c0.2,0.3,0.6,0.1,0.9,0.3c0.5,0.3,0.5,0.7,0.2,1.2
		c-0.2,0.5-0.5,0.4-0.9,0.2c-1-0.5-1.9-1-3-1.6c0.3-0.5,0.9,0,1.2-0.2c0-0.1,0-0.2-0.1-0.3c-0.3-0.5-1-1.2-0.4-1.6
		c0.7-0.5,1,0.3,1.4,0.8C96.4,200,97.1,200.1,97.7,200.3"/>
	<path class="st1" d="M121.4,152.3c2.2,0.6,4,1.2,5.7,2.1c0.4,0.2,0.7,0.4,0.9,0.7c0.2,0.3,0.2,0.5,0,0.8c-0.2,0.3-0.4,0.1-0.6,0
		C125.5,154.9,123.3,154.2,121.4,152.3"/>
	<path class="st1" d="M139,144.2c-1.7,0.7-2.6-0.8-3.7-1.4c-0.2-0.1-0.2-0.4-0.4-0.5c-0.4-0.3-1.2-0.5-0.8-1.2
		c0.5-0.8,0.8,0.2,1.3,0.4c1.3,0.4,2.4,1.1,3.2,2.1C138.8,143.7,138.9,143.9,139,144.2"/>
	<path class="st1" d="M137.3,167.2c-2.9-0.9-5.5-2.2-7.8-4.2C132.5,163.6,134.7,165.7,137.3,167.2"/>
	<path class="st1" d="M111.4,181.1c-1.9-0.6-3.5-1.2-5.1-1.5c-0.6-0.1-0.8-0.7-0.7-1.2c0.1-0.4,0.7-0.4,1-0.3
		C108.3,178.7,110,179.2,111.4,181.1"/>
	<path class="st1" d="M104.4,192c-2-0.6-4-1.2-6-1.8c-0.3-0.1-0.9-0.1-0.7-0.7c0.2-0.5,0.6-0.5,1.1-0.4
		C100.9,189.6,102.6,190.8,104.4,192"/>
	<path class="st1" d="M140.2,161.4c0.4-0.3,0.7-0.3,1-0.1c1.3,0.7,2.6,1.4,3.9,2c0.5,0.3,0.9,0.6,0.5,1.2c-0.4,0.7-1,0.4-1.4,0.1
		C143,163.5,141.8,162.2,140.2,161.4"/>
	<path class="st1" d="M139.1,135.8c3,0.6,5.1,2.4,7.3,4C143.9,138.8,141.4,137.7,139.1,135.8"/>
	<path class="st1" d="M145.4,144.4c1.8,0.3,3.6,0.6,5.1,2.4C148.4,146.4,146.8,145.6,145.4,144.4"/>
	<path class="st1" d="M125.9,157.5c-1.6-0.7-3.3-1.1-4.7-2c-0.2-0.1-0.5-0.2-0.4-0.5c0.1-0.3,0.4-0.5,0.7-0.3
		c1.6,0.8,3.1,1.6,4.6,2.4C126,157.2,125.9,157.3,125.9,157.5"/>
	<path class="st1" d="M85.8,228.1c-1.1-0.1-2.3-0.2-3.4-0.3c-0.6-0.1-0.8-0.4-0.7-0.9c0.1-0.5,0.5-0.4,0.9-0.3
		c1.2,0.1,2.2,0.9,3.4,1.1C85.9,227.8,85.9,228,85.8,228.1"/>
	<path class="st1" d="M153.1,152.9c1.2,0.2,2.2,0.4,3.2,0.9c0.3,0.2,0.6,0.4,0.4,0.8c-0.1,0.3-0.4,0.4-0.8,0.3
		C154.7,154.8,153.6,154.5,153.1,152.9"/>
	<path class="st1" d="M137.8,162.7c-1.3,0.2-4.4-1.5-5-2.6C134.8,160.3,136.3,161.4,137.8,162.7"/>
	<path class="st1" d="M110.7,178.1c2.6,0.3,4.8,1.6,7,2.9C115.2,180.3,112.9,179.3,110.7,178.1"/>
	<path class="st1" d="M126.8,136.7c-1.3-0.1-2.4-0.9-3.7-1.1c-0.3-0.1-0.9-0.2-0.7-0.8c0.2-0.5,0.8-0.4,1-0.3
		C124.7,135,125.8,135.7,126.8,136.7"/>
	<path class="st1" d="M135,157.1c2.2,0.4,3.9,1.7,5.8,2.7C138.6,159.6,136.9,158.1,135,157.1"/>
	<path class="st1" d="M90.5,218.1c-1.5-0.8-2.9-1.5-4.3-2.3C87.7,215.4,89.9,216.5,90.5,218.1"/>
	<path class="st1" d="M110.4,185.4c1.5,0,2.6,0.6,3.4,1.8C112.4,187.2,111.3,186.6,110.4,185.4"/>
	<path class="st1" d="M100.1,203.1c0.9,0.5,1.7,0.9,2.4,1.3c0.3,0.1,0.8,0.2,0.5,0.7c-0.2,0.3-0.6,0.3-0.9,0.1
		C101.2,204.7,100.5,204.2,100.1,203.1"/>
	<path class="st1" d="M98.9,193.1c1.3-0.1,2.1,0.6,2.9,1.1c0.2,0.1,0.2,0.4,0.1,0.7c-0.2,0.3-0.5,0.1-0.6,0
		C100.6,194.3,99.8,193.7,98.9,193.1"/>
	<path class="st1" d="M111,172.5c1.7,0,2.9,0.9,4.2,1.9C113.6,174.2,112.3,173.2,111,172.5"/>
	<path class="st1" d="M113.7,154.6c-0.4,0.4-0.7,0-1,0c-0.5,0-1.1-0.2-1.3-0.8c0-0.1,0.2-0.4,0.3-0.5c0.5-0.1,1.1-0.1,1.5,0.3
		C113.6,153.9,113.7,154.2,113.7,154.6"/>
	<path class="st1" d="M134.7,134.9c-1-0.4-2.3-0.1-3.3-1.4C132.9,133.5,133.9,134,134.7,134.9"/>
	<path class="st1" d="M110.1,194.7c-1.2-0.1-2.1-0.8-3.2-1.5C108.1,193,108.4,193.2,110.1,194.7"/>
	<path class="st1" d="M108.4,204.5c1.2,0.1,2.4,0.2,3.2,1.3C110.5,205.3,109.3,205.4,108.4,204.5"/>
	<path class="st1" d="M136.9,132.7c-1.4,0.2-2.3-0.8-3.4-1.3C134.9,131.1,135.7,132.4,136.9,132.7"/>
	<path class="st1" d="M136.2,174.6c-1.2-0.6-2.2-1.2-3.3-1.7C133.9,172.5,135.6,173.4,136.2,174.6"/>
	<path class="st1" d="M100.8,208.4c1-0.4,1.7,0.4,2.4,0.8c0.3,0.1,0.2,0.4,0.1,0.6c-0.2,0.4-0.5,0.2-0.8,0
		C101.9,209.4,101.4,208.9,100.8,208.4"/>
	<path class="st1" d="M130.2,159.8c-0.8-0.3-1.5-0.6-2.2-1.2C129.7,158.2,130,158.4,130.2,159.8"/>
	<path class="st1" d="M112.1,211.1c-1.1-0.2-2-0.6-2.8-1.4C110.5,209.8,111.4,210.3,112.1,211.1"/>
	<path class="st1" d="M116.4,147c1.3-0.6,1.9,0,2.9,0.7C118.1,147.9,117.3,147.7,116.4,147"/>
	<path class="st1" d="M146.8,153.3c-0.9-0.1-2,0-2.5-1.4C145.4,152,146.2,152.6,146.8,153.3"/>
	<path class="st1" d="M110.2,189.1c1.2,0.2,2.1,0.9,3.2,1.7C112.1,190.5,111,190.1,110.2,189.1"/>
	<path class="st1" d="M116.7,157.2c-0.4-0.2-1-0.4-0.7-0.9c0.2-0.4,0.8-0.1,1.2,0.1c0.3,0.2,0.9,0.2,0.6,0.8
		C117.4,157.9,117.1,157.2,116.7,157.2"/>
	<path class="st1" d="M102.3,200.1c-1.1,0.1-1.8-0.7-2.7-1.2C100.8,198.7,101.5,199.4,102.3,200.1"/>
	<path class="st1" d="M120.4,143.1c-0.9,0-1.7,0.1-2.4-0.7C119.2,141.8,119.8,142.4,120.4,143.1"/>
	<path class="st1" d="M147.3,152.2c-0.2-0.2-0.8-0.2-0.4-0.8c0.4-0.5,0.7,0,1,0.1c0.4,0.2,1,0.4,0.7,0.9
		C148.3,152.8,147.7,152.4,147.3,152.2"/>
	<path class="st1" d="M108.5,211.8c0.7,0,1.4,0.1,2,0.5c0.3,0.2,0.5,0.6,0.2,0.9c-0.3,0.3-0.6,0-0.8-0.2
		C109.4,212.7,109,212.2,108.5,211.8"/>
	<path class="st1" d="M98.4,186.8c0.8,0,1.6-0.2,1.9,0.9C99.4,188,98.9,187.4,98.4,186.8"/>
	<path class="st1" d="M140.3,130.7c1.2-0.6,2.1,0.1,2.9,0.7C142.3,131.1,141.3,131.2,140.3,130.7"/>
	<path class="st1" d="M105.6,183.3c1,0,1.8,0.1,2.2,1.2C107.1,184.1,106.4,183.7,105.6,183.3"/>
	<path class="st1" d="M181.7,58.6c-0.6-0.9-1.1-1.8-1-3.2C182.1,56.3,181.7,57.5,181.7,58.6"/>
	<path class="st1" d="M175.4,57.5c0.1-0.7-0.2-1.4,0.2-2c0.1,0,0.2-0.1,0.3-0.1C176,56.1,176.2,56.9,175.4,57.5
		C175.4,57.4,175.4,57.5,175.4,57.5"/>
	<path class="st1" d="M187.2,52.6c0,0.4,0,0.8,0,1.3c-0.6-0.3-0.5-0.8-0.4-1.1C186.9,52.7,187,52.6,187.2,52.6"/>
	<path class="st1" d="M175.6,55.5c-0.3-0.4,0-0.6,0.2-0.8c0,0.2,0,0.5,0.1,0.7C175.8,55.4,175.7,55.4,175.6,55.5"/>
	<path class="st1" d="M178.2,50.6c0.2-0.2,0.4-0.1,0.6,0.1c-0.1,0.1-0.3,0.2-0.4,0.2C178.3,50.8,178.2,50.7,178.2,50.6"/>
	<path class="st1" d="M184.7,88c0.4,0.4,0.5,0.9,0.4,1.5c-0.3-0.5-0.5-1-0.8-1.4C184.5,88.1,184.6,88.1,184.7,88"/>
	<path class="st1" d="M185.5,82.7c0.2,0.3,0.5,0.6,0.5,1.1c-0.5-0.2-0.7-0.6-0.8-1C185.3,82.7,185.4,82.7,185.5,82.7"/>
	<path class="st1" d="M185.6,77.7c0,0.1,0,0.3,0,0.4c0,0.1-0.2,0.1-0.2,0.1c0-0.1,0-0.3,0-0.4C185.3,77.8,185.4,77.8,185.6,77.7"/>
	<path class="st1" d="M184.1,95.5c0,0.2,0.3,0.5,0,0.6c-0.3,0.1-0.3-0.2-0.3-0.4C183.9,95.6,184,95.5,184.1,95.5"/>
	<path class="st1" d="M183.9,94.9c0.1,0.2,0.1,0.4,0.2,0.6c-0.1,0-0.2,0.1-0.3,0.1c-0.1-0.2-0.1-0.4-0.2-0.6
		C183.7,95,183.8,95,183.9,94.9"/>
	<path class="st1" d="M186.4,100.4c-0.1-0.6-0.5-1.2,0.5-1.5C186.4,99.3,187.1,100.1,186.4,100.4"/>
	<path class="st1" d="M154.4,122.6c-1.3-1.5,0.4-2.2,0.9-3.2C155.2,120.5,155.3,121.7,154.4,122.6
		C154.4,122.6,154.4,122.6,154.4,122.6"/>
	<path class="st1" d="M185,64.5c0.2-0.1,0.5-0.5,0.6-0.3c0.1,0.3-0.1,0.6-0.5,0.6C185,64.8,185,64.6,185,64.5"/>
	<path class="st1" d="M237.1,92.6c0.9-0.6,1.7-0.6,2.3,0.4C238.7,92.8,237.9,92.8,237.1,92.6"/>
	<path class="st1" d="M233.3,90.7c0.2,0.1,0.5-0.1,0.5,0.3C233.4,91.2,233.2,91.2,233.3,90.7"/>
	<path class="st1" d="M166.3,72.4c-0.2-0.2-0.2-0.4,0.1-0.6c0.1,0.1,0.2,0.3,0.2,0.4C166.5,72.3,166.4,72.4,166.3,72.4"/>
	<path class="st1" d="M109.3,62.8c-0.1,0-0.3,0-0.4,0c-0.1,0-0.1-0.1-0.1-0.2c0.1,0,0.2-0.1,0.4,0C109.2,62.6,109.2,62.7,109.3,62.8
		"/>
	<path class="st1" d="M124.2,73.6c-0.2,0-0.3,0-0.5,0.1c0-0.3,0.2-0.4,0.4-0.4C124.2,73.4,124.2,73.5,124.2,73.6"/>
	<path class="st1" d="M115.5,54.9c0-0.2,0-0.3,0-0.5c0.3,0,0.4,0.1,0.4,0.4C115.7,54.9,115.6,54.9,115.5,54.9"/>
</g>
</svg>
