<?xml version="1.0" encoding="utf-8"?>
<!-- Generator: Adobe Illustrator 22.0.1, SVG Export Plug-In . SVG Version: 6.00 Build 0)  -->
<svg version="1.1" id="Capa_1" xmlns="http://www.w3.org/2000/svg" xmlns:xlink="http://www.w3.org/1999/xlink" x="0px" y="0px"
	 viewBox="0 0 323.8 328" style="enable-background:new 0 0 323.8 328;" xml:space="preserve">
<style type="text/css">
	.st0{opacity:0.5;}
	.st1{fill:#E3E1CB;}
</style>
<g class="st0">
	<path class="st1" d="M208.8,217.3c8.2,1.4,15.2-1.5,19-7.2c1.9-2.9,2.5-6.4,5.3-9c0.3,0,0.6,0.1,1,0.1c-0.1,0.1-0.3,0.3-0.4,0.4
		c-2,4.6-2.2,9.1,1.3,13.5c2.8,3.5,6.4,5.2,11.7,4.8c2.2-0.2,4.3-0.3,6.1,0.9c2.3,1.5,3.6,0.5,4.5-1.2c0.9-1.6,1.8-3.3,1.4-5.1
		c-2.1,0.7-1.6,2.4-2.3,3.7c-0.5,0.9-1.5,1.2-2.4,1.2c-1.3,0-1.1-0.8-1-1.5c3.2-0.2,1.6-1.8,1.3-2.9c-0.3-0.3-0.6-0.6-0.1-0.9
		l0.5,0.6c1.7-2.1,0.6-4.7-1.1-5.4c-4.4-1.7-4.7-5-7.3-8.1c2.9,1.1,5.3,1.9,7.6,2.8c-0.2-1.9-2.5-2.2-4-3c-1.2-0.6-3-1.1-2.4-2.5
		c0.5-1.2,2.3-1.3,3.8-1.3c1.8-0.1,3.5,0.3,5,1c8.9,3.9,17.6,3.1,26.4-0.5c4.9-2,9.8-3.8,13.4-7.2c0.4-0.4,0.5-0.9,0.8-1.3
		c-0.4-0.1-0.7-0.2-1.1-0.3c-1.9,0.3-3.5,0.7-4.2,2.4c-1.3,2.9-4.6,1-7,1.8c0.4,0.7,2.3,0,2.1,0.9c-0.2,1-1.7,0.7-2.7,0.9
		c-0.5,1-1.6,1.4-2.8,1.6c-3.9,2.3-8.6,2.3-13.1,2.7c-1.5,0.1-3.2,0.3-4.5-0.6c-0.7,0-1.4,0-1.7-0.6c-2.8-0.2-5.1-1.4-7.3-2.6
		l0.1,0.1c-1.1-0.1-2.4-0.2-0.9-1.3c0.6-0.7,1.4-1,2.5-0.7l-0.1,0.1c3.2-1.8,6.3-3.6,9.5-5.4c0.6-0.4,2-0.5,1.1-1.5
		c-3.1,0.5-5.2,2.4-7.8,3.5c-5.1,2.2-9.6,5.1-15.6,6c-3.8,1.2-7.2,3.2-11.6,3.2c3.3-2,7.3-2.7,11.2-3.6c6-2.5,12.1-4.8,17.7-7.9
		c4.4-2.4,7.7-5.8,12.5-7.7c0.5-0.5,1-0.8,1.8-0.4c-0.5,0.3-0.9,0.6-1.4,0.9c-1.5,2.5-5.4,3.4-6.8,5.9c1.2,0.7,1.9,0.1,2.6-0.5
		c4.7-4.1,10.3-7.6,14.1-12.4c-0.2-0.2-0.5-0.3-0.7-0.5c-0.7,0.5-1.4,1-2.1,1.5c-0.2,0.2-0.5,0.5-0.7,0.7c-0.3,0.2-0.6,0.4-0.9,0.6
		c-0.2,0.2-0.2,0.7-0.7,0.2c0,0,0.3-0.3,0.5-0.4c0.2-0.3,0.3-0.6,0.5-0.8c0.2-0.2,0.5-0.5,0.7-0.7c0.8-0.8,1.1-2.2,3-2.2
		c-0.2-1.5,1.2-2.3,2.5-3.1c0.2-0.3,0.4-0.5,0.6-0.8c0.2-0.3,0.5-0.6,1-0.4c-0.2,0.2-0.4,0.5-0.6,0.7c-0.3,0.2-0.5,0.5-0.8,0.7
		c-0.1,0.5-0.3,1-0.4,1.5l0.7,0.5c2.2-1.5,5.1-2.2,7-4c-0.2-0.2-0.4-0.3-0.6-0.5c-0.7,0.3-1.4,0.6-2.8,1.2c4-7.8,8.3-14.8,13.1-21.8
		c0.4,1.8,1.4,3.2,2.9,4.4c2.3,0.4,3.5,1.6,3.6,3.4l-0.1-0.1c0.9,0.8,0.5,2.5,2.8,2.2c0.4-0.5,0-1-0.2-1.5
		c-1.8-4.4-7.8-7.1-7.8-12.1c-5-2.4-8.7-6.2-13.8-8.4c-4.8-2.1-14.1,0.1-18,3.2c-1.5,1.1-2.4,3.1-5.4,2.5c-1-0.2-1.7,0.9-2.2,1.6
		c-2.3,2.8-4.7,5.6-7,8.4c-0.5,0.6-0.8,1.6-1.9,1.3c-3.1-0.8-6.1-0.7-9.1,0.1c-0.5,0.1-1.2,0.1-1.4-0.4c-0.5-1.1-0.3-2.1,0.8-2.9
		c2.9-2.1,3.7-5,5.6-7.5c-0.3-0.2-0.6-0.4-0.9-0.5l-2,1.3c-0.1,1.8-1.1,3.2-3.1,4.2c-0.2,0-0.4,0-0.7,0c0.1-0.1,0.2-0.3,0.3-0.4
		c-3-2.2-1.1-3.6,1.4-5c0.5-2.1,1.7-4.2,1.3-6.2c-0.5-2.7,0.4-4.6,2.8-6.3c-0.8,0.2-1.6,0.3-2.4,0.5c-0.5-1.6,0.3-2.8,1.6-3.9
		c-0.2-0.2-0.5-0.3-0.7-0.5c-1.5-0.6-1.6-1.1,0.1-2.2c4.1-2.8,7.3-6.1,9.2-10.1c0.4-0.8,0.7-1.8,2.3-2c8.5-0.9,13.4-5.7,18.2-10.5
		c-0.2-0.2-0.5-0.4-0.7-0.5c-2.4,1.1-4.3,2.6-5.8,4.3c-2.7,3.2-6.8,3.7-11.5,4c4.4-9,0.9-18.9,7.1-27.5c-1.7,0-1.4,1.5-2.9,1.4
		c-0.3-2.8,1.1-5.4,1.2-8.6c-2.2,1.9-2.3,3.9-2.4,5.8c-0.1,3.9-0.2,7.7-0.8,11.5c-1.1,6.5-1.5,13.1-5.3,19.2
		c-2.5,4-4.7,8.1-10.7,10.4c0-1.3,0-2.2,0-3.2c0.3-9.3-0.2-18.6-1.5-27.8c-0.8-6.2-2-12.2,3.3-17.7c0.3-0.3,0.3-0.8-0.4-1.2
		c-2.5,1.5-2.8,4.1-5.4,6.4c-0.3-4.2-0.4-7.9-1.4-11.7c-0.6,0.7-1,1.1-1.4,1.5c-0.1,0.1-0.3,0.2-0.4,0.3c2,2.1,0.6,4.5,0.7,6.7
		c0.2,2.5-0.5,4.8,1,7.3c1.2,2,0.9,4.5,1.3,6.8c-0.3,0.2-0.5,0.4-0.8,0.6c1.1,1.2,3.3,2.2,1.3,4l0.1-0.1c0.2,1-1.2,2-0.1,2.9
		c1.7,1.4,1.2,2.7,0.1,4l-0.1,0.1c-0.5,0.8,1.9,1.5,0.2,2.4c0.8,2.8-0.8,5.6,0.4,8.5c0.3,0.7-0.6,2.1-1.4,2.7c-1,0.7-1.5-1.7-3-0.8
		c-0.3-1.3-2-1.7-3.1-2.3c-3.2-1.8-3.2-4.5-3.6-7.2c-1.1,0.4-0.2,1.4-1.3,1.6c-0.3-2.4-0.4-2.2-1.2-2.6c-2.8-1.3-6.1,0-9-1.2
		c-0.5-0.2-1.4,0.1-2.6,0.3c5.8,1.7,11.4,3.1,13.4,8l-0.1-0.1c2.2,1.7,4.1,3.9,6.7,5c3.8,1.5,4.9,3.4,3.8,6.3
		c0.3,0.2,0.5,0.4,0.7,0.6c1.1-0.4,0.7-1.5,1.5-2.1c0.2-2.1,0.3-4.2,0.5-6.3c0.6,2.2,0.9,4.5,0.1,6.7c-0.3,2.9-0.3,5.8-1.5,8.6
		c-0.2,0.8-0.5,1.6-0.7,2.4c-0.3,1.2-0.7,2.3-1,3.5c-0.5,1.3,0.2,3-3,4.2c0.9-2,1.6-3.3,2.2-4.7c0.2-1.1,1-2.2-0.6-3.1
		c0,0.2-0.1,0.5-0.1,0.7c0,0.4-0.2,0.4-0.5,0.1c-1.9,1.8-2.5,4.1-3.7,6.3c-4.7-2.3-1.5-5.5-2-8.1c-1.1,0.2-2.3,1.9-3.2-0.1
		c-0.7-0.5-1.8-0.8-2-1.4c-1.7-3.9-5.2-6.7-9.3-9.2l-3.4-0.2c-0.8-0.1-0.7-0.6-0.7-1.1c-2-0.6-3.3-1.4-1.6-3.2l-0.1,0.1
		c0.1-0.7,0.2-1.3,0.3-2c1.6-2-0.5-4.1-0.1-6.4c1.7,0.7,0.7,2.3,2.3,2.6c-0.6-4.3-0.4-8.8-4.1-12.7c-1,1.5-0.1,2.1,0.7,2.9
		c0.4,0.4,0.5,1.5-0.9,1.7c-1,0.1-1.4-0.5-1.4-1.2c0-1.1,0-2.2,0-3.5c-1.5,0.8-0.1,2.1-1.3,2.8c-0.9-0.7,0.3-1.9-1.1-2.5
		c0,0.9,0.7,2.1-1.2,2.7c-0.6-1.8-2.2-3.4-0.4-5.2c-0.2-1.6,3.8-2.6,1.1-4.8c1.4,0.1,2.6,0.5,3.7-0.2c0.1-2.3-3-2.2-4.2-3.5
		c-0.9-1-1.8-1.8,0.1-2.7c1.7-0.9,1.3-1.4-0.6-1.3c1.6-1.6,3.2-3.3,4.7-4.9c0.2-0.1,0.4-0.3,0.6-0.4c-0.1-2.7,1.8-3.9,5.1-4
		c1.5,0,2.5-0.5,2.9-1.7c0.3-0.8,1.1-1.4,2.2-1.8c7.4-2.6,14.6-6.2,23.4-4.5c0.7,0.1,1.5-0.3,2.3-0.5c5.3-1.4,10.2-1.1,15,1.2
		c3.3,1.5,6.7,2.8,10,4.2c0.3-0.2,0.5-0.4,0.8-0.6c-5.2-3.5-11.4-5.4-17.9-6.9c-2.1-0.5-4.1-0.1-5.9,0.5c-2.8,0.7-5.5,1.2-8.1-0.2
		c-0.4-0.2-1.2-0.4-1.4-0.2c-5,3.2-12.3,1.8-17.3,5.3c-3.7,2.6-7.9,4.7-12.7,6.2c-1.7,0.5-3.8,1.6-2.7,3.9c0.7,1.7-2,1.9-3.2,2.7
		c-1.4,1-2-0.4-2.7-1c-1.8-1.7-3.6-3.4-7-2.8c-1.7,0.3-3-0.5-1.9-2.1c0.5-0.7,0.5-1.4,0.1-2.1c-1.6-2.7-10.9-7.3-14.9-7.1
		c-1.2,0.1-1.7-0.2-2.4-0.8c-4.8-3.9-10.5-5.5-17.4-4.1c-1,0.2-2,0.2-2.7-0.2c-3.5-1.8-8.3-1.5-10.9-0.5c-4.7,1.8-10.6,1.6-14.1,5.3
		c-1.5,1.6-4.1,2.1-5.9,3.8c-4.1,3.8-7.3,7.6-8,12.6c-0.2,1.3,1.2,4.6-3.8,3.2c-2-0.5-2.3,1.4-2.5,2.6c-0.8,4.7,2.1,8.1,6.8,10.6
		c2.4,1.3,3.8,2.9,4,5.1c0.1,1-0.1,1.8-1,2.6c-2.4,2.2-2.1,4.7,1.2,6.2c2,0.9,2.6,1.3,0.8,2.9c-2,1.8,2,7.2,5.7,7.6
		c2.3,0.2,3.5,1,4.1,2.5c2.9,8.4,11.6,12.5,20.3,16.5c6.8,3.1,14.2,5.2,20.7,8.8c1.1,0.6,2.2,1.2,2.7,2.2c0,0.4,0.1,0.7,0.1,1.1
		c-0.3-0.1-0.6-0.2-1-0.4c-5.7-2.9-11.6-4.7-18.6-3.1c-1.5,0.3-2.7,0.7-3.9,1.4c-3.2,2.1-3.9,2-6.8-0.3c-0.8,2.5,0.8,4.6,1.9,6.5
		c3.5,6,8.8,10.8,16.6,13.8c6.5,2.5,12.8,5.3,19,8.2c4.6,2.2,8.2,5.5,7.2,9.7c-0.7,2.8-0.9,6.1-3.7,8.7c-4.1-3.2-8.8-4.7-14.6-3.5
		c-2.3,0.5-4.7,1-6.9,1.8c-4.1,1.6-8.5,2.3-12.9,3.1c-1.8,2.6-1.4,5.3-0.6,8.2c-2.2-1.4-6.2-4.6-6.1-4.9c0.9-1.4,3.3-1.2,4.3-2.5
		c0.4-0.5,1-1,1.5-1.5c0.7-1.2,1.3-2.4,2.3-4c-3.1,0.7-3.8,2.5-5,3.8c-1.1,1.1-2.1,2.2-4.2,1.8c-2.1-0.4-2.9-1.7-3.1-3.3
		c-0.3-2.8,0.3-5.4,4-6.9c-0.5-1.5-1.6-2.6-2.7-3.8c0.3-0.6,0-1.5,0.9-1.9c-0.1-2.4,2.2-3.7,4-5.2l-0.9-0.6
		c-0.8,0.3-0.1-1.8-1.5-0.6c-0.3,0.3-0.2,1.8-1,0.6c-1.9-2.8-1.7,0.6-2.8,0.3c-0.6-2.1-3.4-3.5-3.5-5.9c-2.9-1.3-2.3-4-3.6-6.1
		c-2,3.1,1.6,5.3,1.2,8c0.2,0,0.4,0.1,0.5,0.1c-0.2,0.2-0.4,0.3-0.6,0.5c-1,2.1-4,4.7,2.3,4.8c0.8,0,1.6,1.5,1.4,2.6
		c-0.5,2.8-1.8,5.4-3.6,8.5c-2.2-3.5-5-5.9-8.3-8.1c-1.3-0.9-1.5-2.1-1.4-3.4c1.8-0.7-0.4-1.8,0.6-3c2.4-2.7,3.5-5.9,4.8-9.1
		c0.6-1.4,2-2.2,4.1-1.6c0.2-0.2,0.4-0.3,0.6-0.5c-1.5-2.2-3.3-2.1-5.3-0.4c-0.9,0.8-1.8,1.5-2.3,2.5c-1.6,2.9-2.7,6-4.9,8.8
		c-2.3,2.9-0.9,6.1,3,9.2c2.4,1.9,5.3,3.6,6.4,6.4c0,0.3-0.1,0.6-0.1,0.8c-0.2-0.1-0.5-0.2-0.7-0.2c-5.3-3.2-11.1-5.8-16.8-8.5
		c-5-2.4-5.5-7-1.2-10.2c1.7-1.2,3.8-2.1,5.2-4.3c-2.3,0.3-3.3,1.3-4.5,2c-1.1,0.7-2.1,1.6-3.9,1.8c-0.5-2.7,0.8-5,2.2-7.2
		c1.7-2.7,3.6-5.3,5.5-8c0.4-0.6,0.9-1.4,0.2-2c-0.1-0.1-1.1,0.2-1.6,0.3c-2.7,0.5-1.1,3.6-3.9,4c1,3.2-2.2,5.5-2.9,8.4
		c-1.8-0.4-0.9-2.2-2.6-2.6c-0.4,1.6,0.4,2.9,1.1,4.3c1.3,2.6-0.1,5.5-2.9,6.5c-0.4,1,2.4,2.3,0.2,2.9c-1.7,0.5-1.8-1.5-2.5-2.4
		c-0.5-0.6-1.4-1.5-1.2-1.9c2.1-3.7-3.4-7.9,1.5-11.5c1.2-0.9,2.1-2.7,2.4-4.4c0.2-1,1-2.6,3-2.5c3.1,0.2,3.7,0.1,4.7-2.1
		c0.7-1.3,1.8-0.9,3-0.8c-0.1-1.4,0.7-2.6,1.2-3.8c0.8-2,2.1-2.2,3.9-0.7c0.2-0.2,0.5-0.3,0.7-0.5c-0.4-0.7-0.6-1.4-1.2-2
		c-1.3-1.4-1.9-2.6-4.4-0.2c-2.8,2.7-5.2,5.8-9.7,7.9c-5.2,2.4-7.5,7.4-8.4,12.4c-0.3,1.5-0.5,3.1-1,4.6c-2.4-4.2-2-8.6-0.8-12.9
		c1.7-6,2.9-11.9,1.2-18c-0.9-3.2-3.1-5.7-5.5-8.4c-4.1-4.5-8.2-9.4-5.4-15.5c1.2-2.6,1.3-5.3,1.2-8.1c-0.1-1.2,0.4-2.9-1.3-3.4
		c-1.2-0.3-2.6,0.6-3.7,1.4c-0.4-0.2-1.1-0.5-1.1-0.7c0.2-5.9-5.6-9.1-10.3-12.5c-2.5-1.7-6.2-2.9-9.9-2.9c-2.8,0-5.1-0.8-7.5-1.9
		c-5.6-2.5-11.9-3.3-18.3-2.7c-2.8,0.3-4.7,1.5-6.4,3.5c-1.9,2.2-3.7,4.5-6.5,6.1c-0.9,0.5-1.2,1.3-1.6,2.1
		c-3.2,6.2-4.5,12.7-4.8,19.3c0,0.7,0.6,2.1-1,2c-5.1-0.3-3.8,2.5-4.2,4.6c-1,6.1,1,11.5,5.1,16.7c1.6,2,4.2,2.8,7.4,3.8
		c-3.4,1.2-3.2,2.8-2.2,4.9c2.5,5.1,7.2,8.7,12.8,11.8c1.6,0.9,3.3,1.6,3.9,3c3.4,7.2,11.7,10,19.5,13.2c9.5,3.9,19.7,5.5,30.4,4.9
		c2-0.1,3.7,0.5,4.6,2c-0.2,0.2-0.3,0.5-0.5,0.5c-12.5,0.2-17.5,9.5-17.7,17.2c-0.1,2.8-1.2,5.3-2.4,7.9c-1.7,3.7-0.5,5.4,4.5,5.9
		c4.3,0.4,8.5,1.2,12.9,0.6c1.1-0.2,2.4-0.3,3.1,0.3c2.3,1.7,4.4,1.1,6.5,0c2.2-1.2,3.2-0.5,3.4,1.4c0.2,2-0.2,4.1,0.7,5.9
		c2.8,5.4,7,10.3,13.1,13.8c3.7,2.1,5.6,1.5,6.5-2.1c1.6-6,5.7-10,13.9-10.8c1.1-0.1,2.2-0.7,2.5-1.5c0.9-2.7,3.7-4.3,5.2-6.7
		c1-1.6,2-1.6,2.9,0c1.5,2.7,3.1,5.3,4.4,8.1c6.3,13.2,8.6,26.9,8.6,40.9c0,3,0.3,6.1,0.4,9.1h1.5c-0.2-2-0.3-4,0.1-6.1
		c0.5-12.7-1.7-25.3-5.9-37.5c-3.3-9.6-7.2-19.2-15.9-27.1c-5.4-4.9-11.7-8.8-18.4-12.6c-5.3-3.1-10.3-3.5-16.1-2.1
		c-0.3,0.1-0.6,0-1.5-0.1c3.8-1.8,2.4-3.1-0.2-3.8c-5.2-1.5-9.2-4.2-13.7-6.5c-1.2-0.6-2.1-2-4-1.2c0.1,0.3,0.3,0.6,0.4,0.9
		c0.7,0.4,1.7,0.6,1.9,1.4c-0.7,0.1-1.5,0.1-2.2,0.2c0-0.4,0-0.8,0-1.2c-3.3,0-3.3,0-2.4-1.3c-2.7-0.2-5.3-0.4-8-0.6
		c0.3,0.2,0.7,0.4,1,0.7c-2.2,1.8,1.8,1.3,1.5,2.4c-2.6,0.4-5-0.1-7.5-0.7c-2.9-0.5-5.6-1.4-8.2-2.6c-7.1-1.8-13.4-4.6-18.6-8.8
		c-1.3-1.1-3-2-3.4-3.4c-1-3.2-4.2-4.8-7.4-6.5c-3.6-2-6.8-4.4-8.7-7.6c-0.6-1-1.1-1.8,0.2-2.8c2.5-1.9,1.7-4.5-1.6-5.5
		c-1.6-0.5-3.4-0.6-4.5-1.9c-4.2-5.2-6.7-10.7-5.5-16.9c0.2-1,0.5-1.6,2.2-1.7c3.8-0.2,4.9-1.8,3.4-4.5c-1.1-2.8,0-5.5,0.5-8.3
		c-0.1-1.2,0.7-2.3,1-3.5c0.4-2.4,1.1-5.3,3.1-7c3.2-2.6,5.7-5.5,8-8.5c1.3-1.8,3.7-2.8,6.1-2.6c4.6,0.3,9.3,0.7,13.7,2
		c1.7,0.5,2,1.2,0.2,2.1c-2,1-3.8,2.3-4.1,4.4c2.2,0.4,2.2-1.3,3.2-2.1c1.3-1,2.4-2.4,4.5-2.3c5,0.2,9.6,1.4,14,3.2
		c1.3,0.5,1.2,1.2,1.1,2.4c-0.5,5.9-4.4,10.9-7,16.2c0.2,0.1,0.3,0.2,0.5,0.3c3.9-4.1,6.3-8.6,7.5-13.5c0.2-0.9-0.4-2.1,1.1-2.4
		c1.3-0.3,2.1,0.8,2.9,1.4c2.6,2,3.7,4.5,3.8,7.3c0.1,1.1-0.7,2.4,0.3,3.6c1.6-0.7,2.6-1.5,2.9-2.8c3.3,0.5,5,3.1,3.3,5.8
		c-5.2,8.4-2.1,15.4,5.6,21.9c1.3,1.1,2.7,2.5,1.7,4.3c2,0,1.5,1.4,1.7,2.3c1.1,4,1,8.1,0.2,12.2c-0.9,4.6-2.7,9.2-2,14
		c0.3,2.2,1,4.4,1.5,6.5c-2.8-2.6-2.8-6-4.5-9.5c-0.1,1.8-0.2,3-0.3,4.2c-1.6-0.8-1-2.2-2.4-3.6c0.2,1.8,0.3,2.9,0.4,4
		c0.4,0.3,0.6,0.8,0.2,1c-0.6,0.2-0.5-0.4-0.6-0.7c-1.5-1.2-0.6-3.3-3-4.7c0.6,2.6,0,5.1,3.4,6.4c0.6,0.2,0.7,0.6,0.6,1
		c-0.1,0.5-0.7,0.4-1.3,0.3c-2.8-0.6-6.1-4.4-5.7-6.7c0.2-1-0.4-2.8-1.2-2.5c-3.2,1.6-2.3-0.8-2.5-1.5c-1.6-4.3-1.1-8.8-1.4-13.2
		c-0.2-0.9-0.2-1.9,0.5-2.7c0.4-3,0.8-6,2-8.9c1.2-2.8,4.4-4.9,3.4-7.3c-9.5,9.9-7.3,22.3-7,34.9c-2.7-1.7-4.6-2.8-5.6-4.7
		c-1.5-0.2-2.3-0.9-2.2-2.1c0.2-2.3-1.3-4.2-1.7-6.6c-2.7,2.6,1.1,4.2,1,6.5c-4.2-1.4-5.1-4.6-7.7-6.5c-3.5-2.6-3.7-5.8-2.7-9.3
		c1.7-6,5.4-11.3,10-16.2c-0.3-0.2-0.7-0.4-1-0.6c-1.6,0.4-2,2.7-3.5,2.1c-1.8-0.8-0.5-2.7-0.4-4.1c0.1-1.9,1.6-3.8,0.7-5.9
		c-1.1,0.6-1.1,1.5-1.2,2.3c-0.6,3.5-0.9,7.1-1.7,10.5c-1.1,4.6-5.7,8.4-6.5,13.6c-1.8-1.2-2.7-2-2.7-3.3c-1.4-0.6-2-1.6-2.5-2.6
		c-2.9-6-6.2-12-6.6-18.6c-0.2-4-0.4-7.9,5.4-10c-0.2-0.2-0.4-0.5-0.7-0.7c-1,0.3-1.8,1.3-3.5,0.7c0.5-1.6,1.3-3.1,1.6-4.7
		c0.6-3.1,3.9-5.5,4-8.7c-0.4,0.1-0.8,0.1-1.1,0.3c-1.9,1-0.5,4.9-5.1,3.3c-0.1,0.3-0.4,0.7-0.3,0.8c3.3,2.3-1,4.1-0.7,6.2
		c-0.2,0.1-0.5,0.2-0.7,0.3c-0.3,2-0.1,4.2-0.9,6.1c-0.5,1.2,1.3,4.6-3.5,3.4c-0.1,0-0.7,0.5-0.6,0.6c1.2,1.6-0.9,3.9,2,5.3
		c0.8,0.4,2.1,1,1.8,1.9c-0.5,1.6-2.3-0.7-3.1,0.4c0.2,1.7,2.7,2,3.2,3.4c-1.8,0-2.6,0.3-1.8,2c1.2,2.7,1.4,5.7,3,8.2
		c1.5,2.3,1.9,5.8,6.8,6.4c-3.4-0.2-2,1.8-1.4,2.7c0.9,1.5,2,3.1,4.7,3.5c1.7,0.2,4.4,1.2,3.9,2.2c-1.4,3,2.8,3.2,3.4,5
		c-0.7,0-1.3,0.1-1.9,0.1c4.2,1.5,5.5,5.4,9.8,6.5c-0.9,0.2-1.7,0.4-3,0.6c2.6,0.9,5.6,1.2,4.7,4c2.7,1,5.5,1,8.4,0.6
		c0.6-1.3-1.1-1.4-1.9-1.9c-2.2-1.6-4.7-3-5.8-5.3c-0.2-0.2-0.5-0.5-0.7-0.7c-0.1-0.2-0.3-0.4-0.4-0.6c0.3,0.1,0.6,0.1,0.9,0.2
		c0.3,0.2,0.5,0.4,0.8,0.6c3.3,2.3,6.7,4.6,10,6.8c7.4,5,14.8,9.9,23.4,13.7c0.8,0.4,1.9,1.1,2.5,0.4c2.8-3.4,3.7-0.3,5,0.8
		c0.7,0.6,1.5,1.1,2.5,1.4c10.5,3.4,19.3,8.8,27.3,14.8c13.1,9.7,18.6,22.6,22.6,35.8c3.8,12.3,4.1,25.1,4.7,37.7
		c0,0.3,0.1,0.7,0.1,1h2.8c0.2-0.7,0.4-1.3,0.8-1.7c0,0.6,0,1.1,0,1.7h4.4c0-4.6,0.6-9.2,2.4-13.7c-0.4,4.6-0.8,9.1-1.2,13.7h1.1
		c0.1-1,0.7-2,2.2-3c0.1,1,0.1,2,0.2,3h2.9c0-0.6,0.1-1.1,0.1-1.7c0.4-11.9,0.9-23.9,7.7-34.9c3.6-5.9,7.1-11.9,12.7-17
		C205.2,217.2,206.6,216.9,208.8,217.3 M55,146.5l-0.1,0.2l-0.2-0.2L55,146.5z M60.2,151.8c0.6,0.3,1,0.7,0.7,1.3
		c-0.4-0.3-0.8-0.6-1.2-1c-0.9-0.6-1.7-1.2-2-2.1c-0.4-0.3-0.8-0.6-1.3-1c-0.2-0.3-0.3-0.6-0.5-0.9c-0.1-0.2-0.2-0.4-0.4-0.7
		c0.3,0.1,0.6,0.1,0.9,0.2c0.2,0.3,0.3,0.6,0.5,0.9c0.4,0.4,0.8,0.7,1.1,1.1C58.8,150.4,59.5,151.1,60.2,151.8 M61,153.2
		c0.4-0.1,0.6-0.1,0.4,0.3C61.2,153.4,61.1,153.3,61,153.2 M63.4,155c0.1,0.2,0.3,0.4,0.4,0.6c-0.3-0.1-0.6-0.2-0.8-0.2
		c-0.2-0.2-0.5-0.5,0-0.7C63,154.6,63.3,154.8,63.4,155 M66.3,157.2c0.1,0.2,0.1,0.4,0.2,0.7c-0.2-0.1-0.5-0.2-0.7-0.3l-0.9-0.9
		C65.7,156.1,65.9,156.9,66.3,157.2 M67,162.1c0.4,0,0.4,0.2,0,0.3c-0.2,0-0.4-0.1-0.6-0.1c0,0,0,0,0,0
		C66.6,162.2,66.8,162,67,162.1 M91.3,168.1c1.8,2.9,1.8,2.9-1.8,2.8C91.9,170.5,90.4,169,91.3,168.1 M125.8,199.5
		c0.9-4.2,1.9-4.5,7.1-2c-4.2,0.7-5.3,3.5-7.1,5.8c-1.1-0.2-0.8-0.6-1-0.8C123.8,201.3,125.6,200.6,125.8,199.5 M122.1,228.8
		c-2.2,2.2-2.6,0.1-2.9-0.9c-1.1-4.2,0.7-7.9,3.3-11.5c1.1-1.6,2.2,0.1,3.3-0.1c-1.3-4.1,1.4-10.3,5.3-12.1c0,1.2,0.7,3.1-0.1,3.6
		c-2.3,1.5-0.7,2.2,0.4,3.1c-0.1-1.1,2.5-1.4,1.3-2.8c-0.5-0.7-0.9-1.3,0.1-2c0.3,0.5,0.5,0.9,0.8,1.4c0.8-0.9,2.8-0.9,2.8-2.3
		c0-1.2,1.2-1.6,2.3-1.7c1.3-0.1,1.4,0.9,1.9,1.6c0.5,0.8-0.2,1.9,1.6,2.3c1.6,0.4,2.8,1.4,3,2.9c0.2,1.5-1.1,2.5-2.2,3.2
		c-1.5,0.9-2.2,1.6-2.5,2.4c-0.6,1.5-0.1,3.9-3.3,3.7c-1.1-0.1-1.6-0.4-2.2,0.6c-0.5,0.8-1.4,0.9-2.6,0.6c-0.7-0.2-2.9-1.1-2.5,1
		c0.1,0.3-0.3,0.6-0.6,0.1c-0.2-0.3-0.2-0.6-0.2-0.9c-1.1,3-5,4.4-6.3,7.3C122.5,228.5,122.3,228.7,122.1,228.8 M105.8,214.4
		c-0.1-0.3,0.3-1.1,0.5-1.1c3.1,0,4.4-2.7,7.2-2.9c3-0.1,5.2-1.3,7.2-2.8c1.1-1.4,1.1-3.6,4.5-3.5c-0.6,1.5-1.5,2.7-2.9,3.7
		c0,1.3-1.8,1.4-2.4,2.3c0.2,0.2,0.4,0.3,0.6,0.5c1.4-0.3,1.2,0.2,0.9,1c-1.5,3.3-2.9,6.6-4.4,9.9c-1.5,3.3-0.5,9.4,2.2,9.8
		c3.4,0.5-0.2,1.5,0.6,1.9c0,0.2,0,0.4,0,0.6c-0.2-0.1-0.4-0.1-0.6-0.2c-2.7-1-4.5-2.5-5.9-4.7c-1-1.5-1.5-3.5-3.1-4.5
		C106.1,221.7,106.9,217.9,105.8,214.4 M75.8,210.1c-0.6-1.3,2.4-0.8,3-2c0-0.1,0-0.2,0.1-0.2c2.5,0.4,4.1-0.7,5.9-1.9
		c3.5-2.3,5.4-5.7,8.6-8.1c2.6-2,3.9-5.2,8.2-5.8c0.4-2.1,2.7-2.9,4.8-2.8c2.1,0.1,2,2.1,2.6,3.5c0.3,0.1,0.6,0.3,0.9,0.4
		c0.4-0.7,0.7-1.4,0.4-2.2c-0.9-1.1-2.6-2.3,0.4-3c3.7,0.4,8-0.1,10.4,2.9c4,5,1.1,14.3-5.6,16.9c-5.6,2.1-12,2.7-17.6,4.9
		c-0.7,0.3-1.3,0-1.8-0.4c-0.8-0.8-1.9-0.7-2.9-0.4c-4.3,0.9-8.5,0.3-12.8,0C78.4,211.5,76.2,211,75.8,210.1 M85.1,187.1
		c4.2-3.7,11.4-4.2,17.9-1.8c-2.6,1.9-5.1,3.9-9.2,3.5c1.2,0.1,2.5,0.2,4.1,0.3c-2,2-4.6,2.8-6.6,4.1c-2.3,1.5-5.8,0.3-8.1,2.3
		c2.5,0.7,4.9-0.8,7.4,0.3c-1.7,0.6-2.8,2.1-2.9,2.7c-0.3,1.6-1.6,1.6-2.8,2.1c2,0.7,1.7,1-0.2,1.4c-1.4,0.3-0.1,2.3-2,2.4
		c-2.8,0.2-3.1,1.9-3.8,3.5c-1.1-0.1-3.1,0.5-1.9-1.4c1-1.5,2.1-3,3.2-4.5c-0.2-0.1-0.3-0.3-0.5-0.4c0.1-2.5-1.4-5,0.8-7.5
		C82.2,191.8,82.9,189,85.1,187.1 M87.6,177.7c-0.9,0.8-2,0.4-4,0.2C85.5,177.8,86.6,177.7,87.6,177.7 M96.7,172.8
		c0.7,0.1,1,0.8,0.5,1.5c-0.3-0.2-0.6-0.4-0.8-0.6C96.2,173.3,95.5,172.7,96.7,172.8 M97.9,175.1c0.1,0.1,0.2,0.1,0.3,0.2
		c-0.1,0.1-0.3,0.1-0.4,0.2c0-0.1-0.1-0.1-0.1-0.2C97.7,175.3,97.8,175.2,97.9,175.1 M99.8,176.4c0.2,0,0.4,0.2,0.5,0.3
		c0.1,0.1-0.2,0.3-0.3,0.5c-0.3-0.2-0.5-0.4-0.7-0.6C99.4,176.5,99.6,176.4,99.8,176.4 M241,74.3c0.2,0.2,0.4,0.5,0.5,0.7
		c0,0.1-0.2,0.3-0.4,0.5c-0.2-0.2-0.4-0.5-0.6-0.7C240.7,74.6,240.8,74.4,241,74.3 M251.7,194.9l0.3,0l-0.1,0.2L251.7,194.9z
		 M234.9,209c-3-3,0-5.3,1.5-7.6c0.8-1.4,2.9-2.9,4.8-1.9c1.5,0.8,0.1,2.5-0.9,3.6c0.3,0.2,0.5,0.3,0.8,0.5c0.6-0.3,1.2-0.3,1.8-0.1
		c1.2-1.7-0.5-4,1.9-6.2c-0.5,3.1,1.1,5.2,1.3,7.7c-1.5-0.1-1.6-1.7-3.1-1.4c-0.3,2.1,2.6,3,2.8,4.9c0.5,0.1,1.4-0.8,1.6,0.3
		c2.2,1.1,0.5,2.1,0,3.2l0-0.1c-0.2,1.6,0.3,3.3-0.6,4.9c1-1.5,2.2-3,4.6-2.3c1.7,0.5,1.6,2.1,1.6,3.4c-2.6,1.4-5.5,0.2-8.2,0.5
		c-5.1-0.2-7.8-2.7-9.7-6.1C234.4,211.1,235.7,209.8,234.9,209 M177.7,255.2c0-0.8-0.1-1.5,0-2.2c2.4-13.9,8.9-26.4,21.9-36.5
		c1.3-1,1.3-1,3.6,0.2C187.5,231,181.5,248,180,266.3c0.3-3.6,0.6-7.3,0.8-10.9c-0.6,0.3-0.7,0.6-0.9,0.8c-0.8,0.7-0.7,0-0.8-0.3
		c-0.2-0.9,0.4-1.8-0.3-2.6C177.9,253.8,179.1,254.8,177.7,255.2 M188,215.8C188,215.8,188,215.8,188,215.8l0.1,0.1L188,215.8
		 M182.5,226.4c1.8-3.1,11.1-10.6,14.7-10.6c-8.9,8-15.2,16.9-19.2,26.8C178.1,236.8,179.5,231.5,182.5,226.4 M171.4,259.8l0.2-0.3
		v5.3c-0.1,0-0.2,0-0.2,0V259.8z M170.2,254.8c-0.8-13.7,4.8-26.3,11.8-38.6c2.1-3.6,4.2-7,2.1-11.3c3.9,2.8,3.8,2.7,5.9-0.8
		c0.8-1.4,1.8-2.8,2.5-4.3c4.3-8.6,8.8-17.2,2.7-26.4c-0.3-0.4-0.5-0.8-0.8-1.3c-0.4-0.3-0.8-0.8-0.3-1c0.6-0.3,0.7,0.3,1,0.6
		c0.3,0.4,0.6,0.7,0.9,1.1c1.5,1.3,1.1,3.4,3.4,4.5c0.4-0.8,0.8-1.3,0.9-1.9c1.6-9.6,0.1-18.9-3.3-28.1c-0.7-1.8-1.7-3.3-1.4-5.4
		c0.3-2-1.2-4.2-1.9-6.3c-2.3-3.3-4.5-6.6-6.8-9.9c-0.2-0.3-0.4-0.5-0.6-0.7c-0.3-0.4-0.6-0.8-0.9-1.2c0-0.2-0.1-0.3-0.1-0.5
		c0.2,0.1,0.4,0.1,0.5,0.2c0.4,0.4,0.7,0.7,1,1.1c0.2,0.3,0.4,0.5,0.6,0.7c3,2.6,4.9,5.8,6.4,9c1.5,3,3.4,5.9,4.5,9
		c4.1,10.7,3.1,22,5.8,32.9c-1.4,0.5-1.4,1.6-1.6,2.7c-2.1,9-5.8,17.6-11.1,25.9c-4.4,6.9-8.9,13.8-12,21.1
		c-3.9,9.3-4.7,18.8-4.6,28.5c0,1.4,0.3,2.9-1.1,4.1c-1.8-0.9-0.5-2.7-1.9-3.4C171.6,254.9,170.3,256.8,170.2,254.8 M191.2,208.5
		c2-0.3,3.1,0.2,4.8,0.9C194,209.5,192.7,209.8,191.2,208.5 M204,154.8c-0.5-2.9,2.8-7,7.3-9.1C210.8,149.7,206.9,152,204,154.8
		 M207.4,145.3c0,0.2-0.1,0.3-0.2,0.5c-0.1-0.1-0.3-0.1-0.3-0.2c0-0.2,0.1-0.3,0.2-0.5C207.3,145.2,207.4,145.3,207.4,145.3
		 M205.5,145.7c-0.4,0.8-0.3,2.5-1.2,1.9c-1-0.7-3,0.6-2.7-0.8C201.9,145.2,204.6,147.1,205.5,145.7 M187.7,117.6
		c-0.5,1.1-0.1,2.5-2.2,3.4c0.1-1.6,0.4-2.8,1.5-3.9c0.4-1,0.8-1.9,1.4-3.5C189.3,115.7,188.4,116.6,187.7,117.6 M189.3,135.6
		c0.1,0.5-0.4,0.9-0.9,0.7c-0.7-0.2-1.4-0.6-1.8-1.1c-0.3-0.4,0.5-0.6,1.1-0.7C188.3,134.7,189.1,134.9,189.3,135.6 M189.2,134.1
		l0.1-0.2l0.2,0.2L189.2,134.1z M197.6,172.3c0,0.1-0.1,0.1-0.2,0.2c-0.1,0-0.2-0.1-0.2-0.1c0.1-0.1,0.1-0.1,0.2-0.2
		C197.5,172.2,197.6,172.3,197.6,172.3 M169.8,259.5c0.1,0,0.1-0.1,0.2-0.1v2.2c-0.1,0-0.1,0-0.2,0V259.5z M168.2,245.9
		c-0.7-4.3-2.6-8.7,0.5-12.9C171.9,237.4,168.3,241.6,168.2,245.9 M169.5,231.1c-0.1,0.6,0,1.3-0.7,1.8
		C168.8,232.2,168.8,231.6,169.5,231.1 M155.9,212.7c-0.3-0.7-0.6-2.1,0.8-1.9c4.6,0.8,8.7-1.1,13.1-1.2c2.8-0.1,4.4,0.7,5.7,2.6
		c1.4,2,1.9,3.8,0.4,5.9c-0.6,0.9-1.3,1.8-1.9,2.7c0.6,0,1.4-0.1,1.7,0.2c0.4,0.3-0.1,0.8-0.6,0.9c-0.9,0.1-0.5-0.8-1.1-0.9
		c-1.1,0.4-1.5,1-1.3,1.9c0.5,0.2,1.4,0.4,1.4,0.4c-1.3,2.8-0.2,6-2.6,8.6c-0.2,0.1-0.4,0.2-0.6,0.3c0.1-0.2,0.2-0.3,0.3-0.5
		c0.2-1.3-0.4-1.5-1.6-0.7c-0.2-1.2,0.5-2.2,0.9-3.2c0.4-0.9,1.3-1.9-0.3-2.7c-2.5,3.4-3.3,7.3-4.2,11.2c-1.3-0.5-1.1-1.2-1.3-1.8
		c-1.7-5.6-2.6-11.3-6.3-16.4C157.3,216.4,156.6,214.5,155.9,212.7 M154.7,206.4c-1.7-2.2-2.7-4.5-1.6-7.3c10.4,2.9,10.5,2.9,14.5,2
		c6.2-1.4,14.3,2.1,15.9,6.9c0.8,2.4-3.3,2.7-3.5,4.7c-0.9-0.1,0-0.8-0.2-0.8c-3-1-4-4.5-8.1-4c-2.9,0.3-5.9,0.4-8.8,1
		C159.1,209.7,156.5,208.8,154.7,206.4 M186.4,199.9c1.2,0.7,2.1,1.7,1.2,3.2c-2.2-1.6-4.9-2.9-6.3-5.1c-0.3,0.2-0.6,0.4-0.8,0.6
		c-5.6-0.6-10.9,0-16.4,1.1c-2.4,0.5-6.1-0.1-8.2-2c5.2-1.5,10.2-2.7,15.1-4.3c5.6-1.9,11.4-0.1,13.3,4.3
		C184.7,198.6,185.4,199.3,186.4,199.9 M188.2,198.5c1.5-1,1.2-2.7,3.1-3.2C190.8,196.5,192.4,198.7,188.2,198.5 M192.7,186.9
		c0.9-8.1-3.7-14.8-10.5-20.7c-1.4-1.2-1.7-1.8,0.3-2.4c0,0,0,0,0,0c2.6,0.3,1.8,2.8,3.8,3.4c5.4,1.7,6.5,5.8,8.7,9.2
		c1.3,2,3.3,4.4,1.8,7c-0.6,1.1-0.4,2.3-0.9,3.2c-1.4,2.9-0.7,6.4-4.4,8.6C191.5,192.4,192.4,189.6,192.7,186.9 M192.5,168.5
		c0,0,0,0.3,0,0.4c-0.4-0.2-0.7-0.3-1.1-0.5C191.8,168.4,192.1,168.5,192.5,168.5 M182.4,163.8c-1.4-0.3-3.1,0.5-4.3-0.6
		c-0.1-0.1,0.2-0.7,0.4-0.7C180.3,162,181.4,162.9,182.4,163.8 M168,167.4c-7.2-1.9-10.8-6.2-14.9-10.4c4.7,2,9.8,2.6,14.5,4.1
		c4.8,1.5,8.9,4,12.6,6.7c2.7,2,5.4,4.3,5.3,7.8C179.6,172.8,174.2,169.1,168,167.4 M172,159.4c-2.9-0.6-5.3-1.1-7.6-1.6
		c-0.1,0-0.3,0-0.4,0c-0.4-0.3-0.7-0.6-1-0.9c-0.1-0.1,0.4-0.5,0.7-0.6C166.2,155.3,170.7,156.8,172,159.4 M150.7,150.9
		c0.6-0.3,1.2-0.3,1.9,0c1.3,0.6,2.1,2,4,1.5c0.6,2.2,3.9,2,5.5,3.5c-3.3,0.6-10.2-1.8-11.4-3.7
		C150.3,151.8,149.9,151.4,150.7,150.9 M135.2,123c-3.8-4.4-3.3-4.9,3.6-5.4c1-0.1,2.1-0.2,3.1-0.3c2.7,2.3,6.3,2.7,10,2.6
		c5.2-0.2,11.3,3.5,12.3,7.8c-1.4,0.1-1.9-1-3-1.4c-5.9-2.1-12.3-2.7-18.4-3.9c-1.4,1.9-0.1,2.4,2.2,2.6c3.7,0.2,7.4,0.4,11.1,1.4
		c7.4,2,12.8,6,17.9,10.3c1.2,1,3.6,1.4,3.6,3.3c-3.4-0.9-6.9-1.6-10.2-2.7c-0.9-0.3-1.6-0.4-2,0.1c-0.5,0.8,0.8,1,1.3,1.1
		c3.5,1,6.9,2.5,10.5,2.8c5.8,0.6,10.6,2.8,15.4,4.9c1.1,0.5,1.8,1.9,2.2,2.3c2.3,1.8,0.5,3.8,1.3,5.6c1.4,3.3,1.3,6.8,1.8,10.2
		c-0.1,0.1-0.3,0.2-0.5,0.3c-0.2,1-0.2,2.1-0.6,3.1c-0.3,0.8,2.4,1.8-0.1,2.3c-1.9,0.3-2.1-1.4-2.5-2.2c-0.7-1.4-1-3-1.1-4.5
		c-0.1-2.4-1.4-4.1-3.6-5.6c-0.2,0.2-0.5,0.4-0.7,0.7c0,0.4-1.1,0.7-0.2,1.3c2.7,1.6,3.2,3.7,2.8,6.2c0.1,0.1,0.2,0.1,0.3,0.2
		c0,0,0,0.1,0,0.2l-0.3-0.4c-1,0.2-1.5-0.4-2-0.8c-1.5-1.4-2.4-2.7-5.6-3c-3.1-0.3-7.5,0-9.8-3.6c-0.9-1.4-2.7-6.5-8.3-3.5
		c0,0-0.2-0.1-0.3-0.2c-2.9-0.7-5.8-1.4-8.8-2.1c-0.1-1.1-1.7-1.3-2.1-2.1c1.2-0.7,2.9-0.1,4.1-1.2c0.8-0.8,2-0.8,3.8-0.5
		c4.2,0.7,7.7,3.1,12.2,3c0.9,0,1.7,0.6,2,1.3c0.7,1.4,2.1,2.2,3.5,1.2c1-0.7,1.7-2.3,0.2-3.6c-3-2.5-4.5-6.3-9.8-6.8
		c-0.2,0-0.6-0.2-0.6-0.3c0.5-2.5-5.4-0.1-4.1-3.2c-3.5,0.4-5.8-1.8-8.5-2.5c-5.6-1.5-10-3.7-13.8-7c-1.4-1.2-4.4-1.6-3.6-4
		C136.5,126.9,136.3,124.3,135.2,123 M192.5,144c-1.7,0.3-2.7-0.4-3.8-1.4C190.4,142.7,191.8,142.7,192.5,144 M187.1,142.1
		c-0.3,0.3-0.6,0.2-0.9,0c-0.5-0.3-1-0.5-1.4-0.8c-0.3-0.2-0.6-0.4-0.9-0.6c-0.8-0.2-1.6-0.4-2.4-0.7l-0.5-0.4c0.3,0,0.7,0,1,0
		c0.7,0.3,1.4,0.6,2.1,0.9c0.3,0.1,0.7,0.3,1,0.4l1.5,0.8C186.8,141.9,187.1,142.1,187.1,142.1 M178.4,139.9
		c0.1,0.1,0.1,0.2,0.1,0.3c-0.4,0.2-0.7,0-0.8-0.3C177.9,139.6,178.1,139.7,178.4,139.9 M123.7,100l0.3,0l-0.1,0.2L123.7,100z
		 M122.9,95.8c-0.2-0.3,0.4-0.3,0.7-0.2c0.9,0.4,0.4,1,0.5,1.6C122.7,97.3,123.3,96.2,122.9,95.8 M124.2,97.2c0.3,0.1,0.7,0.1,1,0.2
		c-0.1,0.1-0.3,0.3-0.4,0.3C124.4,97.7,124.2,97.6,124.2,97.2 M145.6,59.6c3,3.5,7.5,6,10.6,9.3c3.2,3.4,5.4,7.2,5.1,11.6
		c0,0.4,0.5,1.6-0.7,1.3c-3.3-0.8-1.4,1-1.3,1.5c0.6,2.1,2.2,4.2,1.6,6.4c-1.2,4.4,0.8,8.2,2.9,12.1c1-0.2,2-0.4,2.3,0.7
		c0.3,0.4,0.6,0.8,0.8,1.2c0.5,0.7,1.1,1.3,1.6,2l1.5,1.8c0.1,0.2,0.2,0.4,0.3,0.6c0.3,0.3,0.6,0.6,0.9,0.9c0.6,0.6,1.3,1.1,1.7,1.7
		c0.4,0.6,1.7,1.3,0.7,1.8c-0.8,0.4-2.3,1.5-3.4,0c-3-2.5-8.3-3-9.8-6.8c-1.8,1.2-2.3-1.7-4-0.8c2.3,4.8,7.1,7.7,12.8,9.5
		c3,1,5.7,2,7.1,4.2c1.1,1.7,4.4,2.2,3.8,4.6c3.6,1.5,3.5,4.8,5.4,7.1c0.7,0.8,2.3,2.8-1.3,3.1c-1.1,0.1-0.1,0.6,0,1
		c0.4,1.6,2.5,1.9,3.5,3c1.4-0.8,2.2,0.1,3.1,0.7c0.6,0.4,0.6,0.6-0.2,0.6c-0.8-0.1-0.9,0.4-1.2,0.7c2.2-0.2,3.2,0.9,3.9,2.3
		c0.2,0.5,0.1,0.7-0.6,0.4c-2.4-0.3-4.5-1-6.3-2.3c-1.9-0.6-5.7-2.7-6.4-3.7c-0.2-0.3-0.1-0.4-0.8-0.5c-2-0.2-4.9,0.1-5.2-2.4
		c-0.2-1.2-0.1-2.1-2.2-1.2c-0.9,0.4-1.8-0.6-2.2-1.4c-0.6-1.5-1.2-3-1.8-4.4l0,0c-1.9-1.7-3.2-3.7-5.4-5.4
		c-5.4-4.1-11.4-7.3-18.8-8.7c-1.6-0.3-2.9-3.2-4.2-1.1c-0.9,1.3,2.7,1.3,4.3,2c3.3,1.4,7.5,1.6,10.2,4.6c-1.9,0.3-3,0.9-5,0.5
		c-2.2-0.4-4.6-1.3-7-0.9c-0.8-0.7-1-2-2.9-1.4c0.8,0.8,0.1,0.8-0.7,0.7c-1.6-1-3.6,0.8-5.2-0.5c-1.1,2.2-3.6,1.6-5.3,1.1
		c-1-0.3-3.8-1.9-0.5-3.3c-0.7-0.2-1.3-0.4-2.1-0.7c1.2-0.4,2.5,0.5,3.5-0.3c-0.1-1.4-3.2,0.4-2.6-1.7c0.8-2.5,3.7-0.8,5.3-1.7
		c-5.8-0.6-5.8-0.6-7-4.6c-0.7-2.4-0.7-2.5,1.8-3.2c2.2-0.6,2-1.9,1.8-3.2c0-0.2-2,0.2-0.6-1c0.6-0.5,0.6-0.7,1.6-0.5
		c3.4,0.5,6.9,0.5,10.4-0.1c2.9-0.5,5.3,0.1,7,2.1c0.2,0.1,0.3,0.3,0.5,0.4c1.5,0.5,2.9,1.1,4.9,1.8c-0.3-0.9-0.2-1.6-0.6-1.9
		c-2.3-1.4-5.3-2.3-6-4.9c0-0.1-0.3-0.2-0.5-0.3c-0.9-0.4,0.6,2.5-1.6,0.7c-0.7-0.6-1.7-1.2-2.5-1.4c-2.7-0.7-4.4-2.8-7.8-2.9
		c-2,0-6.5-0.1-4.7-3.8c-1,0.4-1.7,0.8-2.4,1.1c0.2,0.5,0.6,1.1,0.5,1.5c-0.2,0.5-1-0.1-1.3,0c-3.1,0.7-2.9-1.8-4.4-2.7
		c-1.6,2.5-1.5,2.9,1.4,3.7c1.5,0.4,3.1,0.6,4.6,0.9c3.5,0.6,7.1,0.7,9.8,2.9h0c-2.4,2.5-5.7,1-8.4,0.8c-4.8-0.4-8.7-2.9-12.9-4.6
		c-2.6-1-2.8-3.4-2.6-5.6c0-0.5,0.5-1.3,1.1-1.1c2.6,1.1,5-0.4,7.5-0.2c0-1.2-0.2-2.2-1.2-3.2c-1.1-1.1-0.6-2.4,0.3-3.5
		c0.3-0.4,0.7-1.1,1.4-0.4c2.6,2.6,6.4,2.7,10.1,3.3c-0.4-1.3-0.8-1-1.8-1.7c-2-1.3-4.7-0.5-6.6-1.6c-3-1.7-1.8-5.6,2.4-8
		c2.3-1.3,4.3-3.1,6.3-4.6c3.8-2.8,8.6-3,12.6-4.8C145,58.7,145.3,59.2,145.6,59.6 M125.5,100.8c0-0.1,0.1-0.1,0.1-0.2
		c0.1,0,0.2,0.1,0.4,0.1c0,0.1-0.1,0.2-0.1,0.2C125.8,100.8,125.7,100.8,125.5,100.8 M136.3,94.1c1.3-0.2,2.3,0.2,3.3,1.1
		C138,95.5,136.9,95.3,136.3,94.1 M177.9,115.8l0.1-0.2l0.1,0.2L177.9,115.8z M176.3,114.2c0.2,0.4-0.2,0.5-0.6,0.5
		c-0.3-0.1-0.6-0.3-0.9-0.4c-0.1-0.5,0.2-0.7,0.6-0.6C175.8,113.7,176.2,113.9,176.3,114.2 M199.1,76.4c3.5,3.8,7,7.7,5.8,12.9
		c-0.6,2.4-2.3,4.4-3.1,6.7c-1.7,0.3-1.3,1.5-1.7,2.5c-1.7,4.3-3.4,8.7-8.7,12.1c-1.7-10.6-3-20.5,2-30.8c-2.2,1-2.5,2.1-3,3.2
		c-1.3,2.9-1.8,5.9-1.5,8.9c0.2,1.5-2,2.1-1.2,4.2c1.7,4.3,1.2,9,0.5,13.6c-0.2,1.4-3.5,1-2.4,2.6c1.2,1.7-1,1.8-1.6,2.6
		c-0.2-0.7-0.3-1.4-0.5-2.3c-1,1.5,0.2,3-1.4,4c-1.1-0.3,0.3-2-1.5-1.6c-1.9,0.5-0.9-0.7-1.2-1c-0.4-0.2-0.8-0.4-1.2-0.6
		c-1.8-1.1,0-2.9-1.1-4.2c-1.1,0.2-1.2,1.9-1.6,1.3c-0.8-1.4-3.7-1.9-2.9-3.9c-0.2-0.1-0.4-0.2-0.6-0.4c-2.5-0.9-1.9-2.7-2.1-4.3
		c-0.1-0.6,0.3-1.7-0.4-1.6c-3.8,0.4-1.1-1.5-1.1-2c0-1.3,1.7-2.6,0.2-4.1c-0.5,1.6-1,3.2-1.7,5.4c-1-2.3-3.7-3.4-2.5-5.7
		c-3.3-0.7-2-2.8-2.3-4.4c1.1-5.5,3.3-10.4,10.7-12.8c3-0.9,5-2.8,5.5-5.4c-0.6,0-1.2,0-1.9,0c0.7,1.9-1.3,0.1-1.6,0.7
		c-0.9,1.5-2.3,2.7-4,3.7c-0.4-3,0.3-6,1-9c0.1-0.6,0.4-1.7-1-1.5c-0.9,0.1-0.4,1-0.6,1.6c-0.2,0.2-0.4,0.3-0.7,0.5
		c0.3,5.4-2.1,10.5-6.8,14c0.3-2.6,0.9-5-1.3-7.2c-0.3-0.3,0.3-1.2,0.5-1.8c-2.5,0.3-1.2-1.9-2.5-2.3c-2.1-1,0.2-2.8-1.1-3.9
		c-1,0.3,0.1,1.5-1.1,1.6c-0.3,0-0.6-0.9-1-1.4c-0.3,0-0.6-0.1-1-0.1c-0.2-0.2-0.4-0.4-0.7-0.5c-0.3-0.6-0.6-1.2-0.9-1.7
		c-1.8-0.9-3.9-1.7-3.8-3.8c1.2-4.8,4.1-0.7,6.2-0.7c1.9-0.2,3.8-0.5,5.8-0.7c0.5-0.2,1.1-0.3,1.6-0.5c1.6,0.1,0.5,2.5,1.5,1.8
		c3.3-2,1,0.9,1.7,1.1c0.2,0,0.2,0.7,0.3,1.3c1-0.9,0.1-2.1,1.7-2.9c0.8,2.7,4.7,2.3,6.6,4.1c0.5,0.4,1.7,0.5,2.6,0.4
		c6.5-0.1,10.6,3.1,9.9,8c2.5,1.6,4.8,3.5,8.5,3.4C197.5,75.5,198.7,75.9,199.1,76.4 M170.7,75.9c0.1,0,0.2,0,0.3,0
		c0,0-0.1,0.1-0.1,0.1C170.9,76,170.8,75.9,170.7,75.9 M210.9,103.9c0.7,4,2.1,8.3-3.9,11c-1.3,0.6-1.7,1.9-1.8,3.1
		c-0.4,4-0.3,8-1.5,11.9c-0.4,1.4,0.2,2.9,0.3,4.4c0.1,1,0.2,2.1-0.1,3.1c-0.3,1.1-0.9,2.6-2.5,2.5c-1.7-0.1-3.3-1.3-3.8-2.7
		c-1.2-2.6-0.4-5.2,1.6-7.4c3.4-3.6,3.4-7.8,4.3-11.9c-2.4,3.2-3,7-5.5,10.2c-2.9,3.6-3,3.8-5.6-0.1c-1.4-2.1-4.4-4-3.8-6.4
		c0.7-2.7-0.3-6.6,5.2-7.5c0.8-0.1,1-0.9,1.1-1.6c0.2-1.7,1.5-3.1,2.4-4.6c2.4-3.7,4.5-7.5,4.8-11.7c0.6,0,1.9-1.9,1.6,0.3
		c-0.2,1.2,0.1,2.3,1.7,2.3C210.1,98.6,210.4,101.4,210.9,103.9 M229.9,130.7c2.9,2.7,1.4,5.5-3,5.6c-1.3,0-3.3,0.2-3.8,0.5
		c-3.2,1.5-7,2.6-8.8,5.4c-0.3,0.4-0.3,1.2-1.3,0.7c-0.4-0.2-0.9-0.7-0.8-1c0.8-2.4,0.4-5.1,2.9-7c3.9-2.9,4.9-6.5,5.6-10.7
		c-4.6,1.6-2.9,5.6-6,8.2c-0.5-3.1-0.9-5.7-1.3-8.3c-0.1-0.6-0.4-1.3-1.4-1.2c-1.3,0.1-0.6,0.8-0.5,1.4c0.1,1.2,0.2,2.4,0.2,3.6
		c0.9,0.2,0.2,0.4,0,0.6c-1.1,0.9,1.5,1.6,0.2,2.4l-0.7,0.4c1,2.4-0.5,4.6-0.8,6.9c-0.4,3.4-0.3,3.4-4.2,5.2c0.7-2.5,0.9-5,0.2-7.5
		c-1.7-6.4,1.7-12.5,2-18.9c0.1-2,1.9-2.3,3.8-0.6c2.4,2.2,5.6,3.7,9.2,4.5c0.7,0.2,1.1,0.4,1.5,0.9
		C225.3,124.8,227,128,229.9,130.7 M241.7,146.6c1.9,6,1.5,11.6-1.8,17.2c-1.7,2.8-2.8,5.8-7.1,7c-1.5,1.2-3.5,1.9-5.5,2
		c-6.5,0.6-12.5,2.3-17.9,5.2c-1,2.1-2.4,4-2.6,6.5c-0.2,1.8,0.4,5-3.6,5.9c2.1,2.3,0.6,4.9-4.2,6c2.1-2,0.9-4.8,3.8-6.2
		c-3.1-1.5,1.1-2,0.8-3.3c-0.8-3.4,0.9-6.6,2.4-9.8l-0.3,0.1c-0.9,0.2-0.9-0.4-1.2-0.8c0.3,0,0.6,0,0.8,0c1.1-2.3,2.7-3.6,6.2-2.4
		c2.6,0.9,2.1-1.1,2.5-2.1c-2.3,0.1-1.1-2.3-3-2.4l-0.5,0.4c0-0.3-0.1-0.5-0.1-0.8c3.5-3.9,6.5-4.9,12.3-3.2
		c4.8,1.5,8.9,1.1,12.4-1.8c1.3-1.1,4.4-2.2,3.2-3.4c-1.2-1.2-3.1,1-4.5,1.9c-3.5,2-6.9,3.2-11.1,1.3c-0.5-0.3-1.2-0.4-1.9-0.4
		c-3.9-0.2-3.1-1.7-1.3-3.2c3.3-2.8,6.5-5.6,10-8.2c4.3-3.3,6-7.4,7.4-11.7c-3,5.4-8.2,9.5-13.6,13.5c-0.6,0.4-0.8,1.8-2.4,1.1
		c-1.2-0.5-1-1.4-1-2.2c0-3.4,1.2-6.7,3-9.8c-1.9-0.1-2.2,0.8-2.9,1.5c-1.5,1.5-0.9,3.3-2,4.8l0.1-0.1c-0.5,0.5,0.5,1.4-0.7,1.8
		c0.2,2-0.4,4.1,1.3,5.9c0.4,0.4,0.2,0.9-0.5,1.3c-4.8,2.4-7.8,6.3-12.7,8.7c-2.1-4.6-2.2-5.7,1.7-8.3c2.7-1.8,3.3-4.2,4.4-6.5
		c1.6-3.3,2.7-6.8,5.7-9.6c5.2-4.9,12.6-4.5,19.7-4.8c1.3-0.1,1.7,0.6,2.2,1.5C240.5,141.8,240.9,144.2,241.7,146.6 M205.6,194.3
		c0.8-3,5.6-3.9,5.4-7.2c-0.9-0.2-2.5,1.7-2.8-0.4c-0.2-1.4,0.7-2.4,2.4-2.8c2.3-0.5,1.3,1.3,2,2c2.8-2.9,5.6-5.8,8.4-8.7
		c1-1.1,2.5-2.1,4-1.3c1.4,0.8-0.5,1.8-0.9,2.7c-2.9,5.6-9.9,8.7-13.8,13.7C209.3,193.3,207.8,194.4,205.6,194.3 M241.8,189.3
		c1.3-7.2-3.1-11.7-11.4-14.4c2.7-1.1,5.6-2.1,7-4.2c1.3-1.9,2.9-1.9,4.9-1.1c0,0,0,0,0,0c3.6,1.6,5.8,3.6,5.5,7.1
		c-0.5,4.4-0.7,8.8-3.3,12.8c-0.4,0.6-0.9,1.4-2.1,1.1C241.7,190.4,241.8,189.7,241.8,189.3 M244.3,163.3c1.1-2.8,3.3-3.7,6.1-2.1
		c4.1,2.3-3,4-1.1,6.4c0.1,0.1,0,2.4-1.4,2c-2-0.6-3.7,0.4-5.5,0c-1.1-2-1.5-4,1.4-5.4C244.1,163.9,244.2,163.6,244.3,163.3
		 M253,152.1c1.1-0.1,2.3,0.4,2.1,0.9c-0.9,2-1.9,4-3.3,5.8c-1,1.2-2,0.1-2.7-0.6l-0.3,0.1l0.1-0.2c-1.2-1.5-1-3.2-0.5-4.8
		C249.1,151.3,251.3,152.3,253,152.1 M289.9,136.3c0.1,0.4,0.2,0.7,0.4,1.1c-0.7,0-0.7-0.4-0.6-0.8
		C289.7,136.5,289.8,136.4,289.9,136.3 M289.2,165.3c-0.2,0.1-0.3,0.2-0.5,0.3c0-0.2,0-0.3,0-0.5C288.9,165.2,289,165.2,289.2,165.3
		 M288.6,165.7c-0.1,0.3-0.2,0.6-0.7,0.6C287.9,166,288.1,165.7,288.6,165.7 M287,167.6c-0.2-0.6,0.1-0.9,0.8-1.2
		C287.9,166.9,287.7,167.3,287,167.6 M275.7,178.8c0-0.4,0.2-0.6,0.7-0.5C276.2,178.5,276,178.7,275.7,178.8 M276.5,178.2
		c-0.1-0.4,0.2-0.6,0.7-0.6C277,177.8,276.8,178,276.5,178.2 M277.3,177.6c-0.1-0.2-0.1-0.4,0.4-0.3
		C277.6,177.4,277.4,177.5,277.3,177.6 M275,179.6c-0.2-0.4,0-0.6,0.6-0.6C275.4,179.1,275.2,179.4,275,179.6 M251,190.3
		c-0.1-0.1-0.1-0.1-0.2-0.2c0.1-0.1,0.1-0.2,0.1-0.2L251,190.3 M248,191.7c0,0-0.2,0-0.2,0c0.1-0.1,0.2-0.1,0.3-0.2
		C248,191.6,248,191.6,248,191.7 M246.7,190.1c-0.1-0.5-0.1-0.9,0.5-1.2c0.2-0.5,0.3-1,0.5-1.5c1.1-2.6,1.7-5.3,1.3-8
		c-1.1-7.2,3.2-13.5,5.6-20c1.4-3.8,3-7.8,6.5-10.9c2.5-2.1,3-5.2,6-7.1c1.7,2.4,1.7,2.4,3.8,2.1l0,0.1c-0.2-2.9,3.1-7.2,6.4-8.4
		c2.7-1,3.8,0.6,5.3,1.7c0.7-0.5,0.2-1.9,1.1-1.7c0.8,0.2,2.4,0,2.8,1.2c0,0.2,0.7,2.2,1.1-0.1c0.2-1.3,1-0.4,1.1,0.2
		c0.1,0.9,0.7,0.9,1.6,0.8c0,0,0,0,0,0c0.8-0.1,1.1-1.6,2.2-0.6c2.5,2.5,5.7,4.3,9.4,5.7c0.6,0.2,1.6,1,1,1.8
		c-0.4,0.5-1.5,1.1-1.9,1c-1.3-0.5-1.8-0.5-1.7,0.8c0.1,0.7,0.5,2-1.5,1.8c0.6,1.8-2.7,2.5-2,4.6c0.3,0.9-0.4,2.4-2,3.2
		c-1.5-3.3-1.1-6.6-0.6-10c-1.8,3.3-1.6,6.8-0.9,10.1c0.3,1.7,0,2.8-1.1,4c-3.8,4.2-8.6,7.8-11.8,12.3c-0.2,0.2-0.4,0.3-0.8,0.4
		c-1.5,0.1-3.3,0.2-3.6,1.9c-0.2,1.3-0.1,2.8-1.8,3.7c-0.3,0.2-0.6,0.8-1.1,0.4c-0.2-0.1,0.2-0.7,0.3-1c1.3-3.3,1.8-6.6,1.9-10.1
		c0.1-3.2-1-6.4-0.6-9.6c-0.1-0.7-0.2-1.3,1-0.7c-1.8-0.9-1.1-2.4-1.2-3.7c-0.1-2-0.6-4-2.6-6.3c0.5,3,1.9,5.1,1.9,7.4
		c0,5.3-0.3,10.6,0.2,16c0.3,3.3-0.6,6.9-3.8,9c-2.9,1.9-5.7,3.8-8.1,6.2c-1.1-1.4-2.8-2.1-3.2-3.4c-1.9,1,0.2,3.6-3.9,4.2
		c-1.4,0.2-4.2,2.9-5.7,4.9c-0.7-1.2,1.4-2.4,0.1-3.6c-0.1,0.5-0.1,1-0.9,1.2c-0.2,0.4-0.3,0.9-0.5,1.3
		C246.9,190.2,246.7,190.2,246.7,190.1 M231.7,189.2c0.7-1.6,0.3-3-1.4-4.1c-1.3-0.1-2.6-0.1-3.9-0.4c-3.2-0.7-3.8-2.1-1.9-4.2
		c1.4-1.7,2.9,0.1,4.3-0.4c0-1-2.3-1.9-1.7-2c1.9-0.1,3.6-2.1,5.6-0.6c1.2,0.9,2.1,2.1,2.3,3.5c0.5-0.7-0.5-1.9,1.2-2.2
		c2,1.6,1.9,3.8,2.9,5.5c0.2-0.3,0.3-0.5,0.5-0.8c0.5,0.3,0.4,0.7,0.1,1.1c0.6,1.9,1.3,3.7,0.7,5.8c-0.3,1,0.1,3.5,3.3,1.9
		c0.3-0.2,0.4-0.8,1-0.3c0,0-0.4,0.4-0.6,0.6c-3.1,1.9-4.3,1.6-5.8-0.8c-2-3.3-2.3-6.9-2.9-10.4c-0.5,1,1.1,4-2.7,1.7
		c-0.9,1.1,0.3,1.9,0.8,2.8c1.6,2.7,1.9,5.4,1.7,8.7C232.2,193.2,230.6,191.7,231.7,189.2 M221.8,211.6c0.6,0.9-0.2,1.3-0.9,1.8
		c-3.3,2.2-10.1,2.4-14.6,0.8c-5.4-1.9-10.9-3.5-15.7,1.1c-0.5,0.5-1.5,0.8-2.5,0.5c1.6-0.8,2-2.2,2.1-3.4c0.1-1.4,0.5-1.9,2.4-1.6
		c3.2,0.5,6.3-0.1,9.3-0.8c5.5-1.3,11-1.4,16.5,0.2l-0.7-1.8c-2.2-1.5-5.1-0.1-7.5-1.1c-0.1-1.4,1.5-1.9,2.4-2.6
		c1.7-1.4,3-2.9,4.2-4.6c0.5-0.6,1-1.3-0.3-1.8c-1.1-0.5-1.2,0.3-1.8,0.7c-1.8,1.6-3.8,3.2-5.6,4.7c-0.8-0.6,0.2-1.6-1.1-1.9
		c-0.9,3.3-2.9,4.3-7.4,3.7c-0.3,0-1.7-0.7-1.8,0.4c-0.3,1.8-2.7,0.2-3.5,1.4c-0.1,0.2-1.3-0.1-1.7-0.6c-0.4-0.6,0.1-0.8,0.5-1.2
		c0.9-1.2,1.8-2.3,2.4-3.7c0.7-1.8,1.4-4.2,5.6-4.6c4.6-0.3,9.4-1.3,11.9-5.3c1.2-2,3.4-3.7,6.3-4.7c2.3-0.8,4.7-1,7-0.1
		c2.2,0.8,0.6,2.4,0.7,3.7c0.1,1.1,0,2.2,0.4,3.4c1,3.3,1.7,6.7,0.6,9.9c-0.9,2.6-2.9,4.9-5.1,7
		C223.3,211.5,222.5,211.5,221.8,211.6 M209.2,207.6c-0.1,0-0.2-0.2-0.1-0.3c0.3-0.2,0.6-0.4,0.9-0.2
		C209.9,207.5,209.7,207.7,209.2,207.6"/>
</g>
</svg>
