<?xml version="1.0" encoding="utf-8"?>
<!-- Generator: Adobe Illustrator 22.0.1, SVG Export Plug-In . SVG Version: 6.00 Build 0)  -->
<svg version="1.1" id="Capa_1" xmlns="http://www.w3.org/2000/svg" xmlns:xlink="http://www.w3.org/1999/xlink" x="0px" y="0px"
	 viewBox="0 0 111.8 113.2" style="enable-background:new 0 0 111.8 113.2;" xml:space="preserve">
<style type="text/css">
	.st0{fill:#F9FAEC;}
	.st1{fill:#00904D;}
	.st2{fill:#FF8400;}
</style>
<g>
	<path class="st0" d="M84.3,84.1c-0.1,0-10.4,3.5-10.6,3.5c-5.9,0-12.8-7.8-18.7-7.8c-6.4,0-11.4,7.3-17.8,7.3c-0.2,0-9-3-9.2-3
		c0-18.1,0-36.1,0-54.2h56.2V84.1z"/>
	<g>
		<g>
			<g>
				<path class="st1" d="M107.1,48.1L86.4,34.7c-0.2-0.1-0.3-0.1-0.5-0.2v-4.6c0-1.2-1-2.2-2.2-2.2h-8.3L58.2,16.9
					c-0.7-0.5-1.6-0.5-2.4,0L38.6,27.7H28.1c-1.2,0-2.2,1-2.2,2.2v4.6c-0.2,0.1-0.4,0.1-0.5,0.2L4.7,48.1c-0.6,0.4-1,1.1-1,1.9v57.8
					c0,1.2,1,2.2,2.2,2.2h100c1.2,0,2.2-1,2.2-2.2V49.9C108.1,49.2,107.7,48.5,107.1,48.1z M57,21.4l10,6.3H47L57,21.4z M30.3,32.1
					h51.1v50c0,0,0,0,0,0l-7.5,4.6l-18.1-9.9c-0.7-0.4-1.5-0.4-2.2,0l-16.5,9.4l-6.8-4.2c0,0,0,0,0,0L30.3,32.1z M8.1,51.1
					l17.8-11.5v39.8L8.1,68.7V51.1z M8.1,73.9l24.6,15L8.1,102.9V73.9z M12.6,105.5l42.2-24.1L99,105.5H12.6z M103.7,103L78.4,89.2
					l25.2-15.3V103z M103.7,68.7L85.9,79.5V39.7l17.8,11.5V68.7z"/>
				<path class="st1" d="M39.2,54.4h26.7c1.2,0,2.2-1,2.2-2.2V38.8c0-1.2-1-2.2-2.2-2.2H39.2c-1.2,0-2.2,1-2.2,2.2v13.3
					C37,53.4,38,54.4,39.2,54.4z M41.4,41h22.2v8.9H41.4V41z"/>
				<rect x="37" y="58.8" class="st1" width="35.6" height="4.4"/>
				<rect x="37" y="67.7" class="st1" width="35.6" height="4.4"/>
				<path class="st2" d="M97,29.9c0.6,0,1.1-0.2,1.6-0.7l7.9-7.9c0.9-0.9,0.9-2.3,0-3.1c-0.9-0.9-2.3-0.9-3.1,0l-7.9,7.9
					c-0.9,0.9-0.9,2.3,0,3.1C95.9,29.7,96.4,29.9,97,29.9z"/>
				<path class="st2" d="M13.2,29.3c0.4,0.4,1,0.7,1.6,0.7s1.1-0.2,1.6-0.7c0.9-0.9,0.9-2.3,0-3.1l-7.9-7.9c-0.9-0.9-2.3-0.9-3.1,0
					c-0.9,0.9-0.9,2.3,0,3.1L13.2,29.3z"/>
				<path class="st2" d="M78.4,18.7c0.3,0.1,0.5,0.2,0.8,0.2c0.9,0,1.7-0.5,2.1-1.4l4.4-11.1c0.5-1.1-0.1-2.4-1.2-2.9
					C83.4,3,82,3.5,81.6,4.7l-4.4,11.1C76.7,16.9,77.2,18.2,78.4,18.7z"/>
				<path class="st2" d="M32.7,17.4c0.3,0.9,1.2,1.4,2.1,1.4c0.3,0,0.6,0,0.8-0.2c1.1-0.5,1.7-1.7,1.2-2.9L32.4,4.7
					c-0.5-1.1-1.8-1.7-2.9-1.2c-1.1,0.5-1.7,1.7-1.2,2.9L32.7,17.4z"/>
			</g>
		</g>
	</g>
</g>
</svg>
