<?xml version="1.0" encoding="UTF-8" standalone="no"?>
<!-- Generator: Adobe Illustrator 21.1.0, SVG Export Plug-In . SVG Version: 6.00 Build 0)  -->

<svg
   xmlns:dc="http://purl.org/dc/elements/1.1/"
   xmlns:cc="http://creativecommons.org/ns#"
   xmlns:rdf="http://www.w3.org/1999/02/22-rdf-syntax-ns#"
   xmlns:svg="http://www.w3.org/2000/svg"
   xmlns="http://www.w3.org/2000/svg"
   xmlns:sodipodi="http://sodipodi.sourceforge.net/DTD/sodipodi-0.dtd"
   xmlns:inkscape="http://www.inkscape.org/namespaces/inkscape"
   version="1.1"
   id="Слой_1"
   x="0px"
   y="0px"
   viewBox="0 0 431.20801 104.98107"
   xml:space="preserve"
   sodipodi:docname="img-title-documents.svg"
   width="431.20801"
   height="104.98107"
   inkscape:version="0.92.3 (2405546, 2018-03-11)"><metadata
   id="metadata1776"><rdf:RDF><cc:Work
       rdf:about=""><dc:format>image/svg+xml</dc:format><dc:type
         rdf:resource="http://purl.org/dc/dcmitype/StillImage" /><dc:title></dc:title></cc:Work></rdf:RDF></metadata><defs
   id="defs1774" /><sodipodi:namedview
   pagecolor="#ffffff"
   bordercolor="#666666"
   borderopacity="1"
   objecttolerance="10"
   gridtolerance="10"
   guidetolerance="10"
   inkscape:pageopacity="0"
   inkscape:pageshadow="2"
   inkscape:window-width="1920"
   inkscape:window-height="1025"
   id="namedview1772"
   showgrid="false"
   fit-margin-top="5"
   fit-margin-left="5"
   fit-margin-right="5"
   fit-margin-bottom="5"
   inkscape:zoom="1.6970563"
   inkscape:cx="147.52136"
   inkscape:cy="-11.90458"
   inkscape:window-x="0"
   inkscape:window-y="27"
   inkscape:window-maximized="1"
   inkscape:current-layer="g2584" />
<style
   type="text/css"
   id="style1677">
	.st0{fill:none;stroke:#00AA5B;stroke-width:2;stroke-linejoin:round;stroke-miterlimit:10;}
	.st1{fill:none;stroke:#232323;stroke-width:2;stroke-linejoin:round;stroke-miterlimit:10;}
	.st2{fill:#F9FAEC;}
	.st3{fill:#00904D;}
	.st4{fill:#FF8400;}
	.st5{fill:none;stroke:#00AA5B;stroke-width:3;stroke-linecap:round;stroke-linejoin:round;stroke-miterlimit:10;}
	.st6{fill:none;stroke:#232323;stroke-width:3;stroke-linecap:round;stroke-linejoin:round;stroke-miterlimit:10;}
	.st7{fill:none;stroke:#FF8400;stroke-width:3;stroke-linecap:round;stroke-linejoin:round;stroke-miterlimit:10;}
</style>














































<g
   id="g2584"
   transform="matrix(1.0681267,0,0,1.0681267,-0.34063308,-120.21184)"><path
     style="fill:none;stroke:#00aa5b;stroke-width:3;stroke-linecap:round;stroke-linejoin:round;stroke-miterlimit:10"
     inkscape:connector-curvature="0"
     id="path1763"
     d="m 6.5213637,192.64853 c 15.0000003,0 15.0000003,12 30.1000003,12 14.999996,0 14.999996,-12 30.099996,-12 15.1,0 15,12 30.1,12 15,0 15,-12 30.1,-12 15,0 15,12 30.1,12 15,0 15,-12 30.1,-12 15,0 15,12 30.1,12"
     class="st5" /><path
     sodipodi:nodetypes="csssssc"
     style="fill:none;stroke:#00aa5b;stroke-width:3;stroke-linecap:round;stroke-linejoin:round;stroke-miterlimit:10"
     inkscape:connector-curvature="0"
     class="st5"
     d="m 397.82136,204.64853 c -15,0 -15,-12 -30.1,-12 -15.1,0 -15,12 -30.1,12 -15,0 -15,-12 -30.1,-12 -15,0 -15,12 -30.1,12 -15,0 -15,-12 -30.1,-12 -15,0 -15,12 -30.1,12"
     id="path2366" /><g
     aria-label="DOCUMENTS"
     transform="matrix(0.55062759,0,0,0.55062759,-76.147583,89.846118)"
     style="font-style:normal;font-variant:normal;font-weight:normal;font-stretch:normal;font-size:32px;line-height:100%;font-family:'Parafuse Outline';-inkscape-font-specification:'Parafuse Outline';font-variant-ligatures:normal;font-variant-caps:normal;font-variant-numeric:normal;text-align:start;letter-spacing:0px;word-spacing:0px;writing-mode:lr-tb;text-anchor:start;fill:none;fill-opacity:1;stroke:#35a864;stroke-width:3.54333282;stroke-linecap:butt;stroke-linejoin:miter;stroke-miterlimit:4;stroke-dasharray:none;stroke-opacity:1"
     id="flowRoot3517"><path
       d="m 149.14456,52.503882 h 32.144 q 13.104,0 22.512,4.704 9.52,4.704 14.56,13.664 5.04,8.848 5.04,21.056 0,12.319998 -5.04,21.279998 -4.928,8.848 -14.448,13.552 -9.408,4.704 -22.624,4.704 h -32.144 z m 30.688,62.383998 q 11.648,0 17.36,-5.712 5.712,-5.712 5.712,-17.247998 0,-11.536 -5.712,-17.136 -5.712,-5.712 -17.36,-5.712 h -10.08 v 45.807998 z"
       style="font-style:normal;font-variant:normal;font-weight:900;font-stretch:normal;font-size:112px;line-height:100%;font-family:'Nunito Sans';-inkscape-font-specification:'Nunito Sans Heavy';fill:none;fill-opacity:1;stroke:#35a864;stroke-width:3.54333282;stroke-miterlimit:4;stroke-dasharray:none;stroke-opacity:1"
       id="path3555" /><path
       d="m 273.28956,132.47188 q -12.096,0 -21.056,-4.928 -8.848,-5.04 -13.664,-14.112 -4.816,-9.184 -4.816,-21.503998 0,-12.32 4.816,-21.392 4.816,-9.184 13.664,-14.112 8.96,-4.928 21.056,-4.928 12.096,0 20.944,4.928 8.96,4.928 13.664,14.112 4.816,9.072 4.816,21.392 0,12.319998 -4.816,21.503998 -4.816,9.072 -13.776,14.112 -8.848,4.928 -20.832,4.928 z m 0,-15.792 q 8.96,0 14,-6.272 5.04,-6.384 5.04,-18.479998 0,-12.096 -5.152,-18.368 -5.04,-6.272 -13.888,-6.272 -8.96,0 -14,6.272 -5.04,6.16 -5.04,18.368 0,12.207998 5.04,18.479998 5.04,6.272 14,6.272 z"
       style="font-style:normal;font-variant:normal;font-weight:900;font-stretch:normal;font-size:112px;line-height:100%;font-family:'Nunito Sans';-inkscape-font-specification:'Nunito Sans Heavy';fill:none;fill-opacity:1;stroke:#35a864;stroke-width:3.54333282;stroke-miterlimit:4;stroke-dasharray:none;stroke-opacity:1"
       id="path3557" /><path
       d="m 363.32356,132.47188 q -12.32,0 -21.504,-5.04 -9.072,-5.04 -14,-14.224 -4.816,-9.184 -4.816,-21.279998 0,-12.096 4.816,-21.168 4.928,-9.184 14,-14.224 9.184,-5.04 21.504,-5.04 7.728,0 14.896,2.352 7.28,2.352 11.872,6.272 l -6.384,14.56 q -9.744,-6.832 -19.936,-6.832 -9.632,0 -14.784,6.048 -5.04,6.048 -5.04,18.032 0,11.983998 5.04,18.143998 5.152,6.048 14.784,6.048 10.192,0 19.936,-6.832 l 6.384,14.56 q -4.592,3.92 -11.872,6.272 -7.168,2.352 -14.896,2.352 z"
       style="font-style:normal;font-variant:normal;font-weight:900;font-stretch:normal;font-size:112px;line-height:100%;font-family:'Nunito Sans';-inkscape-font-specification:'Nunito Sans Heavy';fill:none;fill-opacity:1;stroke:#35a864;stroke-width:3.54333282;stroke-miterlimit:4;stroke-dasharray:none;stroke-opacity:1"
       id="path3559" /><path
       d="m 435.42181,132.47188 q -17.136,0 -26.096,-8.736 -8.848,-8.736 -8.848,-25.535998 v -45.696 h 20.16 v 46.48 q 0,8.511998 3.808,13.103998 3.808,4.592 10.976,4.592 7.168,0 10.976,-4.592 3.808,-4.592 3.808,-13.103998 v -46.48 h 20.272 v 45.696 q 0,16.687998 -9.072,25.535998 -8.96,8.736 -25.984,8.736 z"
       style="font-style:normal;font-variant:normal;font-weight:900;font-stretch:normal;font-size:112px;line-height:100%;font-family:'Nunito Sans';-inkscape-font-specification:'Nunito Sans Heavy';fill:none;fill-opacity:1;stroke:#35a864;stroke-width:3.54333282;stroke-miterlimit:4;stroke-dasharray:none;stroke-opacity:1"
       id="path3561" /><path
       d="m 548.10956,52.503882 h 15.904 v 78.959998 h -17.92 V 90.023882 l -15.232,28.335998 h -13.216 l -15.12,-27.663998 -0.112,40.767998 h -17.92 V 52.503882 h 16.24 l 23.744,44.912 z"
       style="font-style:normal;font-variant:normal;font-weight:900;font-stretch:normal;font-size:112px;line-height:100%;font-family:'Nunito Sans';-inkscape-font-specification:'Nunito Sans Heavy';fill:none;fill-opacity:1;stroke:#35a864;stroke-width:3.54333282;stroke-miterlimit:4;stroke-dasharray:none;stroke-opacity:1"
       id="path3563" /><path
       d="M 578.55081,131.46388 V 52.503882 h 56.112 v 15.904 h -36.064 v 15.008 h 33.824 v 15.792 h -33.824 v 16.351998 h 36.064 v 15.904 z"
       style="font-style:normal;font-variant:normal;font-weight:900;font-stretch:normal;font-size:112px;line-height:100%;font-family:'Nunito Sans';-inkscape-font-specification:'Nunito Sans Heavy';fill:none;fill-opacity:1;stroke:#35a864;stroke-width:3.54333282;stroke-miterlimit:4;stroke-dasharray:none;stroke-opacity:1"
       id="path3565" /><path
       d="m 696.67231,52.503882 h 19.264 v 78.959998 h -15.232 l -36.064,-45.135998 v 45.135998 h -19.152 V 52.503882 h 15.008 l 36.176,45.136 z"
       style="font-style:normal;font-variant:normal;font-weight:900;font-stretch:normal;font-size:112px;line-height:100%;font-family:'Nunito Sans';-inkscape-font-specification:'Nunito Sans Heavy';fill:none;fill-opacity:1;stroke:#35a864;stroke-width:3.54333282;stroke-miterlimit:4;stroke-dasharray:none;stroke-opacity:1"
       id="path3567" /><path
       d="M 748.17131,131.46388 V 69.191882 h -23.632 v -16.688 h 68.096 v 16.688 h -23.632 v 62.271998 z"
       style="font-style:normal;font-variant:normal;font-weight:900;font-stretch:normal;font-size:112px;line-height:100%;font-family:'Nunito Sans';-inkscape-font-specification:'Nunito Sans Heavy';fill:none;fill-opacity:1;stroke:#35a864;stroke-width:3.54333282;stroke-miterlimit:4;stroke-dasharray:none;stroke-opacity:1"
       id="path3569" /><path
       d="m 827.61081,132.47188 q -8.848,0 -17.472,-2.352 -8.624,-2.352 -14,-6.272 l 6.384,-14.56 q 5.712,3.584 12.208,5.488 6.496,1.904 13.104,1.904 6.72,0 10.192,-1.792 3.584,-1.904 3.584,-5.264 0,-3.024 -3.248,-4.928 -3.136,-1.904 -12.096,-3.808 -11.088,-2.351998 -17.36,-5.599998 -6.272,-3.248 -8.848,-7.616 -2.464,-4.368 -2.464,-10.752 0,-7.28 4.032,-12.992 4.144,-5.824 11.536,-9.072 7.504,-3.36 17.136,-3.36 8.512,0 16.464,2.464 8.064,2.352 12.544,6.16 l -6.272,14.56 q -10.752,-7.392 -22.624,-7.392 -5.712,0 -9.184,2.24 -3.472,2.128 -3.472,5.712 0,2.128 1.232,3.472 1.232,1.344 4.592,2.688 3.36,1.232 9.968,2.576 10.752,2.352 16.912,5.712 6.16,3.248 8.736,7.616 2.576,4.367998 2.576,10.415998 0,11.648 -8.96,18.256 -8.96,6.496 -25.2,6.496 z"
       style="font-style:normal;font-variant:normal;font-weight:900;font-stretch:normal;font-size:112px;line-height:100%;font-family:'Nunito Sans';-inkscape-font-specification:'Nunito Sans Heavy';fill:none;fill-opacity:1;stroke:#35a864;stroke-width:3.54333282;stroke-miterlimit:4;stroke-dasharray:none;stroke-opacity:1"
       id="path3571" /></g></g><g
   aria-label="PHENOTYPING 
and
DATA SCIENCE"
   transform="matrix(0.51449034,0,0,0.51449034,-68.920375,-126.92825)"
   style="font-style:normal;font-variant:normal;font-weight:normal;font-stretch:normal;font-size:32px;line-height:100%;font-family:'Parafuse Outline';-inkscape-font-specification:'Parafuse Outline';font-variant-ligatures:normal;font-variant-caps:normal;font-variant-numeric:normal;text-align:start;letter-spacing:0px;word-spacing:0px;writing-mode:lr-tb;text-anchor:start;fill:none;fill-opacity:1;stroke:#35a864;stroke-width:3.54333282;stroke-linecap:butt;stroke-linejoin:miter;stroke-miterlimit:4;stroke-dasharray:none;stroke-opacity:1"
   id="flowRoot208-6" /></svg>