<?xml version="1.0" encoding="utf-8"?>
<!-- Generator: Adobe Illustrator 21.1.0, SVG Export Plug-In . SVG Version: 6.00 Build 0)  -->
<svg version="1.1" id="Слой_1" xmlns="http://www.w3.org/2000/svg" xmlns:xlink="http://www.w3.org/1999/xlink" x="0px" y="0px"
	 viewBox="0 0 935.8 147.7" style="enable-background:new 0 0 935.8 147.7;" xml:space="preserve">
<style type="text/css">
	.st0{fill:none;stroke:#F9FAEC;stroke-width:3.5;stroke-linecap:round;stroke-linejoin:round;stroke-miterlimit:10;}
</style>
<path class="st0" d="M151.3,45.4c-4,0-7.1-1.4-9.4-4.2c-2.3-2.8-3.4-6.9-3.4-12.4c0-5.4,1.1-9.6,3.4-12.3c2.3-2.8,5.4-4.2,9.4-4.2
	c3.9,0,7.1,1.4,9.3,4.2c2.3,2.8,3.4,6.9,3.4,12.3c0,5.4-1.1,9.5-3.4,12.3C158.5,44,155.3,45.4,151.3,45.4z M151.3,56
	c5.3,0,10-1.1,14-3.3c4-2.2,7-5.4,9.2-9.4c2.1-4.1,3.2-8.9,3.2-14.4s-1.1-10.3-3.2-14.4c-2.1-4.1-5.2-7.2-9.1-9.4
	c-4-2.2-8.7-3.3-14.1-3.3c-5.4,0-10.1,1.1-14.1,3.3c-4,2.2-7,5.3-9.2,9.4c-2.2,4.1-3.2,8.9-3.2,14.4s1.1,10.3,3.2,14.4
	c2.1,4.1,5.2,7.2,9.2,9.4C141.2,54.9,145.9,56,151.3,56z"/>
<path class="st0" d="M201.6,25.8v-13h9.9c2.6,0,4.4,0.5,5.7,1.6c1.2,1.1,1.8,2.7,1.8,4.9s-0.6,3.8-1.8,4.9c-1.2,1-3.1,1.6-5.7,1.6
	H201.6z M187.8,55.3h13.8V36.2h11.8c5.8,0,10.3-1.5,13.6-4.5c3.3-3,4.9-7.1,4.9-12.4c0-5.3-1.6-9.4-4.9-12.4
	c-3.3-3-7.8-4.5-13.7-4.5h-25.6V55.3z"/>
<polygon class="st0" points="278,55.3 278,44.6 253.9,44.6 253.9,33.7 276.5,33.7 276.5,23.1 253.9,23.1 253.9,13.1 278,13.1 
	278,2.4 240.4,2.4 240.4,55.3 "/>
<polygon class="st0" points="321.4,32.6 297.1,2.4 287.1,2.4 287.1,55.3 299.9,55.3 299.9,25.1 324.1,55.3 334.3,55.3 334.3,2.4 
	321.4,2.4 "/>
<polygon class="st0" points="394.9,55.3 394.9,13.6 410.8,13.6 410.8,2.4 365.2,2.4 365.2,13.6 381,13.6 381,55.3 "/>
<path class="st0" d="M440.5,45.4c-4,0-7.1-1.4-9.4-4.2c-2.3-2.8-3.4-6.9-3.4-12.4c0-5.4,1.1-9.6,3.4-12.3c2.3-2.8,5.4-4.2,9.4-4.2
	c3.9,0,7.1,1.4,9.3,4.2c2.3,2.8,3.4,6.9,3.4,12.3c0,5.4-1.1,9.5-3.4,12.3C447.7,44,444.5,45.4,440.5,45.4z M440.5,56
	c5.3,0,10-1.1,14-3.3c4-2.2,7-5.4,9.2-9.4c2.1-4.1,3.2-8.9,3.2-14.4s-1.1-10.3-3.2-14.4c-2.1-4.1-5.2-7.2-9.1-9.4
	c-4-2.2-8.7-3.3-14.1-3.3c-5.4,0-10.1,1.1-14.1,3.3c-4,2.2-7,5.3-9.2,9.4c-2.2,4.1-3.2,8.9-3.2,14.4s1.1,10.3,3.2,14.4
	c2.1,4.1,5.2,7.2,9.2,9.4C430.4,54.9,435.1,56,440.5,56z"/>
<path class="st0" d="M502.1,45.4c-4,0-7.1-1.4-9.4-4.2c-2.3-2.8-3.4-6.9-3.4-12.4c0-5.4,1.1-9.6,3.4-12.3c2.3-2.8,5.4-4.2,9.4-4.2
	c3.9,0,7.1,1.4,9.3,4.2c2.3,2.8,3.4,6.9,3.4,12.3c0,5.4-1.1,9.5-3.4,12.3C509.2,44,506.1,45.4,502.1,45.4z M502.1,56
	c5.3,0,10-1.1,14-3.3c4-2.2,7-5.4,9.2-9.4c2.1-4.1,3.2-8.9,3.2-14.4s-1.1-10.3-3.2-14.4c-2.1-4.1-5.2-7.2-9.2-9.4
	c-4-2.2-8.7-3.3-14.1-3.3C496.7,1.8,492,2.9,488,5c-4,2.2-7,5.3-9.2,9.4c-2.2,4.1-3.2,8.9-3.2,14.4s1.1,10.3,3.2,14.4
	c2.1,4.1,5.2,7.2,9.2,9.4C492,54.9,496.7,56,502.1,56z"/>
<polygon class="st0" points="574.9,55.3 574.9,44.1 552.4,44.1 552.4,2.4 538.6,2.4 538.6,55.3 "/>
<path class="st0" d="M601.9,56c7.2,0,12.9-1.5,16.9-4.4c4-2.9,6-7,6-12.2c0-2.7-0.6-5-1.7-7c-1.2-2-3.1-3.7-5.8-5.1
	c-2.8-1.5-6.5-2.7-11.3-3.8c-3-0.6-5.2-1.2-6.7-1.8c-1.5-0.6-2.5-1.2-3.1-1.8c-0.6-0.6-0.8-1.4-0.8-2.3c0-1.6,0.8-2.9,2.3-3.9
	c1.5-1,3.6-1.5,6.1-1.5c5.3,0,10.4,1.6,15.1,4.9l4.2-9.8c-2-1.7-4.8-3.1-8.4-4.2c-3.6-1.1-7.3-1.6-11.1-1.6c-4.3,0-8.1,0.7-11.4,2.2
	c-3.3,1.5-5.9,3.5-7.7,6.1c-1.8,2.6-2.7,5.5-2.7,8.7c0,2.9,0.6,5.3,1.7,7.2c1.1,2,3.1,3.7,5.9,5.1c2.8,1.5,6.7,2.7,11.6,3.8
	c4,0.9,6.7,1.7,8.1,2.5c1.4,0.9,2.1,2,2.1,3.3c0,1.5-0.8,2.7-2.4,3.5c-1.6,0.8-3.9,1.2-6.9,1.2c-3,0-5.9-0.4-8.8-1.3
	c-2.9-0.8-5.6-2.1-8.2-3.7l-4.3,9.8c2.4,1.8,5.5,3.1,9.4,4.2C594,55.5,597.9,56,601.9,56z"/>
<polygon class="st0" points="671.3,55.3 671.3,33.8 693.1,33.8 693.1,23 671.3,23 671.3,13.2 694.6,13.2 694.6,2.4 657.7,2.4 
	657.7,55.3 "/>
<path class="st0" d="M727.9,45.4c-4,0-7.1-1.4-9.4-4.2c-2.3-2.8-3.4-6.9-3.4-12.4c0-5.4,1.1-9.6,3.4-12.3c2.3-2.8,5.4-4.2,9.4-4.2
	c3.9,0,7.1,1.4,9.3,4.2c2.3,2.8,3.4,6.9,3.4,12.3c0,5.4-1.1,9.5-3.4,12.3C735.1,44,731.9,45.4,727.9,45.4z M727.9,56
	c5.3,0,10-1.1,14-3.3c4-2.2,7-5.4,9.2-9.4c2.1-4.1,3.2-8.9,3.2-14.4s-1.1-10.3-3.2-14.4C749,10.4,746,7.3,742,5
	c-4-2.2-8.7-3.3-14.1-3.3c-5.4,0-10.1,1.1-14.1,3.3c-4,2.2-7,5.3-9.2,9.4c-2.2,4.1-3.2,8.9-3.2,14.4s1.1,10.3,3.2,14.4
	c2.1,4.1,5.2,7.2,9.2,9.4C717.8,54.9,722.5,56,727.9,56z"/>
<path class="st0" d="M787.4,25.1h-9.6V12.8h9.6c3,0,5.2,0.5,6.6,1.5c1.3,1,2,2.6,2,4.8c0,2.2-0.7,3.7-2,4.6
	C792.6,24.7,790.5,25.1,787.4,25.1z M803.5,40.3c-1.8-3.3-4.2-5.3-7.3-5.9c4-0.9,7.1-2.8,9.3-5.6c2.2-2.8,3.3-6.2,3.3-10.2
	c0-5.3-1.6-9.3-4.8-12c-3.2-2.8-8-4.2-14.4-4.2h-25.2v52.9H778V35.5h4.2c2.5,0,4.3,1,5.5,2.9l9.2,16.9h15.1L803.5,40.3z"/>
<polygon class="st0" points="15.3,145.3 15.3,123.8 37.1,123.8 37.1,113 15.3,113 15.3,103.2 38.6,103.2 38.6,92.4 1.8,92.4 
	1.8,145.3 "/>
<path class="st0" d="M66.8,107l7.3,17H59.6L66.8,107z M96.9,145.3L72.2,92.4h-11l-24.7,52.9h13.9l4.7-10.9h23.4l4.7,10.9H96.9z"/>
<path class="st0" d="M125,115.1h-9.6v-12.3h9.6c3,0,5.2,0.5,6.6,1.5c1.3,1,2,2.6,2,4.8c0,2.2-0.7,3.7-2,4.6
	C130.2,114.7,128,115.1,125,115.1z M141.1,130.3c-1.8-3.3-4.2-5.3-7.3-5.9c4-0.9,7.1-2.8,9.3-5.6c2.2-2.8,3.3-6.2,3.3-10.2
	c0-5.3-1.6-9.3-4.8-12c-3.2-2.8-8-4.2-14.4-4.2h-25.2v52.9h13.6v-19.8h4.2c2.5,0,4.3,1,5.5,2.9l9.2,16.9h15.1L141.1,130.3z"/>
<polygon class="st0" points="183.8,122.5 167.9,92.4 157,92.4 157,145.3 169,145.3 169.1,118 179.2,136.5 188,136.5 198.2,117.5 
	198.2,145.3 210.2,145.3 210.2,92.4 199.6,92.4 "/>
<rect x="221.9" y="92.4" class="st0" width="13.8" height="52.9"/>
<polygon class="st0" points="281.4,122.6 257.2,92.4 247.1,92.4 247.1,145.3 260,145.3 260,115.1 284.1,145.3 294.3,145.3 
	294.3,92.4 281.4,92.4 "/>
<path class="st0" d="M330.9,115.4v9.4h9.3v9.8c-2.4,0.5-4.7,0.8-7.1,0.8c-5,0-8.7-1.4-11.1-4.1c-2.4-2.7-3.6-6.9-3.6-12.6
	c0-5.5,1.2-9.6,3.5-12.2c2.3-2.6,5.9-4,10.6-4c2.5,0,4.9,0.4,7.2,1c2.3,0.7,4.6,1.9,7.1,3.5l4.3-9.8c-2.1-1.8-4.8-3.1-8.2-4.1
	c-3.4-1-7-1.5-10.8-1.5c-5.5,0-10.4,1.1-14.5,3.3c-4.1,2.2-7.3,5.4-9.6,9.5s-3.4,8.9-3.4,14.3c0,5.6,1.1,10.4,3.4,14.5
	c2.3,4.1,5.5,7.2,9.7,9.4c4.2,2.2,9.2,3.3,15,3.3c3.7,0,7.2-0.4,10.7-1c3.5-0.7,6.6-1.7,9.4-3v-26.5H330.9z"/>
<path class="st0" d="M412.4,146c3.4,0,6.8-0.5,10-1.6c3.2-1.1,5.9-2.4,7.9-4.2l-4.3-9.8c-4.3,3-8.8,4.6-13.3,4.6
	c-4.3,0-7.6-1.4-9.9-4.1c-2.3-2.7-3.4-6.8-3.4-12.1c0-5.3,1.1-9.4,3.4-12.1c2.3-2.7,5.6-4,9.9-4c4.5,0,9,1.5,13.3,4.6l4.3-9.8
	c-2.1-1.7-4.7-3.1-7.9-4.2c-3.2-1.1-6.6-1.6-10-1.6c-5.5,0-10.3,1.1-14.4,3.4s-7.2,5.4-9.4,9.5c-2.2,4.1-3.3,8.8-3.3,14.2
	c0,5.4,1.1,10.2,3.3,14.3c2.2,4.1,5.3,7.3,9.4,9.5S406.9,146,412.4,146z"/>
<path class="st0" d="M463.4,135.4c-4,0-7.1-1.4-9.4-4.2c-2.3-2.8-3.4-6.9-3.4-12.4c0-5.4,1.1-9.6,3.4-12.3c2.3-2.8,5.4-4.2,9.4-4.2
	c3.9,0,7.1,1.4,9.3,4.2c2.3,2.8,3.4,6.9,3.4,12.3c0,5.4-1.1,9.5-3.4,12.3C470.6,134,467.4,135.4,463.4,135.4z M463.4,146
	c5.3,0,10-1.1,14-3.3c4-2.2,7-5.4,9.2-9.4c2.1-4.1,3.2-8.9,3.2-14.4s-1.1-10.3-3.2-14.4c-2.1-4.1-5.2-7.2-9.1-9.4
	c-4-2.2-8.7-3.3-14.1-3.3c-5.4,0-10.1,1.1-14.1,3.3c-4,2.2-7,5.3-9.2,9.4c-2.2,4.1-3.2,8.9-3.2,14.4s1.1,10.3,3.2,14.4
	c2.1,4.1,5.2,7.2,9.2,9.4C453.4,144.9,458,146,463.4,146z"/>
<polygon class="st0" points="526.8,122.5 510.9,92.4 500,92.4 500,145.3 512,145.3 512.1,118 522.2,136.5 531.1,136.5 541.3,117.5 
	541.3,145.3 553.3,145.3 553.3,92.4 542.6,92.4 "/>
<polygon class="st0" points="591.8,122.5 575.9,92.4 565.1,92.4 565.1,145.3 577.1,145.3 577.1,118 587.3,136.5 596.1,136.5 
	606.3,117.5 606.3,145.3 618.3,145.3 618.3,92.4 607.7,92.4 "/>
<path class="st0" d="M653,146c7.6,0,13.4-2,17.4-5.9c4-3.9,6-9.6,6-17.1V92.4h-13.6v31.1c0,3.8-0.9,6.7-2.5,8.8
	c-1.7,2.1-4.2,3.1-7.3,3.1c-3.2,0-5.7-1-7.4-3.1c-1.7-2-2.5-5-2.5-8.8V92.4h-13.5V123c0,7.5,2,13.2,6,17.1
	C639.6,144,645.4,146,653,146z"/>
<polygon class="st0" points="722,122.6 697.7,92.4 687.7,92.4 687.7,145.3 700.5,145.3 700.5,115.1 724.7,145.3 734.9,145.3 
	734.9,92.4 722,92.4 "/>
<rect x="746.3" y="92.4" class="st0" width="13.8" height="52.9"/>
<polygon class="st0" points="797.5,145.3 797.5,103.6 813.3,103.6 813.3,92.4 767.7,92.4 767.7,103.6 783.5,103.6 783.5,145.3 "/>
<rect x="820.9" y="92.4" class="st0" width="13.8" height="52.9"/>
<polygon class="st0" points="883.7,145.3 883.7,134.6 859.6,134.6 859.6,123.7 882.2,123.7 882.2,113.1 859.6,113.1 859.6,103.1 
	883.7,103.1 883.7,92.4 846.2,92.4 846.2,145.3 "/>
<path class="st0" d="M911.2,146c7.2,0,12.9-1.5,16.9-4.4c4-2.9,6-7,6-12.2c0-2.7-0.6-5-1.7-7c-1.2-2-3.1-3.7-5.8-5.1
	c-2.8-1.5-6.5-2.7-11.3-3.8c-3-0.6-5.2-1.2-6.7-1.8c-1.5-0.6-2.5-1.2-3.1-1.8c-0.6-0.6-0.8-1.4-0.8-2.3c0-1.6,0.8-2.9,2.3-3.9
	c1.5-1,3.6-1.5,6.1-1.5c5.3,0,10.4,1.6,15.1,4.9l4.2-9.8c-2-1.7-4.8-3.1-8.4-4.2c-3.6-1.1-7.3-1.6-11.1-1.6c-4.3,0-8.1,0.7-11.4,2.2
	c-3.3,1.5-5.9,3.5-7.7,6.1c-1.8,2.6-2.7,5.5-2.7,8.7c0,2.9,0.6,5.3,1.7,7.2c1.1,2,3.1,3.7,5.9,5.1c2.8,1.5,6.7,2.7,11.6,3.8
	c4,0.9,6.7,1.7,8.1,2.5c1.4,0.9,2.1,2,2.1,3.3c0,1.5-0.8,2.7-2.4,3.5c-1.6,0.8-3.9,1.2-6.9,1.2c-3,0-5.9-0.4-8.8-1.3
	c-2.9-0.8-5.6-2.1-8.2-3.7l-4.3,9.8c2.4,1.8,5.5,3.1,9.4,4.2C903.3,145.5,907.2,146,911.2,146z"/>
</svg>
