<?xml version="1.0" encoding="UTF-8" standalone="no"?>
<!-- Generator: Adobe Illustrator 21.1.0, SVG Export Plug-In . SVG Version: 6.00 Build 0)  -->

<svg
   xmlns:dc="http://purl.org/dc/elements/1.1/"
   xmlns:cc="http://creativecommons.org/ns#"
   xmlns:rdf="http://www.w3.org/1999/02/22-rdf-syntax-ns#"
   xmlns:svg="http://www.w3.org/2000/svg"
   xmlns="http://www.w3.org/2000/svg"
   xmlns:xlink="http://www.w3.org/1999/xlink"
   xmlns:sodipodi="http://sodipodi.sourceforge.net/DTD/sodipodi-0.dtd"
   xmlns:inkscape="http://www.inkscape.org/namespaces/inkscape"
   version="1.1"
   id="Слой_1"
   x="0px"
   y="0px"
   viewBox="0 0 442.3 92.1"
   style="enable-background:new 0 0 442.3 92.1;"
   xml:space="preserve"
   sodipodi:docname="img-title-fieldstudies.svg"
   inkscape:version="0.92.3 (2405546, 2018-03-11)"><metadata
   id="metadata2804"><rdf:RDF><cc:Work
       rdf:about=""><dc:format>image/svg+xml</dc:format><dc:type
         rdf:resource="http://purl.org/dc/dcmitype/StillImage" /><dc:title></dc:title></cc:Work></rdf:RDF></metadata><defs
   id="defs2802">
	<defs
   id="defs2776">
		<rect
   height="6565.8"
   width="1600"
   y="-3038.2"
   x="-941.1"
   id="SVGID_9_" />
	</defs>
	<clipPath
   id="SVGID_10_">
		<use
   id="use2778"
   style="overflow:visible;"
   xlink:href="#SVGID_9_" />
	</clipPath>
	

		<defs
   id="defs2782">
			<rect
   id="SVGID_11_"
   x="-941.09998"
   y="-3038.2"
   width="1600"
   height="6565.7998" />
		</defs>
		<clipPath
   id="SVGID_12_">
			<use
   xlink:href="#SVGID_11_"
   style="overflow:visible"
   id="use2784"
   x="0"
   y="0"
   width="100%"
   height="100%" />
		</clipPath>
		
		
		
		
	</defs><sodipodi:namedview
   pagecolor="#ffffff"
   bordercolor="#666666"
   borderopacity="1"
   objecttolerance="10"
   gridtolerance="10"
   guidetolerance="10"
   inkscape:pageopacity="0"
   inkscape:pageshadow="2"
   inkscape:window-width="1920"
   inkscape:window-height="1025"
   id="namedview2800"
   showgrid="false"
   inkscape:zoom="1.5464617"
   inkscape:cx="294.0797"
   inkscape:cy="46.049999"
   inkscape:window-x="0"
   inkscape:window-y="27"
   inkscape:window-maximized="1"
   inkscape:current-layer="flowRoot3363" />
<style
   type="text/css"
   id="style2715">
	.st0{clip-path:url(#SVGID_6_);}
	.st1{clip-path:url(#SVGID_8_);fill:none;stroke:#FF8400;stroke-width:2;stroke-linejoin:round;stroke-miterlimit:10;}
	.st2{clip-path:url(#SVGID_8_);fill:#FFFFFF;}
	.st3{clip-path:url(#SVGID_10_);}
	
		.st4{clip-path:url(#SVGID_12_);fill:none;stroke:#FF8400;stroke-width:3;stroke-linecap:round;stroke-linejoin:round;stroke-miterlimit:10;}
	.st5{clip-path:url(#SVGID_12_);fill:#00AA5B;}
	.st6{clip-path:url(#SVGID_12_);fill:none;stroke:#006A39;stroke-width:2;stroke-miterlimit:10;}
	.st7{clip-path:url(#SVGID_12_);fill:#006A39;}
</style>
<g
   id="g2723">
	<defs
   id="defs2718">
		<rect
   id="SVGID_1_"
   x="-941.1"
   y="-3038.2"
   width="1600"
   height="6565.8" />
	</defs>
	<clipPath
   id="SVGID_2_">
		<use
   xlink:href="#SVGID_1_"
   style="overflow:visible;"
   id="use2720" />
	</clipPath>
</g>
<g
   id="g2733">
	<g
   id="g2731">
		<defs
   id="defs2726">
			<rect
   id="SVGID_3_"
   x="-941.1"
   y="-3038.2"
   width="1600"
   height="6565.8" />
		</defs>
		<clipPath
   id="SVGID_4_">
			<use
   xlink:href="#SVGID_3_"
   style="overflow:visible;"
   id="use2728" />
		</clipPath>
	</g>
</g>

<path
   class="st4"
   d="m 1.5,78.6 c 20,0 20,12 39.9,12 20,0 20,-12 39.9,-12 20,0 20,12 39.9,12 20,0 20,-12 39.9,-12 20,0 20,12 39.9,12 20,0 20,-12 39.9,-12 20,0 20,12 39.9,12 20,0 20,-12 39.9,-12 20,0 20,12 39.9,12 20,0 20,-12 39.9,-12 20,0 20,12 39.9,12"
   clip-path="url(#SVGID_12_)"
   id="path2787"
   inkscape:connector-curvature="0"
   style="fill:none;stroke:#ff8400;stroke-width:3;stroke-linecap:round;stroke-linejoin:round;stroke-miterlimit:10" /><rect
   x="-940.29999"
   y="3136.6001"
   class="st5"
   width="1598.3"
   height="391.10001"
   clip-path="url(#SVGID_12_)"
   id="rect2789"
   style="fill:#00aa5b" /><path
   class="st6"
   d="m -152.5,3414.9 h -242.2 c -5.5,0 -10,-4.5 -10,-10 v -28 c 0,-5.5 4.5,-10 10,-10 h 242.2 c 5.5,0 10,4.5 10,10 v 28 c 0,5.5 -4.5,10 -10,10 z"
   clip-path="url(#SVGID_12_)"
   id="path2791"
   inkscape:connector-curvature="0"
   style="fill:none;stroke:#006a39;stroke-width:2;stroke-miterlimit:10" /><path
   class="st7"
   d="m -4.8,3414.9 h -111.8 c -5.5,0 -10,-4.5 -10,-10 v -28 c 0,-5.5 4.5,-10 10,-10 H -4.8 c 5.5,0 10,4.5 10,10 v 28 c 0,5.5 -4.5,10 -10,10"
   clip-path="url(#SVGID_12_)"
   id="path2793"
   inkscape:connector-curvature="0"
   style="fill:#006a39" />
<g
   aria-label="FIELD STUDIES"
   transform="matrix(0.53137679,0,0,0.53137679,-77.310536,-23.650631)"
   style="font-style:normal;font-variant:normal;font-weight:normal;font-stretch:normal;font-size:32px;line-height:100%;font-family:'Parafuse Outline';-inkscape-font-specification:'Parafuse Outline';font-variant-ligatures:normal;font-variant-caps:normal;font-variant-numeric:normal;text-align:start;letter-spacing:0px;word-spacing:0px;writing-mode:lr-tb;text-anchor:start;fill:none;fill-opacity:1;stroke:#ff8400;stroke-width:3.54333282;stroke-linecap:butt;stroke-linejoin:miter;stroke-miterlimit:4;stroke-dasharray:none;stroke-opacity:1"
   id="flowRoot3363"><path
     d="M 149.14456,131.46388 V 52.503882 h 54.992 v 16.128 h -34.72 v 14.56 h 32.48 v 16.128 h -32.48 v 32.143998 z"
     style="font-style:normal;font-variant:normal;font-weight:900;font-stretch:normal;font-size:112px;line-height:100%;font-family:'Nunito Sans';-inkscape-font-specification:'Nunito Sans Heavy';fill:none;fill-opacity:1;stroke:#ff8400;stroke-width:3.54333282;stroke-miterlimit:4;stroke-dasharray:none;stroke-opacity:1"
     id="path3467" /><path
     d="M 213.89456,131.46388 V 52.503882 h 20.608 v 78.959998 z"
     style="font-style:normal;font-variant:normal;font-weight:900;font-stretch:normal;font-size:112px;line-height:100%;font-family:'Nunito Sans';-inkscape-font-specification:'Nunito Sans Heavy';fill:none;fill-opacity:1;stroke:#ff8400;stroke-width:3.54333282;stroke-miterlimit:4;stroke-dasharray:none;stroke-opacity:1"
     id="path3469" /><path
     d="M 248.89456,131.46388 V 52.503882 h 56.112 v 15.904 h -36.064 v 15.008 h 33.824 v 15.792 h -33.824 v 16.351998 h 36.064 v 15.904 z"
     style="font-style:normal;font-variant:normal;font-weight:900;font-stretch:normal;font-size:112px;line-height:100%;font-family:'Nunito Sans';-inkscape-font-specification:'Nunito Sans Heavy';fill:none;fill-opacity:1;stroke:#ff8400;stroke-width:3.54333282;stroke-miterlimit:4;stroke-dasharray:none;stroke-opacity:1"
     id="path3471" /><path
     d="M 315.83206,131.46388 V 52.503882 h 20.608 v 62.271998 h 33.6 v 16.688 z"
     style="font-style:normal;font-variant:normal;font-weight:900;font-stretch:normal;font-size:112px;line-height:100%;font-family:'Nunito Sans';-inkscape-font-specification:'Nunito Sans Heavy';fill:none;fill-opacity:1;stroke:#ff8400;stroke-width:3.54333282;stroke-miterlimit:4;stroke-dasharray:none;stroke-opacity:1"
     id="path3473" /><path
     d="m 379.92581,52.503882 h 32.144 q 13.104,0 22.512,4.704 9.52,4.704 14.56,13.664 5.04,8.848 5.04,21.056 0,12.319998 -5.04,21.279998 -4.928,8.848 -14.448,13.552 -9.408,4.704 -22.624,4.704 h -32.144 z m 30.688,62.383998 q 11.648,0 17.36,-5.712 5.712,-5.712 5.712,-17.247998 0,-11.536 -5.712,-17.136 -5.712,-5.712 -17.36,-5.712 h -10.08 v 45.807998 z"
     style="font-style:normal;font-variant:normal;font-weight:900;font-stretch:normal;font-size:112px;line-height:100%;font-family:'Nunito Sans';-inkscape-font-specification:'Nunito Sans Heavy';fill:none;fill-opacity:1;stroke:#ff8400;stroke-width:3.54333282;stroke-miterlimit:4;stroke-dasharray:none;stroke-opacity:1"
     id="path3475" /><path
     d="m 527.04831,132.47188 q -8.848,0 -17.472,-2.352 -8.624,-2.352 -14,-6.272 l 6.384,-14.56 q 5.712,3.584 12.208,5.488 6.496,1.904 13.104,1.904 6.72,0 10.192,-1.792 3.584,-1.904 3.584,-5.264 0,-3.024 -3.248,-4.928 -3.136,-1.904 -12.096,-3.808 -11.088,-2.351998 -17.36,-5.599998 -6.272,-3.248 -8.848,-7.616 -2.464,-4.368 -2.464,-10.752 0,-7.28 4.032,-12.992 4.144,-5.824 11.536,-9.072 7.504,-3.36 17.136,-3.36 8.512,0 16.464,2.464 8.064,2.352 12.544,6.16 l -6.272,14.56 q -10.752,-7.392 -22.624,-7.392 -5.712,0 -9.184,2.24 -3.472,2.128 -3.472,5.712 0,2.128 1.232,3.472 1.232,1.344 4.592,2.688 3.36,1.232 9.968,2.576 10.752,2.352 16.912,5.712 6.16,3.248 8.736,7.616 2.576,4.367998 2.576,10.415998 0,11.648 -8.96,18.256 -8.96,6.496 -25.2,6.496 z"
     style="font-style:normal;font-variant:normal;font-weight:900;font-stretch:normal;font-size:112px;line-height:100%;font-family:'Nunito Sans';-inkscape-font-specification:'Nunito Sans Heavy';fill:none;fill-opacity:1;stroke:#ff8400;stroke-width:3.54333282;stroke-miterlimit:4;stroke-dasharray:none;stroke-opacity:1"
     id="path3477" /><path
     d="M 588.92131,131.46388 V 69.191882 h -23.632 v -16.688 h 68.096 v 16.688 h -23.632 v 62.271998 z"
     style="font-style:normal;font-variant:normal;font-weight:900;font-stretch:normal;font-size:112px;line-height:100%;font-family:'Nunito Sans';-inkscape-font-specification:'Nunito Sans Heavy';fill:none;fill-opacity:1;stroke:#ff8400;stroke-width:3.54333282;stroke-miterlimit:4;stroke-dasharray:none;stroke-opacity:1"
     id="path3479" /><path
     d="m 676.48431,132.47188 q -17.136,0 -26.096,-8.736 -8.848,-8.736 -8.848,-25.535998 v -45.696 h 20.16 v 46.48 q 0,8.511998 3.808,13.103998 3.808,4.592 10.976,4.592 7.168,0 10.976,-4.592 3.808,-4.592 3.808,-13.103998 v -46.48 h 20.272 v 45.696 q 0,16.687998 -9.072,25.535998 -8.96,8.736 -25.984,8.736 z"
     style="font-style:normal;font-variant:normal;font-weight:900;font-stretch:normal;font-size:112px;line-height:100%;font-family:'Nunito Sans';-inkscape-font-specification:'Nunito Sans Heavy';fill:none;fill-opacity:1;stroke:#ff8400;stroke-width:3.54333282;stroke-miterlimit:4;stroke-dasharray:none;stroke-opacity:1"
     id="path3481" /><path
     d="m 725.33206,52.503882 h 32.144 q 13.104,0 22.512,4.704 9.52,4.704 14.56,13.664 5.04,8.848 5.04,21.056 0,12.319998 -5.04,21.279998 -4.928,8.848 -14.448,13.552 -9.408,4.704 -22.624,4.704 h -32.144 z m 30.688,62.383998 q 11.648,0 17.36,-5.712 5.712,-5.712 5.712,-17.247998 0,-11.536 -5.712,-17.136 -5.712,-5.712 -17.36,-5.712 h -10.08 v 45.807998 z"
     style="font-style:normal;font-variant:normal;font-weight:900;font-stretch:normal;font-size:112px;line-height:100%;font-family:'Nunito Sans';-inkscape-font-specification:'Nunito Sans Heavy';fill:none;fill-opacity:1;stroke:#ff8400;stroke-width:3.54333282;stroke-miterlimit:4;stroke-dasharray:none;stroke-opacity:1"
     id="path3483" /><path
     d="M 811.95706,131.46388 V 52.503882 h 20.608 v 78.959998 z"
     style="font-style:normal;font-variant:normal;font-weight:900;font-stretch:normal;font-size:112px;line-height:100%;font-family:'Nunito Sans';-inkscape-font-specification:'Nunito Sans Heavy';fill:none;fill-opacity:1;stroke:#ff8400;stroke-width:3.54333282;stroke-miterlimit:4;stroke-dasharray:none;stroke-opacity:1"
     id="path3485" /><path
     d="M 846.95706,131.46388 V 52.503882 h 56.112 v 15.904 h -36.064 v 15.008 h 33.824 v 15.792 h -33.824 v 16.351998 h 36.064 v 15.904 z"
     style="font-style:normal;font-variant:normal;font-weight:900;font-stretch:normal;font-size:112px;line-height:100%;font-family:'Nunito Sans';-inkscape-font-specification:'Nunito Sans Heavy';fill:none;fill-opacity:1;stroke:#ff8400;stroke-width:3.54333282;stroke-miterlimit:4;stroke-dasharray:none;stroke-opacity:1"
     id="path3487" /><path
     d="m 941.36081,132.47188 q -8.848,0 -17.472,-2.352 -8.624,-2.352 -14,-6.272 l 6.384,-14.56 q 5.712,3.584 12.208,5.488 6.496,1.904 13.104,1.904 6.72,0 10.192,-1.792 3.584,-1.904 3.584,-5.264 0,-3.024 -3.248,-4.928 -3.136,-1.904 -12.096,-3.808 -11.088,-2.351998 -17.36,-5.599998 -6.272,-3.248 -8.848,-7.616 -2.464,-4.368 -2.464,-10.752 0,-7.28 4.032,-12.992 4.144,-5.824 11.536,-9.072 7.504,-3.36 17.136,-3.36 8.512,0 16.464,2.464 8.064,2.352 12.544,6.16 l -6.272,14.56 q -10.752,-7.392 -22.624,-7.392 -5.712,0 -9.184,2.24 -3.472,2.128 -3.472,5.712 0,2.128 1.232,3.472 1.232,1.344 4.592,2.688 3.36,1.232 9.968,2.576 10.752,2.352 16.912,5.712 6.16,3.248 8.736,7.616 2.576,4.367998 2.576,10.415998 0,11.648 -8.96,18.256 -8.96,6.496 -25.2,6.496 z"
     style="font-style:normal;font-variant:normal;font-weight:900;font-stretch:normal;font-size:112px;line-height:100%;font-family:'Nunito Sans';-inkscape-font-specification:'Nunito Sans Heavy';fill:none;fill-opacity:1;stroke:#ff8400;stroke-width:3.54333282;stroke-miterlimit:4;stroke-dasharray:none;stroke-opacity:1"
     id="path3489" /></g></svg>