<?xml version="1.0" encoding="utf-8"?>
<!-- Generator: Adobe Illustrator 21.1.0, SVG Export Plug-In . SVG Version: 6.00 Build 0)  -->
<svg version="1.1" id="Слой_1" xmlns="http://www.w3.org/2000/svg" xmlns:xlink="http://www.w3.org/1999/xlink" x="0px" y="0px"
	 viewBox="0 0 285 152.2" style="enable-background:new 0 0 285 152.2;" xml:space="preserve">
<style type="text/css">
	.st0{fill:none;stroke:#00AA5B;stroke-width:2;stroke-linejoin:round;stroke-miterlimit:10;}
	.st1{fill:none;stroke:#232323;stroke-width:2;stroke-linejoin:round;stroke-miterlimit:10;}
	.st2{fill:#F9FAEC;}
	.st3{fill:#00904D;}
	.st4{fill:#FF8400;}
	.st5{fill:none;stroke:#00AA5B;stroke-width:3;stroke-linecap:round;stroke-linejoin:round;stroke-miterlimit:10;}
	.st6{fill:none;stroke:#232323;stroke-width:3;stroke-linecap:round;stroke-linejoin:round;stroke-miterlimit:10;}
	.st7{fill:none;stroke:#FF8400;stroke-width:3;stroke-linecap:round;stroke-linejoin:round;stroke-miterlimit:10;}
</style>
<path class="st0" d="M247.8,1968.7h-7.7v-9.8h7.7c2.4,0,4.2,0.4,5.3,1.2c1.1,0.8,1.6,2.1,1.6,3.8c0,1.7-0.5,3-1.6,3.7
	C252,1968.3,250.2,1968.7,247.8,1968.7z M260.7,1980.8c-1.4-2.6-3.4-4.2-5.8-4.7c3.2-0.8,5.7-2.3,7.4-4.5c1.8-2.2,2.6-4.9,2.6-8.1
	c0-4.2-1.3-7.4-3.9-9.6c-2.6-2.2-6.4-3.3-11.6-3.3h-20.2v42.3h10.9V1977h3.4c2,0,3.5,0.8,4.4,2.3l7.3,13.5h12.1L260.7,1980.8z"/>
<path class="st0" d="M292.8,1984.9c-3.2,0-5.7-1.1-7.5-3.4c-1.8-2.2-2.7-5.5-2.7-9.9c0-4.4,0.9-7.6,2.7-9.9c1.8-2.2,4.3-3.3,7.5-3.3
	c3.2,0,5.6,1.1,7.5,3.4c1.8,2.2,2.7,5.5,2.7,9.8s-0.9,7.6-2.7,9.9C298.5,1983.8,296,1984.9,292.8,1984.9z M292.8,1993.4
	c4.3,0,8-0.9,11.2-2.7c3.2-1.8,5.6-4.3,7.4-7.6c1.7-3.3,2.6-7.1,2.6-11.5c0-4.4-0.8-8.2-2.5-11.5c-1.7-3.3-4.1-5.8-7.3-7.5
	c-3.2-1.8-6.9-2.6-11.3-2.6c-4.3,0-8.1,0.9-11.3,2.6c-3.2,1.8-5.6,4.3-7.4,7.5c-1.7,3.3-2.6,7.1-2.6,11.5c0,4.4,0.9,8.2,2.6,11.5
	c1.7,3.3,4.2,5.8,7.4,7.6C284.7,1992.5,288.4,1993.4,292.8,1993.4z"/>
<path class="st0" d="M341.3,1984.5h-8.9v-9h8.9c2.2,0,3.8,0.4,4.7,1.1c0.9,0.7,1.4,1.9,1.4,3.4c0,1.6-0.5,2.8-1.4,3.5
	C345.1,1984.2,343.5,1984.5,341.3,1984.5z M332.4,1958.9h7.9c2.1,0,3.6,0.3,4.6,1c1,0.7,1.4,1.8,1.4,3.2c0,1.4-0.5,2.4-1.4,3.1
	c-1,0.6-2.5,1-4.6,1h-7.9V1958.9z M350,1970.9c2.1-0.8,3.7-2,4.9-3.6c1.2-1.7,1.7-3.6,1.7-5.7c0-3.4-1.3-6-3.9-8s-6.1-3-10.6-3
	h-20.5v42.3h21.1c3,0,5.7-0.5,7.9-1.4c2.3-1,4-2.3,5.2-4c1.2-1.7,1.8-3.8,1.8-6.1c0-2.6-0.7-4.8-2-6.6
	C354.4,1972.9,352.5,1971.6,350,1970.9z"/>
<path class="st0" d="M384.6,1984.9c-3.2,0-5.7-1.1-7.5-3.4c-1.8-2.2-2.7-5.5-2.7-9.9c0-4.4,0.9-7.6,2.7-9.9c1.8-2.2,4.3-3.3,7.5-3.3
	c3.2,0,5.6,1.1,7.5,3.4c1.8,2.2,2.7,5.5,2.7,9.8s-0.9,7.6-2.7,9.9C390.3,1983.8,387.8,1984.9,384.6,1984.9z M384.6,1993.4
	c4.3,0,8-0.9,11.2-2.7c3.2-1.8,5.6-4.3,7.4-7.6c1.7-3.3,2.6-7.1,2.6-11.5c0-4.4-0.8-8.2-2.5-11.5c-1.7-3.3-4.1-5.8-7.3-7.5
	c-3.2-1.8-6.9-2.6-11.3-2.6c-4.3,0-8.1,0.9-11.3,2.6c-3.2,1.8-5.6,4.3-7.4,7.5c-1.7,3.3-2.6,7.1-2.6,11.5c0,4.4,0.9,8.2,2.6,11.5
	c1.7,3.3,4.2,5.8,7.4,7.6C376.6,1992.5,380.3,1993.4,384.6,1993.4z"/>
<polygon class="st0" points="431.8,1992.8 431.8,1959.5 444.5,1959.5 444.5,1950.5 408,1950.5 408,1959.5 420.7,1959.5 
	420.7,1992.8 "/>
<rect x="450.3" y="1950.5" class="st0" width="11" height="42.3"/>
<path class="st0" d="M490.7,1993.4c2.8,0,5.4-0.4,8-1.3c2.6-0.8,4.7-2,6.3-3.4l-3.4-7.8c-3.5,2.4-7,3.7-10.7,3.7
	c-3.4,0-6.1-1.1-7.9-3.3c-1.8-2.2-2.7-5.4-2.7-9.7c0-4.3,0.9-7.5,2.7-9.7c1.8-2.2,4.4-3.2,7.9-3.2c3.6,0,7.2,1.2,10.7,3.7l3.4-7.8
	c-1.6-1.4-3.8-2.5-6.3-3.4c-2.6-0.8-5.3-1.3-8-1.3c-4.4,0-8.2,0.9-11.5,2.7c-3.3,1.8-5.8,4.3-7.5,7.6c-1.7,3.3-2.6,7.1-2.6,11.4
	s0.9,8.1,2.6,11.4c1.7,3.3,4.2,5.8,7.5,7.6C482.5,1992.5,486.3,1993.4,490.7,1993.4z"/>
<polygon class="st0" points="250,2057.8 250,2024.5 262.7,2024.5 262.7,2015.5 226.2,2015.5 226.2,2024.5 238.9,2024.5 
	238.9,2057.8 "/>
<path class="st0" d="M286.2,2049.9c-3.2,0-5.7-1.1-7.5-3.4c-1.8-2.2-2.7-5.5-2.7-9.9c0-4.4,0.9-7.6,2.7-9.9c1.8-2.2,4.3-3.3,7.5-3.3
	c3.2,0,5.6,1.1,7.5,3.4c1.8,2.2,2.7,5.5,2.7,9.8s-0.9,7.6-2.7,9.9C291.9,2048.8,289.4,2049.9,286.2,2049.9z M286.2,2058.4
	c4.3,0,8-0.9,11.2-2.7c3.2-1.8,5.6-4.3,7.4-7.6c1.7-3.3,2.6-7.1,2.6-11.5c0-4.4-0.8-8.2-2.5-11.5c-1.7-3.3-4.1-5.8-7.3-7.5
	c-3.2-1.8-6.9-2.6-11.3-2.6c-4.3,0-8.1,0.9-11.3,2.6c-3.2,1.8-5.6,4.3-7.4,7.5c-1.7,3.3-2.6,7.1-2.6,11.5c0,4.4,0.9,8.2,2.6,11.5
	c1.7,3.3,4.2,5.8,7.4,7.6C278.2,2057.5,281.9,2058.4,286.2,2058.4z"/>
<path class="st0" d="M335.2,2049.9c-3.2,0-5.7-1.1-7.5-3.4c-1.8-2.2-2.7-5.5-2.7-9.9c0-4.4,0.9-7.6,2.7-9.9c1.8-2.2,4.3-3.3,7.5-3.3
	c3.2,0,5.6,1.1,7.5,3.4c1.8,2.2,2.7,5.5,2.7,9.8s-0.9,7.6-2.7,9.9C340.9,2048.8,338.4,2049.9,335.2,2049.9z M335.2,2058.4
	c4.3,0,8-0.9,11.2-2.7c3.2-1.8,5.6-4.3,7.4-7.6c1.7-3.3,2.6-7.1,2.6-11.5c0-4.4-0.8-8.2-2.5-11.5c-1.7-3.3-4.1-5.8-7.3-7.5
	c-3.2-1.8-6.9-2.6-11.3-2.6c-4.3,0-8.1,0.9-11.3,2.6c-3.2,1.8-5.6,4.3-7.4,7.5c-1.7,3.3-2.6,7.1-2.6,11.5c0,4.4,0.9,8.2,2.6,11.5
	c1.7,3.3,4.2,5.8,7.4,7.6C327.1,2057.5,330.9,2058.4,335.2,2058.4z"/>
<polygon class="st0" points="393.1,2057.8 393.1,2048.9 375.1,2048.9 375.1,2015.5 364,2015.5 364,2057.8 "/>
<path class="st0" d="M414.4,2058.4c5.8,0,10.3-1.2,13.5-3.5c3.2-2.3,4.8-5.6,4.8-9.8c0-2.2-0.5-4-1.4-5.6c-0.9-1.6-2.5-2.9-4.7-4.1
	c-2.2-1.2-5.2-2.2-9.1-3c-2.4-0.5-4.1-0.9-5.3-1.4c-1.2-0.5-2-0.9-2.5-1.4c-0.4-0.5-0.7-1.1-0.7-1.9c0-1.3,0.6-2.3,1.9-3.1
	c1.2-0.8,2.9-1.2,4.9-1.2c4.2,0,8.3,1.3,12.1,4l3.4-7.8c-1.6-1.4-3.8-2.5-6.7-3.3c-2.9-0.9-5.8-1.3-8.9-1.3c-3.4,0-6.5,0.6-9.1,1.8
	c-2.7,1.2-4.7,2.8-6.2,4.9c-1.5,2.1-2.2,4.4-2.2,7c0,2.3,0.5,4.2,1.4,5.8c0.9,1.6,2.5,2.9,4.7,4.1c2.2,1.2,5.3,2.2,9.3,3
	c3.2,0.7,5.4,1.4,6.5,2c1.1,0.7,1.7,1.6,1.7,2.6c0,1.2-0.6,2.1-1.9,2.8c-1.3,0.7-3.1,1-5.5,1c-2.4,0-4.7-0.3-7-1
	c-2.3-0.7-4.5-1.7-6.5-2.9l-3.4,7.8c1.9,1.4,4.4,2.5,7.5,3.4C408.1,2058,411.2,2058.4,414.4,2058.4z"/>
<path class="st0" d="M26.8,19.7h-7.7V9.9h7.7c2.4,0,4.2,0.4,5.3,1.2c1.1,0.8,1.6,2.1,1.6,3.8c0,1.7-0.5,3-1.6,3.7
	C31,19.3,29.2,19.7,26.8,19.7z M39.7,31.8c-1.4-2.6-3.4-4.2-5.8-4.7c3.2-0.8,5.7-2.3,7.4-4.5c1.8-2.2,2.6-4.9,2.6-8.1
	c0-4.2-1.3-7.4-3.9-9.6c-2.6-2.2-6.4-3.3-11.6-3.3H8.3v42.3h10.9V28h3.4c2,0,3.5,0.8,4.4,2.3l7.3,13.5h12.1L39.7,31.8z"/>
<path class="st0" d="M71.8,35.9c-3.2,0-5.7-1.1-7.5-3.4c-1.8-2.2-2.7-5.5-2.7-9.9c0-4.4,0.9-7.6,2.7-9.9c1.8-2.2,4.3-3.3,7.5-3.3
	c3.2,0,5.6,1.1,7.5,3.4c1.8,2.2,2.7,5.5,2.7,9.8s-0.9,7.6-2.7,9.9C77.5,34.8,75,35.9,71.8,35.9z M71.8,44.4c4.3,0,8-0.9,11.2-2.7
	c3.2-1.8,5.6-4.3,7.4-7.6c1.7-3.3,2.6-7.1,2.6-11.5c0-4.4-0.8-8.2-2.5-11.5c-1.7-3.3-4.1-5.8-7.3-7.5C79.8,1.9,76.1,1,71.8,1
	c-4.3,0-8.1,0.9-11.3,2.6c-3.2,1.8-5.6,4.3-7.4,7.5c-1.7,3.3-2.6,7.1-2.6,11.5c0,4.4,0.9,8.2,2.6,11.5c1.7,3.3,4.2,5.8,7.4,7.6
	C63.7,43.5,67.4,44.4,71.8,44.4z"/>
<path class="st0" d="M120.3,35.5h-8.9v-9h8.9c2.2,0,3.8,0.4,4.7,1.1c0.9,0.7,1.4,1.9,1.4,3.4c0,1.6-0.5,2.8-1.4,3.5
	C124.1,35.2,122.5,35.5,120.3,35.5z M111.4,9.9h7.9c2.1,0,3.6,0.3,4.6,1c1,0.7,1.4,1.8,1.4,3.2c0,1.4-0.5,2.4-1.4,3.1
	c-1,0.6-2.5,1-4.6,1h-7.9V9.9z M129,21.9c2.1-0.8,3.7-2,4.9-3.6c1.2-1.7,1.7-3.6,1.7-5.7c0-3.4-1.3-6-3.9-8s-6.1-3-10.6-3h-20.5
	v42.3h21.1c3,0,5.7-0.5,7.9-1.4c2.3-1,4-2.3,5.2-4c1.2-1.7,1.8-3.8,1.8-6.1c0-2.6-0.7-4.8-2-6.6C133.4,23.9,131.5,22.6,129,21.9z"/>
<path class="st0" d="M163.6,35.9c-3.2,0-5.7-1.1-7.5-3.4c-1.8-2.2-2.7-5.5-2.7-9.9c0-4.4,0.9-7.6,2.7-9.9c1.8-2.2,4.3-3.3,7.5-3.3
	c3.2,0,5.6,1.1,7.5,3.4c1.8,2.2,2.7,5.5,2.7,9.8s-0.9,7.6-2.7,9.9C169.3,34.8,166.8,35.9,163.6,35.9z M163.6,44.4
	c4.3,0,8-0.9,11.2-2.7c3.2-1.8,5.6-4.3,7.4-7.6c1.7-3.3,2.6-7.1,2.6-11.5c0-4.4-0.8-8.2-2.5-11.5c-1.7-3.3-4.1-5.8-7.3-7.5
	c-3.2-1.8-6.9-2.6-11.3-2.6c-4.3,0-8.1,0.9-11.3,2.6c-3.2,1.8-5.6,4.3-7.4,7.5c-1.7,3.3-2.6,7.1-2.6,11.5c0,4.4,0.9,8.2,2.6,11.5
	c1.7,3.3,4.2,5.8,7.4,7.6C155.6,43.5,159.3,44.4,163.6,44.4z"/>
<polygon class="st0" points="210.8,43.8 210.8,10.5 223.5,10.5 223.5,1.5 187,1.5 187,10.5 199.7,10.5 199.7,43.8 "/>
<rect x="229.3" y="1.5" class="st0" width="11" height="42.3"/>
<path class="st0" d="M269.7,44.4c2.8,0,5.4-0.4,8-1.3c2.6-0.8,4.7-2,6.3-3.4l-3.4-7.8c-3.5,2.4-7,3.7-10.7,3.7
	c-3.4,0-6.1-1.1-7.9-3.3c-1.8-2.2-2.7-5.4-2.7-9.7c0-4.3,0.9-7.5,2.7-9.7c1.8-2.2,4.4-3.2,7.9-3.2c3.6,0,7.2,1.2,10.7,3.7l3.4-7.8
	c-1.6-1.4-3.8-2.5-6.3-3.4c-2.6-0.8-5.3-1.3-8-1.3c-4.4,0-8.2,0.9-11.5,2.7c-3.3,1.8-5.8,4.3-7.5,7.6c-1.7,3.3-2.6,7.1-2.6,11.4
	s0.9,8.1,2.6,11.4c1.7,3.3,4.2,5.8,7.5,7.6C261.5,43.5,265.3,44.4,269.7,44.4z"/>
<polygon class="st0" points="29,108.8 29,75.5 41.7,75.5 41.7,66.5 5.2,66.5 5.2,75.5 17.9,75.5 17.9,108.8 "/>
<path class="st0" d="M65.2,100.9c-3.2,0-5.7-1.1-7.5-3.4C55.9,95.3,55,92,55,87.7c0-4.4,0.9-7.6,2.7-9.9c1.8-2.2,4.3-3.3,7.5-3.3
	c3.2,0,5.6,1.1,7.5,3.4c1.8,2.2,2.7,5.5,2.7,9.8s-0.9,7.6-2.7,9.9C70.9,99.8,68.4,100.9,65.2,100.9z M65.2,109.4
	c4.3,0,8-0.9,11.2-2.7c3.2-1.8,5.6-4.3,7.4-7.6c1.7-3.3,2.6-7.1,2.6-11.5c0-4.4-0.8-8.2-2.5-11.5c-1.7-3.3-4.1-5.8-7.3-7.5
	c-3.2-1.8-6.9-2.6-11.3-2.6c-4.3,0-8.1,0.9-11.3,2.6c-3.2,1.8-5.6,4.3-7.4,7.5c-1.7,3.3-2.6,7.1-2.6,11.5c0,4.4,0.9,8.2,2.6,11.5
	c1.7,3.3,4.2,5.8,7.4,7.6C57.2,108.5,60.9,109.4,65.2,109.4z"/>
<path class="st0" d="M114.2,100.9c-3.2,0-5.7-1.1-7.5-3.4c-1.8-2.2-2.7-5.5-2.7-9.9c0-4.4,0.9-7.6,2.7-9.9c1.8-2.2,4.3-3.3,7.5-3.3
	c3.2,0,5.6,1.1,7.5,3.4c1.8,2.2,2.7,5.5,2.7,9.8s-0.9,7.6-2.7,9.9C119.9,99.8,117.4,100.9,114.2,100.9z M114.2,109.4
	c4.3,0,8-0.9,11.2-2.7c3.2-1.8,5.6-4.3,7.4-7.6c1.7-3.3,2.6-7.1,2.6-11.5c0-4.4-0.8-8.2-2.5-11.5c-1.7-3.3-4.1-5.8-7.3-7.5
	c-3.2-1.8-6.9-2.6-11.3-2.6c-4.3,0-8.1,0.9-11.3,2.6c-3.2,1.8-5.6,4.3-7.4,7.5c-1.7,3.3-2.6,7.1-2.6,11.5c0,4.4,0.9,8.2,2.6,11.5
	c1.7,3.3,4.2,5.8,7.4,7.6C106.1,108.5,109.9,109.4,114.2,109.4z"/>
<polygon class="st0" points="172.1,108.8 172.1,99.9 154.1,99.9 154.1,66.5 143,66.5 143,108.8 "/>
<path class="st0" d="M193.4,109.4c5.8,0,10.3-1.2,13.5-3.5c3.2-2.3,4.8-5.6,4.8-9.8c0-2.2-0.5-4-1.4-5.6c-0.9-1.6-2.5-2.9-4.7-4.1
	c-2.2-1.2-5.2-2.2-9.1-3c-2.4-0.5-4.1-0.9-5.3-1.4c-1.2-0.5-2-0.9-2.5-1.4c-0.4-0.5-0.7-1.1-0.7-1.9c0-1.3,0.6-2.3,1.9-3.1
	c1.2-0.8,2.9-1.2,4.9-1.2c4.2,0,8.3,1.3,12.1,4l3.4-7.8c-1.6-1.4-3.8-2.5-6.7-3.3c-2.9-0.9-5.8-1.3-8.9-1.3c-3.4,0-6.5,0.6-9.1,1.8
	c-2.7,1.2-4.7,2.8-6.2,4.9c-1.5,2.1-2.2,4.4-2.2,7c0,2.3,0.5,4.2,1.4,5.8c0.9,1.6,2.5,2.9,4.7,4.1c2.2,1.2,5.3,2.2,9.3,3
	c3.2,0.7,5.4,1.4,6.5,2c1.1,0.7,1.7,1.6,1.7,2.6c0,1.2-0.6,2.1-1.9,2.8c-1.3,0.7-3.1,1-5.5,1c-2.4,0-4.7-0.3-7-1
	c-2.3-0.7-4.5-1.7-6.5-2.9l-3.4,7.8c1.9,1.4,4.4,2.5,7.5,3.4C187.1,109,190.2,109.4,193.4,109.4z"/>
<polygon class="st1" points="408.6,756.8 408.6,723.5 421.2,723.5 421.2,714.5 384.8,714.5 384.8,723.5 397.4,723.5 397.4,756.8 "/>
<polygon class="st1" points="455.1,731 437.8,731 437.8,714.5 427,714.5 427,756.8 437.8,756.8 437.8,739.7 455.1,739.7 
	455.1,756.8 465.9,756.8 465.9,714.5 455.1,714.5 "/>
<polygon class="st1" points="504.8,756.8 504.8,748.3 485.5,748.3 485.5,739.6 503.6,739.6 503.6,731.1 485.5,731.1 485.5,723.1 
	504.8,723.1 504.8,714.5 474.8,714.5 474.8,756.8 "/>
<path class="st1" d="M548.6,732.7h-7.7v-9.8h7.7c2.4,0,4.2,0.4,5.3,1.2c1.1,0.8,1.6,2.1,1.6,3.8c0,1.7-0.5,3-1.6,3.7
	C552.7,732.3,551,732.7,548.6,732.7z M561.5,744.8c-1.4-2.6-3.4-4.2-5.8-4.7c3.2-0.8,5.7-2.3,7.4-4.5c1.8-2.2,2.6-4.9,2.6-8.1
	c0-4.2-1.3-7.4-3.9-9.6c-2.6-2.2-6.4-3.3-11.5-3.3h-20.2v42.3H541V741h3.4c2,0,3.5,0.8,4.4,2.3l7.3,13.5h12.1L561.5,744.8z"/>
<path class="st1" d="M593.6,748.9c-3.2,0-5.7-1.1-7.5-3.4c-1.8-2.2-2.7-5.5-2.7-9.9c0-4.4,0.9-7.6,2.7-9.9c1.8-2.2,4.3-3.3,7.5-3.3
	c3.2,0,5.6,1.1,7.5,3.4c1.8,2.2,2.7,5.5,2.7,9.8s-0.9,7.6-2.7,9.9C599.3,747.8,596.8,748.9,593.6,748.9z M593.6,757.4
	c4.3,0,8-0.9,11.2-2.7c3.2-1.8,5.6-4.3,7.4-7.6c1.7-3.3,2.6-7.1,2.6-11.5c0-4.4-0.8-8.2-2.5-11.5c-1.7-3.3-4.1-5.8-7.3-7.5
	c-3.2-1.8-6.9-2.6-11.3-2.6c-4.3,0-8.1,0.9-11.3,2.6c-3.2,1.8-5.6,4.3-7.4,7.5c-1.7,3.3-2.6,7.1-2.6,11.5c0,4.4,0.9,8.2,2.6,11.5
	c1.7,3.3,4.2,5.8,7.4,7.6C585.5,756.5,589.2,757.4,593.6,757.4z"/>
<path class="st1" d="M642.1,748.5h-8.9v-9h8.9c2.2,0,3.8,0.4,4.7,1.1c0.9,0.7,1.4,1.9,1.4,3.4c0,1.6-0.5,2.8-1.4,3.5
	C645.9,748.1,644.3,748.5,642.1,748.5z M633.2,722.9h7.9c2.1,0,3.6,0.3,4.6,1c1,0.7,1.4,1.8,1.4,3.2c0,1.4-0.5,2.4-1.4,3.1
	c-1,0.6-2.5,1-4.6,1h-7.9V722.9z M650.8,734.9c2.1-0.8,3.7-2,4.9-3.6c1.2-1.7,1.7-3.6,1.7-5.7c0-3.4-1.3-6-3.9-8s-6.1-3-10.6-3
	h-20.5v42.3h21.1c3,0,5.7-0.5,7.9-1.4c2.3-1,4-2.3,5.2-4c1.2-1.7,1.8-3.8,1.8-6.1c0-2.6-0.7-4.8-2-6.6
	C655.2,736.9,653.3,735.6,650.8,734.9z"/>
<path class="st1" d="M685.4,748.9c-3.2,0-5.7-1.1-7.5-3.4c-1.8-2.2-2.7-5.5-2.7-9.9c0-4.4,0.9-7.6,2.7-9.9c1.8-2.2,4.3-3.3,7.5-3.3
	c3.2,0,5.6,1.1,7.5,3.4c1.8,2.2,2.7,5.5,2.7,9.8s-0.9,7.6-2.7,9.9C691.1,747.8,688.6,748.9,685.4,748.9z M685.4,757.4
	c4.3,0,8-0.9,11.2-2.7c3.2-1.8,5.6-4.3,7.4-7.6c1.7-3.3,2.6-7.1,2.6-11.5c0-4.4-0.8-8.2-2.5-11.5c-1.7-3.3-4.1-5.8-7.3-7.5
	c-3.2-1.8-6.9-2.6-11.3-2.6c-4.3,0-8.1,0.9-11.3,2.6c-3.2,1.8-5.6,4.3-7.4,7.5c-1.7,3.3-2.6,7.1-2.6,11.5c0,4.4,0.9,8.2,2.6,11.5
	c1.7,3.3,4.2,5.8,7.4,7.6C677.3,756.5,681.1,757.4,685.4,757.4z"/>
<polygon class="st1" points="732.6,756.8 732.6,723.5 745.3,723.5 745.3,714.5 708.8,714.5 708.8,723.5 721.5,723.5 721.5,756.8 "/>
<path class="st1" d="M765.2,757.4c5.8,0,10.3-1.2,13.5-3.5c3.2-2.3,4.8-5.6,4.8-9.8c0-2.2-0.5-4-1.4-5.6s-2.5-2.9-4.7-4.1
	c-2.2-1.2-5.2-2.2-9.1-3c-2.4-0.5-4.1-0.9-5.3-1.4c-1.2-0.5-2-0.9-2.5-1.4c-0.4-0.5-0.7-1.1-0.7-1.9c0-1.3,0.6-2.3,1.9-3.1
	c1.2-0.8,2.9-1.2,4.9-1.2c4.2,0,8.3,1.3,12.1,4l3.4-7.8c-1.6-1.4-3.8-2.5-6.7-3.3c-2.9-0.9-5.8-1.3-8.9-1.3c-3.4,0-6.5,0.6-9.1,1.8
	c-2.7,1.2-4.7,2.8-6.2,4.9c-1.5,2.1-2.2,4.4-2.2,7c0,2.3,0.5,4.2,1.4,5.8c0.9,1.6,2.5,2.9,4.7,4.1c2.2,1.2,5.3,2.2,9.3,3
	c3.2,0.7,5.4,1.4,6.5,2c1.1,0.7,1.7,1.6,1.7,2.6c0,1.2-0.6,2.1-1.9,2.8c-1.3,0.7-3.1,1-5.5,1c-2.4,0-4.7-0.3-7-1
	c-2.3-0.7-4.5-1.7-6.5-2.9l-3.4,7.8c1.9,1.4,4.4,2.5,7.5,3.4C758.9,757,762.1,757.4,765.2,757.4z"/>
<path class="st2" d="M303.4,2563.5c-0.1,0-10.4,3.5-10.6,3.5c-5.9,0-12.8-7.8-18.7-7.8c-6.4,0-11.4,7.3-17.8,7.3c-0.2,0-9-3-9.2-3
	v-54.2h56.2V2563.5z"/>
<path class="st3" d="M326.2,2527.4l-20.7-13.3c-0.2-0.1-0.3-0.1-0.5-0.2v-4.6c0-1.2-1-2.2-2.2-2.2h-8.3l-17.2-10.8
	c-0.7-0.5-1.6-0.5-2.4,0l-17.2,10.8h-10.5c-1.2,0-2.2,1-2.2,2.2v4.6c-0.2,0.1-0.4,0.1-0.5,0.2l-20.7,13.3c-0.6,0.4-1,1.1-1,1.9v57.8
	c0,1.2,1,2.2,2.2,2.2h100c1.2,0,2.2-1,2.2-2.2v-57.8C327.2,2528.5,326.8,2527.8,326.2,2527.4 M276.1,2500.8l10,6.3h-20.1
	L276.1,2500.8z M249.4,2511.5h51.1v50c0,0,0,0,0,0l-7.5,4.6l-18.1-9.9c-0.7-0.4-1.5-0.4-2.2,0l-16.5,9.4l-6.8-4.2c0,0,0,0,0,0
	L249.4,2511.5z M227.2,2530.5L245,2519v39.8l-17.8-10.8V2530.5z M227.2,2553.2l24.6,15l-24.6,14.1V2553.2z M231.7,2584.8l42.2-24.1
	l44.2,24.1H231.7z M322.8,2582.3l-25.2-13.8l25.2-15.3V2582.3z M322.8,2548l-17.8,10.8V2519l17.8,11.5V2548z"/>
<path class="st3" d="M258.3,2533.7H285c1.2,0,2.2-1,2.2-2.2v-13.3c0-1.2-1-2.2-2.2-2.2h-26.7c-1.2,0-2.2,1-2.2,2.2v13.3
	C256.1,2532.7,257.1,2533.7,258.3,2533.7 M260.5,2520.4h22.2v8.9h-22.2V2520.4z"/>
<rect x="256.1" y="2538.2" class="st3" width="35.6" height="4.4"/>
<rect x="256.1" y="2547" class="st3" width="35.6" height="4.4"/>
<path class="st4" d="M316.1,2509.3c0.6,0,1.1-0.2,1.6-0.7l7.9-7.9c0.9-0.9,0.9-2.3,0-3.1c-0.9-0.9-2.3-0.9-3.1,0l-7.9,7.9
	c-0.9,0.9-0.9,2.3,0,3.1C315,2509,315.5,2509.3,316.1,2509.3"/>
<path class="st4" d="M232.3,2508.6c0.4,0.4,1,0.7,1.6,0.7c0.6,0,1.1-0.2,1.6-0.7c0.9-0.9,0.9-2.3,0-3.1l-7.9-7.9
	c-0.9-0.9-2.3-0.9-3.1,0c-0.9,0.9-0.9,2.3,0,3.1L232.3,2508.6z"/>
<path class="st4" d="M297.5,2498c0.3,0.1,0.5,0.2,0.8,0.2c0.9,0,1.7-0.5,2.1-1.4l4.4-11.1c0.5-1.1-0.1-2.4-1.2-2.9
	c-1.1-0.5-2.4,0.1-2.9,1.2l-4.4,11.1C295.8,2496.2,296.4,2497.5,297.5,2498"/>
<path class="st4" d="M251.8,2496.7c0.3,0.9,1.2,1.4,2.1,1.4c0.3,0,0.6,0,0.8-0.2c1.1-0.5,1.7-1.8,1.2-2.9l-4.4-11.1
	c-0.5-1.1-1.8-1.7-2.9-1.2c-1.1,0.5-1.7,1.8-1.2,2.9L251.8,2496.7z"/>
<path class="st5" d="M1.5,138.7c15,0,15,12,30.1,12c15,0,15-12,30.1-12s15,12,30.1,12c15,0,15-12,30.1-12c15,0,15,12,30.1,12
	c15,0,15-12,30.1-12c15,0,15,12,30.1,12"/>
<path class="st6" d="M383,783c18.3,0,18.3,12,36.5,12c18.3,0,18.3-12,36.5-12c18.3,0,18.3,12,36.5,12c18.3,0,18.3-12,36.5-12
	s18.3,12,36.5,12c18.3,0,18.3-12,36.5-12c18.3,0,18.3,12,36.5,12s18.3-12,36.5-12c18.3,0,18.3,12,36.5,12c18.3,0,18.3-12,36.5-12
	c18.3,0,18.3,12,36.5,12"/>
<path class="st5" d="M14,3195.2c18.5,0,18.5,12,37,12c18.5,0,18.5-12,37-12c18.5,0,18.5,12,36.9,12c18.5,0,18.5-12,37-12
	s18.5,12,37,12c18.5,0,18.5-12,37-12c18.5,0,18.5,12,37,12c18.5,0,18.5-12,37-12c18.5,0,18.5,12,37,12"/>
<path class="st7" d="M-53.9,3993.9c20,0,20,12,39.9,12c20,0,20-12,39.9-12c20,0,20,12,39.9,12c20,0,20-12,39.9-12
	c20,0,20,12,39.9,12c20,0,20-12,39.9-12c20,0,20,12,39.9,12s20-12,39.9-12c20,0,20,12,39.9,12c20,0,20-12,39.9-12
	c20,0,20,12,39.9,12"/>
</svg>
