<?xml version="1.0" encoding="UTF-8" standalone="no"?>
<!-- Generator: Adobe Illustrator 21.1.0, SVG Export Plug-In . SVG Version: 6.00 Build 0)  -->

<svg
   xmlns:dc="http://purl.org/dc/elements/1.1/"
   xmlns:cc="http://creativecommons.org/ns#"
   xmlns:rdf="http://www.w3.org/1999/02/22-rdf-syntax-ns#"
   xmlns:svg="http://www.w3.org/2000/svg"
   xmlns="http://www.w3.org/2000/svg"
   xmlns:sodipodi="http://sodipodi.sourceforge.net/DTD/sodipodi-0.dtd"
   xmlns:inkscape="http://www.inkscape.org/namespaces/inkscape"
   version="1.1"
   id="Слой_1"
   x="0px"
   y="0px"
   viewBox="0 0 434.44272 211.14868"
   xml:space="preserve"
   sodipodi:docname="img-title-phenotyping.svg"
   width="434.44272"
   height="211.14868"
   inkscape:version="0.92.3 (2405546, 2018-03-11)"><metadata
   id="metadata1776"><rdf:RDF><cc:Work
       rdf:about=""><dc:format>image/svg+xml</dc:format><dc:type
         rdf:resource="http://purl.org/dc/dcmitype/StillImage" /><dc:title></dc:title></cc:Work></rdf:RDF></metadata><defs
   id="defs1774" /><sodipodi:namedview
   pagecolor="#ffffff"
   bordercolor="#666666"
   borderopacity="1"
   objecttolerance="10"
   gridtolerance="10"
   guidetolerance="10"
   inkscape:pageopacity="0"
   inkscape:pageshadow="2"
   inkscape:window-width="1920"
   inkscape:window-height="1025"
   id="namedview1772"
   showgrid="false"
   fit-margin-top="5"
   fit-margin-left="5"
   fit-margin-right="5"
   fit-margin-bottom="5"
   inkscape:zoom="1.6970563"
   inkscape:cx="147.52136"
   inkscape:cy="-11.90458"
   inkscape:window-x="0"
   inkscape:window-y="27"
   inkscape:window-maximized="1"
   inkscape:current-layer="Слой_1" />
<style
   type="text/css"
   id="style1677">
	.st0{fill:none;stroke:#00AA5B;stroke-width:2;stroke-linejoin:round;stroke-miterlimit:10;}
	.st1{fill:none;stroke:#232323;stroke-width:2;stroke-linejoin:round;stroke-miterlimit:10;}
	.st2{fill:#F9FAEC;}
	.st3{fill:#00904D;}
	.st4{fill:#FF8400;}
	.st5{fill:none;stroke:#00AA5B;stroke-width:3;stroke-linecap:round;stroke-linejoin:round;stroke-miterlimit:10;}
	.st6{fill:none;stroke:#232323;stroke-width:3;stroke-linecap:round;stroke-linejoin:round;stroke-miterlimit:10;}
	.st7{fill:none;stroke:#FF8400;stroke-width:3;stroke-linecap:round;stroke-linejoin:round;stroke-miterlimit:10;}
</style>














































<g
   id="g2584"
   transform="matrix(1.0681267,0,0,1.0681267,-0.34063346,-14.044228)"><path
     style="fill:none;stroke:#00aa5b;stroke-width:3;stroke-linecap:round;stroke-linejoin:round;stroke-miterlimit:10"
     inkscape:connector-curvature="0"
     id="path1763"
     d="m 6.5213637,192.64853 c 15.0000003,0 15.0000003,12 30.1000003,12 14.999996,0 14.999996,-12 30.099996,-12 15.1,0 15,12 30.1,12 15,0 15,-12 30.1,-12 15,0 15,12 30.1,12 15,0 15,-12 30.1,-12 15,0 15,12 30.1,12"
     class="st5" /><path
     sodipodi:nodetypes="csssssc"
     style="fill:none;stroke:#00aa5b;stroke-width:3;stroke-linecap:round;stroke-linejoin:round;stroke-miterlimit:10"
     inkscape:connector-curvature="0"
     class="st5"
     d="m 397.82136,204.64853 c -15,0 -15,-12 -30.1,-12 -15.1,0 -15,12 -30.1,12 -15,0 -15,-12 -30.1,-12 -15,0 -15,12 -30.1,12 -15,0 -15,-12 -30.1,-12 -15,0 -15,12 -30.1,12"
     id="path2366" /></g><g
   aria-label="PHENOTYPING 
and
DATA SCIENCE"
   transform="matrix(0.51449034,0,0,0.51449034,-68.920375,-20.760639)"
   style="font-style:normal;font-variant:normal;font-weight:normal;font-stretch:normal;font-size:32px;line-height:100%;font-family:'Parafuse Outline';-inkscape-font-specification:'Parafuse Outline';font-variant-ligatures:normal;font-variant-caps:normal;font-variant-numeric:normal;text-align:start;letter-spacing:0px;word-spacing:0px;writing-mode:lr-tb;text-anchor:start;fill:none;fill-opacity:1;stroke:#35a864;stroke-width:3.54333282;stroke-linecap:butt;stroke-linejoin:miter;stroke-miterlimit:4;stroke-dasharray:none;stroke-opacity:1"
   id="flowRoot208-6"><path
     d="m 149.14456,52.503882 h 38.192 q 13.104,0 20.384,6.72 7.28,6.608 7.28,18.48 0,11.76 -7.392,18.48 -7.28,6.719998 -20.272,6.719998 h -17.584 v 28.56 h -20.608 z m 35.392,34.944 q 5.712,0 8.4,-2.352 2.8,-2.352 2.8,-7.28 0,-4.928 -2.8,-7.28 -2.688,-2.464 -8.4,-2.464 h -14.784 v 19.376 z"
     style="font-style:normal;font-variant:normal;font-weight:900;font-stretch:normal;font-size:112px;line-height:100%;font-family:'Nunito Sans';-inkscape-font-specification:'Nunito Sans Heavy';fill:none;fill-opacity:1;stroke:#35a864;stroke-width:3.54333282;stroke-miterlimit:4;stroke-dasharray:none;stroke-opacity:1"
     id="path2531" /><path
     d="m 277.46681,52.503882 h 20.16 v 78.959998 h -20.16 V 99.543882 h -32.256 v 31.919998 h -20.16 V 52.503882 h 20.16 v 30.688 h 32.256 z"
     style="font-style:normal;font-variant:normal;font-weight:900;font-stretch:normal;font-size:112px;line-height:100%;font-family:'Nunito Sans';-inkscape-font-specification:'Nunito Sans Heavy';fill:none;fill-opacity:1;stroke:#35a864;stroke-width:3.54333282;stroke-miterlimit:4;stroke-dasharray:none;stroke-opacity:1"
     id="path2533" /><path
     d="M 311.89456,131.46388 V 52.503882 h 56.112 v 15.904 h -36.064 v 15.008 h 33.824 v 15.792 h -33.824 v 16.351998 h 36.064 v 15.904 z"
     style="font-style:normal;font-variant:normal;font-weight:900;font-stretch:normal;font-size:112px;line-height:100%;font-family:'Nunito Sans';-inkscape-font-specification:'Nunito Sans Heavy';fill:none;fill-opacity:1;stroke:#35a864;stroke-width:3.54333282;stroke-miterlimit:4;stroke-dasharray:none;stroke-opacity:1"
     id="path2535" /><path
     d="m 430.01606,52.503882 h 19.264 v 78.959998 h -15.232 l -36.064,-45.135998 v 45.135998 h -19.152 V 52.503882 h 15.008 l 36.176,45.136 z"
     style="font-style:normal;font-variant:normal;font-weight:900;font-stretch:normal;font-size:112px;line-height:100%;font-family:'Nunito Sans';-inkscape-font-specification:'Nunito Sans Heavy';fill:none;fill-opacity:1;stroke:#35a864;stroke-width:3.54333282;stroke-miterlimit:4;stroke-dasharray:none;stroke-opacity:1"
     id="path2537" /><path
     d="m 501.22706,132.47188 q -12.096,0 -21.056,-4.928 -8.848,-5.04 -13.664,-14.112 -4.816,-9.184 -4.816,-21.503998 0,-12.32 4.816,-21.392 4.816,-9.184 13.664,-14.112 8.96,-4.928 21.056,-4.928 12.096,0 20.944,4.928 8.96,4.928 13.664,14.112 4.816,9.072 4.816,21.392 0,12.319998 -4.816,21.503998 -4.816,9.072 -13.776,14.112 -8.848,4.928 -20.832,4.928 z m 0,-15.792 q 8.96,0 14,-6.272 5.04,-6.384 5.04,-18.479998 0,-12.096 -5.152,-18.368 -5.04,-6.272 -13.888,-6.272 -8.96,0 -14,6.272 -5.04,6.16 -5.04,18.368 0,12.207998 5.04,18.479998 5.04,6.272 14,6.272 z"
     style="font-style:normal;font-variant:normal;font-weight:900;font-stretch:normal;font-size:112px;line-height:100%;font-family:'Nunito Sans';-inkscape-font-specification:'Nunito Sans Heavy';fill:none;fill-opacity:1;stroke:#35a864;stroke-width:3.54333282;stroke-miterlimit:4;stroke-dasharray:none;stroke-opacity:1"
     id="path2539" /><path
     d="M 566.39006,131.46388 V 69.191882 h -23.632 v -16.688 h 68.096 v 16.688 h -23.632 v 62.271998 z"
     style="font-style:normal;font-variant:normal;font-weight:900;font-stretch:normal;font-size:112px;line-height:100%;font-family:'Nunito Sans';-inkscape-font-specification:'Nunito Sans Heavy';fill:none;fill-opacity:1;stroke:#35a864;stroke-width:3.54333282;stroke-miterlimit:4;stroke-dasharray:none;stroke-opacity:1"
     id="path2541" /><path
     d="m 694.99406,52.503882 -33.376,43.792 v 35.167998 h -20.608 V 96.295882 l -33.152,-43.792 h 23.184 l 20.16,27.44 20.384,-27.44 z"
     style="font-style:normal;font-variant:normal;font-weight:900;font-stretch:normal;font-size:112px;line-height:100%;font-family:'Nunito Sans';-inkscape-font-specification:'Nunito Sans Heavy';fill:none;fill-opacity:1;stroke:#35a864;stroke-width:3.54333282;stroke-miterlimit:4;stroke-dasharray:none;stroke-opacity:1"
     id="path2543" /><path
     d="m 694.92581,52.503882 h 38.192 q 13.104,0 20.384,6.72 7.28,6.608 7.28,18.48 0,11.76 -7.392,18.48 -7.28,6.719998 -20.272,6.719998 h -17.584 v 28.56 h -20.608 z m 35.392,34.944 q 5.712,0 8.4,-2.352 2.8,-2.352 2.8,-7.28 0,-4.928 -2.8,-7.28 -2.688,-2.464 -8.4,-2.464 h -14.784 v 19.376 z"
     style="font-style:normal;font-variant:normal;font-weight:900;font-stretch:normal;font-size:112px;line-height:100%;font-family:'Nunito Sans';-inkscape-font-specification:'Nunito Sans Heavy';fill:none;fill-opacity:1;stroke:#35a864;stroke-width:3.54333282;stroke-miterlimit:4;stroke-dasharray:none;stroke-opacity:1"
     id="path2545" /><path
     d="M 770.83206,131.46388 V 52.503882 h 20.608 v 78.959998 z"
     style="font-style:normal;font-variant:normal;font-weight:900;font-stretch:normal;font-size:112px;line-height:100%;font-family:'Nunito Sans';-inkscape-font-specification:'Nunito Sans Heavy';fill:none;fill-opacity:1;stroke:#35a864;stroke-width:3.54333282;stroke-miterlimit:4;stroke-dasharray:none;stroke-opacity:1"
     id="path2547" /><path
     d="m 857.01606,52.503882 h 19.264 v 78.959998 h -15.232 l -36.064,-45.135998 v 45.135998 h -19.152 V 52.503882 h 15.008 l 36.176,45.136 z"
     style="font-style:normal;font-variant:normal;font-weight:900;font-stretch:normal;font-size:112px;line-height:100%;font-family:'Nunito Sans';-inkscape-font-specification:'Nunito Sans Heavy';fill:none;fill-opacity:1;stroke:#35a864;stroke-width:3.54333282;stroke-miterlimit:4;stroke-dasharray:none;stroke-opacity:1"
     id="path2549" /><path
     d="m 960.59506,86.887882 v 39.535998 q -6.16,2.912 -14,4.48 -7.84,1.568 -16.016,1.568 -12.88,0 -22.4,-4.816 -9.408,-4.928 -14.448,-14 -5.04,-9.184 -5.04,-21.727998 0,-12.208 5.04,-21.392 5.04,-9.184 14.224,-14.112 9.296,-4.928 21.728,-4.928 8.624,0 16.128,2.24 7.616,2.24 12.32,6.16 l -6.384,14.56 q -5.488,-3.584 -10.528,-5.152 -5.04,-1.568 -10.752,-1.568 -10.64,0 -15.904,5.936 -5.152,5.936 -5.152,18.256 0,12.655998 5.376,18.815998 5.488,6.048 16.688,6.048 5.376,0 10.64,-1.12 v -14.672 h -13.888 V 86.887882 Z"
     style="font-style:normal;font-variant:normal;font-weight:900;font-stretch:normal;font-size:112px;line-height:100%;font-family:'Nunito Sans';-inkscape-font-specification:'Nunito Sans Heavy';fill:none;fill-opacity:1;stroke:#35a864;stroke-width:3.54333282;stroke-miterlimit:4;stroke-dasharray:none;stroke-opacity:1"
     id="path2551" /><path
     d="m 173.00056,187.01588 q 12.992,0 19.152,6.048 6.272,5.936 6.272,18.592 v 31.808 h -18.704 v -7.728 q -1.568,4.032 -5.264,6.384 -3.696,2.24 -8.848,2.24 -5.712,0 -10.304,-2.24 -4.592,-2.352 -7.28,-6.384 -2.576,-4.144 -2.576,-9.296 0,-5.936 3.024,-9.408 3.136,-3.584 9.856,-5.152 6.72,-1.568 18.144,-1.568 h 3.024 v -1.344 q 0,-4.144 -1.904,-5.712 -1.904,-1.68 -6.72,-1.68 -3.808,0 -8.848,1.568 -4.928,1.456 -9.296,3.808 l -5.04,-13.104 q 4.816,-2.912 11.984,-4.816 7.28,-2.016 13.328,-2.016 z m -2.688,44.016 q 4.032,0 6.608,-2.8 2.576,-2.912 2.576,-7.392 v -1.344 h -1.792 q -7.168,0 -10.192,1.344 -3.024,1.232 -3.024,4.256 0,2.576 1.568,4.256 1.68,1.68 4.256,1.68 z"
     style="font-style:normal;font-variant:normal;font-weight:900;font-stretch:normal;font-size:112px;line-height:100%;font-family:'Nunito Sans';-inkscape-font-specification:'Nunito Sans Heavy';fill:none;fill-opacity:1;stroke:#35a864;stroke-width:3.54333282;stroke-miterlimit:4;stroke-dasharray:none;stroke-opacity:1"
     id="path2553" /><path
     d="m 246.77881,187.01588 q 9.856,0 14.672,5.936 4.816,5.824 4.816,17.808 v 32.704 h -19.936 v -31.808 q 0,-4.928 -1.792,-7.168 -1.68,-2.24 -5.152,-2.24 -4.48,0 -7.168,2.912 -2.576,2.8 -2.576,7.616 v 30.688 h -19.936 v -55.104 h 19.376 v 7.392 q 2.912,-4.256 7.504,-6.496 4.592,-2.24 10.192,-2.24 z"
     style="font-style:normal;font-variant:normal;font-weight:900;font-stretch:normal;font-size:112px;line-height:100%;font-family:'Nunito Sans';-inkscape-font-specification:'Nunito Sans Heavy';fill:none;fill-opacity:1;stroke:#35a864;stroke-width:3.54333282;stroke-miterlimit:4;stroke-dasharray:none;stroke-opacity:1"
     id="path2555" /><path
     d="m 335.87131,164.50388 v 78.96 h -19.6 v -7.504 q -2.352,3.92 -6.944,6.16 -4.48,2.24 -9.968,2.24 -7.056,0 -12.656,-3.584 -5.488,-3.696 -8.624,-10.304 -3.136,-6.608 -3.136,-15.12 0,-8.512 3.024,-14.896 3.136,-6.496 8.624,-9.968 5.6,-3.472 12.768,-3.472 5.264,0 9.632,2.128 4.48,2.128 6.944,5.712 v -30.352 z m -30.464,64.96 q 5.264,0 8.064,-3.584 2.8,-3.584 2.8,-10.304 0,-6.608 -2.8,-10.08 -2.8,-3.584 -8.064,-3.584 -5.152,0 -7.952,3.472 -2.8,3.472 -2.8,9.968 0,6.72 2.8,10.416 2.912,3.696 7.952,3.696 z"
     style="font-style:normal;font-variant:normal;font-weight:900;font-stretch:normal;font-size:112px;line-height:100%;font-family:'Nunito Sans';-inkscape-font-specification:'Nunito Sans Heavy';fill:none;fill-opacity:1;stroke:#35a864;stroke-width:3.54333282;stroke-miterlimit:4;stroke-dasharray:none;stroke-opacity:1"
     id="path2557" /><path
     d="m 149.14456,276.50388 h 32.144 q 13.104,0 22.512,4.704 9.52,4.704 14.56,13.664 5.04,8.848 5.04,21.056 0,12.32 -5.04,21.28 -4.928,8.848 -14.448,13.552 -9.408,4.704 -22.624,4.704 h -32.144 z m 30.688,62.384 q 11.648,0 17.36,-5.712 5.712,-5.712 5.712,-17.248 0,-11.536 -5.712,-17.136 -5.712,-5.712 -17.36,-5.712 h -10.08 v 45.808 z"
     style="font-style:normal;font-variant:normal;font-weight:900;font-stretch:normal;font-size:112px;line-height:100%;font-family:'Nunito Sans';-inkscape-font-specification:'Nunito Sans Heavy';fill:none;fill-opacity:1;stroke:#35a864;stroke-width:3.54333282;stroke-miterlimit:4;stroke-dasharray:none;stroke-opacity:1"
     id="path2559" /><path
     d="m 293.50731,355.46388 -7.056,-16.352 h -34.944 l -7.056,16.352 h -20.72 l 36.848,-78.96 h 16.352 l 36.96,78.96 z m -35.392,-31.808 h 21.728 l -10.864,-25.312 z"
     style="font-style:normal;font-variant:normal;font-weight:900;font-stretch:normal;font-size:112px;line-height:100%;font-family:'Nunito Sans';-inkscape-font-specification:'Nunito Sans Heavy';fill:none;fill-opacity:1;stroke:#35a864;stroke-width:3.54333282;stroke-miterlimit:4;stroke-dasharray:none;stroke-opacity:1"
     id="path2561" /><path
     d="m 326.20256,355.46388 v -62.272 h -23.632 v -16.688 h 68.096 v 16.688 h -23.632 v 62.272 z"
     style="font-style:normal;font-variant:normal;font-weight:900;font-stretch:normal;font-size:112px;line-height:100%;font-family:'Nunito Sans';-inkscape-font-specification:'Nunito Sans Heavy';fill:none;fill-opacity:1;stroke:#35a864;stroke-width:3.54333282;stroke-miterlimit:4;stroke-dasharray:none;stroke-opacity:1"
     id="path2563" /><path
     d="m 429.13231,355.46388 -7.056,-16.352 h -34.944 l -7.056,16.352 h -20.72 l 36.848,-78.96 h 16.352 l 36.96,78.96 z m -35.392,-31.808 h 21.728 l -10.864,-25.312 z"
     style="font-style:normal;font-variant:normal;font-weight:900;font-stretch:normal;font-size:112px;line-height:100%;font-family:'Nunito Sans';-inkscape-font-specification:'Nunito Sans Heavy';fill:none;fill-opacity:1;stroke:#35a864;stroke-width:3.54333282;stroke-miterlimit:4;stroke-dasharray:none;stroke-opacity:1"
     id="path2565" /><path
     d="m 514.79831,356.47188 q -8.848,0 -17.472,-2.352 -8.624,-2.352 -14,-6.272 l 6.384,-14.56 q 5.712,3.584 12.208,5.488 6.496,1.904 13.104,1.904 6.72,0 10.192,-1.792 3.584,-1.904 3.584,-5.264 0,-3.024 -3.248,-4.928 -3.136,-1.904 -12.096,-3.808 -11.088,-2.352 -17.36,-5.6 -6.272,-3.248 -8.848,-7.616 -2.464,-4.368 -2.464,-10.752 0,-7.28 4.032,-12.992 4.144,-5.824 11.536,-9.072 7.504,-3.36 17.136,-3.36 8.512,0 16.464,2.464 8.064,2.352 12.544,6.16 l -6.272,14.56 q -10.752,-7.392 -22.624,-7.392 -5.712,0 -9.184,2.24 -3.472,2.128 -3.472,5.712 0,2.128 1.232,3.472 1.232,1.344 4.592,2.688 3.36,1.232 9.968,2.576 10.752,2.352 16.912,5.712 6.16,3.248 8.736,7.616 2.576,4.368 2.576,10.416 0,11.648 -8.96,18.256 -8.96,6.496 -25.2,6.496 z"
     style="font-style:normal;font-variant:normal;font-weight:900;font-stretch:normal;font-size:112px;line-height:100%;font-family:'Nunito Sans';-inkscape-font-specification:'Nunito Sans Heavy';fill:none;fill-opacity:1;stroke:#35a864;stroke-width:3.54333282;stroke-miterlimit:4;stroke-dasharray:none;stroke-opacity:1"
     id="path2567" /><path
     d="m 598.91731,356.47188 q -12.32,0 -21.504,-5.04 -9.072,-5.04 -14,-14.224 -4.816,-9.184 -4.816,-21.28 0,-12.096 4.816,-21.168 4.928,-9.184 14,-14.224 9.184,-5.04 21.504,-5.04 7.728,0 14.896,2.352 7.28,2.352 11.872,6.272 l -6.384,14.56 q -9.744,-6.832 -19.936,-6.832 -9.632,0 -14.784,6.048 -5.04,6.048 -5.04,18.032 0,11.984 5.04,18.144 5.152,6.048 14.784,6.048 10.192,0 19.936,-6.832 l 6.384,14.56 q -4.592,3.92 -11.872,6.272 -7.168,2.352 -14.896,2.352 z"
     style="font-style:normal;font-variant:normal;font-weight:900;font-stretch:normal;font-size:112px;line-height:100%;font-family:'Nunito Sans';-inkscape-font-specification:'Nunito Sans Heavy';fill:none;fill-opacity:1;stroke:#35a864;stroke-width:3.54333282;stroke-miterlimit:4;stroke-dasharray:none;stroke-opacity:1"
     id="path2569" /><path
     d="m 636.51956,355.46388 v -78.96 h 20.608 v 78.96 z"
     style="font-style:normal;font-variant:normal;font-weight:900;font-stretch:normal;font-size:112px;line-height:100%;font-family:'Nunito Sans';-inkscape-font-specification:'Nunito Sans Heavy';fill:none;fill-opacity:1;stroke:#35a864;stroke-width:3.54333282;stroke-miterlimit:4;stroke-dasharray:none;stroke-opacity:1"
     id="path2571" /><path
     d="m 671.51956,355.46388 v -78.96 h 56.112 v 15.904 h -36.064 v 15.008 h 33.824 v 15.792 h -33.824 v 16.352 h 36.064 v 15.904 z"
     style="font-style:normal;font-variant:normal;font-weight:900;font-stretch:normal;font-size:112px;line-height:100%;font-family:'Nunito Sans';-inkscape-font-specification:'Nunito Sans Heavy';fill:none;fill-opacity:1;stroke:#35a864;stroke-width:3.54333282;stroke-miterlimit:4;stroke-dasharray:none;stroke-opacity:1"
     id="path2573" /><path
     d="m 789.64106,276.50388 h 19.264 v 78.96 h -15.232 l -36.064,-45.136 v 45.136 h -19.152 v -78.96 h 15.008 l 36.176,45.136 z"
     style="font-style:normal;font-variant:normal;font-weight:900;font-stretch:normal;font-size:112px;line-height:100%;font-family:'Nunito Sans';-inkscape-font-specification:'Nunito Sans Heavy';fill:none;fill-opacity:1;stroke:#35a864;stroke-width:3.54333282;stroke-miterlimit:4;stroke-dasharray:none;stroke-opacity:1"
     id="path2575" /><path
     d="m 861.63606,356.47188 q -12.32,0 -21.504,-5.04 -9.072,-5.04 -14,-14.224 -4.816,-9.184 -4.816,-21.28 0,-12.096 4.816,-21.168 4.928,-9.184 14,-14.224 9.184,-5.04 21.504,-5.04 7.728,0 14.896,2.352 7.28,2.352 11.872,6.272 l -6.384,14.56 q -9.744,-6.832 -19.936,-6.832 -9.632,0 -14.784,6.048 -5.04,6.048 -5.04,18.032 0,11.984 5.04,18.144 5.152,6.048 14.784,6.048 10.192,0 19.936,-6.832 l 6.384,14.56 q -4.592,3.92 -11.872,6.272 -7.168,2.352 -14.896,2.352 z"
     style="font-style:normal;font-variant:normal;font-weight:900;font-stretch:normal;font-size:112px;line-height:100%;font-family:'Nunito Sans';-inkscape-font-specification:'Nunito Sans Heavy';fill:none;fill-opacity:1;stroke:#35a864;stroke-width:3.54333282;stroke-miterlimit:4;stroke-dasharray:none;stroke-opacity:1"
     id="path2577" /><path
     d="m 899.23831,355.46388 v -78.96 h 56.112 v 15.904 h -36.064 v 15.008 h 33.824 v 15.792 h -33.824 v 16.352 h 36.064 v 15.904 z"
     style="font-style:normal;font-variant:normal;font-weight:900;font-stretch:normal;font-size:112px;line-height:100%;font-family:'Nunito Sans';-inkscape-font-specification:'Nunito Sans Heavy';fill:none;fill-opacity:1;stroke:#35a864;stroke-width:3.54333282;stroke-miterlimit:4;stroke-dasharray:none;stroke-opacity:1"
     id="path2579" /></g></svg>