<?xml version="1.0" encoding="utf-8"?>
<!-- Generator: Adobe Illustrator 21.1.0, SVG Export Plug-In . SVG Version: 6.00 Build 0)  -->
<svg version="1.1" id="Слой_1" xmlns="http://www.w3.org/2000/svg" xmlns:xlink="http://www.w3.org/1999/xlink" x="0px" y="0px"
	 viewBox="0 0 442.2 151.1" style="enable-background:new 0 0 442.2 151.1;" xml:space="preserve">
<style type="text/css">
	.st0{fill:none;stroke:#FF8400;stroke-width:2;stroke-linejoin:round;stroke-miterlimit:10;}
	.st1{fill:none;stroke:#FF8400;stroke-width:3;stroke-linecap:round;stroke-linejoin:round;stroke-miterlimit:10;}
</style>
<polygon class="st0" points="16.2,43.8 16.2,26.6 33.6,26.6 33.6,18 16.2,18 16.2,10.2 34.8,10.2 34.8,1.5 5.3,1.5 5.3,43.8 "/>
<path class="st0" d="M57.1,13.2l5.8,13.6H51.3L57.1,13.2z M81.2,43.8L61.4,1.5h-8.8L32.9,43.8H44l3.8-8.8h18.7l3.8,8.8H81.2z"/>
<path class="st0" d="M103.3,19.7h-7.7V9.9h7.7c2.4,0,4.2,0.4,5.3,1.2c1.1,0.8,1.6,2.1,1.6,3.8c0,1.7-0.5,3-1.6,3.7
	C107.5,19.3,105.8,19.7,103.3,19.7z M116.2,31.8c-1.4-2.6-3.4-4.2-5.8-4.7c3.2-0.8,5.7-2.3,7.4-4.5c1.8-2.2,2.6-4.9,2.6-8.1
	c0-4.2-1.3-7.4-3.9-9.6s-6.4-3.3-11.5-3.3H84.9v42.3h10.9V28h3.4c2,0,3.5,0.8,4.4,2.3l7.3,13.5h12.1L116.2,31.8z"/>
<polygon class="st0" points="150.1,25.6 137.3,1.5 128.6,1.5 128.6,43.8 138.2,43.8 138.3,22 146.4,36.8 153.5,36.8 161.6,21.6 
	161.6,43.8 171.2,43.8 171.2,1.5 162.7,1.5 "/>
<rect x="180.2" y="1.5" class="st0" width="11" height="42.3"/>
<polygon class="st0" points="227.6,25.7 208.2,1.5 200.2,1.5 200.2,43.8 210.4,43.8 210.4,19.7 229.7,43.8 237.9,43.8 237.9,1.5 
	227.6,1.5 "/>
<path class="st0" d="M266.9,20v7.6h7.4v7.9c-1.9,0.4-3.8,0.6-5.7,0.6c-4,0-7-1.1-8.9-3.3c-1.9-2.2-2.9-5.5-2.9-10
	c0-4.4,0.9-7.7,2.8-9.8c1.9-2.1,4.7-3.2,8.5-3.2c2,0,4,0.3,5.8,0.8c1.8,0.6,3.7,1.5,5.6,2.8l3.4-7.8c-1.7-1.4-3.9-2.5-6.6-3.3
	c-2.7-0.8-5.6-1.2-8.7-1.2c-4.4,0-8.3,0.9-11.6,2.6c-3.3,1.8-5.9,4.3-7.6,7.6c-1.8,3.3-2.7,7.1-2.7,11.5c0,4.5,0.9,8.3,2.7,11.6
	c1.8,3.3,4.4,5.8,7.8,7.5c3.4,1.7,7.4,2.6,12,2.6c2.9,0,5.8-0.3,8.6-0.8c2.8-0.6,5.3-1.4,7.5-2.4V20H266.9z"/>
<path class="st0" d="M25.9,109.4c2.8,0,5.4-0.4,8-1.3c2.6-0.8,4.7-2,6.3-3.4L36.8,97c-3.5,2.4-7,3.7-10.7,3.7
	c-3.4,0-6.1-1.1-7.9-3.3c-1.8-2.2-2.7-5.4-2.7-9.7c0-4.3,0.9-7.5,2.7-9.7c1.8-2.2,4.4-3.2,7.9-3.2c3.6,0,7.2,1.2,10.7,3.7l3.4-7.8
	c-1.6-1.4-3.8-2.5-6.3-3.4c-2.6-0.8-5.3-1.3-8-1.3c-4.4,0-8.2,0.9-11.5,2.7c-3.3,1.8-5.8,4.3-7.5,7.6c-1.7,3.3-2.6,7.1-2.6,11.4
	c0,4.3,0.9,8.1,2.6,11.4s4.2,5.8,7.5,7.6C17.6,108.5,21.5,109.4,25.9,109.4z"/>
<path class="st0" d="M66.4,100.9c-3.2,0-5.7-1.1-7.5-3.4c-1.8-2.2-2.7-5.5-2.7-9.9c0-4.4,0.9-7.7,2.7-9.9c1.8-2.2,4.3-3.3,7.5-3.3
	c3.2,0,5.6,1.1,7.5,3.4c1.8,2.2,2.7,5.5,2.7,9.8c0,4.3-0.9,7.6-2.7,9.9C72.1,99.8,69.6,100.9,66.4,100.9z M66.4,109.4
	c4.3,0,8-0.9,11.2-2.7c3.2-1.8,5.6-4.3,7.4-7.6c1.7-3.3,2.6-7.1,2.6-11.5c0-4.4-0.8-8.2-2.5-11.5c-1.7-3.3-4.1-5.8-7.3-7.5
	c-3.2-1.8-6.9-2.6-11.3-2.6c-4.3,0-8.1,0.9-11.3,2.6c-3.2,1.8-5.6,4.3-7.4,7.5c-1.7,3.3-2.6,7.1-2.6,11.5c0,4.4,0.9,8.2,2.6,11.5
	c1.7,3.3,4.2,5.8,7.4,7.6C58.3,108.5,62,109.4,66.4,109.4z"/>
<polygon class="st0" points="116.8,90.6 104,66.5 95.3,66.5 95.3,108.8 104.9,108.8 105,87 113.1,101.8 120.2,101.8 128.3,86.6 
	128.3,108.8 137.9,108.8 137.9,66.5 129.4,66.5 "/>
<polygon class="st0" points="168.5,90.6 155.8,66.5 147.1,66.5 147.1,108.8 156.7,108.8 156.7,87 164.8,101.8 171.9,101.8 
	180.1,86.6 180.1,108.8 189.7,108.8 189.7,66.5 181.1,66.5 "/>
<path class="st0" d="M217.1,109.4c6.1,0,10.7-1.6,13.9-4.7c3.2-3.1,4.8-7.7,4.8-13.7V66.5h-10.9v24.9c0,3-0.7,5.4-2,7
	c-1.4,1.6-3.3,2.5-5.9,2.5c-2.6,0-4.5-0.8-5.9-2.5c-1.4-1.6-2-4-2-7V66.5h-10.8V91c0,6,1.6,10.6,4.8,13.7
	C206.4,107.8,211,109.4,217.1,109.4z"/>
<polygon class="st0" points="272,90.7 252.6,66.5 244.6,66.5 244.6,108.8 254.8,108.8 254.8,84.7 274.1,108.8 282.3,108.8 
	282.3,66.5 272,66.5 "/>
<rect x="291.2" y="66.5" class="st0" width="11" height="42.3"/>
<polygon class="st0" points="331.8,108.8 331.8,75.5 344.5,75.5 344.5,66.5 308,66.5 308,75.5 320.6,75.5 320.6,108.8 "/>
<rect x="350.2" y="66.5" class="st0" width="11" height="42.3"/>
<polygon class="st0" points="400.2,108.8 400.2,100.3 380.9,100.3 380.9,91.6 399,91.6 399,83.1 380.9,83.1 380.9,75.1 400.2,75.1 
	400.2,66.5 370.1,66.5 370.1,108.8 "/>
<path class="st0" d="M421.9,109.4c5.8,0,10.3-1.2,13.5-3.5c3.2-2.3,4.8-5.6,4.8-9.8c0-2.2-0.5-4-1.4-5.6c-0.9-1.6-2.5-2.9-4.7-4.1
	c-2.2-1.2-5.2-2.2-9.1-3c-2.4-0.5-4.1-0.9-5.3-1.4c-1.2-0.5-2-0.9-2.5-1.4c-0.4-0.5-0.7-1.1-0.7-1.9c0-1.3,0.6-2.3,1.9-3.1
	c1.2-0.8,2.9-1.2,4.9-1.2c4.2,0,8.3,1.3,12.1,4l3.4-7.8c-1.6-1.4-3.8-2.5-6.7-3.3c-2.9-0.9-5.8-1.3-8.9-1.3c-3.4,0-6.5,0.6-9.1,1.8
	c-2.7,1.2-4.7,2.8-6.2,4.9c-1.5,2.1-2.2,4.4-2.2,7c0,2.3,0.5,4.2,1.4,5.8c0.9,1.6,2.5,2.9,4.7,4.1c2.2,1.2,5.3,2.2,9.3,3
	c3.2,0.7,5.4,1.4,6.5,2c1.1,0.7,1.7,1.6,1.7,2.6c0,1.2-0.6,2.1-1.9,2.8c-1.3,0.7-3.1,1-5.5,1c-2.4,0-4.7-0.3-7-1
	c-2.3-0.7-4.5-1.7-6.5-2.9l-3.4,7.8c1.9,1.4,4.4,2.5,7.5,3.4C415.6,109,418.7,109.4,421.9,109.4z"/>
<path class="st1" d="M1.5,137.6c20,0,20,12,39.9,12c20,0,20-12,39.9-12c20,0,20,12,39.9,12c20,0,20-12,39.9-12c20,0,20,12,39.9,12
	c20,0,20-12,39.9-12c20,0,20,12,39.9,12s20-12,39.9-12c20,0,20,12,39.9,12c20,0,20-12,39.9-12c20,0,20,12,39.9,12"/>
</svg>
