<?xml version="1.0" encoding="utf-8"?>
<!-- Generator: Adobe Illustrator 22.0.1, SVG Export Plug-In . SVG Version: 6.00 Build 0)  -->
<svg version="1.1" id="Capa_1" xmlns="http://www.w3.org/2000/svg" xmlns:xlink="http://www.w3.org/1999/xlink" x="0px" y="0px"
	 viewBox="0 0 22 22" style="enable-background:new 0 0 22 22;" xml:space="preserve">
<style type="text/css">
	.st0{fill:#006A39;}
</style>
<g transform="translate(0,-952.36218)">
	<path class="st0" d="M3,957.7c-0.3,0-0.6,0-0.8,0.1l8.3,6.7c0.3,0.2,0.6,0.2,0.9,0l8.3-6.7c-0.2-0.1-0.4-0.1-0.7-0.1H3z M1.7,958.5
		c0,0.2-0.1,0.3-0.1,0.5v8.7c0,0.2,0,0.4,0.1,0.6l5.8-5L1.7,958.5z M20.3,958.5l-5.9,4.8l5.8,5c0.1-0.2,0.1-0.4,0.1-0.6V959
		C20.3,958.8,20.3,958.7,20.3,958.5z M8.3,963.9l-5.9,5c0.2,0.1,0.4,0.1,0.7,0.1H19c0.2,0,0.5,0,0.6-0.1l-5.9-5
		c-0.6,0.5-1.2,1-1.8,1.4c-0.6,0.3-1.2,0.3-1.8,0C9.5,964.9,8.9,964.4,8.3,963.9z"/>
</g>
</svg>
