<?xml version="1.0" encoding="utf-8"?>
<!-- Generator: Adobe Illustrator 22.0.1, SVG Export Plug-In . SVG Version: 6.00 Build 0)  -->
<svg version="1.1" id="Capa_1" xmlns="http://www.w3.org/2000/svg" xmlns:xlink="http://www.w3.org/1999/xlink" x="0px" y="0px"
	 viewBox="0 0 22 22" style="enable-background:new 0 0 22 22;" xml:space="preserve">
<style type="text/css">
	.st0{fill:#006A39;}
</style>
<g>
	<g>
		<path class="st0" d="M17.3,8.1c0-0.1,0-0.3,0-0.4c0.6-0.5,1.2-1.1,1.6-1.8c-0.6,0.3-1.2,0.4-1.9,0.5c0.7-0.4,1.2-1.1,1.4-1.9
			c-0.6,0.4-1.3,0.7-2.1,0.8c-0.6-0.7-1.4-1.1-2.4-1.1c-1.8,0-3.3,1.5-3.3,3.4c0,0.3,0,0.5,0.1,0.8C8.2,8.2,5.8,6.8,4.2,4.7
			C3.9,5.2,3.7,5.8,3.7,6.4c0,1.2,0.6,2.3,1.5,2.9c-0.5,0-1-0.2-1.5-0.5c0,0,0,0,0,0c0,1.7,1.1,3.1,2.6,3.4
			c-0.3,0.1-0.6,0.1-0.9,0.1c-0.2,0-0.4,0-0.6-0.1c0.4,1.4,1.6,2.4,3,2.4c-1.1,0.9-2.5,1.5-4.1,1.5c-0.3,0-0.5,0-0.8,0
			c1.4,1,3.2,1.6,5,1.6C14,17.8,17.3,12.6,17.3,8.1z"/>
	</g>
</g>
</svg>
