<?xml version="1.0" encoding="utf-8"?>
<!-- Generator: Adobe Illustrator 22.0.1, SVG Export Plug-In . SVG Version: 6.00 Build 0)  -->
<svg version="1.1" id="Capa_1" xmlns="http://www.w3.org/2000/svg" xmlns:xlink="http://www.w3.org/1999/xlink" x="0px" y="0px"
	 viewBox="0 0 110.9 74.2" style="enable-background:new 0 0 110.9 74.2;" xml:space="preserve">
<style type="text/css">
	.st0{fill:#034EA2;}
	.st1{fill:#FFF200;}
</style>
<g>
	<path class="st0" d="M109.1,0H1.9C0.8,0,0,0.8,0,1.9v70.5c0,1,0.8,1.9,1.9,1.9h107.2c1,0,1.9-0.8,1.9-1.9V1.9
		C110.9,0.8,110.1,0,109.1,0z"/>
	<polygon class="st1" points="56.6,10.6 60.6,10.6 57.5,13 58.6,16.8 55.5,14.4 52.4,16.8 53.7,13 50.6,10.6 54.4,10.6 55.5,6.8 	
		"/>
	<polygon class="st1" points="56.8,60 60.7,60 57.6,62.4 58.8,66 55.7,63.8 52.6,66 53.9,62.4 50.7,60 54.5,60 55.7,56.4 	"/>
	<polygon class="st1" points="69,56.7 72.9,56.7 69.8,59.1 71,62.8 67.9,60.5 64.8,62.8 66,59.1 62.9,56.7 66.8,56.7 67.9,53.1 	"/>
	<polygon class="st1" points="69,13.9 72.9,13.9 69.8,16.2 71,19.9 67.9,17.6 64.8,19.9 66,16.2 62.9,13.9 66.8,13.9 67.9,10.3 	"/>
	<polygon class="st1" points="78.1,23 82,23 78.9,25.3 80.1,29 77,26.7 73.9,29 75.1,25.3 72,23 75.8,23 77,19.4 	"/>
	<polygon class="st1" points="78.1,47.8 82,47.8 78.9,50.1 80.1,53.9 77,51.6 73.9,53.9 75.1,50.1 72,47.8 75.8,47.8 77,44.2 	"/>
	<polygon class="st1" points="81.5,35.2 85.4,35.2 82.3,37.6 83.5,41.3 80.4,38.9 77.3,41.3 78.5,37.6 75.4,35.2 79.2,35.2 
		80.4,31.6 	"/>
	<polygon class="st1" points="44.3,13.9 48.1,13.9 45,16.2 46.2,19.9 43.1,17.6 40,19.9 41.2,16.2 38.1,13.9 41.9,13.9 43.1,10.3 	
		"/>
	<polygon class="st1" points="35.4,23 39.2,23 36.1,25.3 37.3,29 34.3,26.7 31.2,29 32.4,25.3 29.2,23 33.1,23 34.3,19.4 	"/>
	<polygon class="st1" points="32.1,35.2 36,35.2 32.9,37.6 34,41.3 31,39 27.9,41.3 29.1,37.6 26,35.2 29.8,35.2 31,31.7 	"/>
	<polygon class="st1" points="35.4,47.9 39.2,47.9 36.1,50.1 37.3,53.9 34.3,51.6 31.2,53.9 32.4,50.1 29.2,47.9 33.1,47.9 
		34.3,44.3 	"/>
	<polygon class="st1" points="44.4,56.7 48.2,56.7 45.1,59.1 46.3,62.8 43.2,60.6 40.1,62.8 41.4,59.1 38.2,56.7 42,56.7 43.2,53.1 
			"/>
</g>
</svg>
