<?xml version="1.0" encoding="utf-8"?>
<!-- Generator: Adobe Illustrator 22.0.1, SVG Export Plug-In . SVG Version: 6.00 Build 0)  -->
<svg version="1.1" id="Capa_1" xmlns="http://www.w3.org/2000/svg" xmlns:xlink="http://www.w3.org/1999/xlink" x="0px" y="0px"
	 viewBox="0 0 26.4 26.7" style="enable-background:new 0 0 26.4 26.7;" xml:space="preserve">
<style type="text/css">
	.st0{fill:#FFFFFF;}
	.st1{fill:#00AA5B;}
</style>
<path class="st0" d="M264.2,130.2c-3.1,0.2-5.6,0.4-8.4-2c-2.8-2.4-3-4.9-3.3-8c-0.2-2.5-0.5-5.4-2.3-8.2h5c1.3,0,2.3-1,2.3-2.3
	V96.1c0-1.3-1-2.3-2.3-2.3h-0.9l12-24.1c11.1-6.8,18.5-19.1,18.5-33c0-21.4-17.4-38.8-38.8-38.8s-38.8,17.4-38.8,38.8
	c0,14,7.4,26.2,18.5,33l12,24.1H237c-1.3,0-2.3,1-2.3,2.3v13.7c0,1.3,1,2.3,2.3,2.3h7.2c0.1,0.2,0.3,0.4,0.5,0.6
	c2.8,2.4,3,4.9,3.3,8c0.3,3.3,0.6,7.4,4.9,11c4.2,3.6,8.4,3.3,11.7,3.1c3.1-0.2,5.6-0.4,8.4,2c0.4,0.4,1,0.5,1.5,0.5
	c0.6,0,1.3-0.3,1.7-0.8c0.8-1,0.7-2.4-0.3-3.2C271.7,129.7,267.6,130,264.2,130.2z M280.3,36.7c0,15.4-10.2,28.4-24.2,32.7
	c5.1-6.8,8.5-18.8,8.5-32.7c0-13.9-3.3-25.9-8.5-32.7C270.1,8.3,280.3,21.4,280.3,36.7z M246.1,2.5c6.6,0,14,14.1,14,34.2
	c0,20.2-7.4,34.2-14,34.2s-14-14.1-14-34.2C232.1,16.6,239.5,2.5,246.1,2.5z M211.9,36.7c0-15.4,10.2-28.4,24.2-32.7
	c-5.1,6.8-8.5,18.8-8.5,32.7c0,13.9,3.3,25.9,8.5,32.7C222.1,65.2,211.9,52.1,211.9,36.7z M232.6,73.1c4.2,1.6,8.8,2.5,13.5,2.5
	s9.3-0.9,13.5-2.5l-10.4,20.7h-6.3L232.6,73.1z M239.3,98.4H253v9.1h-13.7V98.4z"/>
<path class="st1" d="M20,21.9l-8.6-8.5L20,4.8C21,3.9,21,2.4,20,1.4c-1-0.9-2.5-0.9-3.4,0L6.3,11.6c-0.9,0.9-0.9,2.5,0,3.4
	l10.3,10.2c1,0.9,2.5,0.9,3.4,0C21,24.3,21,22.8,20,21.9z"/>
</svg>
