<?xml version="1.0" encoding="UTF-8" standalone="no"?>
<!-- Generator: Adobe Illustrator 22.0.1, SVG Export Plug-In . SVG Version: 6.00 Build 0)  -->

<svg
   xmlns:dc="http://purl.org/dc/elements/1.1/"
   xmlns:cc="http://creativecommons.org/ns#"
   xmlns:rdf="http://www.w3.org/1999/02/22-rdf-syntax-ns#"
   xmlns:svg="http://www.w3.org/2000/svg"
   xmlns="http://www.w3.org/2000/svg"
   xmlns:sodipodi="http://sodipodi.sourceforge.net/DTD/sodipodi-0.dtd"
   xmlns:inkscape="http://www.inkscape.org/namespaces/inkscape"
   version="1.1"
   id="Capa_1"
   x="0px"
   y="0px"
   viewBox="0 0 189.8 78"
   style="enable-background:new 0 0 189.8 78;"
   xml:space="preserve"
   sodipodi:docname="romi_logo_icon_black.svg"
   inkscape:version="0.92.3 (2405546, 2018-03-11)"><metadata
   id="metadata73"><rdf:RDF><cc:Work
       rdf:about=""><dc:format>image/svg+xml</dc:format><dc:type
         rdf:resource="http://purl.org/dc/dcmitype/StillImage" /><dc:title></dc:title></cc:Work></rdf:RDF></metadata><defs
   id="defs71" /><sodipodi:namedview
   pagecolor="#ffffff"
   bordercolor="#666666"
   borderopacity="1"
   objecttolerance="10"
   gridtolerance="10"
   guidetolerance="10"
   inkscape:pageopacity="0"
   inkscape:pageshadow="2"
   inkscape:window-width="1920"
   inkscape:window-height="1025"
   id="namedview69"
   showgrid="false"
   inkscape:zoom="5.0965335"
   inkscape:cx="94.900002"
   inkscape:cy="39"
   inkscape:window-x="0"
   inkscape:window-y="27"
   inkscape:window-maximized="1"
   inkscape:current-layer="Capa_1" />
<style
   type="text/css"
   id="style2">
	.st0{fill:#FFFFFF;}
</style>
<g
   id="g66">
	<g
   id="g8"
   style="stroke:none;stroke-opacity:1;fill:#000016;fill-opacity:1">
		<path
   class="st0"
   d="M61,70.7H43.6c-5.6,0-10.1-4.5-10.1-10.1V45.2l6.2-2.5c5.5-1.9,9.1-7,9.1-12.8v-3.1c0-0.8-0.4-1.5-1-1.9    c-0.6-0.4-1.4-0.5-2.1-0.3L36.6,28c-4.7,1.7-7.7,6.3-7.7,11.6l-0.1,4c0,0,0,0,0,0c0,0,0,0,0,0v17c0,5.6-4.5,10.1-10.1,10.1    c0,0-0.1,0-0.1,0H7.3C6,70.7,5,71.7,5,73s1,2.3,2.3,2.3h11.4c0,0,0.1,0,0.1,0c5.2,0,9.7-2.7,12.3-6.8c2.6,4.1,7.2,6.8,12.4,6.8    c0,0,0,0,0,0H61c1.3,0,2.3-1,2.3-2.3S62.2,70.7,61,70.7z M33.6,39.6c0-3.4,1.8-6.2,4.6-7.2l6-2.2c-0.1,3.7-2.5,7-6,8.2    c0,0-0.1,0-0.1,0l-4.5,1.8L33.6,39.6z"
   id="path4"
   style="stroke:none;stroke-opacity:1;fill:#000016;fill-opacity:1" />
		<path
   class="st0"
   d="M34.1,2.6C18.1,2.6,5,15.7,5,31.8v29.6c0,1.3,1,2.3,2.3,2.3c1.3,0,2.3-1,2.3-2.3V31.8    c0-13.5,11-24.5,24.5-24.5c13.5,0,24.5,11,24.5,24.5v29.6c0,1.3,1,2.3,2.3,2.3c1.3,0,2.3-1,2.3-2.3V31.8    C63.3,15.7,50.2,2.6,34.1,2.6z"
   id="path6"
   style="stroke:none;stroke-opacity:1;fill:#000016;fill-opacity:1" />
	</g>
	<g
   id="g64">
		<g
   id="g52">
			<path
   class="st0"
   d="M91.1,57.9h-1.6l-1.6-3.1c-0.2-0.3-0.4-0.6-0.6-0.7c-0.3-0.1-0.6-0.2-1-0.2h-1.6v4h-1.4v-9.6h4.1     c1.1,0,1.9,0.2,2.4,0.7c0.6,0.5,0.8,1.2,0.8,2.1c0,0.7-0.2,1.3-0.6,1.8c-0.4,0.5-1,0.8-1.8,0.9c0.5,0.1,0.9,0.5,1.2,1.1     L91.1,57.9z M87.3,52.8c0.7,0,1.2-0.1,1.6-0.4c0.3-0.3,0.5-0.7,0.5-1.3c0-0.6-0.2-1-0.5-1.3c-0.3-0.3-0.9-0.4-1.6-0.4h-2.5v3.4     H87.3z"
   id="path10"
   style="fill:#000000;fill-opacity:1" />
			<path
   class="st0"
   d="M94.8,57.4c-0.7-0.4-1.2-1-1.5-1.7c-0.4-0.7-0.5-1.6-0.5-2.6c0-1,0.2-1.9,0.5-2.6c0.4-0.7,0.9-1.3,1.5-1.7     c0.7-0.4,1.5-0.6,2.4-0.6c0.9,0,1.7,0.2,2.4,0.6c0.7,0.4,1.2,1,1.5,1.7c0.4,0.7,0.5,1.6,0.5,2.6c0,1-0.2,1.9-0.5,2.6     s-0.9,1.3-1.5,1.7C98.8,57.8,98,58,97.1,58C96.2,58,95.4,57.8,94.8,57.4z M99.4,55.9c0.5-0.7,0.8-1.6,0.8-2.8     c0-1.2-0.3-2.1-0.8-2.8c-0.5-0.7-1.3-1-2.3-1c-1,0-1.7,0.3-2.2,1c-0.5,0.7-0.8,1.6-0.8,2.8c0,1.2,0.3,2.1,0.8,2.8     c0.5,0.7,1.3,1,2.2,1C98.1,56.9,98.8,56.5,99.4,55.9z"
   id="path12"
   style="fill:#000000;fill-opacity:1" />
			<path
   class="st0"
   d="M110.8,53.8c0.3,0.4,0.5,0.9,0.5,1.5c0,0.8-0.3,1.5-0.9,1.9c-0.6,0.5-1.4,0.7-2.4,0.7h-4.2v-9.6h4     c1,0,1.8,0.2,2.3,0.7c0.6,0.4,0.8,1.1,0.8,1.9c0,0.5-0.1,1-0.4,1.3c-0.3,0.4-0.6,0.7-1.1,0.8C110,53.1,110.5,53.4,110.8,53.8z      M105.2,52.4h2.4c1.3,0,2-0.5,2-1.5c0-0.5-0.2-0.9-0.5-1.1c-0.3-0.2-0.8-0.4-1.5-0.4h-2.4V52.4z M109.4,56.4     c0.3-0.3,0.5-0.7,0.5-1.2c0-0.5-0.2-1-0.5-1.2c-0.3-0.3-0.8-0.4-1.5-0.4h-2.6v3.2h2.6C108.6,56.8,109.1,56.6,109.4,56.4z"
   id="path14"
   style="fill:#000000;fill-opacity:1" />
			<path
   class="st0"
   d="M115.2,57.4c-0.7-0.4-1.2-1-1.5-1.7c-0.4-0.7-0.5-1.6-0.5-2.6c0-1,0.2-1.9,0.5-2.6c0.4-0.7,0.9-1.3,1.5-1.7     c0.7-0.4,1.5-0.6,2.4-0.6c0.9,0,1.7,0.2,2.4,0.6c0.7,0.4,1.2,1,1.5,1.7c0.4,0.7,0.5,1.6,0.5,2.6c0,1-0.2,1.9-0.5,2.6     s-0.9,1.3-1.5,1.7c-0.7,0.4-1.5,0.6-2.4,0.6C116.6,58,115.8,57.8,115.2,57.4z M119.8,55.9c0.5-0.7,0.8-1.6,0.8-2.8     c0-1.2-0.3-2.1-0.8-2.8c-0.5-0.7-1.3-1-2.3-1c-1,0-1.7,0.3-2.2,1c-0.5,0.7-0.8,1.6-0.8,2.8c0,1.2,0.3,2.1,0.8,2.8     c0.5,0.7,1.3,1,2.2,1C118.5,56.9,119.2,56.5,119.8,55.9z"
   id="path16"
   style="fill:#000000;fill-opacity:1" />
			<path
   class="st0"
   d="M125.9,57.9v-8.5h-3.2v-1.2h7.9v1.2h-3.3v8.5H125.9z"
   id="path18"
   style="fill:#000000;fill-opacity:1" />
			<path
   class="st0"
   d="M132.2,57.9v-9.6h1.4v9.6H132.2z"
   id="path20"
   style="fill:#000000;fill-opacity:1" />
			<path
   class="st0"
   d="M138,57.4c-0.7-0.4-1.2-1-1.6-1.7c-0.4-0.7-0.6-1.6-0.6-2.6c0-1,0.2-1.9,0.6-2.6c0.4-0.7,0.9-1.3,1.6-1.7     c0.7-0.4,1.5-0.6,2.4-0.6c0.7,0,1.3,0.1,1.8,0.3c0.6,0.2,1,0.5,1.4,0.9l-0.5,1c-0.4-0.4-0.9-0.6-1.3-0.8     c-0.4-0.2-0.9-0.2-1.4-0.2c-1,0-1.8,0.3-2.3,1c-0.5,0.6-0.8,1.6-0.8,2.8c0,1.2,0.3,2.1,0.8,2.8c0.5,0.7,1.3,1,2.3,1     c0.5,0,1-0.1,1.4-0.2c0.4-0.2,0.9-0.4,1.3-0.8l0.5,1c-0.4,0.4-0.9,0.7-1.4,0.9c-0.6,0.2-1.2,0.3-1.8,0.3     C139.5,58,138.7,57.8,138,57.4z"
   id="path22"
   style="fill:#000000;fill-opacity:1" />
			<path
   class="st0"
   d="M146.7,57.7c-0.6-0.2-1.2-0.5-1.6-0.9l0.5-1c0.5,0.4,1,0.7,1.5,0.8c0.5,0.2,1.1,0.3,1.7,0.3     c0.7,0,1.3-0.1,1.7-0.4c0.4-0.3,0.6-0.6,0.6-1.1c0-0.4-0.2-0.7-0.5-0.9c-0.4-0.2-0.9-0.4-1.7-0.6c-0.8-0.2-1.4-0.4-1.9-0.6     c-0.5-0.2-0.9-0.5-1.2-0.9c-0.3-0.4-0.4-0.8-0.4-1.4c0-0.6,0.1-1.1,0.4-1.5c0.3-0.4,0.7-0.8,1.3-1c0.5-0.2,1.2-0.4,1.9-0.4     c0.7,0,1.3,0.1,1.9,0.3c0.6,0.2,1.1,0.5,1.5,0.9l-0.5,1c-0.4-0.4-0.9-0.6-1.4-0.8c-0.5-0.2-1-0.3-1.5-0.3c-0.7,0-1.2,0.1-1.6,0.4     c-0.4,0.3-0.6,0.7-0.6,1.2c0,0.4,0.2,0.8,0.5,1c0.3,0.2,0.9,0.4,1.7,0.6c0.8,0.2,1.4,0.4,1.9,0.6c0.5,0.2,0.9,0.5,1.2,0.8     c0.3,0.3,0.4,0.8,0.4,1.3c0,0.6-0.1,1-0.4,1.5c-0.3,0.4-0.7,0.7-1.3,1c-0.5,0.2-1.2,0.3-2,0.3C148,58,147.3,57.9,146.7,57.7z"
   id="path24"
   style="fill:#000000;fill-opacity:1" />
			<path
   class="st0"
   d="M158.4,57.9v-9.6h6.1v1.1h-4.7v3h4.4v1.1h-4.4v4.3H158.4z"
   id="path26"
   style="fill:#000000;fill-opacity:1" />
			<path
   class="st0"
   d="M168,57.4c-0.7-0.4-1.2-1-1.5-1.7c-0.4-0.7-0.5-1.6-0.5-2.6c0-1,0.2-1.9,0.5-2.6c0.4-0.7,0.9-1.3,1.5-1.7     c0.7-0.4,1.5-0.6,2.4-0.6c0.9,0,1.7,0.2,2.4,0.6c0.7,0.4,1.2,1,1.5,1.7c0.4,0.7,0.5,1.6,0.5,2.6c0,1-0.2,1.9-0.5,2.6     s-0.9,1.3-1.5,1.7c-0.7,0.4-1.5,0.6-2.4,0.6C169.4,58,168.6,57.8,168,57.4z M172.6,55.9c0.5-0.7,0.8-1.6,0.8-2.8     c0-1.2-0.3-2.1-0.8-2.8c-0.5-0.7-1.3-1-2.3-1c-1,0-1.7,0.3-2.2,1c-0.5,0.7-0.8,1.6-0.8,2.8c0,1.2,0.3,2.1,0.8,2.8     c0.5,0.7,1.3,1,2.2,1C171.3,56.9,172,56.5,172.6,55.9z"
   id="path28"
   style="fill:#000000;fill-opacity:1" />
			<path
   class="st0"
   d="M184.8,57.9h-1.6l-1.6-3.1c-0.2-0.3-0.4-0.6-0.6-0.7c-0.3-0.1-0.6-0.2-1-0.2h-1.6v4H177v-9.6h4.1     c1.1,0,1.9,0.2,2.4,0.7c0.6,0.5,0.8,1.2,0.8,2.1c0,0.7-0.2,1.3-0.6,1.8c-0.4,0.5-1,0.8-1.8,0.9c0.5,0.1,0.9,0.5,1.2,1.1     L184.8,57.9z M181,52.8c0.7,0,1.2-0.1,1.6-0.4c0.3-0.3,0.5-0.7,0.5-1.3c0-0.6-0.2-1-0.5-1.3c-0.3-0.3-0.9-0.4-1.6-0.4h-2.5v3.4     H181z"
   id="path30"
   style="fill:#000000;fill-opacity:1" />
			<path
   class="st0"
   d="M91.4,61.9h1.1v9.6h-1.3l0-7L88.4,70h-1l-2.9-5.4l0,6.9h-1.3v-9.6h1.1l3.5,6.7L91.4,61.9z"
   id="path32"
   style="fill:#000000;fill-opacity:1" />
			<path
   class="st0"
   d="M95.1,71.6v-9.6h1.4v9.6H95.1z"
   id="path34"
   style="fill:#000000;fill-opacity:1" />
			<path
   class="st0"
   d="M100.9,71.1c-0.7-0.4-1.2-1-1.6-1.7c-0.4-0.7-0.6-1.6-0.6-2.6c0-1,0.2-1.9,0.6-2.6c0.4-0.7,0.9-1.3,1.6-1.7     c0.7-0.4,1.5-0.6,2.4-0.6c0.7,0,1.3,0.1,1.8,0.3c0.6,0.2,1,0.5,1.4,0.9l-0.5,1c-0.4-0.4-0.9-0.6-1.3-0.8     c-0.4-0.2-0.9-0.2-1.4-0.2c-1,0-1.8,0.3-2.3,1c-0.5,0.6-0.8,1.6-0.8,2.8c0,1.2,0.3,2.1,0.8,2.8c0.5,0.7,1.3,1,2.3,1     c0.5,0,1-0.1,1.4-0.2c0.4-0.2,0.9-0.4,1.3-0.8l0.5,1c-0.4,0.4-0.9,0.7-1.4,0.9c-0.6,0.2-1.2,0.3-1.8,0.3     C102.4,71.7,101.6,71.5,100.9,71.1z"
   id="path36"
   style="fill:#000000;fill-opacity:1" />
			<path
   class="st0"
   d="M116.4,71.6h-1.6l-1.6-3.1c-0.2-0.3-0.4-0.6-0.6-0.7c-0.3-0.1-0.6-0.2-1-0.2H110v4h-1.4v-9.6h4.1     c1.1,0,1.9,0.2,2.4,0.7c0.6,0.5,0.8,1.2,0.8,2.1c0,0.7-0.2,1.3-0.6,1.8c-0.4,0.5-1,0.8-1.8,0.9c0.5,0.1,0.9,0.5,1.2,1.1     L116.4,71.6z M112.6,66.4c0.7,0,1.2-0.1,1.6-0.4c0.3-0.3,0.5-0.7,0.5-1.3c0-0.6-0.2-1-0.5-1.3c-0.3-0.3-0.9-0.4-1.6-0.4H110v3.4     H112.6z"
   id="path38"
   style="fill:#000000;fill-opacity:1" />
			<path
   class="st0"
   d="M120.1,71.1c-0.7-0.4-1.2-1-1.5-1.7c-0.4-0.7-0.5-1.6-0.5-2.6c0-1,0.2-1.9,0.5-2.6c0.4-0.7,0.9-1.3,1.5-1.7     c0.7-0.4,1.5-0.6,2.4-0.6c0.9,0,1.7,0.2,2.4,0.6c0.7,0.4,1.2,1,1.5,1.7c0.4,0.7,0.5,1.6,0.5,2.6c0,1-0.2,1.9-0.5,2.6     c-0.4,0.7-0.9,1.3-1.5,1.7c-0.7,0.4-1.5,0.6-2.4,0.6C121.5,71.7,120.8,71.5,120.1,71.1z M124.7,69.5c0.5-0.7,0.8-1.6,0.8-2.8     c0-1.2-0.3-2.1-0.8-2.8c-0.5-0.7-1.3-1-2.3-1c-1,0-1.7,0.3-2.2,1c-0.5,0.7-0.8,1.6-0.8,2.8c0,1.2,0.3,2.1,0.8,2.8     c0.5,0.7,1.3,1,2.2,1C123.4,70.5,124.2,70.2,124.7,69.5z"
   id="path40"
   style="fill:#000000;fill-opacity:1" />
			<path
   class="st0"
   d="M129.2,71.6v-9.6h6.1v1.1h-4.7v3h4.4v1.1h-4.4v4.3H129.2z"
   id="path42"
   style="fill:#000000;fill-opacity:1" />
			<path
   class="st0"
   d="M143.7,71.6l-1-2.4h-4.9l-1,2.4h-1.4l4.3-9.6h1.2l4.3,9.6H143.7z M138.3,68.1h3.9l-1.9-4.6L138.3,68.1z"
   id="path44"
   style="fill:#000000;fill-opacity:1" />
			<path
   class="st0"
   d="M154.4,71.6h-1.6l-1.6-3.1c-0.2-0.3-0.4-0.6-0.6-0.7c-0.3-0.1-0.6-0.2-1-0.2H148v4h-1.4v-9.6h4.1     c1.1,0,1.9,0.2,2.4,0.7c0.6,0.5,0.8,1.2,0.8,2.1c0,0.7-0.2,1.3-0.6,1.8c-0.4,0.5-1,0.8-1.8,0.9c0.5,0.1,0.9,0.5,1.2,1.1     L154.4,71.6z M150.6,66.4c0.7,0,1.2-0.1,1.6-0.4c0.3-0.3,0.5-0.7,0.5-1.3c0-0.6-0.2-1-0.5-1.3c-0.3-0.3-0.9-0.4-1.6-0.4H148v3.4     H150.6z"
   id="path46"
   style="fill:#000000;fill-opacity:1" />
			<path
   class="st0"
   d="M164.5,61.9h1.1v9.6h-1.3l0-7l-2.9,5.4h-1l-2.9-5.4l0,6.9h-1.3v-9.6h1.1l3.5,6.7L164.5,61.9z"
   id="path48"
   style="fill:#000000;fill-opacity:1" />
			<path
   class="st0"
   d="M169.3,71.4c-0.6-0.2-1.2-0.5-1.6-0.9l0.5-1c0.5,0.4,1,0.7,1.5,0.8c0.5,0.2,1.1,0.3,1.7,0.3     c0.7,0,1.3-0.1,1.7-0.4c0.4-0.3,0.6-0.6,0.6-1.1c0-0.4-0.2-0.7-0.5-0.9c-0.4-0.2-0.9-0.4-1.7-0.6c-0.8-0.2-1.4-0.4-1.9-0.6     c-0.5-0.2-0.9-0.5-1.2-0.9c-0.3-0.4-0.4-0.8-0.4-1.4c0-0.6,0.1-1.1,0.4-1.5c0.3-0.4,0.7-0.8,1.3-1c0.5-0.2,1.2-0.4,1.9-0.4     c0.7,0,1.3,0.1,1.9,0.3c0.6,0.2,1.1,0.5,1.5,0.9l-0.5,1c-0.4-0.4-0.9-0.6-1.4-0.8c-0.5-0.2-1-0.3-1.5-0.3c-0.7,0-1.2,0.1-1.6,0.4     c-0.4,0.3-0.6,0.7-0.6,1.2c0,0.4,0.2,0.8,0.5,1c0.3,0.2,0.9,0.4,1.7,0.6c0.8,0.2,1.4,0.4,1.9,0.6c0.5,0.2,0.9,0.5,1.2,0.8     c0.3,0.3,0.4,0.8,0.4,1.3c0,0.6-0.1,1-0.4,1.5c-0.3,0.4-0.7,0.7-1.3,1c-0.5,0.2-1.2,0.3-2,0.3C170.6,71.7,169.9,71.6,169.3,71.4z     "
   id="path50"
   style="fill:#000000;fill-opacity:1" />
		</g>
		<g
   id="g62">
			<path
   class="st0"
   d="M90.7,24.2h-3.4v11.7c0,1-0.8,1.9-1.9,1.9h-0.2c-1,0-1.9-0.8-1.9-1.9V8.2c0-0.8,0.7-1.5,1.5-1.5h7.7     c6.1,0,9.9,3.5,9.9,8.7c0,4.4-2.8,7.6-7.3,8.5l8.3,10.8c1,1.2,0.1,3.1-1.5,3.1l0,0c-0.6,0-1.1-0.3-1.5-0.7L90.7,24.2z M92.3,20.6     c4.1,0,6.1-1.9,6.1-5.1c0-3.2-2-5.2-6.1-5.2h-5v10.3H92.3z"
   id="path54"
   style="fill:#000000;fill-opacity:1" />
			<path
   class="st0"
   d="M106.2,22.2c0-9,7-15.9,15.8-15.9c8.8,0,15.8,6.9,15.8,15.9s-7,15.9-15.8,15.9     C113.1,38.1,106.2,31.2,106.2,22.2z M133.8,22.2c0-6.8-5-12.1-11.8-12.1c-6.8,0-11.8,5.2-11.8,12.1s5,12.1,11.8,12.1     C128.7,34.3,133.8,29,133.8,22.2z"
   id="path56"
   style="fill:#000000;fill-opacity:1" />
			<path
   class="st0"
   d="M145.9,7.2l12.4,14.7l12.4-14.7c0.9-1.1,2.7-0.4,2.7,1.1v27.3c0,1.2-0.9,2.1-2,2.1h0c-1.1,0-2-1-2-2.1v-21     l-10,12c-0.6,0.7-1.7,0.7-2.3,0l-10-12v21c0,1.2-0.9,2.1-2,2.1h0c-1.1,0-2-1-2-2.1V8.3C143.2,6.8,144.9,6.1,145.9,7.2z"
   id="path58"
   style="fill:#000000;fill-opacity:1" />
			<path
   class="st0"
   d="M182.9,6.7L182.9,6.7c1.1,0,2,0.9,2,2v27.1c0,1.1-0.9,2-2,2h0c-1.1,0-2-0.9-2-2V8.7     C180.9,7.6,181.8,6.7,182.9,6.7z"
   id="path60"
   style="fill:#000000;fill-opacity:1" />
		</g>
	</g>
</g>
</svg>